<?xml version="1.0" encoding="UTF-8"?>
<svg width="60px" height="58px" viewBox="0 0 60 58" version="1.1" xmlns="http://www.w3.org/2000/svg" xmlns:xlink="http://www.w3.org/1999/xlink">
    <!-- Generator: Sketch 61.1 (89650) - https://sketch.com -->
    <title>np_sleeping_1951213_000000</title>
    <desc>Created with Sketch.</desc>
    <g id="Page-1" stroke="none" stroke-width="1" fill="none" fill-rule="evenodd">
        <g id="Verma-Farms---Homepage---R3" transform="translate(-211.000000, -2616.000000)" fill="#443636" fill-rule="nonzero">
            <g id="np_sleeping_1951213_000000" transform="translate(211.000000, 2616.000000)">
                <path d="M59.3452804,37.1313299 C59.7068212,36.4586709 60.0542865,35.438044 59.7021274,34.3386195 C59.3499742,33.2391356 58.5588346,32.5433183 57.9836123,32.1582377 C57.8967489,31.5551723 57.6784157,30.6691009 57.1431662,29.9268483 C56.4388479,28.9549725 55.3683369,28.4910349 54.8706442,28.3171103 C53.9315731,27.616602 53.0488764,27.3823471 52.278808,27.649083 C50.2222274,28.3495913 50.3748227,30.6273566 50.496947,32.4598297 C50.6425045,34.6633698 50.6401546,36.0411687 49.3489063,36.5514822 C48.839458,36.7532799 48.1539271,36.5793167 47.4707641,36.069018 C46.3227234,35.2154276 45.9823139,33.5732086 46.6819444,32.2417856 C48.6023373,28.6163271 50.9876079,24.09304 50.9876079,19.7600663 C50.9876079,14.3764193 48.7150859,9.35012243 44.5923084,5.61095086 L44.5923084,5.61327025 C40.6083031,2.00408195 35.4035355,0 29.9992941,0 C24.5950527,0 19.3903451,2.00408195 15.4086838,5.61327025 C11.2838028,9.35701409 9.01338433,14.3813515 9.01338433,19.7623857 C9.01338433,24.0953 11.3962509,28.6159744 13.3142998,32.2482616 C14.0186182,33.5750529 13.6758407,35.2172719 12.5254801,36.075494 C11.8446611,36.5811521 11.1591542,36.7574163 10.647338,36.5579582 C9.78573649,36.2169852 9.27866815,35.7716455 9.49929727,32.4663057 C9.61667965,30.6362078 9.77162488,28.3583831 7.71743619,27.655559 C6.94502393,27.391133 6.05998325,27.6230857 5.12560001,28.3235863 C4.62554541,28.4952307 3.55499236,28.9591326 2.85307804,29.9333243 C2.31781053,30.6755769 2.09947726,31.5570166 2.01263196,32.1647137 C1.43745168,32.5497587 0.643962159,33.2502432 0.294116863,34.3450955 C-0.0556863635,35.4399477 0.294116863,36.465147 0.650963873,37.1378059 C0.228384892,37.8058332 -0.205949757,38.8473027 0.106302647,40.0140643 C0.390373902,41.0764356 1.12284333,41.7629895 1.74031638,42.1665968 L1.73562072,42.1642774 C1.60415077,43.2915512 1.99621069,44.4165686 2.79909994,45.2237238 C3.46351151,45.9196004 4.3814272,46.3232077 5.34868543,46.3463659 C5.63745054,47.1999564 6.31594367,47.8726154 7.17988907,48.1579373 C7.58838649,48.304066 8.01799122,48.380613 8.45233789,48.3829348 C6.72913495,49.3710808 5.18905837,50.3777534 5.18905837,52.4374746 C5.18905837,53.9358748 6.02012877,55.1745459 7.53670603,55.9306934 C7.69400118,56.0072404 7.85599019,56.0791439 8.02502299,56.1487316 L8.02502299,56.1440928 C8.70818593,57.3015318 9.96657123,58.0113034 11.3235214,57.9998638 C12.3659053,58.004363 13.3801021,57.6633888 14.2041407,57.0301642 C15.199526,57.4384031 16.2912525,57.5636598 17.3547317,57.3873718 C18.5403353,57.2018087 19.6249098,56.6265926 20.4395727,55.7544161 C21.341081,56.0513172 22.7449697,56.218324 24.3367327,55.3461772 C25.6819633,54.6085563 26.339283,53.6482596 26.6562533,52.970969 C26.686773,52.9060189 26.7125976,52.8410748 26.7407667,52.7807682 L26.7360711,52.7830876 C27.778455,52.7970052 28.7996835,52.4838648 29.6472215,51.8854371 C29.7716476,51.7972931 29.88903,51.6998739 29.9993746,51.5931736 C30.1097132,51.6998739 30.2271016,51.7972931 30.3515278,51.8854371 C31.2014096,52.4815549 32.2226382,52.7946668 33.2650221,52.7807718 C33.2908461,52.8410783 33.3166707,52.9060284 33.3495355,52.9709725 C33.6641258,53.6459473 34.3214816,54.606244 35.6690561,55.3461808 C37.260759,56.2183572 38.6647078,56.0513207 39.5662161,55.7544197 L39.563868,55.7520997 C40.3738431,56.626592 41.4607615,57.2041239 42.6440211,57.3920029 C43.7075003,57.565969 44.7991667,57.440713 45.7946121,57.0301518 C46.6209946,57.6633823 47.6375353,58.0043434 48.6822632,57.9973959 C50.0392134,58.0089935 51.2975987,57.2992035 51.9807616,56.1417645 C52.1497944,56.0744986 52.3117834,56.0025892 52.4690786,55.9237263 C53.980968,55.1698946 54.8167262,53.9289077 54.8167262,52.4305076 C54.8167262,50.370727 53.2766497,49.3663702 51.5534467,48.3759677 L51.5510992,48.3782871 C51.9877657,48.3782871 52.4173885,48.3017401 52.8258919,48.1556113 C53.6874934,47.8679914 54.3636246,47.1976305 54.6500638,46.3463558 C55.617322,46.3208408 56.5328938,45.914923 57.1949614,45.219082 C57.9978447,44.4118675 58.3899407,43.2869095 58.2584407,42.1596357 C58.8735097,41.7537185 59.6060152,41.0694745 59.8924544,40.0071032 C60.2070447,38.8404009 59.7727221,37.7988721 59.3454432,37.1308448 L59.3452804,37.1313299 Z M52.4595604,52.4401408 C52.4595604,52.8576549 52.3421781,53.3958058 51.403113,53.8619998 C50.5438554,54.2911168 49.2526552,54.518448 47.670328,54.518448 C47.2195739,54.518448 46.7547562,54.4998917 46.2758149,54.4627791 C46.2429478,54.4535009 46.210077,54.4465422 46.177214,54.439584 L46.1795615,54.439584 C46.0880043,54.4256665 45.9987911,54.4210277 45.9072339,54.4303058 C44.0619667,54.2470644 42.2448266,53.8643412 40.484121,53.2867618 C40.38552,53.2287729 40.2775253,53.1870209 40.1648368,53.1615052 C40.1343171,53.1545464 40.1037987,53.1522271 40.0709297,53.1475877 C38.2373821,52.516673 36.49074,51.6909318 35.0375087,50.7027858 C34.9788169,50.6355199 34.9107326,50.5728916 34.8356069,50.5218603 C34.7651751,50.4685107 34.6853555,50.426757 34.6008421,50.3942879 C32.5395736,48.886565 31.1685599,47.0309336 31.1685599,44.9642649 L31.170908,44.9642649 C31.170908,44.3217711 30.6450282,43.8045101 29.9970842,43.8045101 C29.3491402,43.8045101 28.8232604,44.3217652 28.8232604,44.9642649 C28.8232604,47.0610988 27.4146237,48.9353162 25.3017288,50.4615656 L25.3017288,50.4592462 C25.2594703,50.4824413 25.2172154,50.505637 25.1773026,50.5311497 C25.1303497,50.5636236 25.0880894,50.6007374 25.0458327,50.6401659 C23.5620703,51.6654245 21.7590538,52.5190149 19.871536,53.1638246 L19.8339731,53.168464 L19.8339731,53.1707834 C19.7353722,53.1916591 19.6414651,53.2241329 19.5522518,53.2728461 C17.8008617,53.8480918 15.9884696,54.2354586 14.1525781,54.4233376 C14.0422395,54.4071006 13.9318949,54.4071006 13.8215563,54.4233376 C13.7605182,54.4349351 13.701824,54.4488526 13.6407858,54.467409 C13.1900317,54.4998822 12.7509972,54.518448 12.3237424,54.518448 C10.7437591,54.518448 9.45255888,54.2864876 8.5909574,53.8619903 C7.65188632,53.3980825 7.53450995,52.8553177 7.53450995,52.4401313 C7.53450995,51.6607661 8.20126544,51.2061513 9.96671907,50.2017945 C12.2932714,48.8750031 15.4837692,47.0564843 17.5423933,42.3897346 L17.5423933,42.3850952 C17.8029833,41.7982525 17.5306545,41.1140025 16.9367,40.8588457 C16.3427455,40.603689 15.6501876,40.8704433 15.3895916,41.4572795 C14.5678969,43.3221742 13.5396366,44.6489655 12.455002,45.6556382 C11.9197345,45.6324425 9.40303602,45.4468811 7.12107827,44.1061711 C7.11168756,44.1015323 7.10699191,44.0922535 7.09994932,44.0876148 L7.09994932,44.0899341 C7.02482364,44.0319458 6.94265417,43.980918 6.85344091,43.9438054 C5.7359313,43.2502446 4.81801561,42.2830004 4.18647904,41.1371406 C4.17943586,41.1185843 4.17239328,41.100028 4.1653501,41.0814716 C4.13717796,41.0165216 4.10196205,40.9538992 4.05970535,40.8959085 C3.90006627,40.5688542 3.76155254,40.230197 3.64651407,39.8846042 C2.46325446,36.2893109 4.29445809,32.9935313 4.8860879,32.0677939 C5.81812722,30.6111381 6.69613614,30.0080133 7.0201382,29.8850963 C7.30185952,30.1564816 7.21734012,31.439195 7.156302,32.3066805 C7.08587017,33.3829467 7.0037007,34.6030318 7.2572529,35.711779 C7.59062463,37.1707507 8.43810849,38.1774233 9.77630731,38.7063228 C11.0675075,39.2143026 12.5841449,38.9313203 13.9364072,37.9246418 C15.990644,36.3960765 16.6174326,33.494344 15.3943263,31.1772689 C13.5959977,27.7698546 11.3610386,23.527317 11.3610386,19.762612 C11.3610386,15.0354131 13.361245,10.6168726 16.9954651,7.3183022 L16.9931175,7.3183022 C20.5427762,4.10339847 25.1818174,2.31736064 29.9994774,2.31736064 C34.8145531,2.31736064 39.4532938,4.10339847 43.0010292,7.3183022 C46.6399371,10.6166945 48.6354557,15.037729 48.6354557,19.762612 C48.6354557,23.5295735 46.3980925,27.7652823 44.6021679,31.1772689 C43.3790015,33.4967786 44.0058563,36.3962546 46.060087,37.9246418 C47.4123494,38.9313144 48.9289266,39.2143204 50.2201869,38.7063228 C51.5583858,38.1774708 52.4058636,37.17081 52.7392414,35.7140948 C52.9927875,34.6053476 52.912968,33.3852625 52.8401923,32.3089963 C52.7815005,31.4415109 52.6969847,30.1564638 52.9763561,29.8874121 C53.3003341,30.0033876 54.1830549,30.6111381 55.1104064,32.0677939 C55.6973243,32.9956096 57.5331797,36.2940019 56.3499802,39.8846042 C56.2302479,40.2464553 56.0823464,40.5990075 55.9109637,40.9399686 C55.8851391,40.98172 55.8593151,41.0281126 55.8381879,41.0721846 L55.8147109,41.1324911 C55.1972979,42.2714035 54.2934458,43.234016 53.1899997,43.9252016 C53.0913987,43.9646342 53.0021855,44.0133456 52.9176661,44.0759739 C52.8965371,44.0922102 52.8777557,44.1084471 52.8566279,44.1270034 C52.3612672,44.4146293 51.8424312,44.660499 51.3071757,44.8623085 C50.0981329,45.3122977 48.830372,45.5813434 47.5415157,45.6602597 C46.4568811,44.6489554 45.4286208,43.3244799 44.6069261,41.461901 L44.6069261,41.4595816 C44.34868,40.8727389 43.6561354,40.6036753 43.0621617,40.8588321 C42.4682,41.1162987 42.1958723,41.8005428 42.4564683,42.3873974 C44.5153929,47.0566411 47.7058907,48.8729034 50.0321425,50.1994572 C51.7952523,51.2014982 52.4620077,51.6537973 52.4620077,52.4354783 L52.4595604,52.4401408 Z" id="Shape"></path>
                <path d="M25.8873077,18 C25.2743722,18 24.7769057,18.5253353 24.7769057,19.172601 C24.7968936,19.5431472 24.6725287,19.9090226 24.430453,20.1787116 C24.188383,20.4484127 23.8530508,20.6031957 23.499935,20.6031957 C23.1468247,20.6031957 22.8114983,20.4484127 22.5694169,20.1787116 C22.3273355,19.9090106 22.2029802,19.5431532 22.2229642,19.172601 C22.2229642,18.5253353 21.7254977,18 21.1125622,18 C20.4996267,18 20.0021603,18.5253353 20.0021603,19.172601 C19.9688477,20.1740287 20.3219601,21.1496402 20.9815722,21.8719529 C21.6411843,22.5919242 22.5494727,23 23.5,23 C24.4505336,23 25.3588221,22.5919302 26.0184341,21.8719529 C26.6780462,21.1496402 27.0311052,20.1740287 26.9978461,19.172601 C26.9978461,18.8606875 26.8801427,18.5628588 26.673606,18.3424006 C26.4648463,18.1242959 26.1828027,18 25.8874384,18 L25.8873077,18 Z" id="Path"></path>
                <path d="M39.8888952,18 C39.2755717,18 38.7777904,18.5544628 38.7777904,19.2376166 C38.7400125,19.9900933 38.177779,20.5792112 37.5022187,20.5792112 C36.8244396,20.5792112 36.2622028,19.9900996 36.2222096,19.2376166 C36.2222096,18.5544628 35.7266526,18 35.1111048,18 C34.4977813,18 34,18.5544628 34,19.2376166 C34.0688872,21.3366305 35.6155422,23 37.5022187,23 C39.3866765,23 40.9333257,21.3366305 41,19.2376166 C41,18.9084089 40.8844465,18.5940669 40.6755547,18.3613852 C40.4666629,18.1311876 40.1844408,18 39.8888895,18 L39.8888952,18 Z" id="Path"></path>
                <path d="M30.0018858,23 C28.3819974,22.9977592 26.9236211,23.9740007 26.3043956,25.4686921 C25.6851701,26.9633835 26.0284293,28.684726 27.1726668,29.8270021 C28.3146816,30.9715762 30.0355438,31.314914 31.5297606,30.6955156 C33.0240349,30.0761173 34,28.6173339 34,26.999234 C33.995513,24.7908643 32.2073419,23.0022445 30.0018858,23 Z" id="Path"></path>
            </g>
        </g>
    </g>
</svg>