<?xml version="1.0" encoding="UTF-8"?>
<svg width="95px" height="95px" viewBox="0 0 95 95" version="1.1" xmlns="http://www.w3.org/2000/svg" xmlns:xlink="http://www.w3.org/1999/xlink">
    <!-- Generator: Sketch 61.1 (89650) - https://sketch.com -->
    <title>Group 16</title>
    <desc>Created with Sketch.</desc>
    <defs>
        <polygon id="path-1" points="0 0.108814969 69.8950975 0.108814969 69.8950975 70 0 70"></polygon>
    </defs>
    <g id="Page-1" stroke="none" stroke-width="1" fill="none" fill-rule="evenodd">
        <g id="Our-Story" transform="translate(-881.000000, -2657.000000)">
            <g id="Group-16" transform="translate(881.000000, 2657.000000)">
                <circle id="Oval" fill="#3C562C" cx="47.5" cy="47.5" r="47.5"></circle>
                <g id="Group-3" transform="translate(13.000000, 12.000000)">
                    <mask id="mask-2" fill="white">
                        <use xlink:href="#path-1"></use>
                    </mask>
                    <g id="Clip-2"></g>
                    <path d="M57.2832228,10.990585 C47.6932228,2.88091922 36.8217744,0.134735376 24.8771226,4.05239554 C11.6923593,8.37679666 4.178961,17.892312 2.52411421,31.6509192 C1.34951811,41.4181616 4.40553482,50.022117 10.927429,57.3463788 C26.3989889,41.8748189 41.7796852,26.4941226 57.2832228,10.990585 M12.7162312,59.0398329 C20.2189053,66.2722563 32.3534735,70.0085794 44.0951448,66.4120613 C57.2769833,62.3742897 65.134922,53.2951532 67.248766,39.6870752 C68.831078,29.5029526 65.8095738,20.4881616 58.9835014,12.7672981 C43.5150613,28.237493 28.133,43.6211142 12.7162312,59.0398329 M34.936844,70.0000651 C15.8851448,70.0744847 -0.132181058,54.0569638 0.000799442897,34.6938719 C0.12851532,16.1035097 15.9738635,0.247827298 34.5613008,0.109777159 C53.9080139,-0.0339275766 69.8978468,15.9387465 69.895117,34.9520334 C69.8921922,54.2176323 54.1909387,69.9764067 34.936844,70.0000651" id="Fill-1" fill="#FFFFFF" mask="url(#mask-2)"></path>
                </g>
                <path d="M45.1727508,54.1460075 C45.1727508,56.0449915 45.1733384,57.9437798 45.1727508,59.8425682 C45.1721632,61.278791 45.1400392,62.7157965 45.1762766,64.151041 C45.2201532,65.8985759 46.4343995,67.2189617 48.1598868,67.4719639 C49.6785271,67.6950285 51.2424152,66.7094352 51.7238828,65.1910307 C51.8429765,64.8161257 51.904678,64.4069783 51.906245,64.0134845 C51.9268122,58.9043272 51.9321009,53.7951699 51.9387607,48.685817 C51.9389566,48.5725236 51.9129049,48.4590346 51.8956676,48.3185431 C51.5944076,48.2985847 51.3176323,48.279996 50.8624124,48.249667 C51.6510163,47.4716804 52.2462888,46.5066325 53.0960066,46.1554036 C53.8998889,45.8227635 54.9874023,46.0381969 55.91743,46.2000166 C56.4325885,46.2896337 56.5806721,46.9116708 56.4506093,47.437438 C56.3277939,47.9340502 55.9826573,48.2510367 55.4432099,48.2760825 C55.0686916,48.2934972 54.6931939,48.2794089 54.2146645,48.2794089 L54.2146645,49.0642441 C54.2130975,54.0558033 54.210747,59.0473625 54.2105511,64.0389217 C54.2103552,67.1939159 51.6982228,69.7710945 48.6233336,69.7669903 C45.3889999,69.7626806 42.9101667,67.280011 42.9066409,64.0361823 C42.9038986,61.6110398 42.8941047,59.1857017 42.924074,56.7609505 C42.9277957,56.4504211 43.0844979,56.085691 43.287819,55.8448204 C43.8176684,55.2169131 44.4125492,54.643598 44.9815741,54.0485635 L45.1727508,54.1460075 Z" id="Fill-4" fill="#FFFFFF"></path>
                <path d="M50.3786408,49.4412413 C50.2504614,50.2290481 50.1146947,51.0152548 49.9953943,51.8052616 C49.5207756,54.9446885 49.5115738,58.1193158 49.5369191,61.2963431 C49.5385334,61.4887447 49.5470895,61.6823464 49.5349819,61.873748 C49.4930088,62.5455538 49.1063722,62.9843575 48.5786414,62.9705574 C48.0781931,62.9571573 47.6792874,62.5287536 47.6781574,61.8849481 C47.6729915,58.7599213 47.5544983,55.6274944 48.0018344,52.5262678 C48.0252425,52.3638664 48.0270183,52.1558646 48.1080586,52.0534637 C48.8220853,51.150856 49.552094,50.2676484 50.2772596,49.3786408 C50.3109995,49.399641 50.3449009,49.4204411 50.3786408,49.4412413" id="Fill-6" fill="#FFFFFF"></path>
                <path d="M63.9708738,35.7864078 C63.6833037,38.1546573 60.3141646,41.5601922 57.8543689,41.9029126 C59.8711512,39.8861273 61.9925733,37.7646061 63.9708738,35.7864078" id="Fill-8" fill="#FFFFFF"></path>
                <path d="M42.8752854,38.639707 C42.8976698,38.5628541 42.9297866,38.5143259 42.9202489,38.4766917 C42.2954319,36.0514674 39.6678918,34.3426786 37.2398649,34.774481 C36.2282843,34.9543327 35.2135894,35.1175461 34.2018142,35.2989823 C33.2743212,35.4651668 32.3491639,35.6456127 31.3116953,35.8409142 C32.6765602,37.3694552 33.9468266,38.7949975 35.2207914,40.2171724 C35.4097936,40.4279237 35.6044406,40.635902 35.8144648,40.8240728 C37.6739277,42.488889 40.3939252,42.5837667 42.3088626,40.9892669 C41.7946051,40.7418718 41.3221968,40.4994286 40.8381097,40.2843197 C39.5546072,39.7142613 38.2600099,39.1699525 36.9823469,38.5868211 C36.3793304,38.3116956 36.1482844,37.7654061 36.3407903,37.1816806 C36.529014,36.6104337 36.9527605,36.3511541 37.5275532,36.3931459 C37.7523705,36.409388 37.9746574,36.5228847 38.1885745,36.6147913 C39.7502275,37.2856697 41.3095448,37.9624903 42.8752854,38.639707 M48.3398058,43.057759 C47.8019961,43.5967198 47.3035051,44.0958675 46.7793207,44.6213592 C46.0233116,43.8956142 45.2659401,43.1682846 44.5064274,42.4387762 C43.913338,42.7980833 43.3971341,43.1197563 42.872755,43.4269699 C39.8946556,45.1724025 36.2263379,44.671274 33.8664374,42.129978 C31.9690182,40.0868394 30.119093,37.9967572 28.2931093,35.8872636 C28.0431825,35.5986691 27.8678055,35.0014744 27.9927689,34.6827725 C28.1317469,34.3280211 28.6222574,33.9633659 29.0131086,33.8875033 C31.6517436,33.3744904 34.3024467,32.9250593 36.9531498,32.4784013 C40.3115895,31.9123043 43.9816591,34.0675531 44.9387385,37.4710674 C45.5310493,39.5771937 46.3405863,41.3927447 48.0690518,42.72539 C48.1582002,42.7941219 48.2165943,42.9040532 48.3398058,43.057759" id="Fill-10" fill="#FFFFFF"></path>
                <path d="M49.7058385,40.5436893 C49.341148,39.0192535 49.043013,37.5824376 48.6506086,36.1662601 C47.2865361,31.2426608 50.5622417,26.6986225 55.545715,25.3976455 C58.2037354,24.7038161 60.7945704,23.8056655 63.419208,23.0090188 C64.6680157,22.6300206 65.3199235,23.0519844 65.3274819,24.220312 C65.3438583,26.6804231 65.3440683,26.6806107 63.3545421,28.3868531 C63.2514546,28.4752235 63.1372395,28.5536498 62.9071297,28.7287019 L62.9071297,27.0898162 L62.9071297,25.5237281 C62.6272607,25.5890208 62.4145771,25.6259825 62.2113414,25.6878981 C60.0416746,26.3505821 57.8648693,26.9967552 55.7059101,27.6870198 C52.1123337,28.8358346 50.1498916,32.0364931 50.964514,35.3654857 C51.1683795,36.1977808 51.3737148,37.0297006 51.5998355,37.9486774 C51.730427,37.7908866 51.8228068,37.6974504 51.8927216,37.592194 C53.5633273,35.0694168 55.2255348,32.5421368 56.9041188,30.0234874 C57.3557303,29.3459812 58.0664253,29.154043 58.68705,29.4921394 C59.3206918,29.8371779 59.4279784,30.4623373 58.9994618,31.1495998 C57.8631896,32.9725436 56.5299803,34.6455768 54.7884101,36.068321 C53.2423073,37.3313982 51.8102096,38.7059233 50.3260432,40.0296027 C50.153041,40.1838287 49.9678613,40.3271725 49.7058385,40.5436893" id="Fill-12" fill="#FFFFFF"></path>
                <path d="M44.2621359,46.7055895 C43.671034,47.3915055 43.1332504,47.9068694 42.7179945,48.5234985 C42.1536563,49.3614283 41.4151448,49.4455457 40.5904875,49.3449756 C39.9395854,49.265261 39.5007022,48.7186138 39.5048544,48.0032684 C39.5090658,47.2876912 39.9512945,46.7074434 40.6053331,46.6828802 C41.655391,46.6432546 42.7073308,46.6675861 43.7586434,46.6675861 C43.8767801,46.6675861 43.995335,46.684734 44.2621359,46.7055895" id="Fill-14" fill="#FFFFFF"></path>
                <circle id="Oval" stroke="#FFFFFF" stroke-width="2" cx="48" cy="47" r="39"></circle>
            </g>
        </g>
    </g>
</svg>