<?xml version="1.0" encoding="UTF-8"?>
<svg width="47px" height="47px" viewBox="0 0 47 47" version="1.1" xmlns="http://www.w3.org/2000/svg" xmlns:xlink="http://www.w3.org/1999/xlink">
    <!-- Generator: Sketch 61.1 (89650) - https://sketch.com -->
    <title>Group 6</title>
    <desc>Created with Sketch.</desc>
    <defs>
        <polygon id="path-1" points="3.59375e-05 0.0888072264 45.9652113 0.0888072264 45.9652113 46.4404762 3.59375e-05 46.4404762"></polygon>
    </defs>
    <g id="Page-1" stroke="none" stroke-width="1" fill="none" fill-rule="evenodd">
        <g id="Learn-Page" transform="translate(-173.000000, -1322.000000)">
            <g id="Group-4" transform="translate(150.000000, 1304.000000)">
                <g id="Group-6" transform="translate(23.000000, 18.000000)">
                    <g id="Group-3" transform="translate(0.500000, 0.000000)">
                        <mask id="mask-2" fill="white">
                            <use xlink:href="#path-1"></use>
                        </mask>
                        <g id="Clip-2"></g>
                        <path d="M44.3119724,23.2779221 C44.3236414,11.4007476 34.7930164,1.79779864 22.9897938,1.79399543 C11.2526063,1.79028488 1.70625859,11.3959497 1.69501805,23.2209804 C1.68370781,35.1067549 11.2092117,44.7272662 22.9958133,44.7345124 C34.7504305,44.74166 44.300282,35.1289341 44.3119724,23.2779221 L44.3119724,23.2779221 Z M3.59375e-05,21.9076112 C0.0888914062,21.222682 0.157532031,20.5344939 0.269657031,19.8534575 C1.52495391,12.2312446 5.52416875,6.54106412 12.2240867,2.81514381 C15.8967195,0.772668133 19.8859617,-0.125362128 24.0645047,0.131735246 C31.7952898,0.607365386 37.8697156,4.11955087 42.222825,10.5789413 C44.3110633,13.6775984 45.557825,17.1325706 45.8643719,20.8574046 C46.5818641,29.5752687 43.4693172,36.6513308 36.5656336,41.9621115 C33.2843602,44.4862827 29.5083172,45.8540588 25.4100945,46.3208173 C25.0855789,46.3577524 24.7616922,46.4003907 24.4375359,46.4404943 L21.5625359,46.4404943 C21.2386492,46.4003002 20.9151219,46.3574808 20.5908758,46.3202741 C16.87395,45.8941624 13.4186492,44.7067165 10.3207469,42.5846674 C4.71189141,38.7426006 1.34041484,33.4404199 0.269028125,26.676858 C0.161125781,25.9952783 0.0888015625,25.3079955 3.59375e-05,24.6234285 L3.59375e-05,21.9076112 Z" id="Fill-1" fill="#443636" mask="url(#mask-2)"></path>
                    </g>
                    <path d="M15.2449929,33.2152127 C15.3251358,32.4088572 15.3453066,31.6888812 15.4753362,30.9885529 C16.0247203,28.0284645 17.5909287,25.6428524 19.977116,23.8198571 C21.2489568,22.8481771 22.6735194,22.0662486 24.0475649,21.2279433 C25.2217034,20.5115074 26.3886381,19.794452 27.3607984,18.810824 C27.7489062,18.4181339 28.2499344,18.4111421 28.5996816,18.7534737 C28.936732,19.0834148 28.9264665,19.5980627 28.5428612,19.9736716 C28.1822181,20.3269776 27.8296794,20.7059496 27.410415,20.9804875 C26.0145778,21.8941977 24.600641,22.7825075 23.1740073,23.6493993 C21.8032035,24.4823059 20.4839073,25.36681 19.4398884,26.5982478 C17.6833182,28.670292 16.8054382,31.0205912 17.0218241,33.7407465 C17.0637865,34.2673424 17.2333473,34.5779012 17.7846224,34.7566783 C21.4816414,35.9551044 24.7410261,35.1088338 27.6189666,32.6871123 C29.6142547,31.0082007 30.7496725,28.7636632 31.5410161,26.3465438 C32.6722916,22.8909243 32.98674,19.341314 32.6843581,15.7364775 C32.5976417,14.7020485 32.409621,13.6757618 32.2585202,12.5769022 C32.073291,12.6867351 31.9765792,12.746121 31.8778864,12.8023207 C31.1531785,13.2154551 30.4496319,13.6713367 29.6989901,14.032431 C27.4277943,15.1249183 25.0123413,15.8185203 22.5677127,16.4146799 C19.991974,17.0428779 17.5927297,18.0086282 15.5451236,19.7269238 C11.6817856,22.9689844 11.1037662,28.2058255 14.2106093,32.1244069 C14.5074081,32.4986883 14.8698521,32.8226996 15.2449929,33.2152127 M34.5,17.4892011 C34.4185964,22.1591773 33.8080696,26.0485525 31.972347,29.6759573 C30.4926749,32.5996708 28.3502481,34.8851854 25.211618,36.1010466 C21.5290067,37.5276347 17.9467092,37.3398303 14.7342395,34.9338624 C10.0447093,31.4215121 8.85742373,24.6511706 13.1786569,19.7476336 C15.3688993,17.2621896 18.2158632,15.8535677 21.3945648,15.0258829 C23.7691359,14.4075088 26.1595554,13.8296694 28.3929309,12.8016127 C29.3632003,12.3549354 30.2719668,11.7730249 31.1833446,11.2126206 C31.4496172,11.0488006 31.6671736,10.7709881 31.8370045,10.502734 C32.0382623,10.1849179 32.2734682,9.96286258 32.6602252,10.0051673 C33.0490533,10.0477375 33.3311743,10.2669606 33.4254548,10.654783 C33.6653432,11.6416857 33.9669146,12.621331 34.1086505,13.6223942 C34.3209842,15.1228827 34.417786,16.6392133 34.5,17.4892011" id="Fill-4" fill="#443636"></path>
                </g>
            </g>
        </g>
    </g>
</svg>