<?xml version="1.0" encoding="UTF-8"?>
<svg width="95px" height="95px" viewBox="0 0 95 95" version="1.1" xmlns="http://www.w3.org/2000/svg" xmlns:xlink="http://www.w3.org/1999/xlink">
    <!-- Generator: Sketch 61.1 (89650) - https://sketch.com -->
    <title>Group 6</title>
    <desc>Created with Sketch.</desc>
    <defs>
        <polygon id="path-1" points="6.25e-05 0.154522394 79.9394979 0.154522394 79.9394979 80.8052885 6.25e-05 80.8052885"></polygon>
    </defs>
    <g id="Page-1" stroke="none" stroke-width="1" fill="none" fill-rule="evenodd">
        <g id="Our-Story" transform="translate(-465.000000, -2657.000000)">
            <g id="Group-6" transform="translate(465.000000, 2657.000000)">
                <g id="Group-3" transform="translate(7.011905, 7.000000)">
                    <mask id="mask-2" fill="white">
                        <use xlink:href="#path-1"></use>
                    </mask>
                    <g id="Clip-2"></g>
                </g>
                <circle id="Oval" fill="#3C562C" cx="47.5" cy="47.5" r="47.5"></circle>
                <path d="M32.3037377,64.4116666 C32.4439877,63.0080107 32.4792866,61.7547191 32.7068384,60.5356291 C33.6682606,55.3828827 36.4091252,51.2301505 40.584953,48.0567883 C42.8106744,46.3653453 45.3036589,45.0042105 47.7082386,43.5449384 C49.762981,42.2978092 51.8051166,41.0496016 53.5063973,39.3373602 C54.1855858,38.6537886 55.0623852,38.6416178 55.6744428,39.2375283 C56.264281,39.8118702 56.2463164,40.7077387 55.5750071,41.3615765 C54.9438817,41.9765906 54.326939,42.6362827 53.5932263,43.114182 C51.1505112,44.7047146 48.6761217,46.2510315 46.1795128,47.7600655 C43.7806061,49.2099399 41.4718378,50.7496321 39.6448048,52.8932462 C36.5708068,56.5001379 35.0345169,60.5913994 35.4131921,65.3264847 C35.4866264,66.2431516 35.7833578,66.783754 36.7480892,67.0949586 C43.2178724,69.1811076 48.9217957,67.7079699 53.9581916,63.4923806 C57.4499457,60.5698308 59.4369268,56.6626729 60.8217781,52.4550948 C62.8015104,46.4397571 63.3517949,40.2608059 62.8226267,33.9857187 C62.6708729,32.1850474 62.3418368,30.3985484 62.0774103,28.4857187 C61.7532593,28.6769093 61.5840137,28.7802846 61.4113012,28.8781138 C60.1430623,29.5972736 58.9118558,30.3908453 57.5982326,31.0194169 C53.62364,32.9211541 49.3965973,34.1285353 45.1184973,35.1662947 C40.6109544,36.2598244 36.4122769,37.9409453 32.8289663,40.9320525 C26.0681248,46.5756395 25.0565908,55.6916222 30.4935662,62.5128565 C31.0129642,63.1643833 31.6472412,63.7284031 32.3037377,64.4116666 M66,37.0367574 C65.8575437,45.1659752 64.7891218,51.9363692 61.5766072,58.2507406 C58.9871811,63.3401677 55.2379342,67.3186561 49.7453315,69.4351553 C43.3007618,71.9184752 37.031741,71.5915564 31.4099192,67.40339 C23.2032412,61.2892988 21.1254915,49.5038895 28.6876495,40.968103 C32.5205737,36.6415892 37.5027607,34.1895438 43.0654883,32.7487591 C47.2209877,31.6723302 51.404222,30.6664616 55.3126291,28.8768813 C57.0106005,28.0993321 58.6009418,27.0863766 60.1958531,26.1108582 C60.66183,25.82569 61.0425538,25.3420905 61.3397579,24.8751295 C61.6919589,24.3218941 62.1035693,23.9353534 62.7803941,24.0089949 C63.4608433,24.0830985 63.9545551,24.4647093 64.1195459,25.1398075 C64.5393506,26.8577491 65.0671006,28.5630577 65.3151384,30.3056492 C65.6867223,32.9176107 65.8561255,35.5571492 66,37.0367574" id="Fill-4" fill="#FFFFFF"></path>
                <circle id="Oval" stroke="#FFFFFF" stroke-width="2" cx="47" cy="48" r="34"></circle>
                <circle id="Oval" stroke="#FFFFFF" stroke-width="2" cx="47" cy="48" r="39"></circle>
            </g>
        </g>
    </g>
</svg>