<?xml version="1.0" encoding="UTF-8"?>
<svg width="48px" height="47px" viewBox="0 0 48 47" version="1.1" xmlns="http://www.w3.org/2000/svg" xmlns:xlink="http://www.w3.org/1999/xlink">
    <!-- Generator: Sketch 61.1 (89650) - https://sketch.com -->
    <title>Group 8</title>
    <desc>Created with Sketch.</desc>
    <defs>
        <polygon id="path-1" points="2.33477154e-05 0.00589547038 46.994874 0.00589547038 46.994874 46.9999735 2.33477154e-05 46.9999735"></polygon>
    </defs>
    <g id="Page-1" stroke="none" stroke-width="1" fill="none" fill-rule="evenodd">
        <g id="Learn-Page" transform="translate(-173.000000, -1424.000000)">
            <g id="Group-6" transform="translate(150.000000, 1406.000000)">
                <g id="Group-8" transform="translate(23.000000, 18.000000)">
                    <g id="Group-3" transform="translate(0.183594, 0.000000)">
                        <mask id="mask-2" fill="white">
                            <use xlink:href="#path-1"></use>
                        </mask>
                        <g id="Clip-2"></g>
                        <path d="M23.6598983,16.4916286 C23.516278,16.4916286 23.3567728,16.5119352 23.2041456,16.487862 C22.7660794,16.418754 22.5228913,16.584646 22.36617,17.0105937 C22.1275672,17.6597505 21.8082293,18.2789387 21.5501387,18.9215449 C20.7237902,20.9790641 19.8871247,23.0329805 19.1046648,25.1073672 C18.8631143,25.7473533 18.7823791,26.4479317 18.611738,27.1915798 C18.7504453,27.128531 18.7841805,27.1226355 18.8039958,27.1026564 C20.3792328,25.5303672 21.9570899,23.9606983 23.5187345,22.3749805 C23.6183024,22.2739387 23.6332049,22.0438516 23.6161735,21.8813986 C23.5290516,21.0527575 23.3292606,20.2254265 23.3394139,19.3997331 C23.3512049,18.4472871 23.5410063,17.4972976 23.6598983,16.4916286 L23.6598983,16.4916286 Z M28.6874244,9.85889686 L28.2054697,9.85889686 C26.3457763,9.85906063 24.4860829,9.85955192 22.6263895,9.85906063 C20.9903965,9.85856934 20.0517066,11.0992383 20.473724,12.7370328 C21.9107449,12.762416 22.6034627,13.5474962 22.6091944,14.9483254 L24.2933338,14.9483254 C24.4602084,12.1542 26.0202153,10.9642976 28.6874244,11.0761477 L28.6874244,9.85889686 Z M38.4064348,7.41817213 C30.4049714,-0.243482927 16.7782467,-0.842036934 7.9661561,7.96776098 C-0.820387456,16.7525031 -0.274073868,30.3720223 7.43736516,38.4345693 C7.47552195,38.4086948 7.51957422,38.3880606 7.5519993,38.3556355 C10.5785045,35.331423 13.6063199,32.3086843 16.6220167,29.2736634 C16.760069,29.1347923 16.8177136,28.8912767 16.8596369,28.685754 C17.1699679,27.1607923 17.3035986,25.576876 17.8055324,24.1192209 C18.6033861,21.8019735 19.6275603,19.5612035 20.591961,17.3035659 C20.8908286,16.6036425 21.1482641,15.9346704 21.0581944,15.1451686 C20.9805707,14.4637505 21.2198286,14.2693638 20.2419993,14.2914718 C19.4380864,14.3096495 18.8853861,13.7225589 18.8655707,12.9166808 C18.8562362,12.5378969 18.8527972,12.1586216 18.8647519,11.7800014 C18.925508,9.87167038 20.4319645,8.35964599 22.3252293,8.34376098 C24.5194906,8.32525575 26.7140794,8.33573659 28.9085045,8.34343345 C29.6605045,8.34605366 30.2007589,8.86894913 30.2212293,9.6086669 C30.2377693,10.2080397 30.2376056,10.8088864 30.2182815,11.4080955 C30.1976474,12.0526669 29.6837589,12.5683568 29.0416439,12.6066774 C28.7268913,12.6255101 28.4091909,12.5989805 28.0950934,12.6225624 C27.9036544,12.6369735 27.5630272,12.6888864 27.5546753,12.7563568 C27.5263443,12.9885728 27.5453408,13.2880955 27.6774976,13.4620118 C27.8196439,13.6487017 28.099515,13.7533463 28.3392641,13.8347366 C28.5033547,13.8905798 28.7018355,13.8453812 28.8936021,13.8453812 L28.8936021,15.3693603 C27.5720341,15.50643 26.6557798,14.980423 26.025947,13.8157401 C25.9206474,14.3985728 25.8993582,14.9570049 25.8580899,15.5137993 C25.8422049,15.7284927 25.8549784,16.0371861 25.7265882,16.1354439 C25.1989436,16.5394474 25.1779819,17.138984 25.0540132,17.6882453 C24.8216334,18.7186425 24.8147554,19.7588655 25.0206056,20.795977 C29.5014906,16.3177122 33.9542084,11.8676146 38.4064348,7.41817213 L38.4064348,7.41817213 Z M39.5714453,8.57433937 C29.2221108,18.9267854 18.8984871,29.2533568 8.5753547,39.5794369 C16.7004592,47.3187157 30.2891909,47.7625136 39.022839,39.0365624 C47.7301213,30.3364857 47.3403652,16.7495554 39.5714453,8.57433937 L39.5714453,8.57433937 Z M46.994874,23.5160815 C46.968623,36.5372105 36.4273582,47.0381895 23.4208042,46.9999735 C10.4052432,46.9615484 -0.0241714286,36.4166808 2.33477151e-05,23.3197296 C0.0236473868,10.5144404 10.6294348,-0.028789547 23.4517554,0.00584272609 C36.5136613,0.0413010453 47.0210272,10.534092 46.994874,23.5160815 L46.994874,23.5160815 Z" id="Fill-1" fill="#443636" mask="url(#mask-2)"></path>
                    </g>
                    <path d="M18.7278393,32.1504378 C18.7278393,32.8933062 18.7276825,33.5311039 18.7278393,34.168734 C18.7279961,34.7666484 18.7212548,35.3643952 18.7306612,35.962142 C18.7441437,36.8213088 19.2922226,37.4368187 20.0975663,37.4426839 C22.1680692,37.4577658 24.2388857,37.4552522 26.3093887,37.4433542 C27.0915299,37.4389972 27.7040426,36.8658842 27.7001232,36.0311837 C27.6918143,34.2741399 27.6697093,32.5122363 27.5351979,30.7625659 C27.4339224,29.4459142 26.8391251,28.2723731 26.2488742,27.1236334 C25.9582168,26.558229 25.6489034,26.0028791 25.3816052,25.4252415 C25.3245398,25.3017374 25.3607544,25.0567399 25.4441577,24.944631 C25.6862154,24.619867 25.9742077,24.3343159 26.2741147,24 C27.8140973,26.7666946 29.2857268,29.4650179 29.1780237,32.7718129 C29.1447878,33.7881668 29.1762992,34.807202 29.1748882,35.8248965 C29.1725366,37.6932114 27.957388,38.998803 26.2184602,38.9996409 C24.2235219,39.0006464 22.2284269,38.9994733 20.2334886,38.9969597 C18.4762184,38.9947812 17.2806664,37.7384571 17.2427273,35.8552279 C17.2364564,35.5483946 17.2875644,35.2305012 17.2297151,34.9362362 C16.9617898,33.5735008 17.9137164,32.9796083 18.7278393,32.1504378" id="Fill-4" fill="#443636"></path>
                    <path d="M32.1794655,10.4967223 C32.1798832,10.7550489 32.1895949,11.0142704 32.1776903,11.2714038 C32.158267,11.6906624 31.9397029,12.000893 31.6816656,12 C31.4335488,11.998954 31.2114342,11.7139297 31.1972322,11.3080945 C31.1783311,10.764147 31.1794798,10.2170674 31.1981721,9.67311992 C31.2123741,9.25908148 31.422062,8.99821936 31.6855294,9 C31.9546358,9.00179894 32.1606688,9.2954739 32.1771682,9.72189174 C32.1871931,9.97932342 32.1790478,10.2383957 32.1794655,10.4967223" id="Fill-6" fill="#443636"></path>
                </g>
            </g>
        </g>
    </g>
</svg>