<?xml version="1.0" encoding="UTF-8"?>
<svg width="45px" height="45px" viewBox="0 0 45 45" version="1.1" xmlns="http://www.w3.org/2000/svg" xmlns:xlink="http://www.w3.org/1999/xlink">
    <!-- Generator: Sketch 61.1 (89650) - https://sketch.com -->
    <title>Group 11</title>
    <desc>Created with Sketch.</desc>
    <g id="Page-1" stroke="none" stroke-width="1" fill="none" fill-rule="evenodd">
        <g id="CBD-mg-icons" transform="translate(-124.000000, -135.000000)">
            <g id="Group-11" transform="translate(125.000000, 136.000000)">
                <path d="M14.2735317,16.0301531 L11.0846585,16.4956419 C11.125281,15.390106 11.4618682,14.0150766 11.839078,13.1943463 C13.0142314,12.7104829 15.4486851,12.1990577 18.0282195,12 L18.0282195,24.6906949 C17.7148452,24.8683157 17.1490306,25 16.1421707,25 C15.1556222,25 14.5869059,24.8683157 14.2735317,24.6906949 L14.2735317,16.0301531 Z" id="Fill-1" fill="#443636"></path>
                <path d="M25.9722161,21.7813505 C27.4282535,21.7813505 28.1647705,20.4646302 28.1647705,18.4790997 C28.1647705,16.445797 27.3857621,15.1738631 25.9722161,15.1738631 C24.4963494,15.1738631 23.7598324,16.4278824 23.7598324,18.4790997 C23.7598324,20.5512173 24.5388407,21.7813505 25.9722161,21.7813505 M31.9153415,18.4790997 C31.9153415,22.5606339 29.5783165,25 25.9722161,25 C22.1423278,25 20.0120941,22.6024345 20.0120941,18.4790997 C20.0120941,14.3527791 22.5304156,12 25.9722161,12 C29.5981458,12 31.9153415,14.266192 31.9153415,18.4790997" id="Fill-3" fill="#443636"></path>
                <path d="M16.5931558,30.8945386 C16.4620903,30.9548023 16.23491,31 15.8213254,31 C15.4106534,31 15.1834732,30.9548023 15.0524076,30.8945386 L15.0524076,27.2787194 C15.3407518,27.1431262 15.7514238,27.0677966 16.3048117,27.0677966 L16.383451,27.7156309 L16.4620903,27.7156309 C16.6805329,27.2937853 17.0999426,27 17.8805107,27 C18.3872975,27 18.9028219,27.1205273 19.1329147,27.6629002 L19.2115541,27.6629002 C19.4125212,27.2787194 19.831931,27 20.586286,27 C21.2328759,27 21.9959686,27.1958569 21.9959686,28.4563716 L21.9959686,30.8945386 C21.8649031,30.9548023 21.6348103,31 21.2241382,31 C20.8134662,31 20.586286,30.9548023 20.4552204,30.8945386 L20.4552204,28.6898933 C20.4552204,28.3735091 20.3154172,28.1851852 19.9542588,28.1851852 C19.6134884,28.1851852 19.3950458,28.3509102 19.272718,28.5543001 C19.272718,28.6446955 19.2814557,28.7802888 19.2814557,28.9234149 L19.2814557,30.8945386 C19.1503902,30.9548023 18.9406853,31 18.5300133,31 C18.1164287,31 17.9067238,30.9548023 17.7756583,30.8945386 L17.7756583,28.6898933 C17.7756583,28.3735091 17.635855,28.1851852 17.2746967,28.1851852 C16.9339262,28.1851852 16.7154837,28.3509102 16.5931558,28.5543001 L16.5931558,30.8945386 Z" id="Fill-5" fill="#443636"></path>
                <path d="M24.8481634,29.2961409 C25.1818096,29.2961409 25.3474325,29.0553691 25.3474325,28.6795302 C25.3474325,28.2978188 25.1722083,28.0687919 24.8409624,28.0687919 C24.5097166,28.0687919 24.3368926,28.2978188 24.3368926,28.6795302 C24.3368926,29.0671141 24.5097166,29.2961409 24.8481634,29.2961409 M24.1352647,32.323406 C24.1352647,32.7550336 24.5025156,32.8607383 24.9705803,32.8607383 C25.5274574,32.8607383 25.7938943,32.7109899 25.7938943,32.3762584 C25.7938943,32.0943792 25.6210704,31.9798658 24.9561784,31.9798658 C24.6825405,31.9798658 24.4593096,31.9622483 24.2984873,31.8917785 C24.1928727,31.9886745 24.1352647,32.1472315 24.1352647,32.323406 M24.5241186,30.329698 C24.4737116,30.3737416 24.4449076,30.4794463 24.4449076,30.5499161 C24.4449076,30.7437081 24.6465355,30.7965604 25.1458046,30.7965604 C26.1971501,30.7965604 26.9556551,31.034396 26.9556551,32.2705537 C26.9556551,33.5331376 26.1611451,34 24.8697664,34 C23.6864026,34 22.9879059,33.6124161 22.9879059,32.6229027 C22.9879059,32.0473993 23.2183378,31.7126678 23.5423827,31.5981544 L23.5423827,31.5276846 C23.3407548,31.386745 23.2399408,31.1312919 23.2399408,30.8317953 C23.2399408,30.414849 23.4271667,30.1535235 23.6864026,30.0625 L23.6864026,29.9920302 C23.3623578,29.7277685 23.1895338,29.2873322 23.1895338,28.6795302 C23.1895338,27.5578859 23.8736285,27 24.8409624,27 C25.1818096,27 25.4626485,27.0616611 25.6930803,27.1761745 L26.7756302,27.1761745 C26.8836451,27.4668624 26.9268511,27.8838087 26.9268511,28.2625839 L26.41318,28.2625839 L26.41318,28.3154362 C26.4443843,28.3594799 26.4947913,28.5532718 26.4947913,28.7411913 C26.4947913,29.7630034 25.9379142,30.3619966 24.8841684,30.3619966 C24.7401485,30.3619966 24.6177315,30.3531879 24.5241186,30.329698" id="Fill-7" fill="#443636"></path>
                <path d="M42.8266517,21.5 C42.8266517,33.3733097 33.2775786,43 21.5,43 C9.72242139,43 0.173348264,33.3733097 0.173348264,21.5 C0.173348264,9.62669034 9.72242139,0 21.5,0 C33.2775786,0 42.8266517,9.62669034 42.8266517,21.5 Z" id="Stroke-9" stroke="#443636" stroke-width="1.5"></path>
            </g>
        </g>
    </g>
</svg>