<?xml version="1.0" encoding="UTF-8"?>
<svg width="41px" height="41px" viewBox="0 0 41 41" version="1.1" xmlns="http://www.w3.org/2000/svg" xmlns:xlink="http://www.w3.org/1999/xlink">
    <!-- Generator: Sketch 61.1 (89650) - https://sketch.com -->
    <title>Group 27</title>
    <desc>Created with Sketch.</desc>
    <defs>
        <path d="M0.656,18.125 C0.656,27.705 8.423,35.47 18.003,35.47 L18.003,35.47 C27.583,35.47 35.349,27.705 35.349,18.125 L35.349,18.125 C35.349,8.542 27.583,0.776 18.003,0.776 L18.003,0.776 C8.423,0.776 0.656,8.542 0.656,18.125" id="path-1"></path>
        <path d="M0.656,18.125 C0.656,27.705 8.423,35.47 18.003,35.47 L18.003,35.47 C27.583,35.47 35.349,27.705 35.349,18.125 L35.349,18.125 C35.349,8.542 27.583,0.776 18.003,0.776 L18.003,0.776 C8.423,0.776 0.656,8.542 0.656,18.125 L0.656,18.125 Z" id="path-3"></path>
    </defs>
    <g id="Page-1" stroke="none" stroke-width="1" fill="none" fill-rule="evenodd">
        <g id="Group-27" transform="translate(1.000000, 1.000000)">
            <path d="M27.3632,7.8279 L27.2072,7.9849 L27.1772,8.0399 L27.1472,7.9849 L26.9912,7.8279 L26.9372,7.7979 L26.9912,7.7679 L27.1472,7.6119 L27.1772,7.5569 L27.2072,7.6119 L27.3632,7.7679 L27.4192,7.7979 L27.3632,7.8279 Z M27.1772,6.7399 L26.8032,7.4239 L26.1192,7.7979 L26.8032,8.1729 L27.1772,8.8569 L27.5512,8.1729 L28.2372,7.7979 L27.5512,7.4239 L27.1772,6.7399 Z" id="Fill-1" fill="#F8E9DF"></path>
            <path d="M27.3632,7.8279 L27.2072,7.9849 L27.1772,8.0399 L27.1472,7.9849 L26.9912,7.8279 L26.9372,7.7979 L26.9912,7.7679 L27.1472,7.6119 L27.1772,7.5569 L27.2072,7.6119 L27.3632,7.7679 L27.4192,7.7979 L27.3632,7.8279 Z M27.1772,6.7399 L26.8032,7.4239 L26.1192,7.7979 L26.8032,8.1729 L27.1772,8.8569 L27.5512,8.1729 L28.2372,7.7979 L27.5512,7.4239 L27.1772,6.7399 Z" id="Stroke-2" stroke="#F8E9DF" stroke-width="0.25"></path>
            <path d="M12.9413,7.8279 L12.7853,7.9849 L12.7543,8.0399 L12.7253,7.9849 L12.5693,7.8279 L12.5133,7.7979 L12.5693,7.7679 L12.7253,7.6119 L12.7543,7.5569 L12.7853,7.6119 L12.9413,7.7679 L12.9973,7.7979 L12.9413,7.8279 Z M12.7543,6.7399 L12.3803,7.4239 L11.6973,7.7979 L12.3803,8.1729 L12.7543,8.8569 L13.1293,8.1729 L13.8133,7.7979 L13.1293,7.4239 L12.7543,6.7399 Z" id="Fill-3" fill="#F8E9DF"></path>
            <path d="M12.9413,7.8279 L12.7853,7.9849 L12.7543,8.0399 L12.7253,7.9849 L12.5693,7.8279 L12.5133,7.7979 L12.5693,7.7679 L12.7253,7.6119 L12.7543,7.5569 L12.7853,7.6119 L12.9413,7.7679 L12.9973,7.7979 L12.9413,7.8279 Z M12.7543,6.7399 L12.3803,7.4239 L11.6973,7.7979 L12.3803,8.1729 L12.7543,8.8569 L13.1293,8.1729 L13.8133,7.7979 L13.1293,7.4239 L12.7543,6.7399 Z" id="Stroke-4" stroke="#F8E9DF" stroke-width="0.25"></path>
            <path d="M39.246,19.9104 C39.246,30.5894 30.589,39.2454 19.91,39.2454 C9.231,39.2454 0.575,30.5894 0.575,19.9104 C0.575,9.2314 9.231,0.5754 19.91,0.5754 C30.589,0.5754 39.246,9.2314 39.246,19.9104 Z" id="Stroke-5" stroke="#F8E9DF" stroke-width="1.2"></path>
            <g id="Group-13" transform="translate(2.000000, 1.335400)">
                <g id="Group-9">
                    <mask id="mask-2" fill="white">
                        <use xlink:href="#path-1"></use>
                    </mask>
                    <g id="Clip-8"></g>
                    <path d="M17.4266,35.4486 C17.3746,35.4886 17.3216,35.5266 17.2676,35.5666 C17.3216,34.8456 17.3716,34.1306 17.4206,33.4236 L19.6026,33.4236 C19.6146,33.6066 19.6276,33.7886 19.6406,33.9736 C19.6406,33.9786 19.6436,33.9836 19.6446,33.9876 C18.8876,34.4156 18.1426,34.8966 17.4266,35.4486 M11.5046,26.1996 C10.7386,24.5696 11.1966,22.5646 12.6926,21.4486 C13.3646,20.9476 14.1616,20.6836 14.9856,20.6836 C15.1726,20.6836 15.3626,20.6976 15.5506,20.7246 C16.2806,20.8326 16.9486,21.1376 17.4936,21.6066 C13.7206,21.6386 12.0786,24.7066 11.5046,26.1996 M7.8366,21.0226 C8.2056,18.5176 10.3646,16.5896 12.9606,16.5896 C15.5256,16.5896 17.6596,18.4676 18.0716,20.9226 C13.8706,17.6326 9.4736,19.9326 7.8366,21.0226 M10.7866,13.9476 C10.4256,13.9476 10.1036,13.9656 9.8356,13.9906 C10.4186,13.2226 11.2236,12.6576 12.1616,12.3716 C13.3436,12.0106 14.5956,12.1326 15.6856,12.7136 C17.6796,13.7786 18.5806,16.1056 17.9346,18.1946 C16.2716,14.5556 12.8746,13.9476 10.7866,13.9476 M21.3366,12.7136 C22.0176,12.3516 22.7576,12.1696 23.5056,12.1696 C23.9596,12.1696 24.4156,12.2356 24.8616,12.3716 C25.7986,12.6576 26.6056,13.2236 27.1896,13.9906 C25.3786,13.8276 21.0396,13.9256 19.0886,18.1946 C18.4416,16.1056 19.3426,13.7786 21.3366,12.7136 M29.1246,21.0076 C28.1206,20.3386 26.0776,19.2166 23.6826,19.2166 C22.1866,19.2166 20.5556,19.6536 18.9536,20.9076 C19.3636,18.4696 21.4846,16.6056 24.0306,16.6056 C26.6126,16.6056 28.7556,18.5196 29.1246,21.0076 M25.3596,26.1996 C24.7836,24.7066 23.1446,21.6366 19.3706,21.6066 C19.9156,21.1376 20.5826,20.8306 21.3126,20.7246 C22.3296,20.5736 23.3446,20.8326 24.1706,21.4486 C25.6666,22.5646 26.1246,24.5696 25.3596,26.1996 M17.6566,29.7896 L19.3666,29.7896 C19.4236,30.7156 19.4856,31.6886 19.5526,32.6866 L17.4716,32.6866 C17.5366,31.6876 17.6006,30.7156 17.6566,29.7896 M17.8676,26.1556 L19.1556,26.1556 C19.2026,27.0236 19.2596,27.9996 19.3226,29.0526 L17.7006,29.0526 C17.7646,28.0006 17.8196,27.0216 17.8676,26.1556 M18.3406,22.3896 C18.3696,22.3926 18.3986,22.3906 18.4276,22.3876 C18.4596,22.3906 18.4906,22.3926 18.5236,22.3896 C18.6716,22.3726 18.8176,22.3626 18.9606,22.3546 C18.9756,22.6476 19.0286,23.7766 19.1156,25.4186 L17.9066,25.4186 C17.9936,23.7966 18.0476,22.6766 18.0636,22.3656 C18.1556,22.3726 18.2466,22.3786 18.3406,22.3896 M32.8226,30.8996 C32.5126,30.8856 26.1756,30.6246 20.3546,33.6066 C19.9746,28.1216 19.7356,23.1436 19.6976,22.3556 C21.2856,22.4536 22.5996,23.1786 23.6146,24.5186 C24.5726,25.7826 24.8976,27.1506 24.8996,27.1636 C24.9316,27.3036 25.0426,27.4126 25.1846,27.4416 C25.2086,27.4466 25.2346,27.4486 25.2596,27.4486 C25.3736,27.4486 25.4846,27.3956 25.5556,27.3006 C27.0666,25.2636 26.6436,22.3726 24.6116,20.8566 C24.0306,20.4236 23.3656,20.1426 22.6716,20.0216 C23.6916,19.8626 24.7596,19.9406 25.8716,20.2656 C27.8816,20.8496 29.2976,22.0406 29.3106,22.0526 C29.4206,22.1456 29.5736,22.1676 29.7036,22.1066 C29.8356,22.0466 29.9186,21.9156 29.9186,21.7736 C29.9186,18.5176 27.2786,15.8696 24.0306,15.8696 C22.8576,15.8696 21.7676,16.2186 20.8486,16.8136 C21.7326,15.8206 22.9026,15.1646 24.3516,14.8596 C26.1986,14.4696 27.8306,14.8176 27.8466,14.8216 C27.9876,14.8516 28.1316,14.7986 28.2186,14.6846 C28.3066,14.5696 28.3186,14.4146 28.2506,14.2886 C27.5766,13.0186 26.4496,12.0866 25.0766,11.6666 C23.7066,11.2486 22.2546,11.3886 20.9896,12.0656 C19.8076,12.6966 18.9596,13.7126 18.5126,14.8796 C18.0646,13.7126 17.2166,12.6966 16.0316,12.0656 C14.7676,11.3886 13.3166,11.2486 11.9476,11.6666 C10.5736,12.0866 9.4466,13.0186 8.7736,14.2886 C8.7056,14.4166 8.7176,14.5696 8.8056,14.6846 C8.8916,14.7986 9.0366,14.8516 9.1776,14.8216 C9.1936,14.8176 10.8246,14.4696 12.6726,14.8596 C14.1206,15.1646 15.2866,15.8186 16.1716,16.8086 C15.2456,16.2066 14.1456,15.8526 12.9606,15.8526 C9.6986,15.8526 7.0426,18.5166 7.0426,21.7876 C7.0426,21.9316 7.1266,22.0616 7.2576,22.1226 C7.3876,22.1826 7.5406,22.1616 7.6516,22.0696 C7.6646,22.0566 9.0886,20.8566 11.1096,20.2696 C12.1966,19.9536 13.2386,19.8716 14.2346,20.0126 C13.5246,20.1306 12.8456,20.4136 12.2526,20.8566 C10.2196,22.3726 9.7966,25.2636 11.3086,27.3006 C11.3786,27.3956 11.4876,27.4486 11.6046,27.4486 C11.6286,27.4486 11.6536,27.4466 11.6796,27.4416 C11.8206,27.4126 11.9306,27.3036 11.9646,27.1636 C11.9656,27.1506 12.2906,25.7826 13.2486,24.5186 C14.2966,23.1346 15.6676,22.4096 17.3256,22.3496 C17.2916,23.0746 17.0786,27.4936 16.7396,32.5746 C13.1936,31.0296 8.2306,29.2346 4.0746,29.1076 C3.8726,29.1046 3.7006,29.2616 3.6976,29.4646 C3.6896,29.6686 3.8506,29.8386 4.0526,29.8446 C8.3966,29.9786 13.7986,32.0846 16.6886,33.3546 C16.6246,34.2686 16.5576,35.1986 16.4876,36.1276 C10.5506,40.2016 4.1276,40.1866 4.0676,40.1876 C3.8696,40.1706 3.6976,40.3486 3.69558179,40.5526 C3.6936,40.7546 3.8566,40.9216 4.0606,40.9256 L4.1066,40.9256 C4.7906,40.9256 11.6856,40.8026 17.8776,36.0316 C24.0486,31.2766 32.7016,31.6306 32.7896,31.6356 C32.9926,31.6556 33.1646,31.4886 33.1746,31.2856 C33.1836,31.0816 33.0276,30.9086 32.8226,30.8996" id="Fill-7" fill="#F8E9DF" mask="url(#mask-2)"></path>
                </g>
                <g id="Group-12">
                    <mask id="mask-4" fill="white">
                        <use xlink:href="#path-3"></use>
                    </mask>
                    <g id="Clip-11"></g>
                    <path d="M17.4266,35.4486 C17.3746,35.4886 17.3216,35.5266 17.2676,35.5666 C17.3216,34.8456 17.3716,34.1306 17.4206,33.4236 L19.6026,33.4236 C19.6146,33.6066 19.6276,33.7886 19.6406,33.9736 C19.6406,33.9786 19.6436,33.9836 19.6446,33.9876 C18.8876,34.4156 18.1426,34.8966 17.4266,35.4486 Z M11.5046,26.1996 C10.7386,24.5696 11.1966,22.5646 12.6926,21.4486 C13.3646,20.9476 14.1616,20.6836 14.9856,20.6836 C15.1726,20.6836 15.3626,20.6976 15.5506,20.7246 C16.2806,20.8326 16.9486,21.1376 17.4936,21.6066 C13.7206,21.6386 12.0786,24.7066 11.5046,26.1996 Z M7.8366,21.0226 C8.2056,18.5176 10.3646,16.5896 12.9606,16.5896 C15.5256,16.5896 17.6596,18.4676 18.0716,20.9226 C13.8706,17.6326 9.4736,19.9326 7.8366,21.0226 Z M10.7866,13.9476 C10.4256,13.9476 10.1036,13.9656 9.8356,13.9906 C10.4186,13.2226 11.2236,12.6576 12.1616,12.3716 C13.3436,12.0106 14.5956,12.1326 15.6856,12.7136 C17.6796,13.7786 18.5806,16.1056 17.9346,18.1946 C16.2716,14.5556 12.8746,13.9476 10.7866,13.9476 Z M21.3366,12.7136 C22.0176,12.3516 22.7576,12.1696 23.5056,12.1696 C23.9596,12.1696 24.4156,12.2356 24.8616,12.3716 C25.7986,12.6576 26.6056,13.2236 27.1896,13.9906 C25.3786,13.8276 21.0396,13.9256 19.0886,18.1946 C18.4416,16.1056 19.3426,13.7786 21.3366,12.7136 Z M29.1246,21.0076 C28.1206,20.3386 26.0776,19.2166 23.6826,19.2166 C22.1866,19.2166 20.5556,19.6536 18.9536,20.9076 C19.3636,18.4696 21.4846,16.6056 24.0306,16.6056 C26.6126,16.6056 28.7556,18.5196 29.1246,21.0076 Z M25.3596,26.1996 C24.7836,24.7066 23.1446,21.6366 19.3706,21.6066 C19.9156,21.1376 20.5826,20.8306 21.3126,20.7246 C22.3296,20.5736 23.3446,20.8326 24.1706,21.4486 C25.6666,22.5646 26.1246,24.5696 25.3596,26.1996 Z M17.6566,29.7896 L19.3666,29.7896 C19.4236,30.7156 19.4856,31.6886 19.5526,32.6866 L17.4716,32.6866 C17.5366,31.6876 17.6006,30.7156 17.6566,29.7896 Z M17.8676,26.1556 L19.1556,26.1556 C19.2026,27.0236 19.2596,27.9996 19.3226,29.0526 L17.7006,29.0526 C17.7646,28.0006 17.8196,27.0216 17.8676,26.1556 Z M18.3406,22.3896 C18.3696,22.3926 18.3986,22.3906 18.4276,22.3876 C18.4596,22.3906 18.4906,22.3926 18.5236,22.3896 C18.6716,22.3726 18.8176,22.3626 18.9606,22.3546 C18.9756,22.6476 19.0286,23.7766 19.1156,25.4186 L17.9066,25.4186 C17.9936,23.7966 18.0476,22.6766 18.0636,22.3656 C18.1556,22.3726 18.2466,22.3786 18.3406,22.3896 Z M32.8226,30.8996 C32.5126,30.8856 26.1756,30.6246 20.3546,33.6066 C19.9746,28.1216 19.7356,23.1436 19.6976,22.3556 C21.2856,22.4536 22.5996,23.1786 23.6146,24.5186 C24.5726,25.7826 24.8976,27.1506 24.8996,27.1636 C24.9316,27.3036 25.0426,27.4126 25.1846,27.4416 C25.2086,27.4466 25.2346,27.4486 25.2596,27.4486 C25.3736,27.4486 25.4846,27.3956 25.5556,27.3006 C27.0666,25.2636 26.6436,22.3726 24.6116,20.8566 C24.0306,20.4236 23.3656,20.1426 22.6716,20.0216 C23.6916,19.8626 24.7596,19.9406 25.8716,20.2656 C27.8816,20.8496 29.2976,22.0406 29.3106,22.0526 C29.4206,22.1456 29.5736,22.1676 29.7036,22.1066 C29.8356,22.0466 29.9186,21.9156 29.9186,21.7736 C29.9186,18.5176 27.2786,15.8696 24.0306,15.8696 C22.8576,15.8696 21.7676,16.2186 20.8486,16.8136 C21.7326,15.8206 22.9026,15.1646 24.3516,14.8596 C26.1986,14.4696 27.8306,14.8176 27.8466,14.8216 C27.9876,14.8516 28.1316,14.7986 28.2186,14.6846 C28.3066,14.5696 28.3186,14.4146 28.2506,14.2886 C27.5766,13.0186 26.4496,12.0866 25.0766,11.6666 C23.7066,11.2486 22.2546,11.3886 20.9896,12.0656 C19.8076,12.6966 18.9596,13.7126 18.5126,14.8796 C18.0646,13.7126 17.2166,12.6966 16.0316,12.0656 C14.7676,11.3886 13.3166,11.2486 11.9476,11.6666 C10.5736,12.0866 9.4466,13.0186 8.7736,14.2886 C8.7056,14.4166 8.7176,14.5696 8.8056,14.6846 C8.8916,14.7986 9.0366,14.8516 9.1776,14.8216 C9.1936,14.8176 10.8246,14.4696 12.6726,14.8596 C14.1206,15.1646 15.2866,15.8186 16.1716,16.8086 C15.2456,16.2066 14.1456,15.8526 12.9606,15.8526 C9.6986,15.8526 7.0426,18.5166 7.0426,21.7876 C7.0426,21.9316 7.1266,22.0616 7.2576,22.1226 C7.3876,22.1826 7.5406,22.1616 7.6516,22.0696 C7.6646,22.0566 9.0886,20.8566 11.1096,20.2696 C12.1966,19.9536 13.2386,19.8716 14.2346,20.0126 C13.5246,20.1306 12.8456,20.4136 12.2526,20.8566 C10.2196,22.3726 9.7966,25.2636 11.3086,27.3006 C11.3786,27.3956 11.4876,27.4486 11.6046,27.4486 C11.6286,27.4486 11.6536,27.4466 11.6796,27.4416 C11.8206,27.4126 11.9306,27.3036 11.9646,27.1636 C11.9656,27.1506 12.2906,25.7826 13.2486,24.5186 C14.2966,23.1346 15.6676,22.4096 17.3256,22.3496 C17.2916,23.0746 17.0786,27.4936 16.7396,32.5746 C13.1936,31.0296 8.2306,29.2346 4.0746,29.1076 C3.8726,29.1046 3.7006,29.2616 3.6976,29.4646 C3.6896,29.6686 3.8506,29.8386 4.0526,29.8446 C8.3966,29.9786 13.7986,32.0846 16.6886,33.3546 C16.6246,34.2686 16.5576,35.1986 16.4876,36.1276 C10.5506,40.2016 4.1276,40.1866 4.0676,40.1876 C3.8696,40.1706 3.6976,40.3486 3.69558179,40.5526 C3.6936,40.7546 3.8566,40.9216 4.0606,40.9256 L4.1066,40.9256 C4.7906,40.9256 11.6856,40.8026 17.8776,36.0316 C24.0486,31.2766 32.7016,31.6306 32.7896,31.6356 C32.9926,31.6556 33.1646,31.4886 33.1746,31.2856 C33.1836,31.0816 33.0276,30.9086 32.8226,30.8996 Z" id="Stroke-10" stroke="#F8E9DF" stroke-width="0.5" mask="url(#mask-4)"></path>
                </g>
            </g>
            <path d="M33.2059,15.0301 L33.0499,15.1861 L33.0189,15.2411 L32.9899,15.1861 L32.8339,15.0301 L32.7799,14.9991 L32.8339,14.9701 L32.9899,14.8141 L33.0189,14.7591 L33.0499,14.8141 L33.2059,14.9701 L33.2619,14.9991 L33.2059,15.0301 Z M33.0189,13.9421 L32.6449,14.6251 L31.9619,14.9991 L32.6449,15.3751 L33.0189,16.0581 L33.3939,15.3751 L34.0779,14.9991 L33.3939,14.6251 L33.0189,13.9421 Z" id="Fill-14" fill="#F8E9DF"></path>
            <path d="M33.2059,15.0301 L33.0499,15.1861 L33.0189,15.2411 L32.9899,15.1861 L32.8339,15.0301 L32.7799,14.9991 L32.8339,14.9701 L32.9899,14.8141 L33.0189,14.7591 L33.0499,14.8141 L33.2059,14.9701 L33.2619,14.9991 L33.2059,15.0301 Z M33.0189,13.9421 L32.6449,14.6251 L31.9619,14.9991 L32.6449,15.3751 L33.0189,16.0581 L33.3939,15.3751 L34.0779,14.9991 L33.3939,14.6251 L33.0189,13.9421 Z" id="Stroke-15" stroke="#F8E9DF" stroke-width="0.25"></path>
            <path d="M8.0526,15.0301 L7.8966,15.1861 L7.8656,15.2411 L7.8366,15.1861 L7.6806,15.0301 L7.6246,14.9991 L7.6806,14.9701 L7.8366,14.8141 L7.8656,14.7591 L7.8966,14.8141 L8.0526,14.9701 L8.1086,14.9991 L8.0526,15.0301 Z M7.8656,13.9421 L7.4916,14.6251 L6.8086,14.9991 L7.4916,15.3751 L7.8656,16.0581 L8.2406,15.3751 L8.9246,14.9991 L8.2406,14.6251 L7.8656,13.9421 Z" id="Fill-16" fill="#F8E9DF"></path>
            <path d="M8.0526,15.0301 L7.8966,15.1861 L7.8656,15.2411 L7.8366,15.1861 L7.6806,15.0301 L7.6246,14.9991 L7.6806,14.9701 L7.8366,14.8141 L7.8656,14.7591 L7.8966,14.8141 L8.0526,14.9701 L8.1086,14.9991 L8.0526,15.0301 Z M7.8656,13.9421 L7.4916,14.6251 L6.8086,14.9991 L7.4916,15.3751 L7.8656,16.0581 L8.2406,15.3751 L8.9246,14.9991 L8.2406,14.6251 L7.8656,13.9421 Z" id="Stroke-17" stroke="#F8E9DF" stroke-width="0.25"></path>
            <g id="Group-26" transform="translate(2.000000, 2.335400)">
                <path d="M22.0087,6.4432 C22.0087,8.4192 20.4067,10.0192 18.4327,10.0192 C16.4567,10.0192 14.8557,8.4192 14.8557,6.4432 C14.8557,4.4672 16.4567,2.8672 18.4327,2.8672 C20.4067,2.8672 22.0087,4.4672 22.0087,6.4432 Z" id="Stroke-18" stroke="#F8E9DF"></path>
                <path d="M19.2362,4.93 C19.2982,4.737 19.4122,4.634 19.7142,4.634 C20.0112,4.634 20.1142,4.737 20.1142,4.873 C20.1142,4.941 20.0902,5.026 20.0452,5.158 L19.0122,8 C18.9112,8.281 18.7732,8.4 18.4082,8.4 C18.0442,8.4 17.8992,8.281 17.7982,8 L16.7712,5.158 C16.7252,5.022 16.7022,4.947 16.7022,4.873 C16.7022,4.737 16.8042,4.634 17.1192,4.634 C17.4382,4.634 17.5472,4.737 17.6082,4.93 L18.4312,7.394 L19.2362,4.93 Z" id="Fill-20" fill="#F8E9DF"></path>
                <path d="M19.2362,4.93 C19.2982,4.737 19.4122,4.634 19.7142,4.634 C20.0112,4.634 20.1142,4.737 20.1142,4.873 C20.1142,4.941 20.0902,5.026 20.0452,5.158 L19.0122,8 C18.9112,8.281 18.7732,8.4 18.4082,8.4 C18.0442,8.4 17.8992,8.281 17.7982,8 L16.7712,5.158 C16.7252,5.022 16.7022,4.947 16.7022,4.873 C16.7022,4.737 16.8042,4.634 17.1192,4.634 C17.4382,4.634 17.5472,4.737 17.6082,4.93 L18.4312,7.394 L19.2362,4.93 Z" id="Stroke-22" stroke="#F8E9DF" stroke-width="0.15"></path>
                <path d="M34.9012,17.575 C34.9012,26.958 27.2952,34.565 17.9112,34.565 C8.5262,34.565 0.9192,26.958 0.9192,17.575 C0.9192,8.19 8.5262,0.585 17.9112,0.585 C27.2952,0.585 34.9012,8.19 34.9012,17.575 Z" id="Stroke-24" stroke="#F8E9DF" stroke-width="1.2"></path>
            </g>
        </g>
    </g>
</svg>