<?xml version="1.0" encoding="UTF-8"?>
<svg width="40px" height="40px" viewBox="0 0 40 40" version="1.1" xmlns="http://www.w3.org/2000/svg" xmlns:xlink="http://www.w3.org/1999/xlink">
    <!-- Generator: Sketch 61.1 (89650) - https://sketch.com -->
    <title>Group 3</title>
    <desc>Created with Sketch.</desc>
    <defs>
        <polygon id="path-1" points="0 0 40 0 40 40 0 40"></polygon>
    </defs>
    <g id="Page-1" stroke="none" stroke-width="1" fill="none" fill-rule="evenodd">
        <g id="Group-3">
            <mask id="mask-2" fill="white">
                <use xlink:href="#path-1"></use>
            </mask>
            <g id="Clip-2"></g>
            <path d="M34.1550592,13.3363745 C32.1234293,12.5238713 30.0931815,12.2108466 28.252276,12.4612663 L29.2045162,11.5235532 C32.3777285,10.0863615 36.0581573,10.0863615 38.0262124,10.2115714 C37.2646967,11.0240746 35.9310077,12.2734515 34.1550592,13.3363745 M29.584583,19.0865023 C29.2045162,17.211076 28.3780436,15.5234645 27.0457367,14.0862728 C29.9660319,12.8995009 34.0914843,13.961063 37.518996,16.8368073 C34.7258504,17.3362859 31.8069373,17.7119155 29.584583,19.0865023 M22.5402174,34.0871906 C21.2714852,32.3982182 20.1907134,30.7119677 19.367005,29.0243562 C22.0330009,29.212171 24.1268236,29.212171 26.5385202,29.0243562 C25.5227053,30.8984215 24.1903984,32.586033 22.5402174,34.0871906 M1.59508085,31.461866 C2.54732097,31.8987396 3.49956109,32.3356132 4.45180121,32.7112429 C5.7219154,34.773123 7.49786396,36.7737592 9.71883621,38.7117904 C7.49786396,38.4613706 5.5298089,37.5236575 4.07035234,36.0864658 C2.80023816,34.773123 1.97652972,33.2120824 1.59508085,31.461866 M1.97652972,24.7740251 C2.04010453,26.8985102 2.54732097,28.9617513 3.49956109,30.9610265 C2.80023816,30.6493627 2.04010453,30.336338 1.34216366,29.9607084 C1.21501403,28.2744579 1.46931328,26.5242415 1.97652972,24.7740251 M8.51367889,15.6486744 C8.25937965,16.9620172 8.19580483,18.336604 8.19580483,19.7737957 C7.30713952,19.399527 6.35628146,18.9612924 5.5298089,18.5244188 C6.41985627,17.4614958 7.30713952,16.5863876 8.51367889,15.6486744 M23.8739064,13.2111646 C23.4910754,14.3366926 23.1745834,15.3996156 22.983859,16.3373288 C21.1443356,16.2107579 19.1762806,15.9616991 17.0188831,15.5860695 C17.1446507,14.3992975 17.3989499,13.1485597 17.7154419,11.9617878 C19.8742214,11.8365779 22.0330009,12.1482416 23.8739064,13.2111646 M22.9202842,2.52477336 C25.8391973,5.8986353 26.9835439,10.0237565 25.7134297,12.8995009 C24.1903984,11.7739729 22.3494929,11.0866796 20.3814379,10.8362598 C21.9694261,8.46135496 22.4130677,5.46176169 22.9202842,2.52477336 M24.2539732,16.3985727 C24.4446976,15.6486744 24.6976148,14.7735662 24.9519141,13.899819 C25.2684061,14.1488778 25.5227053,14.3366926 25.7770046,14.5857514 C26.3491779,15.1491959 26.7928195,15.7112794 27.1728863,16.3373288 C26.285603,16.4611777 25.3319809,16.4611777 24.2539732,16.3985727 M28.568768,22.4617252 C26.9835439,22.64954 25.3955557,22.7747499 23.8739064,22.7747499 C23.5546502,21.2735923 23.6182251,19.6485858 24.0632487,17.6493106 C25.3319809,17.7119155 26.4113706,17.7119155 27.8708272,17.5867056 C28.4416184,19.0865023 28.6323429,20.7115088 28.568768,22.4617252 M17.3989499,23.5858922 C19.2398554,23.836312 21.0793787,24.0241268 22.9202842,24.0241268 C23.300351,25.3361086 23.9996739,26.5868464 24.9519141,27.8988282 C22.8567094,27.9614332 20.8250795,27.8988282 18.7326389,27.7123744 C18.1604656,26.3364267 17.7154419,24.9618399 17.3989499,23.5858922 M22.5402174,22.7747499 C20.6993119,22.712145 18.9233634,22.5869351 17.0810759,22.2739104 C16.7645839,20.523694 16.7010091,18.7108726 16.8281587,16.8368073 C18.8597886,17.211076 20.6357371,17.3988908 22.6659849,17.5867056 C22.3494929,19.4607709 22.2859181,21.1483824 22.5402174,22.7747499 M10.9253756,14.0862728 C12.7027062,13.0859548 14.5436116,12.4612663 16.3845171,12.1482416 C16.1302178,13.2737696 15.8745365,14.3366926 15.7487689,15.3996156 C14.0350131,15.023986 12.3848321,14.5857514 10.9253756,14.0862728 M9.90956064,15.0865909 C11.6233165,15.7112794 13.5277967,16.2107579 15.6216193,16.6489925 C15.4944697,18.4618138 15.4944697,20.2746352 15.7487689,22.0860955 C13.5913715,21.6492219 11.4961668,21.0857775 9.46591902,20.3372401 C9.40234421,18.4618138 9.59306864,16.7115974 9.90956064,15.0865909 M10.3532023,26.0860069 C9.90956064,24.5862103 9.65526139,23.0864136 9.52949383,21.6492219 C11.6233165,22.3991203 13.7820959,22.9612038 16.0030682,23.3368334 C16.3209423,24.7114202 16.7010091,26.1486118 17.2718003,27.5231986 C14.9872533,27.2115349 12.764899,26.7746613 10.3532023,26.0860069 M14.3528872,33.9619807 C12.764899,31.9613445 11.6233165,29.7742545 10.798226,27.5231986 C13.1463478,28.149248 15.4944697,28.5861216 17.8425916,28.8365414 C18.7326389,30.6493627 19.8106466,32.523428 21.1443356,34.3988543 C18.9233634,34.4614593 16.6374343,34.2736444 14.3528872,33.9619807 M15.5580445,35.3991724 C17.2082255,35.5869872 18.8597886,35.6495922 20.5085875,35.6495922 C19.5563474,36.2742806 18.6054893,36.8363641 17.6532492,37.2732377 C16.8917335,36.7111542 16.1937926,36.0864658 15.5580445,35.3991724 M9.33876939,27.086325 C10.0367103,29.3360199 11.1161,31.5870759 12.5755566,33.648956 C11.4339741,33.4611412 10.2896275,33.2120824 9.21161977,32.8990577 C7.87793077,32.523428 6.60919865,32.1491594 5.33908446,31.6496808 C4.00815959,29.3986249 3.31021872,27.086325 3.2466439,24.7740251 C5.2133169,25.7117382 7.24356471,26.4616366 9.33876939,27.086325 M3.69028553,21.0231725 C4.00815959,20.523694 4.32465159,20.0242154 4.7047184,19.5233759 C5.84906502,20.0868204 7.05422233,20.6489039 8.25937965,21.1483824 C8.32433652,22.64954 8.57725371,24.1493367 8.95870258,25.6491333 C6.99064752,25.0230839 5.14974209,24.2745465 3.31021872,23.3994383 C3.37379353,22.64954 3.49956109,21.8370368 3.69028553,21.0231725 M6.48343109,33.3985362 C7.24356471,33.648956 8.06865521,33.8980148 8.83155296,34.0871906 C10.4167771,34.5240642 12.0047653,34.8357279 13.6549463,35.0861477 C14.416462,36.0238608 15.3037453,36.961574 16.3209423,37.7740772 C14.8601036,38.3361607 13.3370723,38.5865805 11.8140409,38.6491854 C9.59306864,37.0241789 7.81435596,35.2113576 6.48343109,33.3985362 M27.1728863,27.7123744 C26.9199691,27.7123744 26.7292447,27.7736184 26.4749454,27.7736184 C25.3955557,26.5242415 24.63404,25.2735036 24.1268236,24.0241268 C25.5227053,24.0241268 26.9835439,23.8989169 28.3780436,23.7111021 C28.1887012,25.0870498 27.8072524,26.3990316 27.1728863,27.7123744 M29.7117326,1.89872395 C29.902457,3.83675517 29.8388822,7.21197809 28.3780436,10.648445 L27.4271855,11.5861581 C27.6801027,9.77333678 27.3636107,7.77406159 26.5385202,5.77342542 C27.61791,4.02457 28.8866421,2.71122721 29.7117326,1.89872395 M35.169492,4.71186337 C34.7258504,5.83603036 33.8371851,7.52364182 32.5048782,9.21125328 C31.6797877,9.33646316 30.8533151,9.58688293 29.9660319,9.83594172 C30.2825239,8.96219449 30.4732483,8.14833026 30.6639727,7.27322206 C32.3777285,6.02384519 34.0914843,5.21134193 35.169492,4.71186337 M39.8671178,10.0863615 C39.9942675,9.89854666 40.0578423,9.58688293 39.9306927,9.39906811 C39.7399682,9.0860434 39.4234762,9.0860434 39.3599014,9.0860434 C38.3427044,8.96219449 36.4382242,8.77437967 34.2822088,9.02479944 C36.1217322,6.39947483 36.8210551,4.02457 36.8846299,3.89936011 C36.9482047,3.64894035 36.8846299,3.46112553 36.6939055,3.2733107 C36.503181,3.08685685 36.3124566,3.02425191 36.0581573,3.08685685 C35.9310077,3.1494618 33.519311,3.83675517 30.9168899,5.58697157 C31.1076144,3.39852058 30.9804647,1.58706022 30.7897403,0.649347077 C30.7897403,0.586742135 30.7897403,0.273717429 30.4732483,0.0872635823 C30.2825239,-0.0379463002 29.9660319,-0.0379463002 29.7753074,0.149868524 C29.7117326,0.211112488 27.6801027,1.77351407 25.8391973,4.46144361 C25.0790637,3.1494618 24.1268236,1.89872395 22.983859,0.711952018 C22.7931346,0.524137194 22.5402174,0.461532253 22.3494929,0.586742135 C22.0951937,0.649347077 21.9058513,0.835800923 21.9058513,1.02361575 C21.2714852,4.58665349 20.8886543,8.27354014 18.8597886,10.648445 C5.08616728,10.5245961 -5.57643439,28.2744579 3.18306909,36.898969 C12.1305329,45.711295 31.1076144,34.3362494 29.7753074,20.3984841 C32.1870041,18.7748385 35.6145157,18.4618138 38.9770705,17.8371254 C39.2327518,17.7745205 39.4234762,17.6493106 39.485669,17.3988908 C39.5492438,17.1484711 39.485669,16.9620172 39.3599014,16.7742024 C38.153362,15.5860695 36.8846299,14.6483563 35.5509409,13.961063 C38.2155548,12.1482416 39.803543,10.2115714 39.8671178,10.0863615" id="Fill-1" fill="#F6E8DD" mask="url(#mask-2)"></path>
        </g>
    </g>
</svg>