<?xml version="1.0" encoding="UTF-8"?>
<svg width="40px" height="44px" viewBox="0 0 40 44" version="1.1" xmlns="http://www.w3.org/2000/svg" xmlns:xlink="http://www.w3.org/1999/xlink">
    <!-- Generator: Sketch 58 (84663) - https://sketch.com -->
    <title>Group 9</title>
    <desc>Created with Sketch.</desc>
    <g id="Page-1" stroke="none" stroke-width="1" fill="none" fill-rule="evenodd">
        <g id="Shop-Page---CBD-Gummies" transform="translate(-405.000000, -1966.000000)">
            <g id="Group" transform="translate(96.000000, 1505.000000)">
                <g id="Group-9" transform="translate(309.000000, 462.000000)">
                    <path d="M11.8065481,11.3882091 C13.9202232,11.4033738 16.4679565,11.9417203 19.50259,13.1643735 C19.8404006,13.2913778 20.1027228,13.2667352 20.4386461,13.1643735 C27.4156611,10.3589057 31.7656798,11.1759034 34.3605934,13.5814026 C36.9687175,16.0020664 37.9368562,20.3296901 37.404663,24.8639327 C36.874357,29.3981754 34.8493808,34.0613179 31.8487171,36.9805209 C28.863151,39.8883504 25.0698592,41.1546021 20.3952403,39.1907746 C20.0895123,39.0372321 19.8536111,39.0922041 19.50259,39.2040437 C14.8392944,41.1508109 11.0573258,39.8826636 8.07742137,36.9805209 C5.07864487,34.0613179 3.03668377,29.3981754 2.50449059,24.8639327 C1.97418461,20.3296901 2.95930817,16.0020664 5.56554502,13.5814026 C7.03379431,12.2203715 9.0568833,11.3692532 11.8065481,11.3882091 M13.6201568,2.10552258 C15.7338319,2.69125877 16.9548567,3.60872258 17.7361616,4.79156849 C18.6080525,6.11847895 18.962848,7.91359926 19.0270131,10.1352265 L19.0270131,10.2243191 L19.0270131,10.3285763 C19.0326748,10.518135 19.0270131,10.7020068 19.0270131,10.8953566 C16.8699322,9.93239876 15.3412922,8.82348073 14.4505292,7.50794378 C13.5125858,6.12227013 13.1728881,4.44657176 13.6201568,2.10552258 M12.8162054,0.00142168979 C12.4293274,0.0393334175 12.0820807,0.338836066 11.985833,0.717953343 C11.1705584,3.89116495 11.4838352,6.52413444 12.8747089,8.58274126 C13.1238206,8.94858943 13.4031277,9.29927291 13.7088557,9.62720935 C13.0332345,9.54759473 12.3859215,9.50778741 11.7631423,9.50778741 C8.60395293,9.50589182 6.09962542,10.48591 4.27469346,12.1786686 C1.02869246,15.1907554 0.0416816876,20.151505 0.619167912,25.0876119 C1.19665414,30.0256144 3.34618619,35.0375448 6.75448725,38.354821 C10.0835255,41.5943782 14.7713548,43.116534 19.9630692,41.0711963 C25.1547836,43.116534 29.842613,41.5943782 33.1716512,38.354821 C36.5799523,35.0375448 38.7313715,30.0256144 39.3069705,25.0876119 C39.886344,20.151505 38.897446,15.1907554 35.6533322,12.1786686 C33.826513,10.48591 31.3221855,9.50589182 28.1648834,9.50778741 C26.0474339,9.509683 23.6393541,9.95704138 20.9293207,10.925686 C20.9293207,10.6754686 20.9349823,10.4252512 20.9293207,10.178825 L20.9293207,10.1636603 C21.1237033,7.83588022 21.867264,6.62839169 23.0977248,5.67301615 C24.348945,4.70247592 26.2172828,4.04281186 28.5196788,3.25424793 C28.9461883,3.11966129 29.2387058,2.65145146 29.1745407,2.20788424 C29.1122627,1.76431703 28.6989638,1.39846886 28.2535822,1.38899092 C28.1365752,1.38899092 28.0214554,1.40794679 27.9119973,1.44964969 C25.6096012,2.23631804 23.548768,2.90356445 21.9238803,4.16412939 C21.3029882,4.64750392 20.7764567,5.22755335 20.3348496,5.91186004 C20.0970611,5.13656521 19.7686866,4.42192914 19.3233051,3.74710039 C18.1324756,1.94060656 16.1074994,0.645921061 13.0992869,0.0165863809 C13.0351217,0.00521286256 12.9709566,-0.000473896596 12.9067915,0.00142168979 C12.8765961,-0.000473896596 12.8464008,-0.000473896596 12.8162054,0.00142168979" id="Fill-1" fill="#F8E9DF"></path>
                    <path d="M11.8065481,11.3882091 C13.9202232,11.4033738 16.4679565,11.9417203 19.50259,13.1643735 C19.8404006,13.2913778 20.1027228,13.2667352 20.4386461,13.1643735 C27.4156611,10.3589057 31.7656798,11.1759034 34.3605934,13.5814026 C36.9687175,16.0020664 37.9368562,20.3296901 37.404663,24.8639327 C36.874357,29.3981754 34.8493808,34.0613179 31.8487171,36.9805209 C28.863151,39.8883504 25.0698592,41.1546021 20.3952403,39.1907746 C20.0895123,39.0372321 19.8536111,39.0922041 19.50259,39.2040437 C14.8392944,41.1508109 11.0573258,39.8826636 8.07742137,36.9805209 C5.07864487,34.0613179 3.03668377,29.3981754 2.50449059,24.8639327 C1.97418461,20.3296901 2.95930817,16.0020664 5.56554502,13.5814026 C7.03379431,12.2203715 9.0568833,11.3692532 11.8065481,11.3882091 Z M13.6201568,2.10552258 C15.7338319,2.69125877 16.9548567,3.60872258 17.7361616,4.79156849 C18.6080525,6.11847895 18.962848,7.91359926 19.0270131,10.1352265 L19.0270131,10.2243191 L19.0270131,10.3285763 C19.0326748,10.518135 19.0270131,10.7020068 19.0270131,10.8953566 C16.8699322,9.93239876 15.3412922,8.82348073 14.4505292,7.50794378 C13.5125858,6.12227013 13.1728881,4.44657176 13.6201568,2.10552258 Z M12.8162054,0.00142168979 C12.4293274,0.0393334175 12.0820807,0.338836066 11.985833,0.717953343 C11.1705584,3.89116495 11.4838352,6.52413444 12.8747089,8.58274126 C13.1238206,8.94858943 13.4031277,9.29927291 13.7088557,9.62720935 C13.0332345,9.54759473 12.3859215,9.50778741 11.7631423,9.50778741 C8.60395293,9.50589182 6.09962542,10.48591 4.27469346,12.1786686 C1.02869246,15.1907554 0.0416816876,20.151505 0.619167912,25.0876119 C1.19665414,30.0256144 3.34618619,35.0375448 6.75448725,38.354821 C10.0835255,41.5943782 14.7713548,43.116534 19.9630692,41.0711963 C25.1547836,43.116534 29.842613,41.5943782 33.1716512,38.354821 C36.5799523,35.0375448 38.7313715,30.0256144 39.3069705,25.0876119 C39.886344,20.151505 38.897446,15.1907554 35.6533322,12.1786686 C33.826513,10.48591 31.3221855,9.50589182 28.1648834,9.50778741 C26.0474339,9.509683 23.6393541,9.95704138 20.9293207,10.925686 C20.9293207,10.6754686 20.9349823,10.4252512 20.9293207,10.178825 L20.9293207,10.1636603 C21.1237033,7.83588022 21.867264,6.62839169 23.0977248,5.67301615 C24.348945,4.70247592 26.2172828,4.04281186 28.5196788,3.25424793 C28.9461883,3.11966129 29.2387058,2.65145146 29.1745407,2.20788424 C29.1122627,1.76431703 28.6989638,1.39846886 28.2535822,1.38899092 C28.1365752,1.38899092 28.0214554,1.40794679 27.9119973,1.44964969 C25.6096012,2.23631804 23.548768,2.90356445 21.9238803,4.16412939 C21.3029882,4.64750392 20.7764567,5.22755335 20.3348496,5.91186004 C20.0970611,5.13656521 19.7686866,4.42192914 19.3233051,3.74710039 C18.1324756,1.94060656 16.1074994,0.645921061 13.0992869,0.0165863809 C13.0351217,0.00521286256 12.9709566,-0.000473896596 12.9067915,0.00142168979 C12.8765961,-0.000473896596 12.8464008,-0.000473896596 12.8162054,0.00142168979 Z" id="Stroke-3" stroke="#F8E9DF" stroke-width="0.5"></path>
                    <path d="M7.84650311,18.0005789 C7.56279949,17.9900697 7.29276834,18.1231864 7.12186254,18.3561407 C4.96332236,21.2514296 5.17011837,24.7247255 6.27929698,27.6883243 C7.39018464,30.6519232 9.36414657,33.2161718 11.0116784,34.7575235 C11.3569081,35.0938184 11.9003886,35.0780546 12.2268186,34.7242443 C12.5549578,34.370434 12.5395762,33.8116941 12.1943465,33.4771507 L12.1721288,33.4543807 C10.7296839,32.105698 8.86851976,29.6728146 7.88581145,27.0560198 C6.90481218,24.4374736 6.75954226,21.7506174 8.49081796,19.4280807 C8.78477593,19.0444943 8.72154078,18.4892574 8.34725709,18.1879932 C8.20369622,18.0741434 8.02766326,18.007585 7.84650311,18.0005789" id="Fill-5" fill="#F8E9DF"></path>
                    <path d="M7.84650311,18.0005789 C7.56279949,17.9900697 7.29276834,18.1231864 7.12186254,18.3561407 C4.96332236,21.2514296 5.17011837,24.7247255 6.27929698,27.6883243 C7.39018464,30.6519232 9.36414657,33.2161718 11.0116784,34.7575235 C11.3569081,35.0938184 11.9003886,35.0780546 12.2268186,34.7242443 C12.5549578,34.370434 12.5395762,33.8116941 12.1943465,33.4771507 L12.1721288,33.4543807 C10.7296839,32.105698 8.86851976,29.6728146 7.88581145,27.0560198 C6.90481218,24.4374736 6.75954226,21.7506174 8.49081796,19.4280807 C8.78477593,19.0444943 8.72154078,18.4892574 8.34725709,18.1879932 C8.20369622,18.0741434 8.02766326,18.007585 7.84650311,18.0005789 Z" id="Stroke-7" stroke="#F8E9DF" stroke-width="0.5"></path>
                </g>
            </g>
        </g>
    </g>
</svg>