<?xml version="1.0" encoding="UTF-8"?>
<svg width="48px" height="41px" viewBox="0 0 48 41" version="1.1" xmlns="http://www.w3.org/2000/svg" xmlns:xlink="http://www.w3.org/1999/xlink">
    <!-- Generator: Sketch 58 (84663) - https://sketch.com -->
    <title>Group 25</title>
    <desc>Created with Sketch.</desc>
    <g id="Page-1" stroke="none" stroke-width="1" fill="none" fill-rule="evenodd">
        <g id="Shop-Page---CBD-Gummies" transform="translate(-1257.000000, -1386.000000)" fill="#F8E9DF">
            <g id="Group" transform="translate(952.000000, 924.000000)">
                <g id="Group-25" transform="translate(305.000000, 462.000000)">
                    <path d="M2.24202751,29.006033 C5.80954331,33.9956786 11.0466179,37.3989555 17.0814778,38.6322605 C23.4203325,39.9252155 29.8846454,38.6677281 35.2809554,35.0887254 C46.1620394,27.8759065 49.3419217,13.3116226 42.6202587,2.2328359 L2.24202751,29.006033 Z M16.7083202,40.4652902 C16.7083202,40.4652902 16.7083202,40.4652902 16.7083202,40.4652902 C9.88050025,39.0691568 4.0000504,35.0935619 0.154274797,29.2672035 C0.0175575549,29.0608465 -0.0306955893,28.8077369 0.0191659931,28.5659124 C0.0674191374,28.3208636 0.210570132,28.1064458 0.418058653,27.9694119 L42.3838182,0.146696502 C42.7955784,-0.127371271 43.403568,-0.00484685503 43.6770025,0.409479131 C51.6146447,12.43783 48.3109128,28.6948855 36.3119643,36.6492995 C30.4990688,40.5055943 23.5377485,41.8598115 16.7083202,40.4652902 L16.7083202,40.4652902 Z" id="Fill-1"></path>
                    <path d="M18.245805,36.5739507 C13.0683646,35.5008312 8.29251186,32.4215156 5.15340865,27.5932921 C4.87181734,27.1585077 4.98861374,26.5722815 5.41580056,26.2840537 C5.84458734,25.9958258 6.41896963,26.1146995 6.70376085,26.5511123 C12.4171847,35.3379906 24.0872248,37.7578018 32.7189587,31.9443927 C36.9012297,29.1305072 39.7571417,24.8233736 40.7571108,19.8241674 C41.7586799,14.8233329 40.7859099,9.72316553 38.0195952,5.46651247 C37.736404,5.03009968 37.8532004,4.44550196 38.2803872,4.15727411 C38.7107739,3.86904626 39.2851562,3.9879199 39.5683475,4.42433268 C42.6098537,9.10111447 43.6786207,14.7044592 42.5778547,20.2003292 C41.4786886,25.6961992 38.3411853,30.4283468 33.7445271,33.522318 C29.0006733,36.715622 23.4216454,37.6470702 18.245805,36.5739507" id="Fill-3"></path>
                    <path d="M26.1041121,27.9799096 C25.9564271,27.9416562 25.8177317,27.8451911 25.707289,27.6938406 C25.5018143,27.411098 25.4119191,27.1100603 25.346424,26.8888558 C25.328445,26.8256545 25.3014764,26.7391685 25.2886342,26.7125575 C24.9598747,26.3915614 24.9072218,25.8011284 25.1550757,25.3753512 C25.4029295,24.947911 25.8832267,24.8797201 26.2107021,25.2007161 C26.5394617,25.5217121 26.6588939,25.9291941 26.7385153,26.196968 C26.7577786,26.2634957 26.7860313,26.353308 26.7988735,26.3799191 C27.0814013,26.7674428 27.0634222,27.3745078 26.7629154,27.74041 C26.5805566,27.9616145 26.3327027,28.0414477 26.1041121,27.9799096" id="Fill-5"></path>
                    <path d="M13.7030817,27.9809316 C13.692503,27.9793028 13.6834355,27.977674 13.6728568,27.9744164 C13.2013484,27.8522577 12.9111894,27.3424484 13.0245327,26.834268 L13.2678432,25.7364679 C13.3826978,25.2299162 13.8557174,24.8813566 14.3272258,25.0377198 C14.797223,25.1615073 15.0888933,25.6696878 14.9755499,26.1778682 L14.7307282,27.2740395 C14.6188961,27.7724473 14.1640114,28.0819161 13.7030817,27.9809316" id="Fill-7"></path>
                    <path d="M19.7069171,28.9831459 C19.3118302,28.9096258 19.0109563,28.5961249 19.0018389,28.2104911 C18.991202,27.7665961 19.0246324,27.5307769 19.1568345,27.111851 C19.1674715,27.0757845 19.179628,27.0424924 19.1933041,27.0078131 C19.1051693,26.6998609 19.2236954,26.3600038 19.5200106,26.1588639 C19.9105388,25.8939141 20.4636605,25.9674342 20.7538974,26.3267117 C21.1702582,26.837191 20.9484017,27.3365728 20.8754626,27.4974848 C20.769093,27.8179215 20.7584561,27.8942159 20.7645343,28.1785862 C20.7736517,28.6224812 20.3876822,28.9900817 19.8999018,28.9997919 C19.8345605,29.0011791 19.7707388,28.9956304 19.7069171,28.9831459" id="Fill-9"></path>
                    <path d="M30.772718,24.9827997 C30.6687478,24.9652668 30.5665397,24.9345841 30.4696183,24.8892907 C30.3215929,24.819159 30.0766461,24.7022728 29.9409561,24.6920452 C29.3717631,24.6599015 28.9576444,24.2464166 29.0034618,23.7803328 C29.047517,23.3127879 29.5391728,22.9635904 30.1030792,23.0030395 C30.6458391,23.0395664 31.0828665,23.2265844 31.4828876,23.4165245 C31.9745434,23.6488358 32.1454775,24.1660573 31.8652866,24.5736979 C31.6414862,24.8995183 31.1938856,25.0543925 30.772718,24.9827997" id="Fill-11"></path>
                    <path d="M33.7291013,19.9285917 C33.2486936,19.8244992 32.9299917,19.3275416 33.0131996,18.8070792 C33.1011173,18.2765434 33.5736753,17.9222932 34.0697826,18.0146333 C34.2299185,18.0448537 34.3916243,18.0364591 34.5501903,18.0347802 C34.7637048,18.0331013 34.9756494,18.0314224 35.1891639,18.0566061 C35.6821313,18.1254414 36.0495019,18.5988943 35.9945533,19.1327879 C35.9380347,19.6683605 35.4874563,20.0528311 34.988209,19.9940692 C34.8484826,19.9772801 34.7103262,19.9806379 34.5737397,19.9839957 C34.3319658,19.9856746 34.0556529,19.9907114 33.7542206,19.9336284 C33.7479408,19.9336284 33.738521,19.9302706 33.7291013,19.9285917" id="Fill-13"></path>
                    <path d="M35.8374602,14.980556 C35.4522926,14.911941 35.1283198,14.6518423 35.0293282,14.2912146 C34.8943395,13.7949527 35.2381106,13.2939036 35.7978635,13.1726306 C35.9724488,13.1359296 36.1506338,13.1103984 36.3306186,13.0864629 C36.4548082,13.070506 36.5807976,13.054549 36.7013874,13.0274221 C37.2629402,12.9045534 37.8280926,13.2061402 37.9684808,13.7008065 C38.108869,14.1986642 37.7668978,14.6997132 37.2089447,14.8241776 C37.0217605,14.8656658 36.8309765,14.8927926 36.6401926,14.9183238 C36.5214026,14.9342808 36.4026126,14.9470464 36.291022,14.9725775 C36.1380349,15.0076829 35.9850477,15.0076829 35.8374602,14.980556" id="Fill-15"></path>
                    <path d="M28.894208,15.9747388 C28.5151511,15.8934746 28.2029011,15.617483 28.0562162,15.2096288 C27.8891988,14.7496428 28.1070476,14.2359918 28.5412929,14.0596639 C28.8695185,13.926268 29.2238859,14.0243983 29.4504487,14.2758573 C29.7510801,14.3939204 29.9732859,14.6867781 29.9979755,15.0471004 C30.0299266,15.5362188 29.6799162,15.9609392 29.215172,15.9962048 C29.1047952,16.0054045 28.9958708,15.9977381 28.894208,15.9747388" id="Fill-17"></path>
                    <path d="M26.8555524,18.9815375 C26.6156819,18.9333487 26.3955269,18.7968137 26.2509474,18.5815703 L26.1523705,18.4370039 C25.8664975,18.0049108 25.9946475,17.4266449 26.4382435,17.1471498 C26.8818396,16.8708672 27.470015,16.9945518 27.7558881,17.4266449 L27.8413214,17.5535421 C28.1321232,17.9840289 28.012188,18.5606885 27.5718778,18.8450025 C27.3517228,18.9879627 27.0937799,19.0281201 26.8555524,18.9815375" id="Fill-19"></path>
                    <path d="M21.7024794,20.9825183 C21.28301,20.8979927 20.9771153,20.5243005 21.0013446,20.092775 C21.0270882,19.6241768 21.3390402,19.2252752 21.8190828,19.0532582 C22.2733818,18.8886556 22.779168,19.118506 22.9457443,19.5648606 C23.082034,19.9296554 22.953316,20.3255911 22.6519643,20.548027 C22.4959883,20.829779 22.182522,21.0166252 21.8311975,20.9988303 C21.7887962,20.9973474 21.7448806,20.9914158 21.7024794,20.9825183" id="Fill-21"></path>
                    <path d="M17.7418634,22.9831964 C17.6813129,22.9716666 17.619169,22.9543718 17.5602119,22.9327534 C17.0901488,22.749717 16.8734417,22.256816 17.0758079,21.833094 C17.1220175,21.7350903 17.1682271,21.6385278 17.2096564,21.5405241 C17.3929013,21.1067136 17.9267018,20.8876464 18.4047321,21.0577117 C18.881169,21.222012 19.1217775,21.7048245 18.9385326,22.1371938 C18.8875427,22.256816 18.8333659,22.3735557 18.7760023,22.4931779 C18.5991311,22.8635743 18.1625301,23.0610229 17.7418634,22.9831964" id="Fill-23"></path>
                </g>
            </g>
        </g>
    </g>
</svg>