<?xml version="1.0" encoding="UTF-8"?>
<svg width="46px" height="42px" viewBox="0 0 46 42" version="1.1" xmlns="http://www.w3.org/2000/svg" xmlns:xlink="http://www.w3.org/1999/xlink">
    <!-- Generator: Sketch 58 (84663) - https://sketch.com -->
    <title>Group 8</title>
    <desc>Created with Sketch.</desc>
    <defs>
        <polygon id="path-1" points="0 0.40179021 45.4184031 0.40179021 45.4184031 42 0 42"></polygon>
    </defs>
    <g id="Page-1" stroke="none" stroke-width="1" fill="none" fill-rule="evenodd">
        <g id="Shop-Page---CBD-Gummies" transform="translate(-833.000000, -1967.000000)">
            <g id="Group" transform="translate(524.000000, 1505.000000)">
                <g id="Group-8" transform="translate(309.000000, 462.000000)">
                    <path d="M15.1679408,23 C14.6673243,23 14.3341554,23.3844622 14.3341554,23.9621514 C14.3341554,25.1155378 13.5003699,26.0776892 12.5008631,26.0776892 C11.4996301,26.0776892 10.6675709,25.1155378 10.6675709,23.9621514 C10.6675709,23.3844622 10.3326757,23 9.83378545,23 C9.33316893,23 9,23.3844622 9,23.9621514 C9,26.1733068 10.5847102,28 12.5008631,28 C14.417016,28 16,26.1733068 16,23.9621514 C16,23.3844622 15.6685573,23 15.1679408,23" id="Fill-1" fill="#F8E9DF"></path>
                    <g id="Group-5">
                        <mask id="mask-2" fill="white">
                            <use xlink:href="#path-1"></use>
                        </mask>
                        <g id="Clip-4"></g>
                        <path d="M40.5288349,33.3967552 C38.5401372,35.2882238 35.9846411,36.4219301 33.2369434,36.4219301 C30.4931682,36.4219301 27.9357109,35.3822098 25.9450519,33.3967552 C25.284114,32.7349371 24.7153543,31.9771748 24.2407341,31.1273846 C24.6212147,27.6303217 23.105176,24.6991329 23.105176,24.6051469 C23.3895558,22.8076643 24.052455,21.2001119 25.1899744,19.7824895 C26.231393,20.7282238 26.9884318,21.2960559 27.0845326,21.390042 C27.2728116,21.485986 27.7454705,21.8619301 28.4083698,21.2001119 C28.6927496,20.8222098 28.5986101,20.1603916 28.2200907,19.8784336 C28.2200907,19.8784336 27.5571915,19.3106014 26.5138116,18.4588531 C28.4083698,16.8513007 30.7755868,15.9055664 33.2369434,15.9055664 C35.9846411,15.9055664 38.5401372,16.9472448 40.5288349,18.9326993 C44.6003698,22.9036084 44.6003698,29.3318601 40.5288349,33.3967552 M22.3481372,31.0333986 C21.7793775,36.138014 17.425424,40.1089231 12.2144085,40.1089231 C6.53465659,40.1089231 1.89436202,35.4761958 1.89436202,29.8037483 C1.89436202,24.5092028 5.87175736,20.2563357 10.9847109,19.5945175 C10.9847109,21.0121399 11.1729899,21.9578741 11.1729899,22.0518601 C11.2690907,22.5237483 11.6476101,22.8076643 12.1222302,22.8076643 L12.3105093,22.8076643 C12.7851295,22.7136783 13.1636488,22.2417902 13.0675481,21.7679441 C13.0675481,21.7679441 12.9734085,20.9161958 12.8773078,19.5945175 C16.666424,19.8784336 19.9789589,22.2417902 21.4969589,25.5508811 C21.5910984,25.6448671 22.9168969,28.3861259 22.3481372,31.0333986 M6.91121473,8.72151049 C5.49323798,8.72151049 4.07133876,8.43759441 2.74554031,7.96570629 C4.83033876,4.46668531 8.52335426,2.29325874 12.6890287,2.29325874 C14.1089667,2.29325874 15.5308659,2.57717483 16.8566643,3.04906294 C16.1937651,4.3726993 13.2577884,8.43759441 6.91121473,8.72151049 M23.864176,18.4588531 C22.9168969,19.5945175 22.1598581,20.9161958 21.685238,22.3357762 C19.6024008,19.6885035 16.3820442,17.892979 12.8773078,17.703049 C12.9734085,14.8678042 13.540207,11.0848671 15.4347651,7.5878042 C16.0976643,7.01997203 16.7605636,6.35815385 17.425424,5.69633566 C18.0883233,11.2747972 21.3067186,15.7175944 23.864176,18.4588531 M23.6739357,2.29325874 C27.8396101,2.29325874 31.6287264,4.46668531 33.7115636,7.96570629 C32.3857651,8.43759441 30.9658271,8.72151049 29.5439279,8.72151049 C25.3782535,8.72151049 21.5910984,6.54808392 19.5063,3.04906294 C20.8320984,2.57717483 22.2539977,2.29325874 23.6739357,2.29325874 M33.2369434,13.9220699 C30.2068271,13.9220699 27.3669512,15.0557762 25.1899744,17.0412308 C22.9168969,14.6778741 20.1691992,10.800951 19.3180209,6.07423776 C21.8735171,9.00542657 25.472393,10.706965 29.4517496,10.706965 C31.5326256,10.706965 33.5232845,10.2331189 35.3217419,9.38332867 C35.7944008,9.19535664 35.9846411,8.62752448 35.7944008,8.15367832 C33.617424,3.42696503 28.8829899,0.40179021 23.6739357,0.40179021 C21.7793775,0.40179021 19.8867806,0.779692308 18.1805016,1.63144056 C16.4761837,0.875636364 14.6777264,0.40179021 12.6890287,0.40179021 C7.57607519,0.40179021 2.83967984,3.42696503 0.568563566,8.05969231 C0.378323256,8.53158042 0.568563566,9.09941259 1.04122248,9.28738462 C2.93578062,10.2331189 4.92447829,10.612979 6.91121473,10.612979 C8.90187364,10.612979 10.7964318,10.1391329 12.5007496,9.38332867 C11.3632302,12.4085035 10.9847109,15.4336783 10.9847109,17.703049 C4.83033876,18.3648671 -0.000196124031,23.5654266 -0.000196124031,29.8037483 C-0.000196124031,36.5178741 5.49323798,42.0003916 12.2144085,42.0003916 C17.6117419,42.0003916 22.1598581,38.5013706 23.7680752,33.6806713 C24.052455,34.0585734 24.3368349,34.4364755 24.7153543,34.8163357 C26.9884318,37.0837483 30.1126876,38.4073846 33.3330442,38.4073846 C36.5534008,38.4073846 39.6756953,37.1796923 41.9507341,34.8163357 C46.5910287,29.9936783 46.5910287,22.2417902 41.8565946,17.5131189 C39.5835171,15.2437483 36.4573,13.9220699 33.2369434,13.9220699 Z" id="Fill-3" fill="#F8E9DF" mask="url(#mask-2)"></path>
                    </g>
                    <path d="M30.4796714,19.2708402 C30.1066473,19.5979787 30.1066473,20.0895338 30.4796714,20.4166722 C30.8526955,20.7438106 31.0401739,21.2353657 31.0401739,21.643865 C31.0401739,22.1354201 30.8526955,22.5456144 30.4796714,22.8727528 C29.7316905,23.5270296 28.3342997,23.5270296 27.5863188,22.8727528 C27.2152274,22.5456144 26.6547249,22.5456144 26.2797681,22.8727528 C25.906744,23.1998912 25.906744,23.6897513 26.2797681,24.0185848 C27.027749,24.6728616 27.9593429,25 29.0784151,25 C30.1066473,25 31.1329468,24.6728616 31.8809277,24.0185848 C32.6250431,23.3643079 33,22.5456144 33,21.5625041 C33,20.6624498 32.6250431,19.7623954 31.8809277,19.1081186 C31.4112653,18.9437018 30.8526955,18.9437018 30.4796714,19.2708402" id="Fill-6" fill="#F8E9DF"></path>
                </g>
            </g>
        </g>
    </g>
</svg>