<?xml version="1.0" encoding="UTF-8"?>
<svg width="66px" height="45px" viewBox="0 0 66 45" version="1.1" xmlns="http://www.w3.org/2000/svg" xmlns:xlink="http://www.w3.org/1999/xlink">
    <!-- Generator: Sketch 61.1 (89650) - https://sketch.com -->
    <title>Group 14</title>
    <desc>Created with Sketch.</desc>
    <defs>
        <polygon id="path-1" points="0 0.69806383 39.3291336 0.69806383 39.3291336 42.2867654 0 42.2867654"></polygon>
    </defs>
    <g id="Page-1" stroke="none" stroke-width="1" fill="none" fill-rule="evenodd">
        <g id="Verma-Farms---Homepage---R3" transform="translate(-215.000000, -3545.000000)">
            <g id="Group-14" transform="translate(215.000000, 3545.000000)">
                <g id="Group-3">
                    <mask id="mask-2" fill="white">
                        <use xlink:href="#path-1"></use>
                    </mask>
                    <g id="Clip-2"></g>
                    <path d="M23.2224,18.5619106 C23.3868444,18.7705064 23.5237333,18.9379319 23.6544,19.1108468 C27.1335111,23.6962936 30.6117333,28.2835702 34.0917333,32.8699319 C34.7388444,33.7226128 35.8428444,33.8552723 36.6979556,33.1919745 C37.6366222,32.4628043 37.8606222,31.2459957 37.1957333,30.3658681 C32.7939556,24.536166 28.3895111,18.7082936 23.9788444,12.8849957 C23.6890667,12.5034851 23.4170667,12.1274638 23.6250667,11.6325064 C23.8481778,11.102783 24.3246222,11.0625277 24.8188444,11.0588681 C27.7530667,11.0405702 30.6872889,11.0122085 33.6224,10.9838468 C33.7930667,10.9829319 33.9655111,10.9774426 34.1344,10.9518255 C34.9504,10.8246553 35.5281778,10.0058255 35.5228444,8.99669787 C35.5184,8.03971915 35.0952889,7.57861277 34.1192889,7.46791064 C33.7157333,7.42125106 33.3112889,7.37093191 32.9068444,7.33433617 C29.9228444,7.06627234 26.9281778,6.87963404 23.9566222,6.51001702 C21.5992889,6.21633617 19.3512889,5.54205957 17.6268444,3.64914468 C16.7886222,2.7287617 15.6792889,2.42501702 14.4552889,2.54761277 C12.8615111,2.70588936 11.4526222,3.3884 10.0864,4.17429362 C7.46773333,5.67929362 5.01973333,7.42216596 3.3104,10.0268681 C1.46684444,12.8346766 1.21351111,15.7440383 3.06062222,18.6808468 C3.71217778,19.7155915 4.37084444,20.752166 5.1024,21.7265277 C9.3584,27.3933787 13.6366222,33.0437617 17.9086222,38.6978043 C18.5512889,39.5468255 19.6970667,39.6776553 20.5166222,39.000634 C21.3432889,38.3181234 21.4952889,37.212017 20.8615111,36.3730596 C19.0606222,33.9888468 17.2552889,31.6092085 15.4517333,29.2277404 C14.7797333,28.3412085 14.1015111,27.4610809 13.4392889,26.5672298 C13.0375111,26.0246979 13.0748444,25.5187617 13.5104,25.1711021 C13.9486222,24.8206979 14.3992889,24.9176766 14.8401778,25.4583787 C14.9086222,25.5425489 14.9726222,25.6312936 15.0384,25.7182085 C18.5690667,30.375017 22.0970667,35.0327404 25.6295111,39.688634 C26.3015111,40.575166 27.3237333,40.7069106 28.1495111,40.0271447 C29.0152889,39.3153574 29.0917333,38.4443787 28.3752889,37.5011234 C25.6072889,33.8534426 22.8392889,30.2057617 20.0730667,26.557166 C19.2295111,25.4455702 18.3655111,24.3486128 17.5672889,23.203166 C17.3912889,22.9506553 17.3424,22.4804 17.4446222,22.1867191 C17.5272889,21.9515915 17.9548444,21.6634 18.1770667,21.7036553 C18.5112889,21.7640383 18.8739556,22.0293574 19.0952889,22.3148043 C20.6970667,24.3815489 22.2668444,26.4757404 23.8472889,28.5616979 C26.3228444,31.828783 28.8037333,35.0922085 31.2721778,38.3656979 C31.6277333,38.837783 32.0535111,39.1250596 32.6348444,39.0811447 C33.4224,39.0216766 34.0979556,38.7316553 34.4632889,37.9457617 C34.8170667,37.1845702 34.6428444,36.5404851 34.1370667,35.8799319 C30.4170667,31.011783 26.7219556,26.1235064 23.0197333,21.241634 C22.6295111,20.7274638 22.2481778,20.2078043 21.8410667,19.6625277 C22.3317333,19.2709532 22.7664,18.9242085 23.2224,18.5619106 M26.3415111,13.0112511 C27.7041778,14.8172511 29.0650667,16.6232511 30.4286222,18.4283362 C33.1219556,21.9945915 35.7228444,25.6413574 38.5459556,29.0969106 C40.2792889,31.217634 38.9024,34.5359532 36.6872889,35.2248681 C36.4837333,35.2879957 36.2792889,35.3465489 36.0321778,35.4206553 C36.4757333,36.3016979 36.6241778,37.2294 36.2561778,38.1031234 C35.9584,38.8085064 35.5557333,39.5459106 35.0055111,40.0426979 C33.7184,41.2073574 31.9948444,41.1899745 30.3779556,40.1405915 C30.2588444,40.3052723 30.1299556,40.4699532 30.0152889,40.643783 C28.7041778,42.6199532 25.6392889,42.9968894 24.1832889,40.7572298 C23.7717333,40.1232085 23.2721778,39.5495702 22.7646222,38.8862723 C22.0766222,40.3363787 21.0179556,41.125017 19.5281778,41.2393787 C18.3397333,41.3308681 17.3575111,40.9383787 16.6046222,39.9384 C12.2606222,34.1754851 7.87662222,28.4445915 3.5744,22.6487404 C2.47751111,21.1702723 1.44462222,19.5829319 0.703288889,17.8958681 C-0.591822222,14.9517404 0.0117333333,12.0780596 1.61617778,9.40199574 C3.13617778,6.86499574 5.32551111,5.04069787 7.74417778,3.48446383 C9.65617778,2.25484681 11.6348444,1.1661234 13.9015111,0.801080851 C15.6348444,0.521123404 17.3272889,0.7654 18.5619556,2.08559149 C20.1441778,3.77631489 22.0970667,4.4496766 24.2295111,4.69852766 C27.0775111,5.03154894 29.9397333,5.23465532 32.7948444,5.50454894 C33.5601778,5.57682553 34.3326222,5.6390383 35.0846222,5.79457021 C36.5290667,6.09374043 37.5388444,7.85948511 37.2606222,9.51178298 C36.8846222,11.7422936 35.5326222,12.8438255 33.3290667,12.8081447 C31.0188444,12.770634 28.7077333,12.7999106 26.3975111,12.7999106 C26.3788444,12.8703574 26.3601778,12.9408043 26.3415111,13.0112511" id="Fill-1" fill="#443636" mask="url(#mask-2)"></path>
                </g>
                <path d="M30,4.38882603 C30.6378482,2.57040547 32.1976207,1.61986745 33.8650246,2.1427532 C36.2743791,2.89923053 38.6360935,3.81293296 41.0242746,4.64038619 C43.2536554,5.41303524 45.4892117,6.15783299 47.8456327,6.44622875 C48.9704687,6.58458683 50.0450179,6.49474392 51.095747,6.06529479 C53.7847666,4.96741439 56.1764766,5.54061218 58.2973438,7.45246937 C58.9960654,8.08136977 59.6744959,8.74800418 60.2699973,9.47573178 C62.6140672,12.3408223 64.5567251,15.4502855 65.5165851,19.0943141 C66.3282314,22.1795197 66.2011911,25.1757809 64.4932049,27.9707939 C63.5580472,29.5026156 62.2223596,30.6076834 60.7128739,31.4764644 C56.2594057,34.0387843 51.7882931,36.5705575 47.3101226,39.0870575 C44.019426,40.9351263 40.7066739,42.7409688 37.4027439,44.56478 C36.1252832,45.2691484 34.8884047,45.071494 33.7265154,44.3096261 C32.5699193,43.5513519 31.9144267,42.4705417 31.90384,41.0034069 C32.4252345,41.0402425 32.9060468,41.0501252 33.3771545,41.1237964 C33.5024304,41.1435618 33.6497618,41.3430131 33.6991664,41.4903555 C34.2161498,43.0140913 35.5438974,43.5540472 36.9342828,42.7858903 C43.6162495,39.0987371 50.3035096,35.4223651 56.9731252,31.7109544 C58.2567615,30.9967032 59.4954044,30.1890154 60.7075805,29.3534763 C63.6286251,27.3391982 64.6078941,24.4480533 64.1420797,20.9953901 C63.7450787,18.0539331 62.3846889,15.5095818 60.7719829,13.0972996 C59.5483378,11.2680979 58.2461748,9.49909094 56.4190883,8.22871214 C55.1830921,7.36981389 53.8068222,6.92149776 52.3829122,7.53782014 C49.7265349,8.68780943 47.0798621,8.40390582 44.4667138,7.58184317 C41.1663127,6.54325909 37.914434,5.34475463 34.6387353,4.22261664 C34.1976231,4.07078212 33.7503354,3.91265859 33.2933432,3.83988583 C33.0207359,3.79586281 32.6149128,3.80664395 32.4569946,3.97554863 C31.730924,4.74909611 30.8857532,4.33312343 30,4.38882603" id="Fill-4" fill="#443636"></path>
                <path d="M32.107173,19 C31.7289186,18.4754098 31.3773644,17.9874638 31,17.463838 C33.7056317,15.8727097 36.3569729,14.3143684 39.0901949,12.707811 C38.3746265,12.3394407 37.7418291,12.0135005 37.0752113,11.6711668 C37.3671347,11.1099325 37.6439279,10.5776278 37.9447515,10 C39.1240153,10.5911283 40.3201893,11.1542912 41.483433,11.7859209 C42.2061215,12.1783992 42.1607309,13.0916104 41.4086721,13.5419479 C39.9098945,14.43973 38.3942068,15.3066538 36.8874191,16.1899711 C35.3076505,17.1157184 33.729662,18.0462874 32.107173,19" id="Fill-6" fill="#443636"></path>
                <path d="M37.1155209,37 C37.0760512,36.4052432 37.0423577,35.8823987 37,35.2470326 C39.7234048,33.929769 42.4949433,32.5879706 45.2693698,31.2504023 C45.4907848,31.1438029 45.7603335,30.9652913 45.9586444,31.0059006 C46.3244605,31.0795049 46.7942454,31.2207913 46.955012,31.4669851 C47.0917117,31.6776458 46.8837741,32.0845846 46.7711412,32.3874622 C46.7307089,32.4940616 46.5256594,32.5617437 46.3841463,32.6285798 C43.3902301,34.0507508 40.3943886,35.4703837 37.398547,36.8891705 C37.3215331,36.9255496 37.2387432,36.9517765 37.1155209,37" id="Fill-8" fill="#443636"></path>
                <path d="M35.9511078,24 C35.6299943,23.5151624 35.3287591,23.0600639 35,22.564412 C36.3058619,21.7353217 37.5650859,20.9269586 38.8334845,20.1375204 C39.2478739,19.8797814 39.6293874,19.9825165 39.8878074,20.4610459 C40.1133515,20.8764922 39.9933162,21.4126974 39.5773976,21.6866577 C38.3908065,22.4661828 37.1881597,23.2132654 35.9511078,24" id="Fill-10" fill="#443636"></path>
                <path d="M40.96137,29 C40.6395858,28.5754717 40.345679,28.1871069 40,27.7303459 C41.0824373,27.1533019 42.1401832,26.5896226 43.2473118,26 C43.5069693,26.4732704 43.7387495,26.8962264 44,27.3726415 C42.9661489,27.9261006 41.9697332,28.4599057 40.96137,29" id="Fill-12" fill="#443636"></path>
            </g>
        </g>
    </g>
</svg>