<?xml version="1.0" encoding="UTF-8"?>
<svg width="100px" height="92px" viewBox="0 0 100 92" version="1.1" xmlns="http://www.w3.org/2000/svg" xmlns:xlink="http://www.w3.org/1999/xlink">
    <!-- Generator: Sketch 61.1 (89650) - https://sketch.com -->
    <title>Group 2</title>
    <desc>Created with Sketch.</desc>
    <defs>
        <polygon id="path-1" points="1.65384947e-13 8.15701486e-05 49.5613793 8.15701486e-05 49.5613793 49.5614609 1.65384947e-13 49.5614609"></polygon>
    </defs>
    <g id="Page-1" stroke="none" stroke-width="1" fill="none" fill-rule="evenodd">
        <g id="Verma-Farms---Homepage---R3" transform="translate(-191.000000, -2220.000000)">
            <g id="Group-2" transform="translate(191.000000, 2220.000000)">
                <g id="fruit/melon" transform="translate(0.000000, 26.000000)" fill="#443636">
                    <path d="M34.8364573,0.603895205 C35.9088381,4.29897412 34.0658037,8.14624867 31.9171984,11.3789611 C38.0612871,15.998773 40.5173851,25.3886659 30.6891493,36.9362692 C18.4028937,51.8687805 -9.85376472,47.4030907 3.50679361,30.4689178 C4.27552539,29.3919892 5.1960817,22.9265643 5.81106712,20.9249027 C9.34338965,7.83993087 22.2427089,5.53002492 30.3816566,10.3020325 C32.0709447,7.83993087 33.1471692,4.29897412 32.2246911,1.22038387 C31.9171984,-0.0125934566 34.5289646,-0.473033426 34.8364573,0.603895205 Z M7.50035521,21.3853427 C6.73354526,23.8493708 6.11855984,30.0065513 4.89051082,31.547773 C-7.09017397,46.6344064 18.8641327,48.6341415 29.4611003,35.857414 C49.578811,11.5350098 13.4887758,-0.781277757 7.50035521,21.3853427 Z M32.4995414,25.7245325 C31.3391727,30.1247217 29.0225793,33.7109676 25.2140832,36.3200737 C24.2215534,36.9728603 23.2269516,35.5040906 24.2215534,34.6901474 C27.5306766,32.4094745 29.6856472,29.1475818 30.6781769,25.2349426 C31.0097108,24.0946062 32.8310754,24.5841961 32.4995414,25.7245325 Z M32.8824086,21.4234101 L33.0054859,21.4241271 C33.4541462,21.4503461 33.8677229,21.7332408 34.04058,22.1799166 C34.2739134,22.7890201 33.9715324,23.4718821 33.3596277,23.7050546 C33.2786753,23.7364615 33.1963261,23.7582665 33.1138386,23.7710337 L32.990161,23.7834766 C32.4962943,23.8066987 32.0201038,23.5147097 31.8334372,23.0293304 C31.5977229,22.420227 31.9024848,21.7349856 32.5120086,21.5018132 C32.6339134,21.4547028 32.7587705,21.4291966 32.8824086,21.4234101 Z M49.98238,13.5388905 C45.6568338,14.4443106 40.5601111,18.8258635 32.8386825,10.8188497 C36.079943,10.5164129 38.3992708,9.45977443 43.8033044,11.5749417 C41.0239767,9.76221121 37.6261615,8.55435431 33.609859,9.61099282 C38.0880943,4.92889339 43.3394388,4.777675 49.98238,13.5388905 Z" id="Combined-Shape"></path>
                </g>
                <g id="fruit/watermellon" transform="translate(48.000000, 0.000000)" fill="#443636">
                    <path d="M1.95148226,24.2199913 C5.05668226,28.3863375 9.61508226,31.2280683 14.8678823,32.257876 C20.3852823,33.3374913 26.0118823,32.2874913 30.7088823,29.2990298 C40.1798823,23.2763375 42.9476823,11.1151837 37.0970823,1.86441442 L1.95148226,24.2199913 Z M14.5430823,33.7884529 C14.5430823,33.7884529 14.5430823,33.7884529 14.5430823,33.7884529 C8.60008226,32.6226837 3.48168226,29.3030683 0.134282264,24.4380683 C0.0152822644,24.2657606 -0.0267177356,24.0544144 0.0166822644,23.8524913 C0.0586822644,23.647876 0.183282264,23.4688375 0.363882264,23.3544144 L36.8912823,0.122491345 C37.2496823,-0.106354809 37.7788823,-0.00404711623 38.0168823,0.341914422 C44.9258823,10.3855683 42.0502823,23.9601837 31.6062823,30.6021067 C26.5466823,33.8221067 20.4874823,34.952876 14.5430823,33.7884529 L14.5430823,33.7884529 Z" id="Fill-1"></path>
                    <path d="M15.4558823,29.4652798 C10.9254823,28.5781644 6.74648226,26.0325875 3.99968226,22.0412413 C3.75328226,21.6818183 3.85548226,21.1972029 4.22928226,20.9589337 C4.60448226,20.7206644 5.10708226,20.8189337 5.35628226,21.1797029 C10.3556823,28.443549 20.5672823,30.4439337 28.1202823,25.6381644 C31.7798823,23.3120106 34.2788823,19.7514337 35.1538823,15.6187413 C36.0302823,11.4847029 35.1790823,7.26854904 32.7584823,3.74970288 C32.5106823,3.38893365 32.6128823,2.90566442 32.9866823,2.66739519 C33.3632823,2.42912596 33.8658823,2.52739519 34.1136823,2.88816442 C36.7750823,6.75431827 37.7102823,11.3864337 36.7470823,15.9297029 C35.7852823,20.4729721 33.0398823,24.3848952 29.0176823,26.9425875 C24.8666823,29.5823952 19.9848823,30.3523952 15.4558823,29.4652798" id="Fill-3"></path>
                    <path d="M22.1333223,23.0617606 C21.9723223,23.030799 21.8211223,22.9527221 21.7007223,22.8302221 C21.4767223,22.601376 21.3787223,22.3577221 21.3073223,22.1786837 C21.2877223,22.1275298 21.2583223,22.0575298 21.2443223,22.0359913 C20.8859223,21.7761837 20.8285223,21.298299 21.0987223,20.9536837 C21.3689223,20.6077221 21.8925223,20.5525298 22.2495223,20.8123375 C22.6079223,21.0721452 22.7381223,21.4019529 22.8249223,21.6186837 C22.8459223,21.6725298 22.8767223,21.7452221 22.8907223,21.7667606 C23.1987223,22.0804144 23.1791223,22.5717606 22.8515223,22.8679144 C22.6527223,23.0469529 22.3825223,23.1115683 22.1333223,23.0617606" id="Fill-5"></path>
                    <path d="M12.4160623,23.0275683 C12.4062623,23.0262221 12.3978623,23.024876 12.3880623,23.0221837 C11.9512623,22.9212221 11.6824623,22.499876 11.7874623,22.079876 L12.0128623,21.1725683 C12.1192623,20.7539144 12.5574623,20.4658375 12.9942623,20.5950683 C13.4296623,20.697376 13.6998623,21.117376 13.5948623,21.537376 L13.3680623,22.4433375 C13.2644623,22.8552606 12.8430623,23.1110298 12.4160623,23.0275683" id="Fill-7"></path>
                    <path d="M17.5627423,24.003126 C17.1987423,23.9317798 16.9215423,23.627549 16.9131423,23.2533183 C16.9033423,22.822549 16.9341423,22.5937029 17.0559423,22.1871644 C17.0657423,22.1521644 17.0769423,22.1198567 17.0895423,22.0862029 C17.0083423,21.7873567 17.1175423,21.457549 17.3905423,21.2623567 C17.7503423,21.0052413 18.2599423,21.0765875 18.5273423,21.4252413 C18.9109423,21.920626 18.7065423,22.4052413 18.6393423,22.5613952 C18.5413423,22.8723567 18.5315423,22.9463952 18.5371423,23.2223567 C18.5455423,23.653126 18.1899423,24.0098567 17.7405423,24.0192798 C17.6803423,24.020626 17.6215423,24.0152413 17.5627423,24.003126" id="Fill-9"></path>
                    <path d="M26.2416223,20.8808567 C26.1590223,20.8647029 26.0778223,20.8364337 26.0008223,20.7947029 C25.8832223,20.7300875 25.6886223,20.6223952 25.5808223,20.6129721 C25.1286223,20.5833567 24.7996223,20.2023952 24.8360223,19.7729721 C24.8710223,19.3422029 25.2616223,19.0204721 25.7096223,19.0568183 C26.1408223,19.0904721 26.4880223,19.2627798 26.8058223,19.4377798 C27.1964223,19.6518183 27.3322223,20.1283567 27.1096223,20.5039337 C26.9318223,20.804126 26.5762223,20.9468183 26.2416223,20.8808567" id="Fill-11"></path>
                    <path d="M29.2453223,16.8450875 C28.8169223,16.761626 28.5327223,16.3631644 28.6069223,15.9458567 C28.6853223,15.5204721 29.1067223,15.2364337 29.5491223,15.3104721 C29.6919223,15.3347029 29.8361223,15.3279721 29.9775223,15.326626 C30.1679223,15.3252798 30.3569223,15.3239337 30.5473223,15.344126 C30.9869223,15.3993183 31.3145223,15.7789337 31.2655223,16.2070106 C31.2151223,16.6364337 30.8133223,16.9447029 30.3681223,16.8975875 C30.2435223,16.884126 30.1203223,16.8868183 29.9985223,16.8895106 C29.7829223,16.8908567 29.5365223,16.8948952 29.2677223,16.849126 C29.2621223,16.849126 29.2537223,16.8464337 29.2453223,16.8450875" id="Fill-13"></path>
                    <path d="M30.9666223,12.589626 C30.6670223,12.5317413 30.4150223,12.3123183 30.3380223,12.0080875 C30.2330223,11.5894337 30.5004223,11.1667413 30.9358223,11.0644337 C31.0716223,11.0334721 31.2102223,11.0119337 31.3502223,10.9917413 C31.4468223,10.9782798 31.5448223,10.9648183 31.6386223,10.9419337 C32.0754223,10.8382798 32.5150223,11.0927029 32.6242223,11.5100106 C32.7334223,11.9300106 32.4674223,12.3527029 32.0334223,12.4577029 C31.8878223,12.4927029 31.7394223,12.5155875 31.5910223,12.537126 C31.4986223,12.5505875 31.4062223,12.5613567 31.3194223,12.5828952 C31.2004223,12.6125106 31.0814223,12.6125106 30.9666223,12.589626" id="Fill-15"></path>
                    <path d="M25.2491623,13.549299 C24.8837623,13.4779529 24.5827623,13.2356452 24.4413623,12.8775683 C24.2803623,12.4737221 24.4903623,12.0227606 24.9089623,11.8679529 C25.2253623,11.7508375 25.5669623,11.8369913 25.7853623,12.0577606 C26.0751623,12.1614144 26.2893623,12.4185298 26.3131623,12.734876 C26.3439623,13.164299 26.0065623,13.5371837 25.5585623,13.5681452 C25.4521623,13.5762221 25.3471623,13.5694913 25.2491623,13.549299" id="Fill-17"></path>
                    <path d="M22.7868423,15.7775875 C22.5824423,15.7372029 22.3948423,15.6227798 22.2716423,15.4423952 L22.1876423,15.3212413 C21.9440423,14.959126 22.0532423,14.4745106 22.4312423,14.2402798 C22.8092423,14.0087413 23.3104423,14.1123952 23.5540423,14.4745106 L23.6268423,14.5808567 C23.8746423,14.941626 23.7724423,15.4248952 23.3972423,15.6631644 C23.2096423,15.7829721 22.9898423,15.816626 22.7868423,15.7775875" id="Fill-19"></path>
                    <path d="M19.5254023,18.1228567 C19.1376023,18.046126 18.8548023,17.7068952 18.8772023,17.3151644 C18.9010023,16.8897798 19.1894023,16.5276644 19.6332023,16.3715106 C20.0532023,16.2220875 20.5208023,16.4307413 20.6748023,16.8359337 C20.8008023,17.1670875 20.6818023,17.5265106 20.4032023,17.7284337 C20.2590023,17.9842029 19.9692023,18.1538183 19.6444023,18.1376644 C19.6052023,18.1363183 19.5646023,18.1309337 19.5254023,18.1228567" id="Fill-21"></path>
                    <path d="M15.9440623,19.2586067 C15.8908623,19.2478375 15.8362623,19.2316837 15.7844623,19.2114913 C15.3714623,19.0405298 15.1810623,18.5801452 15.3588623,18.184376 C15.3994623,18.0928375 15.4400623,18.0026452 15.4764623,17.9111067 C15.6374623,17.5059144 16.1064623,17.301299 16.5264623,17.4601452 C16.9450623,17.6136067 17.1564623,18.0645683 16.9954623,18.4684144 C16.9506623,18.5801452 16.9030623,18.6891837 16.8526623,18.8009144 C16.6972623,19.146876 16.3136623,19.331299 15.9440623,19.2586067" id="Fill-23"></path>
                </g>
                <g id="fruit/blueberry" transform="translate(50.000000, 42.000000)">
                    <mask id="mask-2" fill="white">
                        <use xlink:href="#path-1"></use>
                    </mask>
                    <g id="Clip-2"></g>
                    <path d="M32.9465517,29.2597367 C34.6068966,27.2493919 35.5137931,24.7493919 35.5137931,22.1097367 C35.5137931,21.6528402 35.4775862,21.2045643 35.4241379,20.7614609 C36.3655172,20.4528402 37.3362069,20.2545643 38.3396552,20.2545643 C43.5258621,20.2545643 47.7465517,24.4821505 47.7465517,29.6804264 C47.7465517,34.8787023 43.5258621,39.1062885 38.3396552,39.1062885 C38.0637931,39.1062885 37.7965517,39.0580126 37.5224138,39.0338747 C37.537931,38.7976678 37.5586207,38.563185 37.5586207,38.3218057 C37.5586207,34.6011161 35.7362069,31.3062885 32.9465517,29.2597367 M26.3362069,28.8959436 C31.5224138,28.8959436 35.7431034,33.1235298 35.7431034,38.3218057 C35.7431034,43.5200816 31.5224138,47.7476678 26.3362069,47.7476678 C21.15,47.7476678 16.9293103,43.5200816 16.9293103,38.3218057 C16.9293103,33.1235298 21.15,28.8959436 26.3362069,28.8959436 M13.0741379,22.0407712 L8.08448276,15.8476678 C7.93275862,15.6597367 7.71551724,15.5424954 7.47586207,15.5149092 C7.22758621,15.4924954 6.99655172,15.5580126 6.80862069,15.7114609 C6.61896552,15.863185 6.50172414,16.0804264 6.47586207,16.3235298 C6.45,16.5649092 6.52068966,16.7993919 6.67241379,16.9873229 L12.6551724,24.4114609 C12.1827586,24.3493919 11.7034483,24.3183574 11.2206897,24.3183574 C9.76206897,24.3183574 8.37413793,24.6062885 7.09482759,25.1166333 C3.46206897,20.9580126 1.92068966,16.3149092 2.43448276,10.9424954 C7.53103448,10.725254 11.4637931,12.6545643 14.4327586,16.7424954 C13.5758621,18.3200816 13.0844828,20.125254 13.0741379,22.0407712 M24.2913793,10.8683574 C24.2637931,10.8683574 24.237931,10.8718057 24.2103448,10.8718057 L23.1965517,6.03387467 C23.0948276,5.54766778 22.6224138,5.2304264 22.1206897,5.3304264 C21.6327586,5.43387467 21.3172414,5.91490916 21.4189655,6.40628847 L22.3896552,11.0424954 C20.9758621,11.2855988 19.6551724,11.7942195 18.4706897,12.5166333 C17.6258621,8.79077123 18.8258621,5.3580126 22.1655172,2.06835743 C26.1948276,4.87870226 28.3586207,8.07697812 28.75,11.7993919 C27.3827586,11.2028402 25.8758621,10.8683574 24.2913793,10.8683574 M16.0931034,17.5045643 C16.0689655,17.5476678 16.0344828,17.5855988 16.0172414,17.6338747 C15.9793103,17.7493919 15.9637931,17.8718057 15.9741379,17.9890471 C15.9793103,18.075254 16.0103448,18.1528402 16.0396552,18.2321505 C16.0517241,18.263185 16.0517241,18.2976678 16.0655172,18.3269781 C16.1,18.3959436 16.1551724,18.4493919 16.2051724,18.5080126 C16.2310345,18.5373229 16.2482759,18.575254 16.2793103,18.6028402 C16.3689655,18.6821505 16.4724138,18.7424954 16.5896552,18.7821505 L16.5896552,18.7821505 C17.6275862,19.1304264 18.1448276,20.3942195 17.7431034,21.6028402 C17.7034483,21.7183574 17.6896552,21.8390471 17.6982759,21.9597367 C17.7017241,21.9924954 17.7189655,22.0235298 17.7258621,22.0562885 C17.7413793,22.1373229 17.7534483,22.2200816 17.7913793,22.2959436 C17.8413793,22.3959436 17.9103448,22.4769781 17.987931,22.5493919 C17.9948276,22.5562885 17.9982759,22.5649092 18.0051724,22.5718057 C18.0948276,22.6511161 18.2,22.713185 18.3189655,22.7528402 C18.412069,22.7821505 18.5086207,22.7976678 18.6034483,22.7976678 C18.9948276,22.7976678 19.3396552,22.5476678 19.4637931,22.1787023 C19.6775862,21.5390471 20.1172414,21.0166333 20.6741379,20.7424954 C21.1293103,20.513185 21.6258621,20.4718057 22.0758621,20.6218057 C22.0827586,20.6235298 22.0896552,20.6218057 22.0982759,20.6235298 C22.1827586,20.6528402 22.2724138,20.6700816 22.3637931,20.6700816 C22.3758621,20.6700816 22.3844828,20.6597367 22.3965517,20.6597367 C22.5551724,20.6528402 22.7034483,20.6011161 22.8362069,20.5183574 C22.8724138,20.4942195 22.9017241,20.4683574 22.9344828,20.4424954 C23.0603448,20.3373229 23.1689655,20.213185 23.2241379,20.0493919 C23.3827586,19.575254 23.1258621,19.0597367 22.6517241,18.9011161 C21.6137931,18.5528402 21.0965517,17.2890471 21.5,16.0804264 C21.537931,15.9649092 21.5534483,15.8442195 21.5431034,15.7235298 C21.5396552,15.6683574 21.5137931,15.6200816 21.5,15.5683574 C21.4844828,15.5062885 21.4793103,15.4442195 21.4517241,15.3873229 C21.4241379,15.3355988 21.3810345,15.2976678 21.3448276,15.2511161 C21.3103448,15.2045643 21.2827586,15.1511161 21.2362069,15.1114609 C21.1482759,15.0338747 21.0431034,14.9718057 20.9275862,14.9321505 C20.6982759,14.8528402 20.4534483,14.8700816 20.2362069,14.9787023 C20.0189655,15.0873229 19.8551724,15.275254 19.7775862,15.5045643 C19.5655172,16.1424954 19.1241379,16.6666333 18.5689655,16.9424954 C18.112069,17.1700816 17.6155172,17.2114609 17.1672414,17.063185 C16.8137931,16.9442195 16.4431034,17.0562885 16.2086207,17.313185 C17.8482759,14.5476678 20.8534483,12.6838747 24.2913793,12.6838747 C29.4775862,12.6838747 33.6982759,16.9114609 33.6982759,22.1097367 C33.6982759,24.4097367 32.8465517,26.563185 31.35,28.2804264 C29.837931,27.5183574 28.1396552,27.0804264 26.3362069,27.0804264 C24.0862069,27.0804264 21.9913793,27.7545643 20.2344828,28.9011161 C18.9931034,27.2200816 17.3206897,25.9166333 15.4137931,25.1407712 C15.0793103,24.163185 14.8844828,23.1493919 14.8844828,22.1097367 C14.8844828,20.4355988 15.3275862,18.8666333 16.0931034,17.5045643 M19.1051724,18.6666333 C19.1948276,18.6304264 19.2896552,18.6114609 19.3775862,18.5683574 C19.5275862,18.4942195 19.662069,18.3907712 19.8017241,18.2993919 C19.8896552,18.5493919 20,18.7873229 20.1327586,19.0114609 C20.0448276,19.0476678 19.9517241,19.0718057 19.8637931,19.1149092 C19.7137931,19.1890471 19.5793103,19.2924954 19.4396552,19.3838747 C19.3517241,19.1338747 19.2396552,18.8942195 19.1051724,18.6666333 M11.2206897,26.1338747 C14.2155172,26.1338747 17.0465517,27.6097367 18.8034483,30.013185 C16.5448276,32.0718057 15.1155172,35.0287023 15.1155172,38.3218057 C15.1155172,40.1580126 15.5655172,41.8890471 16.35,43.4235298 C14.8275862,44.4166333 13.0431034,44.9855988 11.2206897,44.9855988 C6.03448276,44.9855988 1.8137931,40.7580126 1.8137931,35.5597367 C1.8137931,30.363185 6.03448276,26.1338747 11.2206897,26.1338747 M38.3396552,18.4407712 C37.2155172,18.4407712 36.112069,18.6080126 35.05,18.9355988 C34.3103448,16.4235298 32.7206897,14.2735298 30.6103448,12.8269781 C30.5258621,7.88904709 27.8396552,3.62180571 22.5672414,0.149391915 C22.2172414,-0.0799184299 21.762069,-0.0419873954 21.4517241,0.240771225 C17.0224138,4.32697812 15.5155172,8.8442195 16.9051724,13.6683574 C16.3896552,14.1200816 15.9172414,14.6166333 15.4931034,15.1528402 C12.0534483,10.7545643 7.37931034,8.72697812 1.54827586,9.17870226 C1.12068966,9.21146088 0.772413793,9.54249536 0.718965517,9.96663329 C-0.0637931034,16.0459436 1.49827586,21.2804264 5.42931034,25.9493919 C2.18103448,27.9218057 7.96297894e-14,31.4855988 7.96297894e-14,35.5597367 C7.96297894e-14,41.7580126 5.03275862,46.8011161 11.2206897,46.8011161 C13.3793103,46.8011161 15.4931034,46.1321505 17.3017241,44.9597367 C19.3465517,47.7442195 22.6293103,49.5614609 26.3362069,49.5614609 C31.662069,49.5614609 36.1258621,45.8200816 37.2672414,40.8269781 C37.6258621,40.8614609 37.9827586,40.9218057 38.3396552,40.9218057 C44.5275862,40.9218057 49.562069,35.8787023 49.562069,29.6804264 C49.562069,23.4821505 44.5275862,18.4407712 38.3396552,18.4407712" id="Fill-1" fill="#443636" fill-rule="evenodd" mask="url(#mask-2)"></path>
                    <path d="M29.9956897,39.5523229 C30.0853448,39.5161161 30.1801724,39.4971505 30.2681034,39.4523229 C30.4181034,39.378185 30.5525862,39.2764609 30.6922414,39.1833574 C30.7801724,39.4350816 30.8905172,39.6712885 31.025,39.8954264 C30.9336207,39.9333574 30.8422414,39.9557712 30.7543103,40.0005988 C30.6043103,40.0747367 30.4698276,40.1764609 30.3301724,40.2695643 C30.2422414,40.0195643 30.1301724,39.7799092 29.9956897,39.5523229" id="Path" fill="#443636" fill-rule="evenodd" mask="url(#mask-2)"></path>
                    <path d="M27.4818966,39.6678402 C28.5181034,40.0178402 29.0353448,41.2816333 28.6318966,42.4868057 C28.475,42.9626678 28.7318966,43.4764609 29.2043103,43.6350816 C29.2956897,43.6678402 29.3905172,43.6833574 29.4939655,43.6833574 C29.8853448,43.6833574 30.2301724,43.4333574 30.3543103,43.0626678 C30.5663793,42.4264609 31.0077586,41.9023229 31.5646552,41.6264609 C32.0181034,41.3988747 32.5146552,41.3574954 32.962931,41.5057712 L32.962931,41.5057712 C33.0560345,41.5368057 33.1543103,41.5540471 33.2543103,41.5540471 C33.2646552,41.5540471 33.2732759,41.5437023 33.2853448,41.5437023 C33.4456897,41.5368057 33.5939655,41.4850816 33.7284483,41.4005988 C33.7646552,41.3799092 33.7922414,41.3557712 33.825,41.3264609 C33.9491379,41.2247367 34.0577586,41.0971505 34.1146552,40.9350816 C34.1905172,40.7040471 34.1732759,40.4574954 34.0663793,40.240254 C33.9577586,40.0230126 33.7715517,39.8626678 33.5422414,39.7868057 C32.5043103,39.4385298 31.987069,38.1730126 32.3905172,36.9661161 C32.4663793,36.7350816 32.4491379,36.490254 32.3405172,36.2730126 C32.2318966,36.0557712 32.0456897,35.8954264 31.8181034,35.8195643 C31.5922414,35.740254 31.3474138,35.7574954 31.1284483,35.8626678 C30.9094828,35.9712885 30.7474138,36.1592195 30.6681034,36.390254 C30.4560345,37.0264609 30.0146552,37.5523229 29.4594828,37.828185 C29.0025862,38.0557712 28.5060345,38.0988747 28.0560345,37.9454264 C27.5836207,37.7954264 27.0663793,38.0471505 26.9077586,38.5195643 C26.7508621,38.9954264 27.0077586,39.5109436 27.4818966,39.6678402" id="Path" fill="#443636" fill-rule="evenodd" mask="url(#mask-2)"></path>
                    <path d="M42.5412069,25.818185 C42.4687931,25.7974954 42.3981034,25.7664609 42.3239655,25.7509436 C42.2998276,25.7457712 42.2774138,25.7474954 42.2532759,25.7440471 C42.2756897,25.6457712 42.2963793,25.5526678 42.3101724,25.4526678 C42.3843103,25.4733574 42.455,25.5061161 42.5291379,25.5216333 C42.5532759,25.5268057 42.5739655,25.5250816 42.5981034,25.5285298 C42.5774138,25.6250816 42.555,25.7199092 42.5412069,25.818185" id="Path" fill="#443636" fill-rule="evenodd" mask="url(#mask-2)"></path>
                    <path d="M39.9791379,27.7285298 C40.0205172,27.7526678 40.0636207,27.7630126 40.1067241,27.7819781 C40.1894828,27.8130126 40.2705172,27.8354264 40.3584483,27.8440471 C40.3860345,27.8457712 40.4101724,27.8647367 40.4394828,27.8647367 C40.4618966,27.8647367 40.4808621,27.8474954 40.5032759,27.8457712 C40.655,27.8354264 40.805,27.7992195 40.9412069,27.7130126 C41.2343103,27.5164609 41.5998276,27.4509436 41.9653448,27.530254 C42.4239655,27.6216333 42.8498276,27.918185 43.1325862,28.3457712 C43.2998276,28.5992195 43.5825862,28.7509436 43.8894828,28.7509436 C44.067069,28.7509436 44.2394828,28.6992195 44.3894828,28.6009436 C44.4912069,28.5337023 44.5756897,28.4474954 44.642931,28.3492195 C44.7739655,28.1526678 44.8239655,27.9095643 44.7791379,27.6750816 C44.7584483,27.5595643 44.7136207,27.4457712 44.6463793,27.3440471 C44.6446552,27.3440471 44.6446552,27.3423229 44.6446552,27.3423229 C44.1153448,26.5405988 44.2360345,25.5216333 44.9153448,25.0699092 C45.117069,24.9371505 45.255,24.7319781 45.3032759,24.4940471 C45.3515517,24.2561161 45.305,24.0130126 45.1687931,23.8112885 C45.0360345,23.6095643 44.8308621,23.4733574 44.592931,23.4233574 C44.3567241,23.3785298 44.1136207,23.4250816 43.9118966,23.5578402 L43.9101724,23.5578402 C43.617069,23.7526678 43.2498276,23.8130126 42.8877586,23.7423229 C42.4274138,23.6474954 42.0032759,23.3492195 41.7205172,22.9233574 C41.4446552,22.5095643 40.8843103,22.3957712 40.4618966,22.668185 C40.0446552,22.9457712 39.9308621,23.5112885 40.2067241,23.9268057 C40.7377586,24.7285298 40.6153448,25.7474954 39.9360345,26.1992195 C39.6239655,26.4078402 39.4808621,26.7785298 39.5463793,27.1250816 C39.5687931,27.2405988 39.6136207,27.3543919 39.6825862,27.4578402 C39.7618966,27.5768057 39.8653448,27.6612885 39.9791379,27.7285298" id="Path" fill="#443636" fill-rule="evenodd" mask="url(#mask-2)"></path>
                    <path d="M5.3662069,36.2287023 C5.43689655,36.2769781 5.51793103,36.2976678 5.59206897,36.3407712 C5.53344828,36.4287023 5.47482759,36.5166333 5.42655172,36.6114609 C5.36448276,36.5649092 5.30931034,36.5097367 5.2437931,36.4700816 C5.22310345,36.4580126 5.20241379,36.4511161 5.18172414,36.4390471 C5.23344828,36.3597367 5.28517241,36.2821505 5.33,36.1976678 C5.3437931,36.2062885 5.35413793,36.2200816 5.3662069,36.2287023" id="Path" fill="#443636" fill-rule="evenodd" mask="url(#mask-2)"></path>
                    <path d="M4.00931034,33.3373229 C3.88,33.5424954 3.84034483,33.7873229 3.89551724,34.0235298 C4.11275862,34.9597367 3.6437931,35.8735298 2.85241379,36.0580126 C2.6162069,36.1149092 2.4162069,36.2580126 2.28862069,36.4614609 C2.15931034,36.6683574 2.11965517,36.9114609 2.17482759,37.1476678 C2.20068966,37.2614609 2.24896552,37.3597367 2.31103448,37.4511161 C2.33,37.4804264 2.35586207,37.5011161 2.38,37.5269781 C2.43,37.5855988 2.48344828,37.6390471 2.54724138,37.6838747 C2.55931034,37.6924954 2.5662069,37.7045643 2.57827586,37.713185 C2.60068966,37.7269781 2.62655172,37.7287023 2.64896552,37.7407712 C2.71103448,37.7735298 2.77655172,37.7976678 2.84724138,37.8149092 C2.88862069,37.825254 2.93172414,37.8321505 2.97482759,37.8373229 C3.00413793,37.8390471 3.03,37.8493919 3.05758621,37.8493919 C3.12310345,37.8493919 3.19206897,37.8424954 3.26448276,37.8269781 C3.60758621,37.7476678 3.96793103,37.8149092 4.28689655,38.0114609 C4.68517241,38.2614609 4.98172414,38.6890471 5.09896552,39.1873229 C5.1937931,39.5993919 5.55758621,39.8873229 5.98172414,39.8873229 C6.05068966,39.8873229 6.11965517,39.8804264 6.18862069,39.8649092 C6.67482759,39.7511161 6.98,39.2614609 6.8662069,38.775254 C6.64724138,37.8390471 7.1162069,36.925254 7.91103448,36.7407712 C8.39724138,36.6235298 8.70068966,36.1355988 8.58689655,35.6493919 C8.53172414,35.413185 8.38862069,35.213185 8.18344828,35.0855988 C8.00068966,34.9718057 7.79034483,34.9442195 7.58172414,34.9718057 C7.55241379,34.9718057 7.52482759,34.9666333 7.49551724,34.9718057 C7.12827586,35.0614609 6.74034483,34.975254 6.40413793,34.7390471 C6.03689655,34.4821505 5.77310345,34.0838747 5.66275862,33.6114609 C5.55068966,33.1269781 5.0662069,32.825254 4.57310345,32.9338747 C4.33689655,32.9890471 4.13689655,33.1321505 4.00931034,33.3373229" id="Path" fill="#443636" fill-rule="evenodd" mask="url(#mask-2)"></path>
                </g>
            </g>
        </g>
    </g>
</svg>