<?xml version="1.0" encoding="UTF-8"?>
<svg width="55px" height="54px" viewBox="0 0 55 54" version="1.1" xmlns="http://www.w3.org/2000/svg" xmlns:xlink="http://www.w3.org/1999/xlink">
    <!-- Generator: Sketch 61.1 (89650) - https://sketch.com -->
    <title>Group 14</title>
    <desc>Created with Sketch.</desc>
    <defs>
        <polygon id="path-1" points="0.154386064 0.248522908 33.5216279 0.248522908 33.5216279 44 0.154386064 44"></polygon>
        <polygon id="path-3" points="0 0.321164179 37.714073 0.321164179 37.714073 52.8925366 0 52.8925366"></polygon>
        <polygon id="path-5" points="0 55 54 55 54 1 0 1"></polygon>
    </defs>
    <g id="Page-1" stroke="none" stroke-width="1" fill="none" fill-rule="evenodd">
        <g id="Verma-Farms---Homepage---R3" transform="translate(-229.000000, -3846.000000)">
            <g id="Group-14" transform="translate(229.000000, 3846.000000)">
                <g id="Group-3" transform="translate(21.000000, 10.000000)">
                    <mask id="mask-2" fill="white">
                        <use xlink:href="#path-1"></use>
                    </mask>
                    <g id="Clip-2"></g>
                    <path d="M8.93543721,14.1337429 C8.31948372,14.4338857 7.77864651,14.6978857 7.20855349,14.9752429 C8.25306512,17.0872429 9.28176279,19.1709571 10.3033442,21.2373857 C10.9177163,20.9364571 11.4609256,20.6701 12.0239023,20.3943143 C10.9920419,18.3011714 9.96887907,16.2268857 8.93543721,14.1337429 M23.6756233,6.96331429 C23.0833907,7.25088571 22.5188326,7.5251 21.9408326,7.8056 C22.9877163,9.92545714 24.0148326,12.0044571 25.0356233,14.0708857 C25.6499953,13.7699571 26.1908326,13.5043857 26.7609256,13.2238857 C25.7322279,11.1370286 24.7130186,9.06981429 23.6756233,6.96331429 M9.56325116,24.1484571 C9.52055349,24.0211714 9.46283256,23.7618857 9.35055349,23.5285286 C8.92594884,22.6391 8.48473953,21.7575286 8.04827442,20.8728143 C6.8653907,18.4748143 5.68566977,16.0744571 4.49566977,13.6788143 C4.12404186,12.9316 3.41873953,12.6676 2.73953023,12.9913143 C2.0713907,13.3095286 1.85157674,14.0355286 2.19632093,14.7898143 C2.23506512,14.8762429 2.27776279,14.9611 2.31966977,15.0459571 C3.88129767,18.2092429 5.44292558,21.3733143 7.00771628,24.5358143 C7.09943721,24.7220286 7.19273953,24.9153143 7.32557674,25.0708857 C7.69720465,25.5085286 8.18269302,25.6381714 8.72036744,25.4519571 C9.26120465,25.2657429 9.54190233,24.8611 9.56325116,24.1484571 M30.5064605,14.7921714 C31.3999488,14.7741 31.9652977,13.8178857 31.522507,12.9064571 C30.5452047,10.8911 29.5465535,8.88517143 28.5550186,6.8761 C27.892414,5.53095714 27.2369256,4.1811 26.5577163,2.84381429 C26.2003209,2.14138571 25.4728791,1.90567143 24.8197628,2.2341 C24.2046,2.54367143 23.9626465,3.2626 24.2583674,3.93988571 C24.3872512,4.23531429 24.5414372,4.51974286 24.6845535,4.80967143 C26.1781814,7.84095714 27.6749721,10.8706714 29.1614837,13.9043143 C29.4271581,14.4464571 29.8043209,14.7921714 30.5064605,14.7921714 M19.0935302,20.3848857 C19.2042279,20.6213857 19.2817163,20.7926714 19.3639488,20.9600286 C22.2776698,26.8678143 25.1906,32.7740286 28.1035302,38.6810286 C28.5652977,39.6176 29.0183674,40.5581 29.4919953,41.4891714 C29.7734837,42.0407429 30.2937628,42.2206714 30.774507,41.9668857 C31.2291581,41.7280286 31.3548791,41.2377429 31.1026465,40.6822429 C31.0480884,40.5612429 30.9840419,40.4441714 30.9255302,40.3247429 C28.5929721,35.5916 26.2612047,30.8576714 23.9286465,26.1245286 C22.8635767,23.9638143 21.798507,21.8038857 20.7128791,19.6015286 C20.1728326,19.8623857 19.6636233,20.1083143 19.0935302,20.3848857 M23.9112512,15.9809571 C22.5022279,13.1256714 21.1200884,10.3261714 19.7276698,7.50545714 C19.1836698,7.77652857 18.7116233,8.01145714 18.2174372,8.25738571 C19.3354837,10.5296714 20.4290186,12.7516714 21.5375767,15.0035286 C20.9374372,15.2895286 20.4139953,15.5378143 19.8652512,15.7986714 C18.7432512,13.5303143 17.6528791,11.3240286 16.5348326,9.06352857 C14.3509256,10.1281714 12.220786,11.1653143 10.0716698,12.2126714 C11.480693,15.0679571 12.856507,17.8572429 14.2497163,20.6818857 C17.4733907,19.1136 20.6559488,17.5649571 23.9112512,15.9809571 M17.388786,21.2138143 C16.5838558,21.6058857 15.7923674,21.9783143 15.0127395,22.3727429 C14.3770186,22.6941 13.7776698,22.6862429 13.1696233,22.2965286 C13.034414,22.2093143 12.8090651,22.1771 12.6532977,22.2195286 C12.3441349,22.3020286 12.050786,22.4489571 11.7566465,22.5809571 C11.3391581,22.7687429 11.1636233,22.9816714 11.3186,23.5277429 C11.7487395,25.0488857 10.884507,26.6140286 9.41697209,27.1711 C7.90832093,27.7438857 6.24864651,27.1467429 5.51725116,25.6892429 C3.80776279,22.2776714 2.11804186,18.8558857 0.456786047,15.4207429 C-0.281725581,13.8909571 0.384832558,12.0971714 1.88636744,11.3452429 C3.41715814,10.5791714 5.23576279,11.1551 6.07311163,12.6731 C6.16404186,12.8381 6.24943721,13.0062429 6.40283256,13.2977429 C6.92627442,13.0227429 7.44497209,12.7705286 7.93915814,12.4774571 C8.0538093,12.4091 8.13446047,12.2024571 8.14236744,12.0547429 C8.17953023,11.3766714 8.51715814,10.9178143 9.11492558,10.6263143 C12.4216233,9.0156 15.7291116,7.40488571 19.0350186,5.79338571 C19.5679488,5.5341 20.1293442,5.47988571 20.6148326,5.82324286 C20.9698558,6.0731 21.2703209,6.06367143 21.6119023,5.8971 C22.0017163,5.70695714 22.384414,5.5011 22.7568326,5.3086 C22.5844605,4.72245714 22.3456698,4.21174286 22.292693,3.68217143 C22.1361349,2.13902857 23.0794372,0.791528571 24.5224605,0.377457143 C26.0050186,-0.0484 27.5026,0.601385714 28.2237163,2.02038571 C28.9883209,3.52738571 29.720507,5.0501 30.4669256,6.56652857 C31.3730651,8.4051 32.2918558,10.2381714 33.1798093,12.0869571 C34.174507,14.1565286 32.9038558,16.4099571 30.614786,16.6016714 C29.2903674,16.7116714 28.3067395,16.0799571 27.5943209,14.9391 C27.2306,15.0899571 26.8739953,15.2180286 26.5363674,15.3814571 C26.116507,15.5841714 25.7994372,15.8183143 25.7796698,16.3918857 C25.7599023,16.9458143 25.3487395,17.3394571 24.8316233,17.5877429 C24.0259023,17.9751 23.2241349,18.3726714 22.3796698,18.7851714 C23.0177628,20.0831714 23.6416233,21.3568143 24.2686465,22.6296714 C27.1064605,28.3850286 29.9482279,34.1380286 32.7820884,39.8957429 C33.7127395,41.7853857 32.6381814,43.7653857 30.5776233,43.9861714 C29.4619488,44.1056 28.3897628,43.4668143 27.824414,42.3220286 C26.082507,38.7996714 24.3469256,35.2733857 22.6097628,31.7486714 C20.956414,28.3936714 19.3030651,25.0394571 17.6489256,21.6852429 C17.5738093,21.5343857 17.4852512,21.3898143 17.388786,21.2138143" id="Fill-1" fill="#443636" mask="url(#mask-2)"></path>
                </g>
                <g id="Group-6">
                    <mask id="mask-4" fill="white">
                        <use xlink:href="#path-3"></use>
                    </mask>
                    <g id="Clip-5"></g>
                    <path d="M35.8638458,2.16461493 L1.88630417,2.16461493 L1.88630417,50.978406 L35.8638458,50.978406 L35.8638458,50.2957343 C35.8638458,45.4355552 35.8638458,40.5745851 35.8630542,35.714406 C35.8630542,35.5419582 35.8543458,35.3687194 35.8685958,35.1978537 C35.9129292,34.6615254 36.2897625,34.3071373 36.8035542,34.3103015 C37.3197208,34.3142567 37.6949708,34.6631075 37.7028875,35.2184209 C37.7210958,36.5196896 37.7115958,37.8209582 37.7115958,39.1222269 C37.7123875,43.294197 37.7123875,47.4661672 37.7115958,51.6373463 C37.7115958,52.604794 37.4194708,52.8919433 36.4401792,52.8919433 C24.7195542,52.8925366 12.9989292,52.8925366 1.27830417,52.8919433 C0.295054167,52.8919433 0.000554166667,52.6055851 0.000554166667,51.6444657 C-3.95833333e-05,34.938391 -3.95833333e-05,18.2323164 0.000554166667,1.52703284 C0.000554166667,0.600719403 0.276054167,0.321480597 1.1848875,0.321480597 C12.9823042,0.320689552 24.7797208,0.320689552 36.5763458,0.320689552 C37.4091792,0.320689552 37.7108042,0.618913433 37.7115958,1.46374925 C37.7147625,5.92286866 37.714073,10.381197 37.7100125,14.8403164 C37.7092208,15.540391 37.3862208,15.9232567 36.8162208,15.9335403 C36.2185125,15.9438239 35.8654292,15.5435552 35.8646375,14.8292418 C35.8622625,10.8494955 35.8638458,6.86895821 35.8638458,2.8884209 L35.8638458,2.16461493 Z" id="Fill-4" fill="#443636" mask="url(#mask-4)"></path>
                </g>
                <mask id="mask-6" fill="white">
                    <use xlink:href="#path-5"></use>
                </mask>
                <g id="Clip-8"></g>
                <polygon id="Fill-7" fill="#443636" mask="url(#mask-6)" points="4 17 34 17 34 15 4 15"></polygon>
                <polygon id="Fill-9" fill="#443636" mask="url(#mask-6)" points="4 21 29 21 29 19 4 19"></polygon>
                <polygon id="Fill-10" fill="#443636" mask="url(#mask-6)" points="4 25 19 25 19 23 4 23"></polygon>
                <polygon id="Fill-11" fill="#443636" mask="url(#mask-6)" points="4 28 18 28 18 26 4 26"></polygon>
                <path d="M22,9.99902825 L22,8 L33.9928095,8 C33.9928095,8.56656486 34.0199514,9.1478795 33.9687696,9.71965017 C33.9586884,9.8307073 33.6407413,9.98601374 33.4631562,9.98688138 C30.9909236,10.0051017 28.5179156,9.99902825 26.0464585,9.99902825 L22,9.99902825 Z" id="Fill-12" fill="#443636" mask="url(#mask-6)"></path>
                <polygon id="Fill-13" fill="#443636" mask="url(#mask-6)" points="27 8 34 8 34 6 27 6"></polygon>
            </g>
        </g>
    </g>
</svg>