<?xml version="1.0" encoding="UTF-8"?>
<svg width="49px" height="62px" viewBox="0 0 49 62" version="1.1" xmlns="http://www.w3.org/2000/svg" xmlns:xlink="http://www.w3.org/1999/xlink">
    <!-- Generator: Sketch 61.1 (89650) - https://sketch.com -->
    <title>Group 16</title>
    <desc>Created with Sketch.</desc>
    <defs>
        <polygon id="path-1" points="0 0.394831081 48.7768936 0.394831081 48.7768936 61.7904955 0 61.7904955"></polygon>
    </defs>
    <g id="Page-1" stroke="none" stroke-width="1" fill="none" fill-rule="evenodd">
        <g id="Verma-Farms---Homepage---R3" transform="translate(-223.000000, -3735.000000)">
            <g id="Group-16" transform="translate(223.000000, 3735.000000)">
                <g id="Group-3">
                    <mask id="mask-2" fill="white">
                        <use xlink:href="#path-1"></use>
                    </mask>
                    <g id="Clip-2"></g>
                    <path d="M7.74366809,16.3897838 C12.9804128,13.2468446 14.5400723,7.5882973 13.2087319,3.44309459 C9.1688383,5.29366892 6.5718383,9.52265541 6.5562,13.6950878 C7.08164681,12.8520135 7.59666809,11.92725 8.20968936,11.0726554 C8.83522128,10.2002568 9.59732766,9.44934459 10.7368383,8.98643919 C10.1154766,11.656 9.15737021,14.0532635 7.74366809,16.3897838 M9.8058383,23.6046149 C9.54937021,23.911473 9.32209362,24.1691081 9.11149787,24.4403581 C7.86668936,26.0448176 7.54349787,27.9079595 7.67694468,29.8705946 C7.83124255,32.1421824 7.74888085,34.3949189 7.43924255,36.6507973 C7.18277447,38.5191757 7.1775617,40.3990743 7.76660426,42.2182297 C10.2562213,49.8875878 15.0415404,55.4246486 22.6407106,58.3560338 C25.2679447,59.3708649 27.9327106,59.8191081 30.7277957,59.2378581 C32.1269021,58.9456622 33.5312213,58.5445473 34.9449234,58.494277 C36.8402851,58.4262027 38.7815191,58.455527 40.6403915,58.7938041 C43.051817,59.2336689 46.3024979,56.1944122 45.7144979,53.3824189 C45.1202426,50.5431959 45.2151149,47.6725541 45.9396894,44.8312365 C46.3984128,43.0298851 46.6392426,41.1845473 46.3264766,39.3266419 C45.6811362,35.4830608 43.9765617,32.0940068 41.6683489,29.0212365 C38.9274766,25.3714054 35.1982638,23.020223 31.065583,21.2576216 C28.734434,20.2637365 26.3188383,20.0312365 23.8021149,20.2962027 C21.8452426,20.5025203 19.8675191,20.5161351 17.8970936,20.5894459 C16.9452426,20.6250541 15.9881787,20.5517432 15.0394553,20.6166757 C13.8123702,20.7025541 12.690583,21.1246149 11.6782638,21.9237027 C12.0150085,22.4106959 12.3246468,22.8599865 12.6467957,23.3291757 C13.0950936,22.8526554 13.4506043,22.4023176 13.8811787,22.0441419 C14.0969872,21.8661014 14.5254766,21.7069122 14.7246043,21.8064054 C15.0040085,21.9467432 15.3219872,22.3321486 15.3282426,22.6212027 C15.3397106,23.0683986 15.1843702,23.5690068 14.9581362,23.9669797 C14.2179234,25.2666757 13.1149021,26.2228581 11.8190085,26.9297838 C11.278966,27.2240743 10.6649021,27.4157297 10.0602213,27.5518784 C9.4784766,27.6838378 8.96762553,27.4586689 8.75807234,26.846 C8.5495617,26.2385676 8.96345532,25.9170473 9.40966809,25.6468446 C9.88715745,25.3577905 10.3729872,25.0854932 10.9161574,24.7702568 C10.5231149,24.3576216 10.1853277,24.0025878 9.8058383,23.6046149 M7.98241277,22.2148514 C6.05890213,20.558027 3.08032766,19.3997162 -0.000417021277,19.1169459 C0.696008511,18.0162365 1.34968936,16.9511351 2.05028511,15.9164054 C2.13368936,15.7949189 2.48502979,15.7949189 2.69458298,15.8326216 C3.17728511,15.9205946 3.6495617,16.0672162 4.21149787,16.2117432 C3.94043404,11.490527 5.08307234,7.32752027 8.51411489,4.00968243 C10.2906255,2.29211486 12.3413277,1.03535811 14.7412851,0.394412162 C16.8211787,5.64346622 16.9587957,13.2196149 8.59334894,18.6676554 C9.1219234,19.1525541 9.64111489,19.6290743 10.1884553,20.1296824 C11.5229234,19.145223 12.9908383,18.5304595 14.6120085,18.3377568 C15.2990511,18.2560676 16.0017319,18.2057973 16.689817,18.2529257 C19.1252213,18.4204932 21.5470723,18.3126216 23.9626681,17.9879595 C26.6743489,17.6235 29.2849021,18.039277 31.7953702,19.0740068 C36.0469021,20.8250878 39.8741149,23.2349189 42.8412213,26.8124865 C45.688434,30.2434324 47.6421787,34.1519459 48.5252213,38.5579257 C48.9359872,40.6032973 48.8317319,42.6612365 48.3073277,44.6521486 C47.5233277,47.6243784 47.5639872,50.5903243 47.9862213,53.5929257 C48.2187106,55.2528919 47.7704128,56.7494797 46.7143064,58.0460338 C45.5674979,59.4546486 44.2705617,60.7166419 42.3960511,60.9700878 C41.3378596,61.1135676 40.2192,61.06225 39.1610085,60.8936351 C36.7339447,60.5050878 34.3631787,60.7114054 32.0090936,61.3177905 C27.9452213,62.3640405 24.1242638,61.5775203 20.3752426,59.9007973 C12.788583,56.5065068 8.07728511,50.6206959 5.56264681,42.8130946 C4.78177447,40.3906959 4.99966809,37.9117432 5.25196596,35.4275541 C5.40105106,33.9581959 5.52615745,32.4605608 5.4135617,30.9953919 C5.15917872,27.7309662 5.64709362,24.7356959 7.98241277,22.2148514" id="Fill-1" fill="#443636" mask="url(#mask-2)"></path>
                </g>
                <path d="M24.9775326,25.9994746 C24.4370262,25.9768941 23.9834544,25.2486734 24.0004634,24.4273083 C24.0174723,23.5805401 24.4748239,22.960988 25.051238,23.0019151 C25.6002489,23.041431 26.0046837,23.6765072 25.999959,24.4950497 C25.9942894,25.3135923 25.5142592,26.0220551 24.9775326,25.9994746" id="Fill-4" fill="#443636"></path>
                <path d="M27.9999294,28.5274912 C27.9933666,29.3693137 27.5424059,30.0180707 26.9761268,29.9996159 C26.4445369,29.9811611 26.0095146,29.3267257 26.0001391,28.5331696 C25.9907636,27.7168999 26.4567251,27.0028414 27.0023781,27 C27.554594,26.9985826 28.0064922,27.6899275 27.9999294,28.5274912" id="Fill-6" fill="#443636"></path>
                <path d="M24.9949196,54.9999627 C24.4238376,54.9943058 23.9879621,54.3253822 24.0002536,53.4782676 C24.0125451,52.6976211 24.4635486,52.018798 24.9826281,52.0004132 C25.5272361,51.9806142 25.998095,52.6749936 26,53.5065519 C26.0028225,54.3678087 25.5735656,55.0056195 24.9949196,54.9999627" id="Fill-8" fill="#443636"></path>
                <path d="M22.0206334,28.9999493 C21.4881763,29.0070078 20.9971849,28.2757525 21,27.4795594 C21.0028394,26.6565443 21.4665011,25.9902267 22.029115,26.0001085 C22.5794778,26.011402 22.9884802,26.6226637 22.999789,27.4485022 C23.0110979,28.2898694 22.5662841,28.9928909 22.0206334,28.9999493" id="Fill-10" fill="#443636"></path>
                <path d="M28.9912843,48.0002619 C29.5432934,47.9846887 29.9990547,48.6656617 30,49.5094452 C30.0009419,50.3447343 29.6065149,50.9676617 29.0554494,50.9988081 C28.4883426,51.0313702 28.021258,50.3928696 28.0004987,49.560412 C27.9825702,48.7534378 28.4505984,48.0158351 28.9912843,48.0002619" id="Fill-12" fill="#443636"></path>
                <path d="M31.9993983,54.5513868 C31.9796086,55.3716634 31.4999457,56.0301554 30.9448938,55.9989338 C30.3738216,55.9677122 29.9714325,55.2907711 30.0015881,54.4179854 C30.029859,53.6005471 30.4652309,52.9860492 31.005205,53.0002409 C31.5480063,53.0144325 32.0191879,53.7495593 31.9993983,54.5513868" id="Fill-14" fill="#443636"></path>
            </g>
        </g>
    </g>
</svg>