<?xml version="1.0" encoding="UTF-8"?>
<svg width="47px" height="47px" viewBox="0 0 47 47" version="1.1" xmlns="http://www.w3.org/2000/svg" xmlns:xlink="http://www.w3.org/1999/xlink">
    <!-- Generator: Sketch 61.1 (89650) - https://sketch.com -->
    <title>Group 16</title>
    <desc>Created with Sketch.</desc>
    <defs>
        <polygon id="path-1" points="0 0.0730614792 46.9295655 0.0730614792 46.9295655 47 0 47"></polygon>
    </defs>
    <g id="Page-1" stroke="none" stroke-width="1" fill="none" fill-rule="evenodd">
        <g id="Learn-Page" transform="translate(-174.000000, -1526.000000)">
            <g id="Group-9" transform="translate(150.000000, 1508.000000)">
                <g id="Group-16" transform="translate(23.000000, 18.000000)">
                    <g id="Group-3" transform="translate(0.934722, 0.000000)">
                        <mask id="mask-2" fill="white">
                            <use xlink:href="#path-1"></use>
                        </mask>
                        <g id="Clip-2"></g>
                        <path d="M38.4615925,7.37939276 C32.0225925,1.93433148 24.7231914,0.0904651811 16.7032109,2.72089415 C7.85058412,5.62442061 2.80587382,12.0134095 1.6947624,21.2513315 C0.906105014,27.809337 2.95800195,33.5862786 7.33698802,38.5039972 C17.7250354,28.1159499 28.0520744,17.7889109 38.4615925,7.37939276 M8.53804095,39.6410306 C13.5755507,44.4970864 21.7230465,47.0057604 29.6067401,44.5909554 C38.4574031,41.8798802 43.7334476,35.7838886 45.1527429,26.6470362 C46.2151524,19.8091253 44.1864281,13.756337 39.6032081,8.57232869 C29.2172554,18.9594596 18.8893,29.2884624 8.53804095,39.6410306 M23.4575953,47.0000437 C10.6657401,47.0500111 -0.0887501393,36.29539 0.000536768802,23.2944568 C0.0862888579,10.8123565 10.7253084,0.166398329 23.2054448,0.0737075209 C36.1953808,-0.0227799443 46.9314114,10.7017298 46.9295786,23.4677939 C46.9276148,36.4032674 36.3853446,46.9841588 23.4575953,47.0000437" id="Fill-1" fill="#443636" mask="url(#mask-2)"></path>
                    </g>
                    <path d="M22.4376794,28.4924981 C22.4376794,29.7698555 22.4380685,31.0470813 22.4376794,32.3243071 C22.4372903,33.2903868 22.4160196,34.2569929 22.4400139,35.2224145 C22.4690665,36.3978992 23.273071,37.2860608 24.4155901,37.4562435 C25.421147,37.6062885 26.4566643,36.9433262 26.7754646,35.9219668 C26.8543217,35.6697858 26.8951769,35.3945715 26.8962145,35.1298867 C26.9098329,31.6931964 26.9133347,28.2565061 26.9177445,24.8196842 C26.9178742,24.7434771 26.9006242,24.6671384 26.8892107,24.5726363 C26.6897335,24.5592112 26.5064688,24.5467075 26.2050481,24.5263066 C26.7272166,24.0029915 27.121372,23.3538491 27.6840066,23.117594 C28.2162915,22.8938425 28.9363808,23.0387545 29.5521919,23.147603 C29.8933005,23.2078842 29.991353,23.6262994 29.9052328,23.9799583 C29.8239115,24.314006 29.5953817,24.527228 29.2381905,24.5440751 C28.9902059,24.5557892 28.7415728,24.5463126 28.4247179,24.5463126 L28.4247179,25.0742344 C28.4236804,28.431822 28.422124,31.7894095 28.4219943,35.1469971 C28.4218646,37.2692136 26.758474,39.0027607 24.7224581,39 C22.5808671,38.9971011 20.9395254,37.3271257 20.9371909,35.1451545 C20.9353751,33.513875 20.9288901,31.8824638 20.9487341,30.2514475 C20.9511984,30.042569 21.0549576,29.7972321 21.1895852,29.6352098 C21.5404212,29.2128461 21.9343173,28.8272039 22.3110931,28.4269521 L22.4376794,28.4924981 Z" id="Fill-4" fill="#443636"></path>
                    <path d="M25.9347222,25.0414505 C25.8404189,25.5630911 25.7405333,26.0836723 25.6527623,26.6067696 C25.3035786,28.6855188 25.2968087,30.7875755 25.3154556,32.8912214 C25.3166433,33.0186188 25.3229381,33.1468108 25.3140303,33.273546 C25.2831501,33.7183774 24.998696,34.0089282 24.610437,33.9997905 C24.24225,33.9909177 23.9487694,33.7072533 23.947938,33.2809621 C23.9441374,31.2117479 23.8569602,29.1376338 24.1860718,27.0841787 C24.2032935,26.9766458 24.2045999,26.8389189 24.2642225,26.7711149 C24.7895421,26.1734596 25.3266199,25.5886501 25.8601347,25 C25.8849576,25.0139051 25.9098993,25.0276778 25.9347222,25.0414505" id="Fill-6" fill="#443636"></path>
                    <path d="M34.9347222,16 C34.7466605,17.54876 32.5433505,19.7758717 30.9347222,20 C32.2536338,18.6810865 33.6409765,17.2936789 34.9347222,16" id="Fill-8" fill="#443636"></path>
                    <path d="M21.1824182,18.0881894 C21.1977888,18.03793 21.2198423,18.0061941 21.2132931,17.9815825 C20.7842521,16.3955628 18.9800079,15.2780692 17.3127628,15.5604542 C16.6181441,15.6780715 15.921387,15.7848079 15.2266346,15.9034615 C14.5897561,16.0121408 13.9544814,16.1301467 13.2420863,16.2578677 C14.1792935,17.257485 15.0515432,18.1897444 15.9263323,19.1198017 C16.0561138,19.2576263 16.1897715,19.3936375 16.333988,19.5166952 C17.6108193,20.6054322 19.4785509,20.6674792 20.7934745,19.6247269 C20.4403511,19.4629384 20.115964,19.3043882 19.7835575,19.1637138 C18.9022192,18.7909137 18.0132624,18.4349531 17.1359337,18.0536037 C16.7218624,17.8736803 16.5632108,17.5164243 16.6953982,17.1346863 C16.8246452,16.761109 17.1156178,16.5915484 17.5103087,16.6190097 C17.6646833,16.6296315 17.8173203,16.7038548 17.96421,16.7639588 C19.0365451,17.2026919 20.1072763,17.6453111 21.1824182,18.0881894 M24.9347222,20.9774551 C24.5654262,21.3299183 24.2231291,21.6563451 23.8631891,22 C23.3440629,21.5253858 22.8240011,21.0497353 22.3024691,20.57266 C21.8952143,20.8076355 21.5407543,21.0179994 21.1806806,21.2189073 C19.1357191,22.3603648 16.6168076,22.0326427 14.9963426,20.3707158 C13.6934481,19.034568 12.4231661,17.6677206 11.1693239,16.2881787 C10.9977075,16.0994471 10.877282,15.7089007 10.9630902,15.5004798 C11.0585218,15.2684836 11.395339,15.0300107 11.6637235,14.980399 C13.4755862,14.6449048 15.2957356,14.3509912 17.1158851,14.058891 C19.4220137,13.6886815 21.9421281,15.0981458 22.5993226,17.3239362 C23.0060428,18.7012759 23.5619248,19.8885886 24.7488045,20.7600963 C24.8100197,20.8050448 24.8501169,20.8769364 24.9347222,20.9774551" id="Fill-10" fill="#443636"></path>
                    <path d="M25.8191308,19 C25.5830198,17.9647238 25.3899987,16.9889521 25.1359448,16.0271964 C24.2528053,12.6834773 26.3735907,9.59752605 29.6000337,8.71400541 C31.320912,8.2428114 32.9982926,7.63285852 34.697558,7.09183911 C35.5060718,6.83445352 35.9281356,7.12101797 35.9330291,7.91445365 C35.9436316,9.58516644 35.9437676,9.58529386 34.6556915,10.7440387 C34.5889497,10.8040528 34.5150036,10.8573138 34.3660239,10.9761954 L34.3660239,9.86319384 L34.3660239,8.79963072 C34.1848287,8.8439724 34.0471313,8.86907386 33.9155507,8.911122 C32.5108464,9.36116453 31.1015204,9.79999421 29.7037486,10.2687673 C27.3771646,11.0489514 26.1066235,13.2225855 26.6340333,15.4833738 C26.7660217,16.0486028 26.8989616,16.6135769 27.0453586,17.2376732 C27.1299072,17.1305142 27.1897166,17.0670597 27.2349814,16.9955779 C28.3165793,15.2823073 29.3927399,13.5659786 30.4795031,11.8555112 C30.7718893,11.3954026 31.2320136,11.2650534 31.6338237,11.4946617 C32.0440615,11.7289845 32.1135219,12.1535433 31.8360881,12.6202777 C31.100433,13.8582769 30.2372752,14.9944686 29.1097329,15.9606839 C28.1087417,16.818466 27.1815608,17.7519347 26.2206691,18.650873 C26.1086625,18.7556111 25.9887719,18.8529589 25.8191308,19" id="Fill-12" fill="#443636"></path>
                    <path d="M21.9347222,23.033398 C21.5619661,23.5380362 21.2228332,23.9171967 20.9609677,24.3708596 C20.6050892,24.9873365 20.1393748,25.0492229 19.6193358,24.975232 C19.2088689,24.9165849 18.9321038,24.5144087 18.9347222,23.9881189 C18.937378,23.4616585 19.2162529,23.0347619 19.6286976,23.0166904 C20.290877,22.9875373 20.9542431,23.0054383 21.6172137,23.0054383 C21.6917121,23.0054383 21.7664743,23.0180543 21.9347222,23.033398" id="Fill-14" fill="#443636"></path>
                </g>
            </g>
        </g>
    </g>
</svg>