<?xml version="1.0" encoding="UTF-8"?>
<svg width="95px" height="95px" viewBox="0 0 95 95" version="1.1" xmlns="http://www.w3.org/2000/svg" xmlns:xlink="http://www.w3.org/1999/xlink">
    <!-- Generator: Sketch 61.1 (89650) - https://sketch.com -->
    <title>Group 8</title>
    <desc>Created with Sketch.</desc>
    <defs>
        <polygon id="path-1" points="3.47731931e-05 0.00881396821 69.9923655 0.00881396821 69.9923655 70.2668737 3.47731931e-05 70.2668737"></polygon>
    </defs>
    <g id="Page-1" stroke="none" stroke-width="1" fill="none" fill-rule="evenodd">
        <g id="Our-Story" transform="translate(-673.000000, -2657.000000)">
            <g id="Group-8" transform="translate(673.000000, 2657.000000)">
                <circle id="Oval" fill="#3C562C" cx="47.5" cy="47.5" r="47.5"></circle>
                <g id="Group-3" transform="translate(12.485714, 12.000000)">
                    <mask id="mask-2" fill="white">
                        <use xlink:href="#path-1"></use>
                    </mask>
                    <g id="Clip-2"></g>
                    <path d="M35.2381463,24.655656 C35.0242439,24.655656 34.7866829,24.6860153 34.5593659,24.6500249 C33.9069268,24.5467056 33.5447317,24.7947209 33.3113171,25.4315301 C32.9559512,26.4020459 32.4803415,27.3277574 32.0959512,28.2884799 C30.8652195,31.3645548 29.619122,34.4352434 28.4537561,37.5365361 C28.094,38.4933413 27.9737561,39.5407345 27.7196098,40.6525187 C27.9261951,40.5582582 27.976439,40.5494442 28.0059512,40.5195747 C30.3520488,38.1689383 32.7020488,35.8222193 35.0279024,33.4515067 C35.1761951,33.300445 35.1983902,32.9564554 35.1730244,32.7135816 C35.0432683,31.4747294 34.7457073,30.2378359 34.7608293,29.0033907 C34.7783902,27.5794452 35.0610732,26.1591721 35.2381463,24.655656 L35.2381463,24.655656 Z M42.7259512,14.7394521 L42.0081463,14.7394521 C39.2383902,14.739697 36.4686341,14.7404315 33.698878,14.739697 C31.2622927,14.7389625 29.8642439,16.5938131 30.4927805,19.0423825 C32.6330244,19.0803315 33.6647317,20.2540583 33.6732683,22.348355 L36.181561,22.348355 C36.4300976,18.1710238 38.7535122,16.3920712 42.7259512,16.5592917 L42.7259512,14.7394521 Z M57.2010732,11.0904693 C45.284,-0.364016887 24.988878,-1.25887949 11.8644878,11.912127 C-1.22185366,25.0456741 -0.408195122,45.4074097 11.0769268,57.4612457 C11.1337561,57.4225622 11.1993659,57.3917133 11.2476585,57.3432365 C15.7552195,52.8219156 20.2647317,48.3027983 24.7561951,43.7653185 C24.9618049,43.5577005 25.0476585,43.1936347 25.1100976,42.88637 C25.5722927,40.6064902 25.7713171,38.2384707 26.518878,36.0592171 C27.7071707,32.5948379 29.2325366,29.2447955 30.668878,25.8695353 C31.114,24.8231214 31.4974146,23.8229809 31.3632683,22.6426436 C31.2476585,21.6238958 31.604,21.3332797 30.1476585,21.3663321 C28.9503415,21.3935085 28.1271707,20.5157841 28.0976585,19.3109637 C28.0837561,18.7446662 28.0786341,18.1776342 28.096439,17.6115816 C28.1869268,14.7585491 30.4305854,12.4980111 33.2503415,12.4742623 C36.5183902,12.4465962 39.7869268,12.4622655 43.0552195,12.4737726 C44.1752195,12.47769 44.9798537,13.25944 45.0103415,14.3653482 C45.0349756,15.2614349 45.0347317,16.1597252 45.0059512,17.0555671 C44.9752195,18.0192276 44.2098537,18.790205 43.2535122,18.8474958 C42.7847317,18.8756516 42.311561,18.8359887 41.8437561,18.8712446 C41.5586341,18.8927898 41.0513171,18.9704017 41.038878,19.0712727 C40.9966829,19.4184451 41.0249756,19.8662436 41.2218049,20.1262557 C41.4335122,20.4053647 41.8503415,20.5618126 42.2074146,20.6834944 C42.4518049,20.7669822 42.7474146,20.6994085 43.0330244,20.6994085 L43.0330244,22.9778193 C41.0647317,23.182744 39.7000976,22.3963422 38.7620488,20.6550938 C38.6052195,21.5264525 38.5735122,22.3613312 38.5120488,23.1937615 C38.4883902,23.5147368 38.5074146,23.976246 38.3161951,24.1231455 C37.5303415,24.7271471 37.499122,25.6234787 37.3144878,26.4446468 C36.9683902,27.9851325 36.9581463,29.5403083 37.2647317,31.0908322 C43.9383902,24.395644 50.5700976,17.742567 57.2010732,11.0904693 L57.2010732,11.0904693 Z M58.9361951,12.8189864 C43.5222927,28.2963146 28.1466829,43.7349592 12.7718049,59.1728694 C24.8730244,70.7434062 45.111561,71.4069021 58.119122,58.3612498 C71.0874146,45.3542811 70.5069268,25.0412672 58.9361951,12.8189864 L58.9361951,12.8189864 Z M69.9923655,35.1574992 C69.9532683,54.624617 54.2535122,70.3240082 34.8820488,70.2668737 C15.4971707,70.2094266 -0.036,54.4444203 3.47731927e-05,34.8639451 C0.0352195122,15.7195164 15.8310732,-0.0430415448 34.9281463,0.00873511335 C54.3820488,0.061746744 70.0313171,15.7488963 69.9923655,35.1574992 L69.9923655,35.1574992 Z" id="Fill-1" fill="#FFFFFF" mask="url(#mask-2)"></path>
                </g>
                <path d="M41.9307697,59.4973379 C41.9307697,60.6364028 41.9305215,61.6143593 41.9307697,62.5920588 C41.931018,63.5088608 41.9203443,64.4254059 41.9352378,65.341951 C41.9565851,66.6593401 42.8243767,67.603122 44.0995041,67.6121153 C47.3778005,67.6352409 50.6565932,67.6313867 53.9348896,67.6131431 C55.1732798,67.6064624 56.1430916,66.7276891 56.136886,65.447815 C56.1237301,62.7536811 56.0887305,60.0520957 55.8757542,57.3692677 C55.7154014,55.3504017 54.773639,53.5509721 53.839075,51.7895713 C53.3788675,50.9226178 52.8891212,50.0710813 52.4658991,49.1853704 C52.3755455,48.9959973 52.4328852,48.6203346 52.5649405,48.4484342 C52.9481986,47.9504627 53.4041863,47.5126177 53.8790391,47 C56.3173449,51.2422651 58.647425,55.3796941 58.476895,60.4501132 C58.4242715,62.0085225 58.4741646,63.571043 58.4719305,65.131508 C58.4682072,67.9962574 56.5442218,69.9981646 53.7909196,69.9994494 C50.6322673,70.0009911 47.4733668,69.9991924 44.3147145,69.9953382 C41.53237,69.9919978 39.6394126,68.0656343 39.5793424,65.1780161 C39.5694134,64.7075384 39.6503345,64.2201019 39.5587398,63.7688955 C39.1345247,61.6793679 40.6417417,60.7687327 41.9307697,59.4973379" id="Fill-4" fill="#FFFFFF"></path>
                <path d="M60.4815861,28.4945372 C60.4820038,28.9250815 60.4917154,29.3571173 60.4798108,29.7856729 C60.4603875,30.4844374 60.2418234,31.0014883 59.9837861,31 C59.7356694,30.9982567 59.5135548,30.5232162 59.4993528,29.8468241 C59.4804516,28.940245 59.4816003,28.0284457 59.5002926,27.1218665 C59.5144946,26.4318025 59.7241825,25.9970323 59.9876499,26 C60.2567564,26.0029982 60.4627893,26.4924565 60.4792887,27.2031529 C60.4893136,27.6322057 60.4811684,28.0639929 60.4815861,28.4945372" id="Fill-6" fill="#FFFFFF"></path>
                <circle id="Oval" stroke="#FFFFFF" stroke-width="2" cx="48" cy="47" r="39"></circle>
            </g>
        </g>
    </g>
</svg>