<?xml version="1.0" encoding="UTF-8"?>
<svg width="81px" height="81px" viewBox="0 0 81 81" version="1.1" xmlns="http://www.w3.org/2000/svg" xmlns:xlink="http://www.w3.org/1999/xlink">
    <!-- Generator: Sketch 61.1 (89650) - https://sketch.com -->
    <title>np_plant_2898935_000000</title>
    <desc>Created with Sketch.</desc>
    <g id="Page-1" stroke="none" stroke-width="1" fill="none" fill-rule="evenodd">
        <g id="Verma-Farms---Homepage---R3" transform="translate(-1158.000000, -2590.000000)" fill="#443636" fill-rule="nonzero">
            <g id="np_plant_2898935_000000" transform="translate(1158.000000, 2590.000000)">
                <path d="M40.5,81 C18.1697324,81 0,62.8311037 0,40.5 C0,18.1688963 18.1688963,0 40.5,0 C62.8311037,0 81,18.1688963 81,40.5 C81,62.8311037 62.8311037,81 40.5,81 Z M40.5,1.96070234 C19.2474916,1.96070234 1.95986622,19.2483278 1.95986622,40.5008361 C1.95986622,61.7533445 19.2474916,79.0409699 40.5,79.0409699 C61.7525084,79.0409699 79.0401338,61.7533445 79.0401338,40.5008361 C79.0401338,19.2483278 61.7525084,1.96070234 40.5,1.96070234 Z" id="Shape"></path>
                <path d="M40,52 C39.4466763,52 39,51.5586925 39,51.0119818 L39,18.9880182 C39,18.4413243 39.4466593,18 40,18 C40.5533407,18 41,18.4413075 41,18.9880182 L41,51.0119818 C41,51.5586757 40.5533407,52 40,52 Z" id="Path"></path>
                <path d="M34.6915881,35 L34.685259,35 C33.6535777,34.996612 32.4952656,34.33929 31.425587,33.1466429 C29.6121646,31.1272669 29.0614863,25.729745 29.0045307,25.1198815 C28.9697182,24.7370059 29.1374486,24.3643047 29.4412655,24.1575965 C29.7450824,23.9509143 30.1311811,23.9475227 30.4413498,24.1474315 C30.583763,24.2389154 33.9226056,26.4141878 35.3340985,27.9693354 C36.8531831,29.6465251 37.6444033,32.82812 36.3468215,34.2613123 C35.9100867,34.7458289 35.3372582,35 34.691627,35 L34.6915881,35 Z M31.1976773,27.0918111 C31.5299963,28.928254 32.080626,30.9442472 32.7927728,31.7405133 C33.6029513,32.6452034 34.3023783,32.9670927 34.6884284,32.9704755 C34.8624871,32.9535345 34.9257864,32.9162635 34.9795903,32.8552772 C35.2390986,32.5672769 35.1093485,30.6528814 33.9668672,29.3924737 C33.3370831,28.691109 32.1788034,27.8000282 31.1976773,27.0918892 L31.1976773,27.0918111 Z" id="Shape"></path>
                <path d="M45.3055499,27.9931745 C44.6600533,27.9931745 44.0873459,27.7390546 43.6538179,27.2613122 C42.356474,25.8281199 43.144382,22.6465248 44.6663553,20.969335 C46.0744303,19.4141005 49.4158038,17.238854 49.5582071,17.1474309 C49.8651355,16.947523 50.2511634,16.9509145 50.558108,17.1575958 C50.8618692,17.3642781 51.032737,17.7369879 50.9947628,18.1198809 C50.9378079,18.7297618 50.3872403,24.1238839 48.5741503,26.1466428 C47.5046678,27.3393073 46.346568,27.9966172 45.3150759,28 C45.3119119,27.9932239 45.3087471,27.9932239 45.3055831,27.9932239 L45.3055499,27.9931745 Z M48.798804,20.0816023 C47.8147797,20.7897501 46.659839,21.6842831 46.0269626,22.382187 C44.8846584,23.6425948 44.7549726,25.5570164 45.0144252,25.8449906 C45.068216,25.9059796 45.1409924,25.960189 45.3023665,25.960189 L45.3055305,25.960189 C45.6883992,25.960189 46.3876495,25.6349169 47.2008385,24.7302267 C47.9191083,23.9339865 48.4696694,21.9179673 48.798804,20.0815242 L48.798804,20.0816023 Z" id="Shape"></path>
                <path d="M34.6915881,24 L34.685259,24 C33.6535777,23.996612 32.4952656,23.3392905 31.425587,22.1466445 C29.6121646,20.1272703 29.0614863,14.7297531 29.0045307,14.1198901 C28.9697182,13.7370148 29.1374486,13.364314 29.4412655,13.1576059 C29.7450824,12.9508979 30.1311811,12.9475324 30.4413498,13.147441 C30.583763,13.2389248 33.9226056,15.4141953 35.3340985,16.9693415 C36.8531831,18.6465298 37.6444033,21.8281219 36.3468215,23.2613129 C35.9100867,23.7458291 35.3372582,24 34.691627,24 L34.6915881,24 Z M31.1976773,16.0884352 C31.5299963,17.9248765 32.080626,19.9408679 32.7927728,20.7371333 C33.6029513,21.6418227 34.3023783,21.9637117 34.6884284,21.9670945 C34.8624871,21.9569295 34.9257864,21.9128825 34.9795903,21.8518962 C35.2390986,21.5638962 35.1093485,19.6495024 33.9668672,18.3890958 C33.3370831,17.6911145 32.1788034,16.7966517 31.1976773,16.0885132 L31.1976773,16.0884352 Z" id="Shape"></path>
                <path d="M39.3532208,17 L39.3226851,17 C37.5240943,16.9703939 36.0339719,14.2102206 36.0003578,11.9489094 C35.9667679,9.71381241 38.3088671,5.86729807 38.5745751,5.43736832 C38.7364155,5.17480618 39.0081897,5.01070694 39.3013362,5.00085981 C39.5944827,4.98773086 39.8754187,5.12557893 40.0555748,5.37173198 C40.3517779,5.77213714 42.9442798,9.37250683 42.999235,12.0736621 C43.0236639,13.3897496 42.4617997,14.8043084 41.4907421,15.8512801 C40.803677,16.5930161 40.0463505,17 39.3531958,17 L39.3532208,17 Z M39.3959717,7.75095666 C38.6203529,9.18852009 37.8172799,10.9871338 37.8325236,11.9158896 C37.8569524,13.599564 38.9501545,15.0206764 39.3532114,15.0272299 L39.3562648,15.0272299 C39.4600856,15.0272299 39.7929281,14.8893869 40.1929441,14.4594403 C40.6754164,13.9376012 41.1853428,13.0481583 41.1670504,12.112765 C41.1426216,10.8590202 40.1868466,9.02763881 39.3959764,7.75095666 L39.3959717,7.75095666 Z" id="Shape"></path>
                <path d="M45.3055499,38.9931745 C44.6600533,38.9931745 44.0873459,38.7390546 43.6538179,38.2613122 C42.356474,36.8281199 43.144382,33.6465248 44.6663553,31.969335 C46.0744303,30.4141005 49.4158038,28.238854 49.5582071,28.1474309 C49.8651355,27.947523 50.2511634,27.9509145 50.558108,28.1575958 C50.8618692,28.3642781 51.032737,28.7369879 50.9947628,29.1198809 C50.9378079,29.7297618 50.3872403,35.1238839 48.5741503,37.1466428 C47.5046678,38.3393073 46.346568,38.9966172 45.3150759,39 C45.3119119,38.9932239 45.3087471,38.9932239 45.3055831,38.9932239 L45.3055499,38.9931745 Z M48.798804,31.0816023 C47.8147797,31.7897501 46.659839,32.6842831 46.0269626,33.382187 C44.8846584,34.6425948 44.7549726,36.5570164 45.0144252,36.8449906 C45.068216,36.9059796 45.1409924,36.960189 45.3023665,36.960189 L45.3055305,36.960189 C45.6883992,36.960189 46.3876495,36.6349169 47.2008385,35.7302267 C47.9191083,34.930595 48.4696694,32.9145844 48.798804,31.0815242 L48.798804,31.0816023 Z" id="Shape"></path>
                <path d="M40.0009933,52 C39.9310148,52 39.8610396,51.9935176 39.7910628,51.97731 C20.6670717,48.0292894 16.2251669,34.8236926 16.0451703,34.2627481 C15.8818853,33.7506041 16.1751261,33.2060813 16.7016287,33.0439385 C17.2314583,32.8851065 17.7879206,33.1703501 17.9546093,33.6824941 C18.0012608,33.8316008 22.293208,46.3792578 40.2076396,50.0743554 C40.7474671,50.1845611 41.0940585,50.7031859 40.9773934,51.2282748 C40.8774228,51.6853118 40.4642242,51.9997311 40.0010616,51.9997311 L40.0009933,52 Z" id="Path"></path>
                <path d="M18.619285,50 C18.1054425,50 17.5537833,49.9400784 16.9705536,49.8139271 C14.1995875,49.224173 10.6247538,45.0769695 10.2243938,44.6070845 C9.99111807,44.3327104 9.93436878,43.9479456 10.0793813,43.6167736 C10.2243938,43.2856257 10.5427853,43.0648686 10.9021329,43.0491008 C11.0818228,43.0396393 15.353304,42.8472601 17.5127143,43.2950961 C19.8171452,43.7744676 22.3169543,45.912727 21.9670327,47.8522541 C21.8503948,48.4893116 21.4941704,49.0222839 20.9330853,49.4007755 C20.3467406,49.7981513 19.5492162,50 18.6192123,50 L18.619285,50 Z M13.0742053,44.8940777 C14.3698676,46.1871495 16.1225424,47.6978056 17.364619,47.9627013 C18.6634287,48.2402322 19.5177346,48.0762326 19.883393,47.8302454 C20.0536247,47.7167141 20.0914495,47.6063315 20.1103659,47.5148734 C20.1954818,47.0544265 18.9250225,45.518508 17.1344987,45.1495433 C16.0973232,44.9350917 14.4171183,44.8877802 13.0742053,44.8940857 L13.0742053,44.8940777 Z" id="Shape"></path>
                <path d="M24.4808496,40 C24.1753108,40 23.8758731,39.9308106 23.5886845,39.7891365 C21.9478861,38.9852234 21.6118575,35.8057554 22.4245522,33.7070728 C23.1792397,31.7631639 25.4646873,28.5244686 25.5624609,28.3893472 C25.7732844,28.0928225 26.1216011,27.9478496 26.4637776,28.0170381 C26.8059542,28.0862267 27.0809719,28.3596914 27.175695,28.7188173 C27.3254139,29.2921047 28.6086658,34.3858172 27.6431783,36.9029375 C27.0748708,38.3888507 26.2529933,39.4234316 25.3241435,39.8187586 C25.0430403,39.940663 24.7588866,40 24.4808652,40 L24.4808496,40 Z M25.8496808,31.3351953 C25.1988759,32.349955 24.4533165,33.5986889 24.117288,34.4718327 C23.5062027,36.0434408 24.0225727,37.829202 24.3495044,37.9906391 C24.4167242,38.0235861 24.5022738,38.0466495 24.6489343,37.9840492 C24.9942004,37.8357868 25.516695,37.2789721 25.9443961,36.1554406 C26.3263235,35.1571282 26.1552196,33.124235 25.8496808,31.3352687 L25.8496808,31.3351953 Z" id="Shape"></path>
                <path d="M13.1812262,39 C12.3842613,39 11.4788083,38.798488 10.5291909,38.4017592 C7.97213468,37.3343904 5.40153483,32.8885519 5.11659752,32.3847719 C4.93685782,32.0667618 4.96737441,31.6826315 5.19120647,31.3929298 C5.41842704,31.1032523 5.79825663,30.9552699 6.18145477,31.0119432 C6.35779988,31.0371322 10.4918044,31.6731524 12.4757737,32.4886232 C14.6156685,33.3702785 16.5894801,35.8198584 15.8365927,37.5358541 C15.5822415,38.1120494 15.1074588,38.5434141 14.4631289,38.7827298 C14.0832994,38.9275685 13.652603,39 13.1811715,39 L13.1812262,39 Z M8.03651037,33.263195 C9.05397617,34.7210135 10.3562491,36.2543586 11.3668128,36.6763248 C12.5130734,37.1549158 13.326994,37.1706579 13.7102095,37.0321224 C13.8729936,36.9722983 13.9238604,36.8967305 13.9543856,36.8243152 C14.1069946,36.481116 13.2591629,34.8784346 11.6517067,34.2140899 C10.7632093,33.8488534 9.27775007,33.5087978 8.03651037,33.263195 L8.03651037,33.263195 Z" id="Shape"></path>
                <path d="M16.4575928,30 C16.2808334,30 16.104074,29.9800673 15.9240465,29.9435231 C13.9993345,29.531568 12.6016998,26.3323036 13.1024651,23.4885566 C13.5247219,21.0766828 15.4854579,16.7610966 15.5672428,16.5784136 C15.7243605,16.2362319 16.0582375,16.0103191 16.4280799,16.0003515 C16.820874,15.9903847 17.1482066,16.193036 17.3216812,16.5252587 C17.6457374,17.1332152 20.4640339,22.5683382 19.9337724,25.6611055 C19.6228135,27.4750074 18.9059297,28.8470854 17.9141194,29.5281491 C17.4656764,29.8404365 16.9681456,30 16.4574923,30 L16.4575928,30 Z M16.5099654,19.3860119 C15.9371438,20.7912671 15.2497563,22.6351059 15.036998,23.8410853 C14.690032,25.8078183 15.7047522,27.8609599 16.3332395,27.9938048 C16.444529,28.0170594 16.6049231,28.0270262 16.8209578,27.8808526 C17.2301172,27.5984681 17.7571275,26.7778663 18.005918,25.3227815 C18.2514154,23.8710136 17.3414403,21.2962731 16.5099905,19.3860119 L16.5099654,19.3860119 Z" id="Shape"></path>
                <path d="M39.9678899,53 C39.5292759,53 39.1326037,52.6887406 39.0261805,52.2270122 C38.9036245,51.6883234 39.2229108,51.1463111 39.7421554,51.0191144 C58.460756,46.3918087 61.0631303,35.8788492 61.0887247,35.7752075 C61.2112807,35.2365186 61.7337453,34.9019612 62.2497205,35.0257318 C62.7689651,35.149528 63.0946665,35.6848678 62.9753717,36.2235224 C62.8721684,36.7019791 60.1856629,48.0275501 40.1930382,52.973233 C40.1156358,52.989963 40.0414615,53 39.967279,53 L39.9678899,53 Z" id="Path"></path>
                <path d="M61.7589612,52 C60.5567129,52 59.5543847,51.6944828 58.8849724,51.1080941 C58.3587948,50.6481159 58.0557434,50.0406663 58.0058358,49.348973 C57.8593017,47.287826 60.5001897,45.3145001 62.7847341,45.0547219 C64.9061029,44.812445 68.9756049,45.4514994 69.1487552,45.4795897 C69.5250737,45.539282 69.8347835,45.8166721 69.9513424,46.1958944 C70.0679013,46.5751077 69.9713242,46.9929552 69.7015745,47.2738393 C69.2719724,47.7197679 65.4289129,51.6242708 62.6914154,51.9473306 C62.3683805,51.9824438 62.0586707,52 61.75891,52 L61.7589612,52 Z M63.9269637,47.1017474 C63.5839538,47.1017474 63.2675772,47.1157925 62.9978685,47.1473938 C61.282819,47.3405106 59.9706788,48.7731201 60.0006881,49.187417 C60.0073481,49.2751996 60.0306599,49.3700078 60.1605388,49.4858743 C60.4702486,49.7562414 61.242835,49.9985184 62.4650326,49.851047 C63.5473288,49.7211309 65.2623783,48.5062227 66.6844106,47.2807706 C65.798539,47.185965 64.782826,47.1016944 63.9269637,47.1016944 L63.9269637,47.1017474 Z" id="Shape"></path>
                <path d="M56.2975183,40 C55.9396391,40 55.5848749,39.9056456 55.2456776,39.723442 C54.3432121,39.2353945 53.608764,38.1291291 53.1761733,36.6096967 C52.441741,34.0327754 54.228014,29.1653776 54.4333949,28.6187251 C54.5640963,28.2738417 54.8690767,28.0363232 55.2207259,28.0037889 C55.5817121,27.971253 55.9115884,28.1502015 56.0983353,28.4658073 C56.1823599,28.6122199 58.1895887,32.0383309 58.7684476,34.0295353 C59.3908445,36.1769142 58.7435518,39.2613403 57.0070945,39.8762931 C56.7705877,39.9576338 56.5340729,40 56.2975661,40 L56.2975183,40 Z M55.5226312,31.3291694 C55.0402727,33.0536069 54.6730645,35.035066 54.9624781,36.0502421 C55.2892394,37.2020188 55.76536,37.8072263 56.1014742,37.9893883 C56.2446275,38.0674756 56.334874,38.054461 56.4064467,38.0284319 C56.7954437,37.8917813 57.4427523,36.1966505 56.9790518,34.5958408 C56.7207561,33.7011065 56.0859073,32.3964036 55.5226631,31.3291694 L55.5226312,31.3291694 Z" id="Shape"></path>
                <path d="M66.9268771,42 C66.2934052,42 65.7281605,41.8725038 65.2636101,41.6141695 C64.6723685,41.2869507 64.2663152,40.7668342 64.0843537,40.1158532 C63.5450893,38.1697704 65.6859135,35.706966 67.813731,34.9664493 C69.7888606,34.2810084 73.7975836,34.015805 73.9664883,34.0019611 C74.3433181,33.9778498 74.6844209,34.1776288 74.8695592,34.515182 C75.0547307,34.856183 75.0417322,35.2764029 74.8370731,35.6036481 C74.5122204,36.1237557 71.6015198,40.697941 69.0513988,41.5970013 C68.2944792,41.86567 67.5733366,42 66.9268247,42 L66.9268771,42 Z M71.9686552,36.2615158 C70.7602085,36.4027413 69.3113366,36.6197379 68.4244827,36.9262967 C66.8261662,37.4808553 65.8483316,39.1410571 65.9588557,39.5302736 C65.9815959,39.6129403 66.023827,39.6990547 66.1700157,39.7817213 C66.5176136,39.9746101 67.2972949,40.0400556 68.440791,39.6370569 C69.4445726,39.2822825 70.8479542,37.7460852 71.9687467,36.2615158 L71.9686552,36.2615158 Z" id="Shape"></path>
                <path d="M64.2750857,32 C63.6767514,32 63.1109666,31.7832591 62.623142,31.3664568 C61.7093451,30.5828654 61.1370254,29.1390383 61.010241,27.2951483 C60.7923682,24.1507785 64.1189985,19.0157826 64.499435,18.4389107 C64.7075513,18.1254725 65.0684998,17.9587533 65.4359582,18.0087665 C65.8034166,18.0587822 66.1090812,18.315538 66.2293973,18.6756518 C66.2944337,18.8657173 67.8000092,23.380512 67.9821525,25.8313211 C68.1935237,28.7222531 66.4960359,31.7699085 64.5547274,31.9833119 C64.4604257,31.9933154 64.3693707,32 64.2750691,32 L64.2750857,32 Z M65.0230056,21.3827582 C64.0083972,23.2066737 62.8572645,25.6842008 62.958076,27.154635 C63.0588792,28.6351419 63.4978797,29.5087297 63.8751195,29.8321638 C64.0734793,30.0022206 64.2263199,30.0055497 64.3466361,29.9955539 C64.9807414,29.9255303 66.1838865,27.9815387 66.0375391,25.9809253 C65.9464924,24.7571854 65.4489613,22.8432137 65.0229307,21.3827582 L65.0230056,21.3827582 Z" id="Shape"></path>
                <path d="M52.6286238,60 L27.3675966,60 C26.8977748,60 26.4987339,59.6452947 26.4151182,59.1541643 L26.0128727,56.7428668 C26.0032186,56.6848864 26,56.6234938 26,56.5655185 L26,51.0232102 C26,50.4570438 26.4312103,50 26.9654121,50 L53.0345879,50 C53.5687732,50 54,50.4570263 54,51.0232102 L54,56.5655185 C54,56.623499 53.9935636,56.6848916 53.9871281,56.7428668 L53.5848827,59.1541643 C53.5012175,59.6452947 53.098972,60 52.629109,60 L52.6286238,60 Z M28.1749214,57.9535797 L51.8204752,57.9535797 L52.068258,56.4733781 L52.068258,52.042989 L27.9300713,52.0463994 L27.9300713,56.4767885 L28.1749214,57.9535797 Z" id="Shape"></path>
                <path d="M49.6850968,77 L30.3119455,77 C29.8339266,77 29.4222779,76.6697679 29.3327078,76.2144902 L26.0164887,59.1381902 C25.9633755,58.8560475 26.0397259,58.5674946 26.2289415,58.3462701 C26.4181605,58.1250456 26.7003234,58 26.9957604,58 L53.0042393,58 C53.2996847,58 53.5818476,58.1282467 53.7710581,58.3462701 C53.9602771,58.5674946 54.0366242,58.8560475 53.983511,59.1381902 L50.6672918,76.2144902 C50.5776622,76.6697679 50.1660391,77 49.6847398,77 L49.6850968,77 Z M31.1388121,75.076259 L48.8616295,75.076259 L51.8060561,59.9238641 L28.1940455,59.9270709 L31.1388121,75.076259 Z" id="Shape"></path>
            </g>
        </g>
    </g>
</svg>