<?xml version="1.0" encoding="UTF-8"?>
<svg width="52px" height="53px" viewBox="0 0 52 53" version="1.1" xmlns="http://www.w3.org/2000/svg" xmlns:xlink="http://www.w3.org/1999/xlink">
    <!-- Generator: Sketch 61.1 (89650) - https://sketch.com -->
    <title>Group 15</title>
    <desc>Created with Sketch.</desc>
    <defs>
        <polygon id="path-1" points="0.210024751 0.270013514 11.6593503 0.270013514 11.6593503 52.9927021 0.210024751 52.9927021"></polygon>
        <polygon id="path-3" points="0 0.273395148 11.493397 0.273395148 11.493397 52.9953097 0 52.9953097"></polygon>
        <polygon id="path-5" points="0.61378073 0.270013514 12.2933054 0.270013514 12.2933054 52.9950352 0.61378073 52.9950352"></polygon>
        <polygon id="path-7" points="0.722172764 0.275115324 12.4222165 0.275115324 12.4222165 53 0.722172764 53"></polygon>
    </defs>
    <g id="Page-1" stroke="none" stroke-width="1" fill="none" fill-rule="evenodd">
        <g id="Verma-Farms---Homepage---R3" transform="translate(-223.000000, -3644.000000)">
            <g id="Group-15" transform="translate(223.000000, 3644.000000)">
                <path d="M9.07923637,51.6051988 C9.20408668,48.8194942 10.5006644,46.6133946 12.4573702,44.734898 C13.7532304,43.490007 15.1057755,42.2998365 16.3356229,40.9923049 C18.9840281,38.17636 19.4332023,33.7296006 17.3416007,30.6040529 C16.6039793,29.5017232 15.6123521,28.5621148 14.6853026,27.5980263 C13.5760004,26.4445761 12.3102765,25.4300871 11.2885129,24.2067963 C8.12563826,20.4210028 8.260534,14.9187141 11.5733726,11.2272414 C12.5685875,10.1184316 13.7180714,9.150743 14.7792991,8.0995337 C15.4552129,7.42992777 16.1375844,6.76104185 16.7474854,6.03311541 C17.9701575,4.57294248 18.5872337,2.86868739 18.6023019,0.952750431 C18.6058895,0.460986078 18.7049088,-0.0106180971 19.3155273,0 C19.9261458,0.0109820942 20.0014865,0.476826218 19.9878534,0.975790635 C19.9082075,3.89541648 18.6661621,6.2692775 16.5903462,8.24569499 C15.5240958,9.26090398 14.4298617,10.2473127 13.3707866,11.2697218 C10.5652421,13.9798258 9.69774771,17.2004143 10.9254425,20.9343673 C11.4119282,22.4139804 12.4014028,23.5710307 13.4934843,24.6344801 C14.6099619,25.7209697 15.7809717,26.7520188 16.8974493,27.8399485 C21.0820875,31.9137445 21.0670193,38.5666034 16.6491837,42.6648797 C15.3167295,43.9011306 13.9828402,45.1402616 12.7192689,46.4456332 C11.1995392,48.0166871 10.4253237,49.9355041 10.4030802,52.1387236 C10.3980575,52.636968 10.2488112,53.0207314 9.68267956,52.9991312 C9.14668424,52.978251 9.03187935,52.5829675 9.04910008,52.1250434 C9.05555786,51.9515219 9.06919094,51.7780004 9.07923637,51.6051988" id="Fill-1" fill="#443636"></path>
                <g id="Group-5" transform="translate(30.000000, 0.000000)">
                    <mask id="mask-2" fill="white">
                        <use xlink:href="#path-1"></use>
                    </mask>
                    <g id="Clip-4"></g>
                    <path d="M0.2511,51.784223 C0.3411,49.4264392 1.23735,47.3916689 2.90085,45.6971014 C3.9801,44.5977095 5.16135,43.5878446 6.31485,42.5564932 C7.86135,41.1749122 9.3231,39.7288716 9.88035,37.7012635 C10.86735,34.1130203 9.85035,31.0719662 7.04085,28.5458716 C5.8071,27.4371689 4.5711,26.3313311 3.3471,25.2126014 C-0.7659,21.4546149 -1.0434,14.7221824 3.7626,10.5108311 C4.8441,9.56256081 5.92635,8.61429054 6.99135,7.64883108 C8.9466,5.87619595 10.2261,3.79057432 10.2351,1.12983108 C10.2366,0.649966216 10.4001,0.238858108 10.9971,0.271804054 C11.60085,0.30475 11.6526,0.742358108 11.6481,1.21434459 C11.6181,4.15942568 10.2711,6.51935811 8.0961,8.50542568 C7.0026,9.5045473 5.86485,10.4599797 4.77885,11.4662635 C3.32985,12.8098851 2.18835,14.3361419 1.82085,16.2928446 C1.28085,19.1663041 1.90785,21.753277 4.0236,23.8983446 C5.3226,25.2154662 6.74985,26.417277 8.1201,27.669223 C10.3746,29.729777 11.65785,32.1835338 11.6593503,35.2281689 C11.6601,38.2756689 10.3596,40.7229797 8.1051,42.7799527 C6.7986,43.9717365 5.45385,45.1269932 4.1826,46.351723 C2.55885,47.9159392 1.71885,49.8296689 1.6386,52.0377635 C1.6206,52.5147635 1.5981,53.0046554 0.92685,52.9927021 C0.20535,52.9781554 0.22935,52.4546014 0.2511,51.9611284 C0.25335,51.8966689 0.2511,51.8314932 0.2511,51.784223" id="Fill-3" fill="#443636" mask="url(#mask-2)"></path>
                </g>
                <g id="Group-8">
                    <mask id="mask-4" fill="white">
                        <use xlink:href="#path-3"></use>
                    </mask>
                    <g id="Clip-7"></g>
                    <path d="M10.028175,35.2248743 C10.115175,32.5211581 8.876175,30.4169149 6.931425,28.6227932 C5.583675,27.3787257 4.169175,26.1969689 2.879925,24.8999014 C-0.882075,21.1182797 -0.969075,15.3312527 2.681175,11.4522257 C3.719925,10.3478203 4.928175,9.39167162 6.026175,8.33668514 C6.852675,7.54311757 7.681425,6.74095541 8.411175,5.86932027 C9.407175,4.67896892 9.899925,3.27446892 10.007925,1.75250946 C10.025175,1.51544189 10.025925,1.27765811 10.046175,1.04059054 C10.086675,0.577914865 10.286925,0.229833784 10.838925,0.27782027 C11.345175,0.321509459 11.483175,0.663144595 11.475675,1.10863108 C11.434425,3.55809054 10.611675,5.73610405 8.850675,7.51661757 C7.503675,8.87886081 6.035925,10.1329554 4.617675,11.4307392 C2.717175,13.1689959 1.530675,15.2216716 1.448925,17.7921716 C1.358925,20.6197932 2.581425,22.8816041 4.681425,24.7752797 C5.814675,25.7966041 6.964425,26.8021716 8.099175,27.8227797 C12.645675,31.9087932 12.665925,38.6448068 7.910925,42.8024419 C6.611925,43.9383608 5.321925,45.0857392 4.076925,46.2760905 C2.378175,47.9011851 1.484925,49.8800905 1.449675,52.1906041 C1.442175,52.6690365 1.270425,53.008523 0.716925,52.9953097 C0.138675,52.9805905 0.058425,52.5866716 0.057675,52.1333068 C0.053175,49.1839284 1.386675,46.8196986 3.557175,44.8228878 C4.906425,43.5809689 6.314925,42.3941986 7.612425,41.1042932 C9.259425,39.4691716 10.118175,37.4931311 10.028175,35.2248743" id="Fill-6" fill="#443636" mask="url(#mask-4)"></path>
                </g>
                <g id="Group-11" transform="translate(39.000000, 0.000000)">
                    <mask id="mask-6" fill="white">
                        <use xlink:href="#path-5"></use>
                    </mask>
                    <g id="Clip-10"></g>
                    <path d="M12.2496706,1.63576622 C12.1296118,3.92264459 11.2379647,5.92160405 9.57167059,7.57964459 C8.45290588,8.69336081 7.2332,9.71969865 6.04484706,10.7703878 C4.68061176,11.9757797 3.32478824,13.2083878 2.69925882,14.9072527 C1.46961176,18.25055 1.9682,21.3431716 4.5812,23.9788473 C5.84831765,25.256577 7.27372941,26.396077 8.61808235,27.6064824 C10.3294941,29.1470635 11.6509059,30.9139689 12.0806706,33.1478473 C12.8010235,36.8936581 11.6922,40.0972932 8.73737647,42.7207932 C7.63390588,43.700577 6.49831765,44.6488473 5.39637647,45.6286311 C3.40355294,47.4012662 2.08443529,49.477577 2.09590588,52.1469149 C2.09743529,52.6217662 1.92231765,53.0343068 1.30596471,52.99205 C0.698788235,52.9505095 0.618494118,52.5236446 0.6292,52.0516581 C0.697258824,49.1431041 2.02861176,46.7838878 4.23096471,44.8121446 C5.38031765,43.7836581 6.56790588,42.7938473 7.71725882,41.7653608 C9.79725882,39.9024824 10.9420235,37.6657392 10.8548471,34.9176176 C10.7737882,32.3399554 9.53955294,30.2958743 7.60714118,28.5633473 C6.42567059,27.5047797 5.20137647,26.4870365 4.02067059,25.4270365 C-0.556858824,21.3188203 -0.551505882,14.6687527 4.21796471,10.5340365 C5.56996471,9.36230676 6.92731765,8.19200946 8.22043529,6.96441486 C9.92343529,5.34863108 10.8257882,3.38619865 10.8464353,1.09645541 C10.8510235,0.618739189 11.0261412,0.264928378 11.5790235,0.269889275 C12.1410824,0.274955405 12.2993765,0.650252703 12.2772,1.11865811 C12.2687882,1.29126622 12.2588471,1.46315811 12.2496706,1.63576622" id="Fill-9" fill="#443636" mask="url(#mask-6)"></path>
                </g>
                <g id="Group-14" transform="translate(19.000000, 0.000000)">
                    <mask id="mask-8" fill="white">
                        <use xlink:href="#path-7"></use>
                    </mask>
                    <g id="Clip-13"></g>
                    <path d="M12.3565,1.27278784 C12.2739118,4.28232838 10.9104412,6.53840946 8.80138235,8.44999054 C7.67573529,9.46988243 6.4935,10.4346257 5.36632353,11.4523689 C3.55320588,13.088923 2.35338235,15.0055176 2.18591176,17.4327743 C1.98173529,20.3878824 3.18691176,22.7592743 5.4275,24.748923 C6.81467647,25.9800986 8.25385294,27.1668689 9.55767647,28.4718149 C13.3597941,32.2792203 13.3804412,38.1020581 9.59897059,41.914477 C8.28520588,43.2387608 6.81544118,44.4276797 5.42444118,45.6860716 C3.88738235,47.0755311 2.68832353,48.6562203 2.32738235,50.6823959 C2.23255882,51.2123959 2.20426471,51.7531392 2.15914706,52.2895851 C2.12320588,52.7100041 1.94120588,53.0050851 1.45026471,53.0001345 C0.927970588,52.9943419 0.742147059,52.6928149 0.739088235,52.2337203 C0.722172764,49.9454095 1.43955882,47.8748284 3.04238235,46.1580581 C4.19097059,44.9290311 5.52385294,43.8518419 6.75579412,42.689423 C7.54955882,41.940977 8.38767647,41.2168824 9.07208824,40.3853554 C11.7883235,37.0878959 11.5696176,32.4747473 8.52455882,29.4157878 C7.20773529,28.0929365 5.74255882,26.9004365 4.35002941,25.6427608 C2.51473529,23.9854365 1.20173529,22.065977 0.844617647,19.6408689 C0.312382353,16.0311392 1.52367647,13.0151527 4.31408824,10.5263014 C5.41526471,9.54436892 6.54932353,8.59538243 7.65432353,7.61703108 C9.63873529,5.86086892 10.8928529,3.77238243 10.9387353,1.15031486 C10.9471471,0.669733784 11.0649118,0.255760811 11.6843235,0.275814865 C12.3090882,0.295868919 12.3886176,0.727747297 12.3572647,1.20116622 C12.3519118,1.28711216 12.3565,1.37377432 12.3565,1.27278784" id="Fill-12" fill="#443636" mask="url(#mask-8)"></path>
                </g>
            </g>
        </g>
    </g>
</svg>