<?xml version="1.0" encoding="UTF-8"?>
<svg width="49px" height="49px" viewBox="0 0 49 49" version="1.1" xmlns="http://www.w3.org/2000/svg" xmlns:xlink="http://www.w3.org/1999/xlink">
    <!-- Generator: Sketch 61.1 (89650) - https://sketch.com -->
    <title>Group 15</title>
    <desc>Created with Sketch.</desc>
    <g id="Page-1" stroke="none" stroke-width="1" fill="none" fill-rule="evenodd">
        <g id="Learn-Page" transform="translate(-173.000000, -1627.000000)">
            <g id="Group-9" transform="translate(150.000000, 1610.000000)">
                <g id="Group-15" transform="translate(24.000000, 18.000000)">
                    <path d="M47,23.5016051 C47,36.4802951 36.4802951,47 23.5016051,47 C10.5197049,47 0,36.4802951 0,23.5016051 C0,10.5229151 10.5197049,0 23.5016051,0 C36.4802951,0 47,10.5229151 47,23.5016051 Z" id="Stroke-1" stroke="#443636" stroke-width="1.5"></path>
                    <path d="M24.0031915,32.7676402 C19.2495954,33.6181639 14.3396096,34.494461 9.5599486,33.0962516 L9.5599486,29.3462155 C11.3942698,29.845576 13.2285909,30.0388768 15.0563959,30.0388768 C18.1385767,30.0388768 21.2012089,29.4911911 24.2051949,28.9531705 C28.9555328,28.1058685 33.8655186,27.2327931 38.6451796,28.6342241 L38.6451796,32.3778169 C33.7189032,31.0311544 28.7828525,31.9106732 24.0031915,32.7676402 L24.0031915,32.7676402 Z M23.9380291,14.2784156 L23.9380291,22.9640663 C19.2039817,23.8081466 14.3168028,24.6651137 9.5599486,23.2733477 L9.5599486,14.6199137 C14.3949976,15.9408028 19.239821,15.1160525 23.9380291,14.2784156 L23.9380291,14.2784156 Z M38.6451796,13.9047007 L38.6451796,17.6579585 C33.9697784,16.382173 29.2780866,17.1070511 25.0653384,17.854481 L25.0653384,14.0754497 C29.5485105,13.2829163 34.1522331,12.5870333 38.6451796,13.9047007 L38.6451796,13.9047007 Z M38.6451796,22.5645779 C33.9697784,21.2887925 29.2780866,22.0136706 25.0653384,22.7643221 L25.0653384,18.9852909 C29.3008934,18.2314176 34.041457,17.4678793 38.6451796,18.8177635 L38.6451796,22.5645779 Z M9.5599486,24.4363743 C11.3942698,24.9357348 13.2285909,25.1322573 15.0563959,25.1322573 C18.1385767,25.1322573 21.1979507,24.5845716 24.1986786,24.046551 L24.6026854,23.975674 C28.9555328,23.199249 33.8720348,22.3293953 38.6451796,23.7243829 L38.6451796,27.4711974 C33.7189032,26.1245349 28.7828525,27.0040537 24.0031915,27.8610208 C19.2495954,28.7083227 14.3396096,29.5813982 9.5599486,28.1799671 L9.5599486,24.4363743 Z M39.3815146,12.9639699 C34.3444621,11.3531297 29.287861,12.1907666 24.3909077,13.0670637 L24.3876495,13.0670637 C24.2573248,13.0896155 24.1302581,13.1089456 24.0031915,13.134719 C19.1192706,14.0077944 14.0724438,14.909865 9.1722324,13.3441282 C8.99955208,13.2893597 8.81058116,13.3183548 8.66722391,13.4214486 C8.52060854,13.527764 8.43589744,13.6952914 8.43589744,13.8724838 L8.43589744,33.5054051 C8.43589744,33.7470311 8.59228716,33.9628837 8.82361363,34.0369824 C10.9022937,34.7006485 12.984232,34.9487179 15.0563959,34.9487179 C18.1385767,34.9487179 21.2012089,34.4010323 24.2051949,33.8630116 C29.0858576,32.9899362 34.1326844,32.0878656 39.0328958,33.6536024 C39.2055761,33.7083709 39.3912889,33.6793758 39.5379043,33.576282 C39.6845197,33.4699666 39.7692308,33.3024392 39.7692308,33.1252468 L39.7692308,13.4923255 C39.7692308,13.2474778 39.612841,13.0348469 39.3815146,12.9639699 L39.3815146,12.9639699 Z" id="Fill-3" fill="#443636"></path>
                    <path d="M11.6541923,17.7708205 C11.6578077,17.7744359 11.6614231,17.7744359 11.6650385,17.7780513 C11.6035769,17.8792821 11.5710385,17.9949744 11.5710385,18.1106667 C11.5710385,18.2950513 11.6541923,18.4758205 11.8060385,18.5987436 C12.0482692,18.790359 12.3917308,18.7722821 12.6122692,18.5770513 C12.7351923,18.7361282 12.9231923,18.8228974 13.1111923,18.8228974 C13.2341154,18.8228974 13.3570385,18.7867436 13.4655,18.7144359 C13.6426538,18.5915128 13.7366538,18.3962821 13.7366538,18.1974359 C13.7366538,18.0998205 13.7149615,17.9985897 13.6679615,17.9082051 C13.8812692,17.8069744 14.0186538,17.5828205 14.0186538,17.3478205 C14.0186538,17.2935897 14.0114231,17.2429744 13.9969615,17.1887436 C13.9138077,16.8705897 13.5992692,16.6681282 13.2775,16.7332051 C13.2702692,16.393359 12.9955,16.1258205 12.6520385,16.1258205 C12.3628077,16.1258205 12.1169615,16.3246667 12.0482692,16.5958205 C11.7662692,16.5307436 11.4698077,16.6681282 11.3468846,16.9428974 C11.3071154,17.0296667 11.2890385,17.1164359 11.2890385,17.2032051 C11.2890385,17.4382051 11.4228077,17.6695897 11.6541923,17.7708205" id="Fill-5" fill="#443636"></path>
                    <path d="M15.261152,17.897359 C15.2105366,17.9877436 15.1852289,18.0925897 15.1852289,18.1902051 C15.1852289,18.3854359 15.2792289,18.5770513 15.4527674,18.7035897 C15.5612289,18.7795128 15.6877674,18.8156667 15.8106905,18.8156667 C15.9950751,18.8156667 16.1722289,18.7325128 16.295152,18.5842821 C16.5156905,18.7939744 16.859152,18.8192821 17.1086136,18.6276667 C17.2676905,18.508359 17.3544597,18.320359 17.3544597,18.132359 C17.3544597,18.0238974 17.3219212,17.9118205 17.2640751,17.8142051 C17.5713828,17.6768205 17.7159982,17.3225128 17.5894597,17.0079744 C17.4737674,16.722359 17.1736905,16.5668974 16.8808443,16.628359 C16.8229982,16.346359 16.5735366,16.1330513 16.2698443,16.1330513 C15.9372289,16.1330513 15.6660751,16.3897436 15.6443828,16.7187436 C15.3334597,16.6572821 15.0189212,16.8452821 14.9285366,17.1598205 C14.9104597,17.2176667 14.9032289,17.2755128 14.9032289,17.333359 C14.9032289,17.5719744 15.0406136,17.7925128 15.261152,17.897359" id="Fill-7" fill="#443636"></path>
                    <path d="M18.8655299,17.944359 C18.8221453,18.0275128 18.8004529,18.1215128 18.8004529,18.2118974 C18.8004529,18.4179744 18.9016837,18.6168205 19.0860683,18.7361282 C19.1909145,18.8048205 19.3102222,18.837359 19.4259145,18.837359 C19.628376,18.837359 19.8308376,18.743359 19.9501453,18.5589744 C20.1742991,18.743359 20.5069145,18.7505897 20.7419145,18.555359 C20.8901453,18.4360513 20.9696837,18.2552821 20.9696837,18.0745128 C20.9696837,17.9552051 20.9335299,17.8395128 20.8684529,17.7346667 C20.8792991,17.7274359 20.8901453,17.7238205 20.9009914,17.7202051 C21.2119145,17.568359 21.3384529,17.192359 21.1866068,16.8814359 C21.0564529,16.6138974 20.7599914,16.4837436 20.4816068,16.5488205 C20.4020683,16.2957436 20.1634529,16.111359 19.8850683,16.111359 C19.5416068,16.111359 19.2596068,16.3897436 19.2596068,16.7368205 L19.2596068,16.7729744 C19.2596068,16.769359 19.2596068,16.769359 19.2559914,16.769359 C18.9197606,16.7078974 18.5907606,16.9320513 18.5292991,17.2718974 C18.5220683,17.3080513 18.5184529,17.3478205 18.5184529,17.3875897 C18.5184529,17.6225897 18.6558376,17.8395128 18.8655299,17.944359" id="Fill-9" fill="#443636"></path>
                    <path d="M13.733641,20.6956667 C13.7083333,20.7679744 13.6974872,20.8366667 13.6974872,20.9089744 C13.6974872,21.1475897 13.8348718,21.3717436 14.062641,21.4765897 C14.0084103,21.5705897 13.9794872,21.6790513 13.9794872,21.7875128 C13.9794872,21.9755128 14.0662564,22.1635128 14.2325641,22.2864359 C14.4892564,22.4780513 14.8471795,22.4418974 15.0604872,22.2141282 C15.1797949,22.3478974 15.3497179,22.4202051 15.519641,22.4202051 C15.6497949,22.4202051 15.7763333,22.3804359 15.8884103,22.2972821 C16.0583333,22.174359 16.1451026,21.9827436 16.1451026,21.7947436 C16.1451026,21.6862821 16.1197949,21.5814359 16.0655641,21.4874359 C16.2897179,21.3825897 16.4307179,21.1584359 16.4307179,20.9198205 C16.4307179,20.8511282 16.4162564,20.7788205 16.3945641,20.7137436 C16.2933333,20.4172821 15.9860256,20.2437436 15.6823333,20.3052051 C15.6425641,19.9978974 15.3822564,19.7592821 15.0641026,19.7592821 C14.7495641,19.7592821 14.485641,19.9942821 14.4458718,20.294359 C14.1457949,20.2328974 13.8421026,20.3992051 13.733641,20.6956667" id="Fill-11" fill="#443636"></path>
                    <path d="M16.1240128,20.8420897 C16.1131667,20.8890897 16.1095513,20.9324744 16.1095513,20.9794744 C16.1095513,21.2180897 16.2469359,21.4350128 16.4602436,21.5362436 C16.4132436,21.6302436 16.3915513,21.7242436 16.3915513,21.821859 C16.3915513,22.0207051 16.4891667,22.2195513 16.6663205,22.338859 C16.7747821,22.4111667 16.8940897,22.4437051 17.0170128,22.4437051 C17.2122436,22.4437051 17.403859,22.3533205 17.5231667,22.1870128 C17.7473205,22.3822436 18.0835513,22.3930897 18.3221667,22.2014744 C18.4776282,22.0785513 18.5571667,21.8977821 18.5571667,21.7133974 C18.5571667,21.5977051 18.5282436,21.4856282 18.4595513,21.3807821 C18.4667821,21.3771667 18.4703974,21.3735513 18.4740128,21.3735513 C18.7053974,21.2687051 18.8391667,21.0445513 18.8391667,20.8059359 C18.8391667,20.7191667 18.8210897,20.6287821 18.7849359,20.5456282 C18.6583974,20.2744744 18.3619359,20.1334744 18.0799359,20.1949359 C18.0076282,19.9310128 17.7653974,19.7357821 17.4761667,19.7357821 C17.1290897,19.7357821 16.8507051,20.0141667 16.8507051,20.3576282 L16.8507051,20.364859 C16.5217051,20.2997821 16.1999359,20.5094744 16.1240128,20.8420897" id="Fill-13" fill="#443636"></path>
                </g>
            </g>
        </g>
    </g>
</svg>