<?xml version="1.0" encoding="UTF-8"?>
<svg width="170px" height="18px" viewBox="0 0 170 18" version="1.1" xmlns="http://www.w3.org/2000/svg" xmlns:xlink="http://www.w3.org/1999/xlink">
    <!-- Generator: Sketch 58 (84663) - https://sketch.com -->
    <title>A_MGFjZjlkZDY2YjhlM2JmOXBsuMVpb1kqR6FNfy-IB2x2ew6mU4OqjpH3RamdDPqOmRsqHh6L3CMmrv9SM-_1i_fYBGTKsB6igLaWAJQyCeW96BVljYM1VUqc2wiKaeJgi0DEz1mfHYd5vlE9jersTP3tZarsyej6R3o4kj8atK1vEOiK6VX8cBFFXSl--Y0U</title>
    <desc>Created with Sketch.</desc>
    <g id="Symbols" stroke="none" stroke-width="1" fill="none" fill-rule="evenodd">
        <g id="Header-Nav" transform="translate(-42.000000, -50.000000)" fill="#443636" fill-rule="nonzero">
            <g id="A_MGFjZjlkZDY2YjhlM2JmOXBsuMVpb1kqR6FNfy-IB2x2ew6mU4OqjpH3RamdDPqOmRsqHh6L3CMmrv9SM-_1i_fYBGTKsB6igLaWAJQyCeW96BVljYM1VUqc2wiKaeJgi0DEz1mfHYd5vlE9jersTP3tZarsyej6R3o4kj8atK1vEOiK6VX8cBFFXSl--Y0U" transform="translate(42.000000, 50.000000)">
                <path d="M8.24278699,13.4181818 L12.0785393,2.17190045 C12.3777824,1.28677664 12.9218607,0.818181818 14.3636684,0.818181818 C15.7782721,0.818181818 16.2679426,1.28677664 16.2679426,1.91157055 C16.2679426,2.22396709 16.1591269,2.61446318 15.9414956,3.21322336 L11.0175865,16.1776857 C10.527916,17.4533056 9.87502198,18 8.13397129,18 C6.39292058,18 5.71282265,17.4533056 5.22315213,16.1776857 L0.326447009,3.21322336 C0.108815669,2.58842945 0,2.25 0,1.91157055 C0,1.28677664 0.489670513,0.818181818 1.98588597,0.818181818 C3.50930534,0.818181818 4.02617977,1.28677664 4.32542286,2.17190045 L8.24278699,13.4181818 Z M22.6217583,7.47944018 L27.1876534,7.47944018 C28.2747713,7.47944018 28.8183303,8.06097927 28.8183303,9.22405582 C28.8183303,10.3606994 28.2747713,10.9422376 27.1876534,10.9422376 L22.6217583,10.9422376 L22.6217583,14.5372025 L28.4650169,14.5372025 C29.5521348,14.5372025 30.0956938,15.1187416 30.0956938,16.2818182 C30.0956938,17.4184617 29.5521348,18 28.4650169,18 L20.773658,18 C19.3332267,18 18.708134,17.3920279 18.708134,15.9910486 L18.708134,2.82713318 C18.708134,1.42615391 19.3332267,0.818181818 20.773658,0.818181818 L28.3291272,0.818181818 C29.4162451,0.818181818 29.9598041,1.39972009 29.9598041,2.56279745 C29.9598041,3.69944018 29.4162451,4.28097927 28.3291272,4.28097927 L22.6217583,4.28097927 L22.6217583,7.47944018 Z M44.2222439,14.625927 C45.1784005,15.9236476 45.5502392,16.4167814 45.5502392,16.9618238 C45.5502392,17.6106837 45.0721609,18 43.6644859,18 C42.0177717,18 41.4600137,17.4809119 40.6632165,16.2870087 L38.0869056,12.4717107 C37.7947466,12.4976651 37.4760277,12.4976651 37.1838688,12.4976651 C36.5995509,12.4976651 36.5198711,12.4717107 36.4136314,12.4717107 L36.4136314,16.4427357 C36.4136314,17.4809119 35.7761938,18 34.4747583,18 C33.1733229,18 32.5358852,17.4809119 32.5358852,16.4427357 L32.5358852,3.72507545 C32.5358852,2.71285364 32.5624451,1.64872309 34.2091593,1.18154373 C35.0059565,0.947953636 36.4667513,0.818181818 37.6088273,0.818181818 C42.2036911,0.818181818 44.9128015,2.86857982 44.9128015,6.42433418 C44.9128015,8.70832227 43.7972855,10.4472671 41.8849722,11.4594889 L44.2222439,14.625927 Z M36.6028708,8.95090909 C36.8675859,8.97545455 37.1563659,9 37.469211,9 C39.5147363,9 40.6698565,8.06727273 40.6698565,6.49636364 C40.6698565,4.95 39.5628663,4.09090909 37.6857959,4.09090909 C37.348886,4.09090909 36.9879109,4.11545455 36.6028708,4.18909091 L36.6028708,8.95090909 Z M63.0524157,5.53016536 L59.9777839,14.1210745 C59.5802023,15.2404961 58.8645552,15.7351238 57.6718101,15.7351238 C56.479065,15.7351238 55.7634179,15.2404961 55.3658362,14.1210745 L52.2912044,5.53016536 L51.7610954,16.4380165 C51.7080846,17.4793385 51.0454484,18 49.7731869,18 C48.527431,18 47.9178057,17.4793385 47.997322,16.4380165 L48.8985073,3.18719045 C49.004529,1.59917318 49.5081325,0.818181818 51.5225465,0.818181818 C53.2719059,0.818181818 54.1995966,1.416942 54.8887382,3.26528918 L57.8043374,11.1272727 L60.7199364,3.26528918 C61.3825726,1.52107445 62.2042415,0.818181818 64.0331173,0.818181818 C65.9945203,0.818181818 66.4981239,1.62520691 66.6041456,3.18719045 L67.5053308,16.4380165 C67.5848471,17.4793385 66.9487164,18 65.6234441,18 C64.3246772,18 63.6355356,17.4793385 63.5825247,16.4380165 L63.0524157,5.53016536 Z M85.0802514,15.6049585 C85.2978831,16.2297524 85.4066986,16.5681818 85.4066986,16.9066113 C85.4066986,17.5314052 84.9170278,18 83.4752204,18 C82.0062089,18 81.4893341,17.5314052 81.1900914,16.6462814 L80.3739738,14.2772727 L74.0082572,14.2772727 L73.2193436,16.6462814 C72.9201005,17.5314052 72.3760221,18 70.9886224,18 C69.6284265,18 69.138756,17.5314052 69.138756,16.9066113 C69.138756,16.5681818 69.2475717,16.2297524 69.465203,15.6049585 L74.2802963,2.90082682 C74.8515787,1.36487618 75.4772687,0.818181818 77.2727273,0.818181818 C79.0953898,0.818181818 79.7210798,1.36487618 80.2923621,2.90082682 L85.0802514,15.6049585 Z M74.8325359,10.6363636 L78.8995215,10.6363636 L76.8525619,4.09090909 L74.8325359,10.6363636 Z M97.098255,4.35947236 L97.098255,8.76641236 L101.670533,8.76641236 C102.820792,8.76641236 103.395921,9.34351118 103.395921,10.5239414 C103.395921,11.7043724 102.820792,12.3077029 101.670533,12.3077029 L97.098255,12.3077029 L97.098255,16.4260931 C97.098255,17.4753646 96.3793437,18 94.9127643,18 C93.446184,18 92.7272727,17.4753646 92.7272727,16.4260931 L92.7272727,2.81179718 C92.7272727,1.42151318 93.3886711,0.818181818 94.9127643,0.818181818 L102.389445,0.818181818 C103.539703,0.818181818 104.114833,1.39528145 104.114833,2.57571164 C104.114833,3.75614182 103.539703,4.35947236 102.389445,4.35947236 L97.098255,4.35947236 Z M118.429534,15.6049585 C118.647165,16.2297524 118.755981,16.5681818 118.755981,16.9066113 C118.755981,17.5314052 118.26631,18 116.824503,18 C115.355491,18 114.838616,17.5314052 114.539374,16.6462814 L113.723256,14.2772727 L107.357539,14.2772727 L106.568626,16.6462814 C106.269382,17.5314052 105.725304,18 104.337904,18 C102.977709,18 102.488038,17.5314052 102.488038,16.9066113 C102.488038,16.5681818 102.596854,16.2297524 102.814485,15.6049585 L107.629578,2.90082682 C108.200861,1.36487618 108.826551,0.818181818 110.62201,0.818181818 C112.444672,0.818181818 113.070362,1.36487618 113.641645,2.90082682 L118.429534,15.6049585 Z M108.181818,10.6363636 L112.248804,10.6363636 L110.201844,4.09090909 L108.181818,10.6363636 Z M132.069134,14.625927 C133.02529,15.9236476 133.397129,16.4167814 133.397129,16.9618238 C133.397129,17.6106837 132.919051,18 131.511376,18 C129.864662,18 129.306904,17.4809119 128.510107,16.2870087 L125.933796,12.4717107 C125.641636,12.4976651 125.322917,12.4976651 125.030759,12.4976651 C124.44644,12.4976651 124.366761,12.4717107 124.260521,12.4717107 L124.260521,16.4427357 C124.260521,17.4809119 123.623083,18 122.321648,18 C121.020212,18 120.382775,17.4809119 120.382775,16.4427357 L120.382775,3.72507545 C120.382775,2.71285364 120.409335,1.64872309 122.056049,1.18154373 C122.852847,0.947953636 124.313641,0.818181818 125.455717,0.818181818 C130.050581,0.818181818 132.759692,2.86857982 132.759692,6.42433418 C132.759692,8.70832227 131.644175,10.4472671 129.731862,11.4594889 L132.069134,14.625927 Z M124.449761,8.95090909 C124.714476,8.97545455 125.003256,9 125.316101,9 C127.361627,9 128.516746,8.06727273 128.516746,6.49636364 C128.516746,4.95 127.409756,4.09090909 125.532686,4.09090909 C125.195776,4.09090909 124.834801,4.11545455 124.449761,4.18909091 L124.449761,8.95090909 Z M150.899306,5.53016536 L147.824674,14.1210745 C147.427093,15.2404961 146.711445,15.7351238 145.5187,15.7351238 C144.325955,15.7351238 143.610308,15.2404961 143.212726,14.1210745 L140.138094,5.53016536 L139.607986,16.4380165 C139.554975,17.4793385 138.892339,18 137.620077,18 C136.374321,18 135.764696,17.4793385 135.844212,16.4380165 L136.745397,3.18719045 C136.851419,1.59917318 137.355023,0.818181818 139.369437,0.818181818 C141.118796,0.818181818 142.046487,1.416942 142.735628,3.26528918 L145.651227,11.1272727 L148.566826,3.26528918 C149.229463,1.52107445 150.051131,0.818181818 151.880007,0.818181818 C153.841411,0.818181818 154.345014,1.62520691 154.451035,3.18719045 L155.352221,16.4380165 C155.431737,17.4793385 154.795607,18 153.470334,18 C152.171567,18 151.482425,17.4793385 151.429415,16.4380165 L150.899306,5.53016536 Z M165.914859,12.8839287 C165.914859,10.0982144 157.935215,10.6339287 157.935215,5.16964255 C157.935215,2.06249973 160.495237,0 164.117396,0 C165.805921,0 167.385509,0.455357455 168.556583,1.17857127 C169.291909,1.63392873 169.61872,2.03571409 169.61872,2.65178536 C169.61872,3.56250027 168.828926,4.71428591 167.875726,4.71428591 C167.576149,4.71428591 167.276572,4.58035691 166.677418,4.28571409 C165.805921,3.85714309 165.043361,3.53571464 164.117396,3.53571464 C162.755682,3.53571464 162.020356,4.20535718 162.020356,4.95535745 C162.020356,7.33928564 170,6.96428591 170,12.6696428 C170,16.0178572 167.276572,18 163.599944,18 C161.802482,18 160.086722,17.5178569 158.888414,16.6874997 C158.180323,16.2053575 157.799043,15.7232144 157.799043,15.1071431 C157.799043,14.1696425 158.67054,13.0178569 159.569271,13.0178569 C159.950551,13.0178569 160.304597,13.2053572 160.822048,13.5 C161.66631,13.9821431 162.42887,14.4642854 163.627179,14.4642854 C164.988893,14.4642854 165.914859,13.8214285 165.914859,12.8839287 Z" id="VERMAFARMS"></path>
            </g>
        </g>
    </g>
</svg>