<?xml version="1.0" encoding="UTF-8"?>
<svg width="42px" height="42px" viewBox="0 0 42 42" version="1.1" xmlns="http://www.w3.org/2000/svg" xmlns:xlink="http://www.w3.org/1999/xlink">
    <!-- Generator: Sketch 58 (84663) - https://sketch.com -->
    <title>Group 21</title>
    <desc>Created with Sketch.</desc>
    <g id="Page-1" stroke="none" stroke-width="1" fill="none" fill-rule="evenodd">
        <g id="Shop-Page---CBD-Gummies" transform="translate(-837.000000, -808.000000)" stroke="#F8E9DF" stroke-width="2">
            <g id="Group" transform="translate(524.000000, 343.000000)">
                <g id="Group-21" transform="translate(314.000000, 466.000000)">
                    <path d="M9.72851774,5.00173078 C10.1343774,4.74433681 10.5592618,4.51911708 11,4.32768032 C10.5735303,2.11409215 9.49546551,0.0340270999 6.88750003,0.000244140918 C4.14636185,-0.0303213934 0.614114377,2.81388201 1.03424255,5.85756574 C1.38302821,8.42024449 3.46464443,9.55438668 5.62077394,10 C5.84907001,9.54473441 6.08212224,9.11520822 6.32468681,8.70981271" id="Stroke-1"></path>
                    <path d="M20.4991923,36 C30.8421886,36 33.6641088,31.0306624 31.1247273,26.4030373 C28.1138701,20.9034006 20.4991923,21 20.4991923,21 C20.4991923,21 12.8879811,20.9034006 9.87365727,26.4030373 C7.33774247,31.0306624 10.1579293,36 20.4991923,36 Z" id="Stroke-3"></path>
                    <path d="M31.2703571,5.00254874 C30.8643503,4.74511403 30.440898,4.51985867 30,4.3283916 C30.4250383,2.11445312 31.5034938,0.0340588878 34.1124044,0.000270582403 C36.854536,-0.031908756 40.3833057,2.81113579 39.9661972,5.85530121 C39.6156991,8.41999448 37.5333285,9.55431616 35.3764176,10 C35.1480388,9.54144443 34.9149021,9.11185026 34.6770076,8.70799956" id="Stroke-5"></path>
                    <path d="M30,5 C27.6773649,3.54177215 24.5861486,3 20,3 C15.4138514,3 12.3226351,3.54345992 10,5" id="Stroke-7"></path>
                    <path d="M33.809135,9 C35.6242423,12.0210561 37.0629843,16.4108147 39.0782495,22.6562672 C43.1754994,35.3658913 33.0410075,40 19.9999489,40 C6.9606011,40 -3.17560146,35.3658913 0.921648349,22.6562672 C2.93520285,16.4108147 4.3756556,12.0193474 6.18905218,9" id="Stroke-9"></path>
                    <path d="M26,22 C26,20.3431448 27.1177838,19 28.5009686,19 C29.8822162,19 31,20.3431448 31,22" id="Stroke-11"></path>
                    <path d="M14.9995084,22 C15.026627,20.3737438 13.9283235,19.0303147 12.5472118,19.0006635 C11.1661,18.9664505 10.0271186,20.2597006 10,21.8859568 L10,22" id="Stroke-13"></path>
                    <path d="M23,24.2755668 C23,25.4120907 20.499218,27 20.499218,27 C20.499218,27 18,25.4120907 18,24.2755668 C18,23.1370277 19.1197998,23 20.499218,23 C21.8802002,23 23,23.1370277 23,24.2755668 Z" id="Stroke-15"></path>
                    <path d="M14,30.4148142 C18.4717224,32.4869102 21,28.3903764 21,28.3903764 L21,27" id="Stroke-17"></path>
                    <path d="M27,30.4148142 C22.5282776,32.4869102 20,28.3903764 20,28.3903764 L20,27" id="Stroke-19"></path>
                </g>
            </g>
        </g>
    </g>
</svg>