<?xml version="1.0" encoding="UTF-8"?>
<svg width="44px" height="43px" viewBox="0 0 44 43" version="1.1" xmlns="http://www.w3.org/2000/svg" xmlns:xlink="http://www.w3.org/1999/xlink">
    <!-- Generator: Sketch 58 (84663) - https://sketch.com -->
    <title>Group 97</title>
    <desc>Created with Sketch.</desc>
    <g id="Page-1" stroke="none" stroke-width="1" fill="none" fill-rule="evenodd">
        <g id="Shop-Page---CBD-Gummies" transform="translate(-839.000000, -1385.000000)">
            <g id="Group" transform="translate(524.000000, 924.000000)">
                <g id="Group-97" transform="translate(316.000000, 462.000000)">
                    <path d="M21.9992951,24.13019 C17.6610793,24.13019 14.1307277,27.6600985 14.1307277,32.0007037 C14.1307277,36.3399015 17.6610793,39.8712175 21.9992951,39.8712175 C26.3389207,39.8712175 29.8678625,36.3399015 29.8678625,32.0007037 C29.8678625,27.6600985 26.3389207,24.13019 21.9992951,24.13019 M21.9992951,41 C17.0365004,41 13,36.9619986 13,32.0007037 C13,27.0365939 17.0365004,23 21.9992951,23 C26.9620898,23 31,27.0365939 31,32.0007037 C31,36.9619986 26.9620898,41 21.9992951,41" id="Fill-1" fill="#F8E9DF"></path>
                    <path d="M21.9992951,24.13019 C17.6610793,24.13019 14.1307277,27.6600985 14.1307277,32.0007037 C14.1307277,36.3399015 17.6610793,39.8712175 21.9992951,39.8712175 C26.3389207,39.8712175 29.8678625,36.3399015 29.8678625,32.0007037 C29.8678625,27.6600985 26.3389207,24.13019 21.9992951,24.13019 Z M21.9992951,41 C17.0365004,41 13,36.9619986 13,32.0007037 C13,27.0365939 17.0365004,23 21.9992951,23 C26.9620898,23 31,27.0365939 31,32.0007037 C31,36.9619986 26.9620898,41 21.9992951,41 Z" id="Stroke-3" stroke="#F8E9DF" stroke-width="0.25"></path>
                    <path d="M9.13107801,39 C4.09560964,39 0,34.9637217 0,30 C0,25.0376857 4.09560964,21 9.13107801,21 C12.2853984,21 15.2680551,22.6465989 16.9160266,25.296638 C17.0805376,25.5612197 16.9961363,25.908835 16.725766,26.0706802 C16.4553956,26.2339328 16.1020545,26.1508991 15.936113,25.8849101 C14.4955685,23.5684128 11.8877108,22.1301016 9.13107801,22.1301016 C4.72933478,22.1301016 1.14728569,25.6597342 1.14728569,30 C1.14728569,34.3388585 4.72933478,37.8698984 9.13107801,37.8698984 C10.8834782,37.8698984 12.61299,37.2900704 14.0006048,36.2359656 C14.2523782,36.0459734 14.612872,36.0924159 14.8059936,36.3387021 C15.0005458,36.5863956 14.9533383,36.9410477 14.7029954,37.1310399 C13.1136757,38.335731 11.1352516,39 9.13107801,39" id="Fill-5" fill="#F8E9DF"></path>
                    <path d="M9.13107801,39 C4.09560964,39 0,34.9637217 0,30 C0,25.0376857 4.09560964,21 9.13107801,21 C12.2853984,21 15.2680551,22.6465989 16.9160266,25.296638 C17.0805376,25.5612197 16.9961363,25.908835 16.725766,26.0706802 C16.4553956,26.2339328 16.1020545,26.1508991 15.936113,25.8849101 C14.4955685,23.5684128 11.8877108,22.1301016 9.13107801,22.1301016 C4.72933478,22.1301016 1.14728569,25.6597342 1.14728569,30 C1.14728569,34.3388585 4.72933478,37.8698984 9.13107801,37.8698984 C10.8834782,37.8698984 12.61299,37.2900704 14.0006048,36.2359656 C14.2523782,36.0459734 14.612872,36.0924159 14.8059936,36.3387021 C15.0005458,36.5863956 14.9533383,36.9410477 14.7029954,37.1310399 C13.1136757,38.335731 11.1352516,39 9.13107801,39 Z" id="Stroke-7" stroke="#F8E9DF" stroke-width="0.25"></path>
                    <path d="M26.9828464,25 C26.8376283,25 26.69382,24.9433808 26.583849,24.8301425 C26.3624971,24.6036657 26.3610872,24.2349152 26.5810292,24.0055349 C28.0557688,22.4753652 28.8678625,20.4428818 28.8678625,18.284094 C28.8678625,13.8068233 25.3375108,10.1657744 20.9992951,10.1657744 C16.6610793,10.1657744 13.1321375,13.8068233 13.1321375,18.284094 C13.1321375,19.2843662 13.3083731,20.2657654 13.6566147,21.199256 C13.7679956,21.4997732 13.6227775,21.8365847 13.3309313,21.9512748 C13.0376753,22.065965 12.710582,21.9164323 12.5992011,21.6173668 C12.2016135,20.550313 12,19.4280918 12,18.284094 C12,13.1651393 16.0365004,9 20.9992951,9 C25.9620898,9 30,13.1651393 30,18.284094 C30,20.7521096 29.0708859,23.0763996 27.3846636,24.8272389 C27.2746926,24.941929 27.1280645,25 26.9828464,25" id="Fill-9" fill="#F8E9DF"></path>
                    <path d="M26.9828464,25 C26.8376283,25 26.69382,24.9433808 26.583849,24.8301425 C26.3624971,24.6036657 26.3610872,24.2349152 26.5810292,24.0055349 C28.0557688,22.4753652 28.8678625,20.4428818 28.8678625,18.284094 C28.8678625,13.8068233 25.3375108,10.1657744 20.9992951,10.1657744 C16.6610793,10.1657744 13.1321375,13.8068233 13.1321375,18.284094 C13.1321375,19.2843662 13.3083731,20.2657654 13.6566147,21.199256 C13.7679956,21.4997732 13.6227775,21.8365847 13.3309313,21.9512748 C13.0376753,22.065965 12.710582,21.9164323 12.5992011,21.6173668 C12.2016135,20.550313 12,19.4280918 12,18.284094 C12,13.1651393 16.0365004,9 20.9992951,9 C25.9620898,9 30,13.1651393 30,18.284094 C30,20.7521096 29.0708859,23.0763996 27.3846636,24.8272389 C27.2746926,24.941929 27.1280645,25 26.9828464,25 Z" id="Stroke-11" stroke="#F8E9DF" stroke-width="0.25"></path>
                    <path d="M32.8403959,33 C32.3037901,33 31.7657494,32.9535538 31.239187,32.862069 C30.926406,32.807178 30.7169288,32.5144265 30.7728851,32.2076003 C30.8288413,31.9007741 31.1272745,31.6938776 31.4400555,31.7487685 C31.9006183,31.8304011 32.3712245,31.86981 32.8403959,31.86981 C37.2566336,31.86981 40.8478756,28.3399015 40.8478756,23.9992963 C40.8478756,19.6600985 37.2566336,16.13019 32.8403959,16.13019 C31.7901406,16.13019 30.7657112,16.3272343 29.7943685,16.721323 C29.5002396,16.8395496 29.1645022,16.703026 29.0439811,16.4144968 C28.9220252,16.1259676 29.0626332,15.7952146 29.3553273,15.6755806 C30.4658432,15.226601 31.6380544,15 32.8403959,15 C37.8908042,15 42,19.0365939 42,23.9992963 C42,28.9634061 37.8908042,33 32.8403959,33" id="Fill-13" fill="#F8E9DF"></path>
                    <path d="M32.8403959,33 C32.3037901,33 31.7657494,32.9535538 31.239187,32.862069 C30.926406,32.807178 30.7169288,32.5144265 30.7728851,32.2076003 C30.8288413,31.9007741 31.1272745,31.6938776 31.4400555,31.7487685 C31.9006183,31.8304011 32.3712245,31.86981 32.8403959,31.86981 C37.2566336,31.86981 40.8478756,28.3399015 40.8478756,23.9992963 C40.8478756,19.6600985 37.2566336,16.13019 32.8403959,16.13019 C31.7901406,16.13019 30.7657112,16.3272343 29.7943685,16.721323 C29.5002396,16.8395496 29.1645022,16.703026 29.0439811,16.4144968 C28.9220252,16.1259676 29.0626332,15.7952146 29.3553273,15.6755806 C30.4658432,15.226601 31.6380544,15 32.8403959,15 C37.8908042,15 42,19.0365939 42,23.9992963 C42,28.9634061 37.8908042,33 32.8403959,33 Z" id="Stroke-15" stroke="#F8E9DF" stroke-width="0.25"></path>
                    <path d="M6.11746399,22 C5.96102901,22 5.80459403,21.936704 5.69016474,21.8101119 C1.95310687,17.6826207 0.47276844,13.0237371 1.16513808,7.56702896 C1.19845293,7.29029274 1.42151763,7.07538058 1.69527884,7.05330056 C6.89529348,6.64114025 11.0017117,8.62098176 13.8986558,12.9354171 C14.0797148,13.2047933 14.0116366,13.5713216 13.7465662,13.7553217 C13.4800474,13.9393218 13.1193778,13.8716098 12.9383188,13.6022336 C10.3455539,9.73823062 6.85183931,7.97182927 2.26163141,8.19998944 C1.76335703,13.0826172 3.16692644,17.2778204 6.54476324,21.0093432 C6.76203405,21.2492794 6.74754933,21.6231677 6.51144838,21.8454399 C6.39991604,21.94848 6.25796578,22 6.11746399,22" id="Fill-17" fill="#F8E9DF"></path>
                    <path d="M6.11746399,22 C5.96102901,22 5.80459403,21.936704 5.69016474,21.8101119 C1.95310687,17.6826207 0.47276844,13.0237371 1.16513808,7.56702896 C1.19845293,7.29029274 1.42151763,7.07538058 1.69527884,7.05330056 C6.89529348,6.64114025 11.0017117,8.62098176 13.8986558,12.9354171 C14.0797148,13.2047933 14.0116366,13.5713216 13.7465662,13.7553217 C13.4800474,13.9393218 13.1193778,13.8716098 12.9383188,13.6022336 C10.3455539,9.73823062 6.85183931,7.97182927 2.26163141,8.19998944 C1.76335703,13.0826172 3.16692644,17.2778204 6.54476324,21.0093432 C6.76203405,21.2492794 6.74754933,21.6231677 6.51144838,21.8454399 C6.39991604,21.94848 6.25796578,22 6.11746399,22 Z" id="Stroke-19" stroke="#F8E9DF" stroke-width="0.25"></path>
                    <path d="M16.0557467,11 C15.8266756,11 15.6113213,10.8622452 15.534507,10.6418376 C14.2026025,6.86473273 15.3630466,3.33165064 18.9801757,0.139675623 C19.1667246,-0.024318161 19.4451763,-0.0466213156 19.6564156,0.0871976124 C23.9456695,2.78850323 26.0800088,6.11954498 25.9977078,9.98586244 C25.9922211,10.2731795 25.7453181,10.5014589 25.4476628,10.5014589 L25.4353176,10.5014589 C25.1321756,10.4962111 24.8907593,10.2561242 24.8962461,9.96487123 C24.9689453,6.54330492 23.1734117,3.67144576 19.4122559,1.1984195 C16.3465436,4.03747989 15.4192856,7.02085482 16.5769864,10.3046664 C16.6743759,10.5814879 16.5193757,10.8793006 16.2313222,10.972449 C16.1737115,10.9908163 16.1133574,11 16.0557467,11" id="Fill-21" fill="#F8E9DF"></path>
                    <path d="M16.0557467,11 C15.8266756,11 15.6113213,10.8622452 15.534507,10.6418376 C14.2026025,6.86473273 15.3630466,3.33165064 18.9801757,0.139675623 C19.1667246,-0.024318161 19.4451763,-0.0466213156 19.6564156,0.0871976124 C23.9456695,2.78850323 26.0800088,6.11954498 25.9977078,9.98586244 C25.9922211,10.2731795 25.7453181,10.5014589 25.4476628,10.5014589 L25.4353176,10.5014589 C25.1321756,10.4962111 24.8907593,10.2561242 24.8962461,9.96487123 C24.9689453,6.54330492 23.1734117,3.67144576 19.4122559,1.1984195 C16.3465436,4.03747989 15.4192856,7.02085482 16.5769864,10.3046664 C16.6743759,10.5814879 16.5193757,10.8793006 16.2313222,10.972449 C16.1737115,10.9908163 16.1133574,11 16.0557467,11 Z" id="Stroke-23" stroke="#F8E9DF" stroke-width="0.25"></path>
                    <path d="M20.458188,10 C20.2071623,10 19.981779,9.80712977 19.927795,9.52672612 L19.0114162,4.71832289 C18.9506841,4.39637796 19.1382786,4.0803675 19.431142,4.01212112 C19.7226557,3.94684196 20.0101206,4.15158113 20.0722023,4.47352605 L20.9885811,9.28192929 C21.0493131,9.60387422 20.8617186,9.91988467 20.5702049,9.98813106 C20.5324161,9.99554915 20.4946272,10 20.458188,10" id="Fill-25" fill="#F8E9DF"></path>
                    <path d="M20.458188,10 C20.2071623,10 19.981779,9.80712977 19.927795,9.52672612 L19.0114162,4.71832289 C18.9506841,4.39637796 19.1382786,4.0803675 19.431142,4.01212112 C19.7226557,3.94684196 20.0101206,4.15158113 20.0722023,4.47352605 L20.9885811,9.28192929 C21.0493131,9.60387422 20.8617186,9.91988467 20.5702049,9.98813106 C20.5324161,9.99554915 20.4946272,10 20.458188,10 Z" id="Stroke-27" stroke="#F8E9DF" stroke-width="0.25"></path>
                    <path d="M12.4275916,21 C12.2605047,21 12.0948459,20.9293779 11.9820265,20.7962823 L6.1268432,13.8875361 C5.92833821,13.6539398 5.96689673,13.3103359 6.21395691,13.1201994 C6.45958898,12.931421 6.82089663,12.9694483 7.01940163,13.2030446 L12.8731568,20.113149 C13.0716618,20.3467452 13.0331033,20.688991 12.7860431,20.8791275 C12.6803642,20.9606146 12.5532639,21 12.4275916,21" id="Fill-29" fill="#F8E9DF"></path>
                    <path d="M12.4275916,21 C12.2605047,21 12.0948459,20.9293779 11.9820265,20.7962823 L6.1268432,13.8875361 C5.92833821,13.6539398 5.96689673,13.3103359 6.21395691,13.1201994 C6.45958898,12.931421 6.82089663,12.9694483 7.01940163,13.2030446 L12.8731568,20.113149 C13.0716618,20.3467452 13.0331033,20.688991 12.7860431,20.8791275 C12.6803642,20.9606146 12.5532639,21 12.4275916,21 Z" id="Stroke-31" stroke="#F8E9DF" stroke-width="0.25"></path>
                    <path d="M24.4688431,36 C24.4248322,36 24.3797733,35.990333 24.3357624,35.9661655 C24.1157075,35.853384 23.9962492,35.4876495 24.0696008,35.1493048 C24.3378581,33.9151522 23.9868183,32.6197753 23.2868344,32.2604855 C23.0667796,32.1444816 22.9483691,31.7803583 23.0217207,31.4404024 C23.0950723,31.1020577 23.333989,30.9216072 23.5540438,31.0327776 C24.6930895,31.6192417 25.2819981,33.6493099 24.8670376,35.5585407 C24.8083563,35.8308277 24.644887,36 24.4688431,36" id="Fill-33" fill="#F8E9DF"></path>
                    <path d="M24.4688431,36 C24.4248322,36 24.3797733,35.990333 24.3357624,35.9661655 C24.1157075,35.853384 23.9962492,35.4876495 24.0696008,35.1493048 C24.3378581,33.9151522 23.9868183,32.6197753 23.2868344,32.2604855 C23.0667796,32.1444816 22.9483691,31.7803583 23.0217207,31.4404024 C23.0950723,31.1020577 23.333989,30.9216072 23.5540438,31.0327776 C24.6930895,31.6192417 25.2819981,33.6493099 24.8670376,35.5585407 C24.8083563,35.8308277 24.644887,36 24.4688431,36 Z" id="Stroke-35" stroke="#F8E9DF" stroke-width="0.25"></path>
                    <path d="M24.6730867,36 C24.6026984,36 24.5306342,35.9914966 24.4602459,35.9702382 C24.1083042,35.8710323 23.9172502,35.5493218 24.0345641,35.2517042 C24.3714225,34.3999508 25.0853612,33.6913373 25.9920299,33.3101033 C26.8065234,32.9657171 27.7115162,32.9061936 28.5410929,33.1414533 C28.8947104,33.2420764 29.0824126,33.5637869 28.9650987,33.8614046 C28.846109,34.1590222 28.4640009,34.3177516 28.1137352,34.219963 C27.6243687,34.0810747 27.0847249,34.1207571 26.5920066,34.3276722 C26.0020854,34.5756869 25.5345058,35.0433718 25.3099335,35.6116798 C25.2160824,35.8511912 24.95464,36 24.6730867,36" id="Fill-37" fill="#F8E9DF"></path>
                    <path d="M24.6730867,36 C24.6026984,36 24.5306342,35.9914966 24.4602459,35.9702382 C24.1083042,35.8710323 23.9172502,35.5493218 24.0345641,35.2517042 C24.3714225,34.3999508 25.0853612,33.6913373 25.9920299,33.3101033 C26.8065234,32.9657171 27.7115162,32.9061936 28.5410929,33.1414533 C28.8947104,33.2420764 29.0824126,33.5637869 28.9650987,33.8614046 C28.846109,34.1590222 28.4640009,34.3177516 28.1137352,34.219963 C27.6243687,34.0810747 27.0847249,34.1207571 26.5920066,34.3276722 C26.0020854,34.5756869 25.5345058,35.0433718 25.3099335,35.6116798 C25.2160824,35.8511912 24.95464,36 24.6730867,36 Z" id="Stroke-39" stroke="#F8E9DF" stroke-width="0.25"></path>
                    <path d="M24.4849051,32 C24.1380247,32 23.7928201,31.9532467 23.4593457,31.8583235 C23.1074381,31.7591499 22.9164025,31.4375441 23.0353808,31.1386066 C23.1526834,30.8410859 23.5347545,30.6809914 23.8866621,30.780165 C24.3759813,30.9175912 24.9155731,30.8807553 25.4082438,30.6724908 C25.998108,30.4245568 26.4656424,29.9570243 26.6885173,29.3889013 C26.8074956,29.0913806 27.187891,28.9284526 27.5397986,29.0304597 C27.8917062,29.1296333 28.0827418,29.451239 27.9654393,29.7487597 C27.6286134,30.6002358 26.9164194,31.3086185 26.0081625,31.6897284 C25.5221948,31.8965761 25.0027121,32 24.4849051,32" id="Fill-41" fill="#F8E9DF"></path>
                    <path d="M24.4849051,32 C24.1380247,32 23.7928201,31.9532467 23.4593457,31.8583235 C23.1074381,31.7591499 22.9164025,31.4375441 23.0353808,31.1386066 C23.1526834,30.8410859 23.5347545,30.6809914 23.8866621,30.780165 C24.3759813,30.9175912 24.9155731,30.8807553 25.4082438,30.6724908 C25.998108,30.4245568 26.4656424,29.9570243 26.6885173,29.3889013 C26.8074956,29.0913806 27.187891,28.9284526 27.5397986,29.0304597 C27.8917062,29.1296333 28.0827418,29.451239 27.9654393,29.7487597 C27.6286134,30.6002358 26.9164194,31.3086185 26.0081625,31.6897284 C25.5221948,31.8965761 25.0027121,32 24.4849051,32 Z" id="Stroke-43" stroke="#F8E9DF" stroke-width="0.25"></path>
                    <path d="M28.5795706,34 C28.5355587,34 28.490499,33.988726 28.4464872,33.9661781 C27.3074192,33.3783217 26.7184991,31.349009 27.1324198,29.4420994 C27.2057729,29.1038806 27.4446942,28.9186655 27.6647533,29.0346263 C27.8848125,29.1457553 28.0042731,29.5129643 27.9298722,29.851183 C27.6626575,31.0832657 28.0137042,32.379771 28.7126539,32.7405377 C28.933761,32.8532773 29.0521737,33.2204863 28.9777728,33.558705 C28.9190904,33.82928 28.7556179,34 28.5795706,34" id="Fill-45" fill="#F8E9DF"></path>
                    <path d="M28.5795706,34 C28.5355587,34 28.490499,33.988726 28.4464872,33.9661781 C27.3074192,33.3783217 26.7184991,31.349009 27.1324198,29.4420994 C27.2057729,29.1038806 27.4446942,28.9186655 27.6647533,29.0346263 C27.8848125,29.1457553 28.0042731,29.5129643 27.9298722,29.851183 C27.6626575,31.0832657 28.0137042,32.379771 28.7126539,32.7405377 C28.933761,32.8532773 29.0521737,33.2204863 28.9777728,33.558705 C28.9190904,33.82928 28.7556179,34 28.5795706,34 Z" id="Stroke-47" stroke="#F8E9DF" stroke-width="0.25"></path>
                    <path d="M15.4690356,19 C15.425031,19 15.3799786,18.9887232 15.3359739,18.9661697 C15.1159507,18.8534021 14.9965096,18.4877129 15.0698507,18.1494101 C15.3380694,16.9154103 14.9860323,15.6185828 14.2871967,15.2593375 C14.0671735,15.1449589 13.9477323,14.7792697 14.0221211,14.4409669 C14.0954622,14.102664 14.3343445,13.9206249 14.5543677,14.0333925 C15.692202,14.6197841 16.2820737,16.6496009 15.8671728,18.5585954 C15.8085,18.8292376 15.6450542,19 15.4690356,19" id="Fill-49" fill="#F8E9DF"></path>
                    <path d="M15.4690356,19 C15.425031,19 15.3799786,18.9887232 15.3359739,18.9661697 C15.1159507,18.8534021 14.9965096,18.4877129 15.0698507,18.1494101 C15.3380694,16.9154103 14.9860323,15.6185828 14.2871967,15.2593375 C14.0671735,15.1449589 13.9477323,14.7792697 14.0221211,14.4409669 C14.0954622,14.102664 14.3343445,13.9206249 14.5543677,14.0333925 C15.692202,14.6197841 16.2820737,16.6496009 15.8671728,18.5585954 C15.8085,18.8292376 15.6450542,19 15.4690356,19 Z" id="Stroke-51" stroke="#F8E9DF" stroke-width="0.25"></path>
                    <path d="M15.6730867,19 C15.6026984,19 15.5306342,18.9900774 15.4602459,18.9702322 C15.1083042,18.8710061 14.9172502,18.54923 15.0345641,18.2515517 C15.3714225,17.3996247 16.0836853,16.6908668 16.9920299,16.3095551 C17.8048475,15.9650988 18.7115162,15.9069806 19.5410929,16.1408707 C19.8947104,16.2415143 20.0824126,16.5632904 19.9650987,16.8623862 C19.846109,17.158647 19.4656768,17.3174088 19.1137352,17.2196002 C18.6243687,17.0806837 18.0847249,17.1203741 17.5920066,17.3273314 C17.0004095,17.5753967 16.5345058,18.0431769 16.3099335,18.6116007 C16.2160824,18.8497433 15.95464,19 15.6730867,19" id="Fill-53" fill="#F8E9DF"></path>
                    <path d="M15.6730867,19 C15.6026984,19 15.5306342,18.9900774 15.4602459,18.9702322 C15.1083042,18.8710061 14.9172502,18.54923 15.0345641,18.2515517 C15.3714225,17.3996247 16.0836853,16.6908668 16.9920299,16.3095551 C17.8048475,15.9650988 18.7115162,15.9069806 19.5410929,16.1408707 C19.8947104,16.2415143 20.0824126,16.5632904 19.9650987,16.8623862 C19.846109,17.158647 19.4656768,17.3174088 19.1137352,17.2196002 C18.6243687,17.0806837 18.0847249,17.1203741 17.5920066,17.3273314 C17.0004095,17.5753967 16.5345058,18.0431769 16.3099335,18.6116007 C16.2160824,18.8497433 15.95464,19 15.6730867,19 Z" id="Stroke-55" stroke="#F8E9DF" stroke-width="0.25"></path>
                    <path d="M15.486529,15 C15.137985,15 14.7927924,14.953258 14.4593297,14.8569411 C14.1074343,14.7577913 13.9164054,14.4362628 14.0353796,14.1388136 C14.1543537,13.8413643 14.5347358,13.6798918 14.8866312,13.780458 C15.3759333,13.9192677 15.9155061,13.8810242 16.4098353,13.6728097 C16.9996789,13.4249353 17.4655214,12.957515 17.6900641,12.3895286 C17.8073626,12.0920793 18.1877447,11.9291904 18.5413157,12.0297566 C18.8932111,12.1303228 19.0825643,12.4518513 18.9652658,12.7493006 C18.6284517,13.6019885 17.9162825,14.3087846 17.0097331,14.6898029 C16.5221067,14.896601 16.0026421,15 15.486529,15" id="Fill-57" fill="#F8E9DF"></path>
                    <path d="M15.486529,15 C15.137985,15 14.7927924,14.953258 14.4593297,14.8569411 C14.1074343,14.7577913 13.9164054,14.4362628 14.0353796,14.1388136 C14.1543537,13.8413643 14.5347358,13.6798918 14.8866312,13.780458 C15.3759333,13.9192677 15.9155061,13.8810242 16.4098353,13.6728097 C16.9996789,13.4249353 17.4655214,12.957515 17.6900641,12.3895286 C17.8073626,12.0920793 18.1877447,11.9291904 18.5413157,12.0297566 C18.8932111,12.1303228 19.0825643,12.4518513 18.9652658,12.7493006 C18.6284517,13.6019885 17.9162825,14.3087846 17.0097331,14.6898029 C16.5221067,14.896601 16.0026421,15 15.486529,15 Z" id="Stroke-59" stroke="#F8E9DF" stroke-width="0.25"></path>
                    <path d="M19.5795706,17 C19.5355587,17 19.490499,16.9887279 19.4464872,16.9661837 C18.3074192,16.3784236 17.7184991,14.3494434 18.1324198,12.4428463 C18.2057729,12.1046829 18.4446942,11.9194982 18.6647533,12.0338296 C18.8848125,12.1465507 19.0042731,12.5136995 18.9298722,12.8518629 C18.6626575,14.0837437 19.0137042,15.3800365 19.7126539,15.7407441 C19.933761,15.8534652 20.0521737,16.220614 19.9777728,16.5603876 C19.9190904,16.829308 19.7556179,17 19.5795706,17" id="Fill-61" fill="#F8E9DF"></path>
                    <path d="M19.5795706,17 C19.5355587,17 19.490499,16.9887279 19.4464872,16.9661837 C18.3074192,16.3784236 17.7184991,14.3494434 18.1324198,12.4428463 C18.2057729,12.1046829 18.4446942,11.9194982 18.6647533,12.0338296 C18.8848125,12.1465507 19.0042731,12.5136995 18.9298722,12.8518629 C18.6626575,14.0837437 19.0137042,15.3800365 19.7126539,15.7407441 C19.933761,15.8534652 20.0521737,16.220614 19.9777728,16.5603876 C19.9190904,16.829308 19.7556179,17 19.5795706,17 Z" id="Stroke-63" stroke="#F8E9DF" stroke-width="0.25"></path>
                    <path d="M33.5802588,23 C33.392564,23 33.2092006,22.8894891 33.0980275,22.6842544 C32.9189956,22.3614923 32.9926297,21.924711 33.25829,21.7089515 C33.9108904,21.1827089 34.0350577,20.0091879 33.5369446,19.0917717 C33.3593564,18.7690096 33.4329905,18.3322282 33.7000947,18.1164688 C33.965755,17.9024634 34.3267065,17.9919247 34.5028508,18.3146868 C35.3546964,19.8776273 35.0847047,21.9264651 33.9007837,22.8824725 C33.8011611,22.9614089 33.689988,23 33.5802588,23" id="Fill-65" fill="#F8E9DF"></path>
                    <path d="M33.5802588,23 C33.392564,23 33.2092006,22.8894891 33.0980275,22.6842544 C32.9189956,22.3614923 32.9926297,21.924711 33.25829,21.7089515 C33.9108904,21.1827089 34.0350577,20.0091879 33.5369446,19.0917717 C33.3593564,18.7690096 33.4329905,18.3322282 33.7000947,18.1164688 C33.965755,17.9024634 34.3267065,17.9919247 34.5028508,18.3146868 C35.3546964,19.8776273 35.0847047,21.9264651 33.9007837,22.8824725 C33.8011611,22.9614089 33.689988,23 33.5802588,23 Z" id="Stroke-67" stroke="#F8E9DF" stroke-width="0.25"></path>
                    <path d="M35.8106962,20 C35.6833553,20 35.5549443,19.9830109 35.4265333,19.9529534 C34.8839969,19.8170409 34.3906847,19.4027691 34.0717975,18.8146862 C33.9401762,18.5729188 33.9947509,18.2475129 34.1927178,18.0867702 C34.3896146,17.9273344 34.6560674,17.9939838 34.7876887,18.2344444 C34.9813752,18.5938284 35.2767205,18.8447438 35.5966779,18.9244617 C35.8620606,18.9911111 36.1231629,18.9309959 36.3329008,18.7624122 C36.5308677,18.6016695 36.7973205,18.6657052 36.9278717,18.9074726 C37.0594929,19.14924 37.0059884,19.4759528 36.8080214,19.6353886 C36.5126762,19.8745423 36.1670366,20 35.8106962,20" id="Fill-69" fill="#F8E9DF"></path>
                    <path d="M35.8106962,20 C35.6833553,20 35.5549443,19.9830109 35.4265333,19.9529534 C34.8839969,19.8170409 34.3906847,19.4027691 34.0717975,18.8146862 C33.9401762,18.5729188 33.9947509,18.2475129 34.1927178,18.0867702 C34.3896146,17.9273344 34.6560674,17.9939838 34.7876887,18.2344444 C34.9813752,18.5938284 35.2767205,18.8447438 35.5966779,18.9244617 C35.8620606,18.9911111 36.1231629,18.9309959 36.3329008,18.7624122 C36.5308677,18.6016695 36.7973205,18.6657052 36.9278717,18.9074726 C37.0594929,19.14924 37.0059884,19.4759528 36.8080214,19.6353886 C36.5126762,19.8745423 36.1670366,20 35.8106962,20 Z" id="Stroke-71" stroke="#F8E9DF" stroke-width="0.25"></path>
                    <path d="M36.5707998,23 C36.4316904,23 36.2947212,22.9175984 36.2123256,22.7645668 C36.0175725,22.4061851 35.7233027,22.1550563 35.4022811,22.0765785 C35.1379733,22.0085645 34.8768757,22.0687308 34.6671416,22.2387659 C34.4702483,22.3983373 34.2027303,22.3329392 34.0721815,22.0922741 C33.9405627,21.850301 33.9940663,21.5246184 34.1909595,21.363739 C34.5922366,21.0380564 35.0833996,20.9268796 35.5724226,21.0472121 C36.1149491,21.1806243 36.6093224,21.5965563 36.9282038,22.1864474 C37.0598227,22.4284204 37.005249,22.7541031 36.8072857,22.9136745 C36.7345208,22.9725328 36.6521252,23 36.5707998,23" id="Fill-73" fill="#F8E9DF"></path>
                    <path d="M36.5707998,23 C36.4316904,23 36.2947212,22.9175984 36.2123256,22.7645668 C36.0175725,22.4061851 35.7233027,22.1550563 35.4022811,22.0765785 C35.1379733,22.0085645 34.8768757,22.0687308 34.6671416,22.2387659 C34.4702483,22.3983373 34.2027303,22.3329392 34.0721815,22.0922741 C33.9405627,21.850301 33.9940663,21.5246184 34.1909595,21.363739 C34.5922366,21.0380564 35.0833996,20.9268796 35.5724226,21.0472121 C36.1149491,21.1806243 36.6093224,21.5965563 36.9282038,22.1864474 C37.0598227,22.4284204 37.005249,22.7541031 36.8072857,22.9136745 C36.7345208,22.9725328 36.6521252,23 36.5707998,23 Z" id="Stroke-75" stroke="#F8E9DF" stroke-width="0.25"></path>
                    <path d="M36.9807424,23 C36.7929684,23 36.6080832,22.8894525 36.4968632,22.6841501 C35.6446581,21.1224479 35.9162082,19.072933 37.1006289,18.1183645 C37.3664014,17.9025337 37.7260608,17.9902698 37.903724,18.3131386 C38.0799427,18.6377621 38.0077219,19.0764425 37.740505,19.2905185 C37.0890736,19.816935 36.9648539,20.9908438 37.4631772,21.9085632 C37.6408403,22.2331867 37.5671751,22.6701123 37.2999583,22.8841884 C37.201738,22.9631508 37.090518,23 36.9807424,23" id="Fill-77" fill="#F8E9DF"></path>
                    <path d="M36.9807424,23 C36.7929684,23 36.6080832,22.8894525 36.4968632,22.6841501 C35.6446581,21.1224479 35.9162082,19.072933 37.1006289,18.1183645 C37.3664014,17.9025337 37.7260608,17.9902698 37.903724,18.3131386 C38.0799427,18.6377621 38.0077219,19.0764425 37.740505,19.2905185 C37.0890736,19.816935 36.9648539,20.9908438 37.4631772,21.9085632 C37.6408403,22.2331867 37.5671751,22.6701123 37.2999583,22.8841884 C37.201738,22.9631508 37.090518,23 36.9807424,23 Z" id="Stroke-79" stroke="#F8E9DF" stroke-width="0.25"></path>
                    <path d="M6.171089,31 C5.75330908,31 5.34153176,30.8379704 4.97657459,30.5228303 C4.49396676,30.1051211 4.15181942,29.4703813 4.01255945,28.7315859 C3.9525336,28.4104998 4.11340288,28.0894137 4.37271455,28.0150882 C4.63202622,27.9422492 4.89133789,28.139955 4.95136374,28.4610411 C5.03660044,28.9114536 5.24068833,29.2964597 5.52761189,29.5432203 C5.79772821,29.7780889 6.11106315,29.8583604 6.40879136,29.7721428 C6.66930355,29.7007904 6.92621418,29.8970097 6.98744055,30.2180958 C7.0474664,30.5376954 6.88659712,30.8587816 6.62728545,30.9345936 C6.47602031,30.9777024 6.32355465,31 6.171089,31" id="Fill-81" fill="#F8E9DF"></path>
                    <path d="M6.171089,31 C5.75330908,31 5.34153176,30.8379704 4.97657459,30.5228303 C4.49396676,30.1051211 4.15181942,29.4703813 4.01255945,28.7315859 C3.9525336,28.4104998 4.11340288,28.0894137 4.37271455,28.0150882 C4.63202622,27.9422492 4.89133789,28.139955 4.95136374,28.4610411 C5.03660044,28.9114536 5.24068833,29.2964597 5.52761189,29.5432203 C5.79772821,29.7780889 6.11106315,29.8583604 6.40879136,29.7721428 C6.66930355,29.7007904 6.92621418,29.8970097 6.98744055,30.2180958 C7.0474664,30.5376954 6.88659712,30.8587816 6.62728545,30.9345936 C6.47602031,30.9777024 6.32355465,31 6.171089,31 Z" id="Stroke-83" stroke="#F8E9DF" stroke-width="0.25"></path>
                    <path d="M3.4350307,31 C3.2367288,31 3.05901562,30.8565529 3.01133648,30.6431035 C2.95715563,30.3963745 3.1023603,30.1484978 3.33642156,30.091119 C3.90748769,29.9488194 4.2477434,29.2637159 4.09278618,28.563694 C4.03860533,28.3158173 4.18381,28.0679407 4.41787126,28.0117094 C4.65193252,27.9554781 4.88599378,28.1069583 4.94017463,28.3548349 C5.20349354,29.5494626 4.57282848,30.7303194 3.53472346,30.9873767 C3.50113133,30.9954097 3.46753921,31 3.4350307,31" id="Fill-85" fill="#F8E9DF"></path>
                    <path d="M3.4350307,31 C3.2367288,31 3.05901562,30.8565529 3.01133648,30.6431035 C2.95715563,30.3963745 3.1023603,30.1484978 3.33642156,30.091119 C3.90748769,29.9488194 4.2477434,29.2637159 4.09278618,28.563694 C4.03860533,28.3158173 4.18381,28.0679407 4.41787126,28.0117094 C4.65193252,27.9554781 4.88599378,28.1069583 4.94017463,28.3548349 C5.20349354,29.5494626 4.57282848,30.7303194 3.53472346,30.9873767 C3.50113133,30.9954097 3.46753921,31 3.4350307,31 Z" id="Stroke-87" stroke="#F8E9DF" stroke-width="0.25"></path>
                    <path d="M5.4830996,33 C5.28479514,33 5.10599603,32.85657 5.0593999,32.6442937 C4.79716121,31.4486614 5.42783443,30.2690933 6.46595289,30.0120668 C6.70110081,29.9546948 6.93408146,30.1073043 6.98826301,30.3551513 C7.04352819,30.6029983 6.89832164,30.8508453 6.66425735,30.9093647 C6.09210021,31.0504998 5.75292371,31.7343739 5.90679931,32.4354596 C5.96098086,32.6833066 5.81577431,32.9300062 5.58171002,32.9885256 C5.54920109,32.9965577 5.51560853,33 5.4830996,33" id="Fill-89" fill="#F8E9DF"></path>
                    <path d="M5.4830996,33 C5.28479514,33 5.10599603,32.85657 5.0593999,32.6442937 C4.79716121,31.4486614 5.42783443,30.2690933 6.46595289,30.0120668 C6.70110081,29.9546948 6.93408146,30.1073043 6.98826301,30.3551513 C7.04352819,30.6029983 6.89832164,30.8508453 6.66425735,30.9093647 C6.09210021,31.0504998 5.75292371,31.7343739 5.90679931,32.4354596 C5.96098086,32.6833066 5.81577431,32.9300062 5.58171002,32.9885256 C5.54920109,32.9965577 5.51560853,33 5.4830996,33 Z" id="Stroke-91" stroke="#F8E9DF" stroke-width="0.25"></path>
                    <path d="M5.51791677,34 C5.29816671,34 5.10003141,33.8141601 5.04839615,33.5391171 C4.95953547,33.0618802 4.72897804,32.6515458 4.41676484,32.4106973 C4.15978937,32.2129636 3.86678929,32.1490347 3.59180151,32.2278308 C3.3324244,32.3021668 3.07304728,32.1044331 3.01300628,31.7818151 C2.95176446,31.4606838 3.11267434,31.1395524 3.37205146,31.0652165 C3.89801061,30.9120844 4.44918698,31.0310219 4.92471169,31.3967548 C5.45307249,31.8026291 5.84093734,32.4850332 5.98743738,33.2685342 C6.04747838,33.5896655 5.8865685,33.9093101 5.62719138,33.9851328 C5.59116678,33.9955398 5.55394136,34 5.51791677,34" id="Fill-93" fill="#F8E9DF"></path>
                    <path d="M5.51791677,34 C5.29816671,34 5.10003141,33.8141601 5.04839615,33.5391171 C4.95953547,33.0618802 4.72897804,32.6515458 4.41676484,32.4106973 C4.15978937,32.2129636 3.86678929,32.1490347 3.59180151,32.2278308 C3.3324244,32.3021668 3.07304728,32.1044331 3.01300628,31.7818151 C2.95176446,31.4606838 3.11267434,31.1395524 3.37205146,31.0652165 C3.89801061,30.9120844 4.44918698,31.0310219 4.92471169,31.3967548 C5.45307249,31.8026291 5.84093734,32.4850332 5.98743738,33.2685342 C6.04747838,33.5896655 5.8865685,33.9093101 5.62719138,33.9851328 C5.59116678,33.9955398 5.55394136,34 5.51791677,34 Z" id="Stroke-95" stroke="#F8E9DF" stroke-width="0.25"></path>
                </g>
            </g>
        </g>
    </g>
</svg>