<?xml version="1.0" encoding="UTF-8"?>
<svg width="65px" height="41px" viewBox="0 0 65 41" version="1.1" xmlns="http://www.w3.org/2000/svg" xmlns:xlink="http://www.w3.org/1999/xlink">
    <!-- Generator: Sketch 58 (84663) - https://sketch.com -->
    <title>Group 24</title>
    <desc>Created with Sketch.</desc>
    <defs>
        <polygon id="path-1" points="0 0.00352696507 8.42922288 0.00352696507 8.42922288 5.61611389 0 5.61611389"></polygon>
    </defs>
    <g id="Page-1" stroke="none" stroke-width="1" fill="none" fill-rule="evenodd">
        <g id="Shop-Page---CBD-Gummies" transform="translate(-390.000000, -807.000000)">
            <g id="Group" transform="translate(96.000000, 343.000000)">
                <g id="Group-24" transform="translate(294.000000, 464.000000)">
                    <path d="M30.2135454,16.0880242 C27.3112514,16.4291921 24.5302232,17.7583663 22.444452,20.0084964 C18.2708885,24.5067847 18.1253696,31.336058 22.1028867,36 L23.7015738,34.7023789 C20.3788918,30.8035995 20.4981364,25.1319304 23.9865483,21.3751399 C27.4769813,17.6163773 33.2492318,16.9360137 37.5521454,19.7777644 C41.8570801,22.6195151 43.3567334,28.0998935 41.076937,32.6573439 L42.9504931,33.5467468 C45.6749306,28.0920053 43.8721129,21.4954361 38.7203389,18.0936179 C36.1454625,16.3936948 33.1178605,15.7468564 30.2135454,16.0880242" id="Fill-1" fill="#F8E9DF"></path>
                    <path d="M33.0313635,12.0180366 C28.5715262,11.8028623 24.1447968,13.5182237 20.8982689,16.8805732 C16.5689159,21.3670575 15.0926903,28.0133286 17.0928008,34 L18.9916398,33.3202906 C17.2408128,28.0776798 18.5320234,22.2719961 22.3199638,18.3445627 C26.1098518,14.4151183 31.7304153,13.0597215 36.8115138,14.8474779 C41.8965074,16.6372453 45.5442259,21.254443 46.2200178,26.7544585 L48.2142857,26.4910208 C47.4372224,20.2107471 43.2636715,14.9259059 37.4580929,12.8847667 C36.0071851,12.3739791 34.5192743,12.0884207 33.0313635,12.0180366" id="Fill-3" fill="#F8E9DF"></path>
                    <path d="M30.69821,8.03786108 C19.8215137,8.62468647 11.262148,17.8339601 11.2142857,29 L13.2723625,29 C13.3142419,18.9299128 20.9981273,10.6673295 30.8059001,10.1377554 C40.6136728,9.60818128 48.7615543,16.1276171 49.8364607,26.1363636 L52.2142857,26.7815138 C51.0237122,15.6809039 41.5729121,7.44081226 30.69821,8.02968233 L30.69821,8.03786108 Z" id="Fill-5" fill="#F8E9DF"></path>
                    <path d="M32.6303551,4.00342856 C28.290287,3.9324392 23.9279932,4.96375683 20.0081924,7.10526914 C12.1665702,11.3863218 7.28096274,19.4495298 7.21428571,28.2186875 L9.2974376,28.2403787 C9.35805308,20.19689 13.8334958,12.8100529 21.0245119,8.88394695 C28.2155279,4.95784105 37.0108336,5.09981976 44.0624341,9.25664108 C51.1160551,13.4154343 55.3369128,20.9462221 55.1227381,28.983795 L57.2142857,30 C57.2142857,20.3703704 52.8334936,12.0508611 45.1413896,7.5174018 C41.2963478,5.24968619 36.9704233,4.07836177 32.6303551,4.00737241 L32.6303551,4.00342856 Z" id="Fill-7" fill="#F8E9DF"></path>
                    <path d="M31.3929162,0.0114544484 C26.0814754,0.157152262 20.8162386,1.73423264 16.2139274,4.71710004 C7.00930494,10.6867726 2.05544225,21.2695529 3.44557728,32 L5.50064684,31.7420755 C4.21095509,21.7735886 8.80322197,11.9547374 17.354963,6.41034489 C25.9067041,0.865952434 36.9213145,0.562743471 45.7784031,5.62672692 C54.6334829,10.6887415 59.790241,20.2339171 59.0750849,30.2595018 L61.1442165,30.3992929 C61.9095943,19.6078103 56.3570896,9.31839449 46.8230133,3.86850872 C42.0559751,1.14356583 36.7023481,-0.136212254 31.3929162,0.0114544484 Z" id="Fill-9" fill="#F8E9DF"></path>
                    <path d="M44.0425814,32.2427411 C42.6008324,31.8630256 41.0638735,31.9227561 39.6046369,32.4645973 C36.6881067,33.5525462 34.5954332,36.3854798 34.2243091,39.7431888 C34.1465868,40.3468938 34.5293692,40.9036677 35.0773116,40.988997 C35.627197,41.0743263 36.1343352,40.6540794 36.2120575,40.0503744 C36.2140005,40.037575 36.2159436,40.0226424 36.2159436,40.009843 C36.4938009,37.4883614 38.0599057,35.3700609 40.2516752,34.5530326 C42.4415016,33.7381375 44.8586658,34.3717077 46.4752901,36.1870892 C46.8522434,36.6329349 47.4876234,36.6564004 47.8937225,36.2425532 C48.2998216,35.828706 48.3231383,35.1311387 47.9461851,34.6874262 C47.9325837,34.6724936 47.9209253,34.657561 47.9073239,34.6447616 C46.8308698,33.4373516 45.4843305,32.6203233 44.0425814,32.2427411" id="Fill-11" fill="#F8E9DF"></path>
                    <path d="M48.1586944,25.1001624 C44.3144834,25.7070743 41.4093924,28.9626944 41.2179794,32.8774772 C41.1701262,33.4502252 41.5928299,33.9486164 42.1610872,33.9968478 C42.7273507,34.0410599 43.2218342,33.6150158 43.2696875,33.0442775 C43.2716814,33.0221714 43.2716814,33.002075 43.2716814,32.9799689 C43.417235,30.0338336 45.5845884,27.6102053 48.4757222,27.1520069 C51.366856,26.6938085 54.168265,28.3336765 55.2010976,31.092915 C55.3725717,31.6415473 55.9507985,31.9429936 56.4931353,31.7701644 C57.0354722,31.5993448 57.3365488,31.0165486 57.1670686,30.469926 C57.1551053,30.4317428 57.1411481,30.3975789 57.125197,30.3614053 C55.75141,26.6938085 52.0009116,24.4932505 48.1586944,25.1001624" id="Fill-13" fill="#F8E9DF"></path>
                    <path d="M59.0595278,30.0234373 C57.9634941,29.9303353 56.837723,30.1147137 55.8266531,30.5747471 C55.2828844,30.8047638 55.0598543,31.3706778 55.3274904,31.8361878 C55.5972507,32.3035233 56.2557206,32.4952038 56.7994892,32.2670127 C56.816482,32.257885 56.8334748,32.2487574 56.8525916,32.2396297 C58.1058085,31.6682391 59.6245374,31.7960261 60.7226953,32.5645739 C61.8251013,33.3312962 62.2796579,34.5836093 61.8824519,35.755599 C61.6891591,36.2466664 61.9971531,36.7815465 62.568535,36.9494951 C63.1441652,37.1174438 63.7665254,36.8527421 63.9619423,36.3598492 C63.9725628,36.3342918 63.978935,36.3069089 63.9874314,36.2813514 C64.6267844,34.3882776 63.8875989,32.3436849 62.1118543,31.1004995 C61.2218579,30.477994 60.1555615,30.1147137 59.0595278,30.0234373" id="Fill-15" fill="#F8E9DF"></path>
                    <path d="M16.3760935,32.2411782 C17.8168469,31.8633445 19.3548172,31.9231148 20.8150139,32.4653168 C23.7334631,33.5518554 25.8314022,36.382406 26.2047148,39.7444853 C26.280544,40.3464576 25.8975097,40.9057368 25.3492068,40.9889883 C24.8009038,41.0743744 24.2914877,40.6538477 24.2137142,40.0518754 C24.2117699,40.0369328 24.2117699,40.0241249 24.2098255,40.011317 C23.9317854,37.4860219 22.3646501,35.3705802 20.1733828,34.5551426 C17.9821155,33.7375703 15.5633609,34.3715624 13.9437285,36.1881525 C13.5587499,36.6278912 12.9229518,36.6406991 12.5243628,36.2180377 C12.1218852,35.7953763 12.1102191,35.0973446 12.4951978,34.657606 L12.5068638,34.644798 C13.5840262,33.4365842 14.9333958,32.6211465 16.3760935,32.2411782" id="Fill-17" fill="#F8E9DF"></path>
                    <path d="M11.5709182,27.0751922 C14.6752355,27.5290662 17.0524684,29.9762034 17.2112119,32.9471868 C17.2543274,33.4861621 16.8388506,33.9551652 16.2803087,33.9967703 C15.7237265,34.0402666 15.237697,33.6393446 15.1945815,33.1003692 C15.1926217,33.083349 15.1926217,33.0644376 15.1906619,33.0474173 C15.0828731,31.0182224 13.4660412,29.3275418 11.2691095,29.0060477 C9.07021809,28.6845537 6.95559788,29.8438235 6.18343814,31.748203 C6.00313688,32.2588112 5.42891656,32.5311356 4.89977156,32.3571506 C4.37062656,32.1831656 4.0884159,31.62717 4.26871716,31.1184529 C4.27851614,31.0900858 4.28831512,31.0617186 4.30203369,31.0371338 C5.42499697,28.2571557 8.46856063,26.6213182 11.5709182,27.0751922" id="Fill-19" fill="#F8E9DF"></path>
                    <g id="Group-23" transform="translate(0.214286, 31.000000)">
                        <mask id="mask-2" fill="white">
                            <use xlink:href="#path-1"></use>
                        </mask>
                        <g id="Clip-22"></g>
                        <path d="M5.394375,0.022 C6.321375,0.1 7.225875,0.41 7.986375,0.944 C8.490375,1.298 8.578125,1.948 8.177625,2.396 C7.781625,2.844 7.050375,2.922 6.546375,2.566 C5.738625,2 4.640625,1.904 3.727125,2.326 C2.815875,2.746 2.269125,3.6 2.327625,4.512 C2.370375,5.082 1.884375,5.574 1.245375,5.614 C0.606375,5.65 0.052875,5.222 0.007875,4.65 C0.007875,4.646 0.007875,4.638 0.005625,4.632 C-0.100125,2.912 0.941625,1.288 2.658375,0.494 C3.517875,0.098 4.467375,-0.056 5.394375,0.024 L5.394375,0.022 Z" id="Fill-21" fill="#F8E9DF" mask="url(#mask-2)"></path>
                    </g>
                </g>
            </g>
        </g>
    </g>
</svg>