<?xml version="1.0" encoding="UTF-8"?>
<svg width="38px" height="41px" viewBox="0 0 38 41" version="1.1" xmlns="http://www.w3.org/2000/svg" xmlns:xlink="http://www.w3.org/1999/xlink">
    <!-- Generator: Sketch 58 (84663) - https://sketch.com -->
    <title>Fill 1</title>
    <desc>Created with Sketch.</desc>
    <g id="Page-1" stroke="none" stroke-width="1" fill="none" fill-rule="evenodd">
        <g id="Shop-Page---CBD-Gummies" transform="translate(-403.000000, -1388.000000)" fill="#F8E9DF">
            <g id="Group" transform="translate(96.000000, 924.000000)">
                <path d="M340.097289,491.259401 C340.097289,484.187289 334.658692,478.384775 327.724083,477.751571 L327.724083,472.400435 C327.724083,471.767231 327.178628,471.223345 326.545455,471.223345 C325.910686,471.223345 325.366826,471.767231 325.366826,472.400435 L325.366826,477.614403 C323.054226,477.250749 321.014354,475.847173 319.835726,473.807202 C319.60925,473.354229 319.020734,473.217061 318.61244,473.445143 C318.157895,473.670034 318.023923,474.260174 318.250399,474.668487 C319.926635,477.659062 323.145136,479.518801 326.545455,479.518801 C333.027113,479.518801 338.285486,484.777429 338.285486,491.259401 C338.285486,497.741373 332.980861,503 326.499203,503 C317.389155,503 309.033954,495.610488 309.033954,486.5 C309.033954,477.387917 317.389155,470 326.499203,470 C327.904306,470 329.264753,470.180232 330.578947,470.497632 C329.673046,472.220203 329.173844,474.124601 329.264753,475.98434 L329.30941,476.617545 L329.899522,476.797777 C330.942584,477.161431 332.07496,477.343258 333.208931,477.343258 C335.157895,477.343258 337.197767,476.797777 339.009569,475.756259 C341.503987,478.657516 343,482.373804 343,486.5 C343,491.032914 341.185008,495.157516 338.194577,498.149686 C339.373206,496.109715 340.097289,493.797003 340.097289,491.259401 Z M343.431473,465.685655 C343.336247,468.492923 341.721521,471.577121 339.111318,473.49693 C336.501115,475.415092 333.301748,476.23963 330.499394,475.538225 C330.59632,472.730957 332.410381,469.063831 335.020584,467.145668 C337.629086,465.227506 340.629119,464.98425 343.431473,465.685655 Z M344.946308,464.731807 L344.341801,464.54909 C340.894966,463.364637 336.799393,464.138779 333.586825,466.462807 C332.607164,467.190468 331.770029,468.011091 331.072143,468.921469 C329.394596,468.46628 327.625308,468.193807 325.81015,468.193807 C315.427052,468.193807 307,476.436894 307,486.596904 C307,496.75531 315.427052,505 325.81015,505 L326.508036,505 C336.565126,504.634567 344.6203,496.527716 344.6203,486.596904 C344.6203,482.086687 342.944391,477.986781 340.244589,474.798855 C343.363778,472.428347 345.133066,468.83011 344.992178,465.369713 L344.946308,464.731807 Z" id="Fill-1"></path>
            </g>
        </g>
    </g>
</svg>