<?xml version="1.0" encoding="UTF-8"?>
<svg width="41px" height="41px" viewBox="0 0 41 41" version="1.1" xmlns="http://www.w3.org/2000/svg" xmlns:xlink="http://www.w3.org/1999/xlink">
    <!-- Generator: Sketch 58 (84663) - https://sketch.com -->
    <title>Group 3</title>
    <desc>Created with Sketch.</desc>
    <defs>
        <polygon id="path-1" points="0 0 41 0 41 41 0 41"></polygon>
    </defs>
    <g id="Page-1" stroke="none" stroke-width="1" fill="none" fill-rule="evenodd">
        <g id="Shop-Page---CBD-Gummies" transform="translate(-1267.000000, -1967.000000)">
            <g id="Group" transform="translate(952.000000, 1505.000000)">
                <g id="Group-3" transform="translate(315.000000, 462.000000)">
                    <mask id="mask-2" fill="white">
                        <use xlink:href="#path-1"></use>
                    </mask>
                    <g id="Clip-2"></g>
                    <path d="M2.11952089,20.4992468 C2.11952089,15.8384098 3.86695815,11.5481501 6.78035786,8.31689753 L13.4010361,14.9375758 L7.15093508,18.5394055 L7.09821068,18.5394055 L7.04548628,18.5921299 C6.99125547,18.6463607 6.93853107,18.6990851 6.93853107,18.7518095 C6.88580666,18.8045339 6.88580666,18.8572583 6.88580666,18.9099827 L6.88580666,18.9627071 L6.88580666,19.0169379 L6.88580666,27.3338355 C6.88580666,27.5447331 6.99125547,27.7044127 7.15093508,27.8098615 L14.3545946,31.993166 L14.407319,31.993166 L14.4600434,31.993166 C14.5142742,31.993166 14.5669986,32.0473968 14.619723,32.0473968 C14.6724474,32.0473968 14.7251718,32.0473968 14.7778962,31.993166 L14.8306206,31.993166 L14.8848514,31.993166 L22.0885109,27.8098615 C22.2466841,27.7044127 22.3536393,27.5447331 22.3536393,27.3338355 L22.3536393,24.6313334 L23.8901789,25.530661 L32.6831025,34.2196421 C29.4533564,37.1330418 25.1615902,38.8804791 20.4992468,38.8804791 C10.3821876,38.8804791 2.11952089,30.616306 2.11952089,20.4992468 L2.11952089,20.4992468 Z M15.2027042,23.4126465 L19.492964,20.9225484 L21.4000808,22.8296653 L21.4000808,26.9632583 L15.2027042,30.5635816 L15.2027042,23.4126465 Z M20.8170996,18.9627071 L20.5519712,19.1223867 L19.9162656,18.4866811 L20.8170996,18.9627071 Z M25.7972958,18.1688283 L25.7972958,24.3134805 L22.4063637,20.9225484 L22.4063637,18.9627071 L22.4063637,18.9099827 L22.4063637,18.8572583 C22.4063637,18.8045339 22.3536393,18.7518095 22.3536393,18.6990851 C22.2994085,18.6463607 22.2994085,18.5921299 22.2466841,18.5394055 L22.1939597,18.4866811 L22.1412353,18.4866811 L19.6526436,17.0555903 L19.6526436,14.619723 L25.7972958,18.1688283 Z M33.0536797,14.619723 L33.0536797,21.7179336 L26.856303,25.3197634 L26.856303,18.1688283 L33.0536797,14.619723 Z M26.3260462,17.2679943 L20.181394,13.7188889 L26.3260462,10.1697836 L32.4706985,13.7188889 L26.3260462,17.2679943 Z M14.1421905,23.4126465 L14.1421905,30.5635816 L7.9975383,27.0159827 L7.9975383,19.8635412 L14.1421905,23.4126465 Z M8.47507073,18.9627071 L14.1421905,15.6787302 L18.6463607,20.181394 L14.6724474,22.5118125 L8.47507073,18.9627071 Z M38.8804791,20.4992468 C38.8804791,25.1600838 37.1330418,29.4518499 34.2196421,32.6815961 L27.5974575,26.1136422 L33.8475585,22.5118125 C34.0072381,22.4063637 34.1126869,22.2481905 34.1126869,22.0357865 L34.1126869,13.7188889 L34.1126869,13.6661645 L34.1126869,13.6134401 C34.1126869,13.5607157 34.0599625,13.5064849 34.0599625,13.4537605 C34.0072381,13.4010361 34.0072381,13.3483117 33.9545137,13.2955873 L33.9017893,13.2428629 L33.8475585,13.2428629 L26.643899,9.05805195 C26.4857258,8.95109674 26.2733218,8.95109674 26.1151486,9.05805195 L18.9099827,13.2428629 L18.8572583,13.2428629 L18.8045339,13.2955873 C18.7518095,13.3483117 18.6990851,13.4010361 18.6990851,13.4537605 C18.6463607,13.5064849 18.6463607,13.5607157 18.6463607,13.6134401 L18.6463607,13.6661645 L18.6463607,13.7188889 L18.6463607,16.4198846 L17.1098211,15.520557 L8.31539112,6.78035786 C11.5481501,3.86545174 15.8384098,2.11801448 20.4992468,2.11801448 C30.6178124,2.11801448 38.8804791,10.3821876 38.8804791,20.4992468 L38.8804791,20.4992468 Z M20.4992468,0 C9.21773156,0 0,9.16350075 0,20.4992468 C0,31.8349928 9.21773156,41 20.4992468,41 C31.7822684,41 41,31.8349928 41,20.4992468 C41,9.16350075 31.7822684,0 20.4992468,0 L20.4992468,0 Z" id="Fill-1" fill="#F8E9DF" mask="url(#mask-2)"></path>
                </g>
            </g>
        </g>
    </g>
</svg>