<?xml version="1.0" encoding="UTF-8"?>
<svg width="43px" height="43px" viewBox="0 0 43 43" version="1.1" xmlns="http://www.w3.org/2000/svg" xmlns:xlink="http://www.w3.org/1999/xlink">
    <!-- Generator: Sketch 58 (84663) - https://sketch.com -->
    <title>Group 57</title>
    <desc>Created with Sketch.</desc>
    <g id="Page-1" stroke="none" stroke-width="1" fill="none" fill-rule="evenodd">
        <g id="Shop-Page---CBD-Gummies" transform="translate(-1267.000000, -808.000000)">
            <g id="Group" transform="translate(952.000000, 343.000000)">
                <g id="Group-57" transform="translate(315.000000, 466.000000)">
                    <path d="M41.1661198,39 L41.8338802,39 C42.2030353,39 42.5,39.2983607 42.5,39.6655738 L42.5,40.3311475 C42.5,40.7 42.2030353,41 41.8338802,41 L41.1661198,41 C40.7986054,41 40.5,40.7 40.5,40.3311475 L40.5,39.6655738 C40.5,39.2983607 40.7986054,39 41.1661198,39" id="Fill-1" fill="#F8E9DF"></path>
                    <path d="M41.1661198,39 L41.8338802,39 C42.2030353,39 42.5,39.2983607 42.5,39.6655738 L42.5,40.3311475 C42.5,40.7 42.2030353,41 41.8338802,41 L41.1661198,41 C40.7986054,41 40.5,40.7 40.5,40.3311475 L40.5,39.6655738 C40.5,39.2983607 40.7986054,39 41.1661198,39 Z" id="Stroke-3" stroke="#F8E9DF" stroke-width="0.3"></path>
                    <path d="M17.1004734,19.4099296 L17.1004734,20.7735659 C17.0075159,22.2395169 15.8076758,23.410265 14.3014202,23.4991614 C12.9518152,23.4991614 11.502367,24.3931567 11.502367,26.9090909 C11.502367,28.2240859 9.4538594,29.6363636 8.00441118,29.6363636 C6.75120654,29.6363636 5.90426055,29.3629654 5.90426055,28.9553841 C5.90426055,28.5461255 6.09361839,28.2727273 6.60488457,28.2727273 C8.79454981,28.2727273 10.1045618,26.9979873 10.1045618,24.8627977 C10.1957979,23.3968467 11.3973594,22.2277759 12.903615,22.135525 C15.0709016,22.135525 15.7026682,21.5233143 15.7026682,19.4099296 C15.7026682,18.1888628 15.9815407,17.3636364 16.4015708,17.3636364 C16.5892072,17.3636364 17.1004734,17.3636364 17.1004734,19.4099296 M14.3014202,19.4099296 C14.3014202,20.7735659 14.3014202,20.7735659 12.903615,20.7735659 C10.6192708,20.8574304 8.78938551,22.6403891 8.70331376,24.8627977 C8.70331376,26.2281114 8.00441118,26.9090909 6.60488457,26.9090909 C5.53415204,26.8218719 4.59424856,27.5984569 4.50645538,28.641731 C4.49784821,28.7457229 4.49784821,28.8497149 4.50645538,28.9553841 C4.50645538,29.5675948 4.84902093,31 8.00441118,31 C10.1665335,31 12.903615,29.0694398 12.903615,26.9090909 C12.903615,25.5454545 13.3856168,24.8627977 14.3014202,24.8627977 C16.5840429,24.7806105 18.4139283,22.9959745 18.5,20.7735659 L18.5,19.4099296 C18.5,18.4756793 18.5,16 16.4015708,16 C15.7715256,16 14.3014202,16.3354579 14.3014202,19.4099296" id="Fill-5" fill="#F8E9DF"></path>
                    <path d="M17.1004734,19.4099296 L17.1004734,20.7735659 C17.0075159,22.2395169 15.8076758,23.410265 14.3014202,23.4991614 C12.9518152,23.4991614 11.502367,24.3931567 11.502367,26.9090909 C11.502367,28.2240859 9.4538594,29.6363636 8.00441118,29.6363636 C6.75120654,29.6363636 5.90426055,29.3629654 5.90426055,28.9553841 C5.90426055,28.5461255 6.09361839,28.2727273 6.60488457,28.2727273 C8.79454981,28.2727273 10.1045618,26.9979873 10.1045618,24.8627977 C10.1957979,23.3968467 11.3973594,22.2277759 12.903615,22.135525 C15.0709016,22.135525 15.7026682,21.5233143 15.7026682,19.4099296 C15.7026682,18.1888628 15.9815407,17.3636364 16.4015708,17.3636364 C16.5892072,17.3636364 17.1004734,17.3636364 17.1004734,19.4099296 Z M14.3014202,19.4099296 C14.3014202,20.7735659 14.3014202,20.7735659 12.903615,20.7735659 C10.6192708,20.8574304 8.78938551,22.6403891 8.70331376,24.8627977 C8.70331376,26.2281114 8.00441118,26.9090909 6.60488457,26.9090909 C5.53415204,26.8218719 4.59424856,27.5984569 4.50645538,28.641731 C4.49784821,28.7457229 4.49784821,28.8497149 4.50645538,28.9553841 C4.50645538,29.5675948 4.84902093,31 8.00441118,31 C10.1665335,31 12.903615,29.0694398 12.903615,26.9090909 C12.903615,25.5454545 13.3856168,24.8627977 14.3014202,24.8627977 C16.5840429,24.7806105 18.4139283,22.9959745 18.5,20.7735659 L18.5,19.4099296 C18.5,18.4756793 18.5,16 16.4015708,16 C15.7715256,16 14.3014202,16.3354579 14.3014202,19.4099296 Z" id="Stroke-7" stroke="#F8E9DF" stroke-width="0.3"></path>
                    <path d="M39.0913666,29.7986757 C36.976068,29.7986757 36.3637889,30.4269147 36.3637889,32.5973513 C36.2732051,34.1034037 35.1040036,35.303082 33.6362111,35.396027 C31.5024603,35.396027 30.2275777,36.7041411 30.2275777,38.8935109 C30.2275777,39.4047082 30.0413778,39.5923193 29.5448446,39.5923193 C29.0466339,39.5923193 28.8621114,38.7472087 28.8621114,37.4941731 C28.8621114,36.0466416 30.2745471,33.9949679 31.5896891,33.9949679 C34.1059047,33.9949679 35,32.5491576 35,31.1962923 C35.0889063,29.6919611 36.2597853,28.4905616 37.7275777,28.3993378 L39.0913666,28.3993378 C41.1362111,28.3993378 41.1362111,28.9088138 41.1362111,29.0998673 C41.1362111,29.5181196 40.3125699,29.7986757 39.0913666,29.7986757 M39.0913666,27 L37.7275777,27 C35.5032431,27.0860601 33.720085,28.9156987 33.6362111,31.1962923 C33.6362111,32.1154145 32.9551554,32.5973513 31.5896891,32.5973513 C29.4290986,32.5973513 27.5,35.3323425 27.5,37.4941731 C27.5,40.6508589 28.9308879,40.9933783 29.5448446,40.9933783 C30.5882353,41.0811596 31.5041378,40.285964 31.5896891,39.2153759 C31.5980765,39.1069401 31.5980765,39.0019467 31.5896891,38.8935109 C31.5896891,37.4941731 32.2724223,36.7936436 33.6362111,36.7936436 C35.8588683,36.7093047 37.6437039,34.877945 37.7275777,32.5973513 C37.7275777,31.1962923 37.7275777,31.1962923 39.0913666,31.1962923 C42.1661821,31.1962923 42.5,29.7281063 42.5,29.0998673 C42.5,27 40.0257213,27 39.0913666,27" id="Fill-9" fill="#F8E9DF"></path>
                    <path d="M39.0913666,29.7986757 C36.976068,29.7986757 36.3637889,30.4269147 36.3637889,32.5973513 C36.2732051,34.1034037 35.1040036,35.303082 33.6362111,35.396027 C31.5024603,35.396027 30.2275777,36.7041411 30.2275777,38.8935109 C30.2275777,39.4047082 30.0413778,39.5923193 29.5448446,39.5923193 C29.0466339,39.5923193 28.8621114,38.7472087 28.8621114,37.4941731 C28.8621114,36.0466416 30.2745471,33.9949679 31.5896891,33.9949679 C34.1059047,33.9949679 35,32.5491576 35,31.1962923 C35.0889063,29.6919611 36.2597853,28.4905616 37.7275777,28.3993378 L39.0913666,28.3993378 C41.1362111,28.3993378 41.1362111,28.9088138 41.1362111,29.0998673 C41.1362111,29.5181196 40.3125699,29.7986757 39.0913666,29.7986757 Z M39.0913666,27 L37.7275777,27 C35.5032431,27.0860601 33.720085,28.9156987 33.6362111,31.1962923 C33.6362111,32.1154145 32.9551554,32.5973513 31.5896891,32.5973513 C29.4290986,32.5973513 27.5,35.3323425 27.5,37.4941731 C27.5,40.6508589 28.9308879,40.9933783 29.5448446,40.9933783 C30.5882353,41.0811596 31.5041378,40.285964 31.5896891,39.2153759 C31.5980765,39.1069401 31.5980765,39.0019467 31.5896891,38.8935109 C31.5896891,37.4941731 32.2724223,36.7936436 33.6362111,36.7936436 C35.8588683,36.7093047 37.6437039,34.877945 37.7275777,32.5973513 C37.7275777,31.1962923 37.7275777,31.1962923 39.0913666,31.1962923 C42.1661821,31.1962923 42.5,29.7281063 42.5,29.0998673 C42.5,27 40.0257213,27 39.0913666,27 Z" id="Stroke-11" stroke="#F8E9DF" stroke-width="0.3"></path>
                    <path d="M41.1005138,12.5913666 C41.1005138,14.6362111 40.5909838,14.6362111 40.4016314,14.6362111 C39.9816134,14.6362111 39.702749,13.8125699 39.702749,12.5913666 C39.702749,10.4777455 39.0710006,9.86378886 36.9037767,9.86378886 C35.3975646,9.7732051 34.1960377,8.60400358 34.1048043,7.13621114 C34.1048043,5.0024603 32.7965515,3.72757772 30.6052282,3.72757772 C30.0939767,3.72757772 29.9063458,3.54305524 29.9063458,3.04484455 C29.9063458,2.54663386 30.7515459,2.36378886 32.0047143,2.36378886 C33.4541207,2.36378886 35.5025691,3.77454708 35.5025691,5.09136658 C35.5025691,7.60590472 36.9519754,8.5 38.3015415,8.5 C39.8077535,8.59058376 41.007559,9.75978528 41.1005138,11.2275777 L41.1005138,12.5913666 Z M38.3015415,7.13621114 C37.3857645,7.13621114 36.9037767,6.45515545 36.9037767,5.09136658 C36.9037767,2.92909864 34.1667742,1 32.0047143,1 C28.8494152,1 28.5068596,2.43088794 28.5068596,3.04484455 C28.4173475,4.08823529 29.2143489,5.00413778 30.2850505,5.09136658 C30.390055,5.09975397 30.4985023,5.09975397 30.6052282,5.09136658 C32.0047143,5.09136658 32.7053181,5.77242228 32.7053181,7.13621114 C32.7913874,9.36054574 34.6194985,11.1437039 36.9037767,11.2275777 C38.3015415,11.2275777 38.3015415,11.2275777 38.3015415,12.5913666 C38.3015415,15.6661821 39.7733258,16 40.4016314,16 C42.5,16 42.5,13.5257213 42.5,12.5913666 L42.5,11.2275777 C42.4156521,9.00324312 40.5840983,7.22008499 38.3015415,7.13621114 L38.3015415,7.13621114 Z" id="Fill-13" fill="#F8E9DF"></path>
                    <path d="M41.1005138,12.5913666 C41.1005138,14.6362111 40.5909838,14.6362111 40.4016314,14.6362111 C39.9816134,14.6362111 39.702749,13.8125699 39.702749,12.5913666 C39.702749,10.4777455 39.0710006,9.86378886 36.9037767,9.86378886 C35.3975646,9.7732051 34.1960377,8.60400358 34.1048043,7.13621114 C34.1048043,5.0024603 32.7965515,3.72757772 30.6052282,3.72757772 C30.0939767,3.72757772 29.9063458,3.54305524 29.9063458,3.04484455 C29.9063458,2.54663386 30.7515459,2.36378886 32.0047143,2.36378886 C33.4541207,2.36378886 35.5025691,3.77454708 35.5025691,5.09136658 C35.5025691,7.60590472 36.9519754,8.5 38.3015415,8.5 C39.8077535,8.59058376 41.007559,9.75978528 41.1005138,11.2275777 L41.1005138,12.5913666 Z M38.3015415,7.13621114 C37.3857645,7.13621114 36.9037767,6.45515545 36.9037767,5.09136658 C36.9037767,2.92909864 34.1667742,1 32.0047143,1 C28.8494152,1 28.5068596,2.43088794 28.5068596,3.04484455 C28.4173475,4.08823529 29.2143489,5.00413778 30.2850505,5.09136658 C30.390055,5.09975397 30.4985023,5.09975397 30.6052282,5.09136658 C32.0047143,5.09136658 32.7053181,5.77242228 32.7053181,7.13621114 C32.7913874,9.36054574 34.6194985,11.1437039 36.9037767,11.2275777 C38.3015415,11.2275777 38.3015415,11.2275777 38.3015415,12.5913666 C38.3015415,15.6661821 39.7733258,16 40.4016314,16 C42.5,16 42.5,13.5257213 42.5,12.5913666 L42.5,11.2275777 C42.4156521,9.00324312 40.5840983,7.22008499 38.3015415,7.13621114 Z" id="Stroke-15" stroke="#F8E9DF" stroke-width="0.3"></path>
                    <path d="M23.0160742,19.5302659 C23.144058,19.3837905 23.3221975,19.2843965 23.5141732,19.2547527 C23.7078784,19.2826527 23.886018,19.3820467 24.0140018,19.5302659 C25.5688318,21.1031323 27.4315146,21.1031323 28.9846151,19.5302659 C30.119174,18.5171446 31.8279304,18.5171446 32.9624894,19.5302659 C34.5034833,21.090926 35.3959107,21.090926 36.9351751,19.5302659 C37.331233,19.0768897 37.825873,18.7176763 38.3758574,18.4805257 C38.7425136,18.3619504 38.8532023,18.4805257 38.9102762,18.5310946 C39.055555,18.6409511 39.1091699,18.8379954 39.0382599,19.0053958 C38.7926694,19.600016 38.4139066,20.1301174 37.9331027,20.5503622 L36.9697653,21.5355834 C35.8369359,22.5487047 34.1316385,22.5487047 32.9970796,21.5355834 C32.0354717,20.573031 30.3543875,20.189405 28.5211063,22.0395284 C27.5646869,23.0038246 25.0741917,22.5713735 24.0503215,21.5355834 C23.5937307,21.1327762 23.235722,20.6323186 23.0005086,20.069086 C22.8465821,19.7081288 22.9676479,19.5878098 23.0160742,19.5302659 M23.0160742,22.5364984 C24.0606986,23.4868446 25.4200938,24.0064834 26.8261859,23.9960209 C27.8033594,24.0413585 28.7563197,23.6978389 29.4827141,23.0386997 C30.4529696,22.0604535 31.3177248,21.8843343 31.9645618,22.5364984 C33.645646,24.1145962 36.2520184,24.1145962 37.9331027,22.5364984 L38.9241122,21.5355834 C39.6262935,20.8276191 41.4146074,19.0350396 39.9220398,17.5249483 C39.3997276,17.0122845 38.6231774,16.8605779 37.9486683,17.1343473 C37.1790361,17.4447356 36.4941499,17.9294993 35.9441656,18.5520197 C34.9514265,19.5511909 34.9514265,19.5599097 33.9534989,18.5520197 C32.2724147,16.9826407 29.6746898,16.9826407 27.9936056,18.5520197 C26.9870304,19.5668847 26.0098569,19.5668847 25.0050113,18.5520197 C24.3062891,17.7219926 23.073148,17.6208548 22.2516305,18.3253316 C22.168614,18.393338 22.0942451,18.4700632 22.0250646,18.5520197 C21.5165885,19.0768897 21.3609326,19.8563479 21.6307362,20.5364122 C21.9403186,21.2984328 22.412475,21.9802408 23.0160742,22.5364984" id="Fill-17" fill="#F8E9DF"></path>
                    <path d="M23.0160742,19.5302659 C23.144058,19.3837905 23.3221975,19.2843965 23.5141732,19.2547527 C23.7078784,19.2826527 23.886018,19.3820467 24.0140018,19.5302659 C25.5688318,21.1031323 27.4315146,21.1031323 28.9846151,19.5302659 C30.119174,18.5171446 31.8279304,18.5171446 32.9624894,19.5302659 C34.5034833,21.090926 35.3959107,21.090926 36.9351751,19.5302659 C37.331233,19.0768897 37.825873,18.7176763 38.3758574,18.4805257 C38.7425136,18.3619504 38.8532023,18.4805257 38.9102762,18.5310946 C39.055555,18.6409511 39.1091699,18.8379954 39.0382599,19.0053958 C38.7926694,19.600016 38.4139066,20.1301174 37.9331027,20.5503622 L36.9697653,21.5355834 C35.8369359,22.5487047 34.1316385,22.5487047 32.9970796,21.5355834 C32.0354717,20.573031 30.3543875,20.189405 28.5211063,22.0395284 C27.5646869,23.0038246 25.0741917,22.5713735 24.0503215,21.5355834 C23.5937307,21.1327762 23.235722,20.6323186 23.0005086,20.069086 C22.8465821,19.7081288 22.9676479,19.5878098 23.0160742,19.5302659 Z M23.0160742,22.5364984 C24.0606986,23.4868446 25.4200938,24.0064834 26.8261859,23.9960209 C27.8033594,24.0413585 28.7563197,23.6978389 29.4827141,23.0386997 C30.4529696,22.0604535 31.3177248,21.8843343 31.9645618,22.5364984 C33.645646,24.1145962 36.2520184,24.1145962 37.9331027,22.5364984 L38.9241122,21.5355834 C39.6262935,20.8276191 41.4146074,19.0350396 39.9220398,17.5249483 C39.3997276,17.0122845 38.6231774,16.8605779 37.9486683,17.1343473 C37.1790361,17.4447356 36.4941499,17.9294993 35.9441656,18.5520197 C34.9514265,19.5511909 34.9514265,19.5599097 33.9534989,18.5520197 C32.2724147,16.9826407 29.6746898,16.9826407 27.9936056,18.5520197 C26.9870304,19.5668847 26.0098569,19.5668847 25.0050113,18.5520197 C24.3062891,17.7219926 23.073148,17.6208548 22.2516305,18.3253316 C22.168614,18.393338 22.0942451,18.4700632 22.0250646,18.5520197 C21.5165885,19.0768897 21.3609326,19.8563479 21.6307362,20.5364122 C21.9403186,21.2984328 22.412475,21.9802408 23.0160742,22.5364984 Z" id="Stroke-19" stroke="#F8E9DF" stroke-width="0.3"></path>
                    <path d="M3.5446159,1.40598199 C4.04277088,1.40598199 4.22727273,1.59361839 4.22727273,2.10488457 C4.22727273,4.29627125 5.50201275,5.6045618 7.63552499,5.6045618 C9.10147601,5.69751929 10.2739014,6.89735944 10.3627977,8.40189358 C10.3627977,10.572623 10.9766857,11.2009468 13.0900704,11.2009468 C14.3111372,11.2009468 15.1346863,11.4815407 15.1346863,11.9015708 C15.1346863,12.0909287 15.1346863,12.6004734 13.0900704,12.6004734 L11.7264341,12.6004734 C10.2588058,12.5092373 9.08973499,11.3076758 8.99916136,9.80142018 C8.99916136,8.45181519 8.10684334,7.00408841 5.59090909,7.00408841 C4.27591412,7.00408841 2.86363636,4.9538594 2.86363636,3.50441118 C2.86363636,2.25292798 3.13703455,1.40598199 3.5446159,1.40598199 M5.59090909,8.40189358 C6.95454545,8.40189358 7.63552499,8.8856168 7.63552499,9.80142018 C7.71938947,12.0840429 9.50402549,13.9156497 11.7264341,14 L13.0900704,14 C14.0243207,14 16.5,14 16.5,11.9015708 C16.5,11.2715256 16.1645421,9.80142018 13.0900704,9.80142018 C11.7264341,9.80142018 11.7264341,9.80142018 11.7264341,8.40189358 C11.6425696,6.12099228 9.85961087,4.29110694 7.63552499,4.2050352 C6.27188863,4.2050352 5.59090909,3.50441118 5.59090909,2.10488457 C5.67645086,1.03415204 4.90154311,0.0942485629 3.85826904,0.00645538102 C3.75427709,-0.00215179367 3.64860785,-0.00215179367 3.5446159,0.00645538102 C2.93240523,0.00645538102 1.5,0.349020934 1.5,3.50441118 C1.5,5.6682549 3.43056021,8.40189358 5.59090909,8.40189358" id="Fill-21" fill="#F8E9DF"></path>
                    <path d="M3.5446159,1.40598199 C4.04277088,1.40598199 4.22727273,1.59361839 4.22727273,2.10488457 C4.22727273,4.29627125 5.50201275,5.6045618 7.63552499,5.6045618 C9.10147601,5.69751929 10.2739014,6.89735944 10.3627977,8.40189358 C10.3627977,10.572623 10.9766857,11.2009468 13.0900704,11.2009468 C14.3111372,11.2009468 15.1346863,11.4815407 15.1346863,11.9015708 C15.1346863,12.0909287 15.1346863,12.6004734 13.0900704,12.6004734 L11.7264341,12.6004734 C10.2588058,12.5092373 9.08973499,11.3076758 8.99916136,9.80142018 C8.99916136,8.45181519 8.10684334,7.00408841 5.59090909,7.00408841 C4.27591412,7.00408841 2.86363636,4.9538594 2.86363636,3.50441118 C2.86363636,2.25292798 3.13703455,1.40598199 3.5446159,1.40598199 Z M5.59090909,8.40189358 C6.95454545,8.40189358 7.63552499,8.8856168 7.63552499,9.80142018 C7.71938947,12.0840429 9.50402549,13.9156497 11.7264341,14 L13.0900704,14 C14.0243207,14 16.5,14 16.5,11.9015708 C16.5,11.2715256 16.1645421,9.80142018 13.0900704,9.80142018 C11.7264341,9.80142018 11.7264341,9.80142018 11.7264341,8.40189358 C11.6425696,6.12099228 9.85961087,4.29110694 7.63552499,4.2050352 C6.27188863,4.2050352 5.59090909,3.50441118 5.59090909,2.10488457 C5.67645086,1.03415204 4.90154311,0.0942485629 3.85826904,0.00645538102 C3.75427709,-0.00215179367 3.64860785,-0.00215179367 3.5446159,0.00645538102 C2.93240523,0.00645538102 1.5,0.349020934 1.5,3.50441118 C1.5,5.6682549 3.43056021,8.40189358 5.59090909,8.40189358 Z" id="Stroke-23" stroke="#F8E9DF" stroke-width="0.3"></path>
                    <path d="M18.9314561,39.4957724 L18.9314561,39.4957724 C18.8708278,39.5680535 18.7790191,39.6059151 18.6837459,39.6007522 C18.5365056,39.6007522 17.9804567,39.5233081 16.9515065,38.487278 C16.2135725,37.7455356 15.6488625,37.3118487 14.9525022,37.3118487 C14.256142,37.3118487 13.6983609,37.7455356 12.9604269,38.487278 C12.4286294,38.9863623 11.7218757,39.2599981 10.9891384,39.2496722 C10.2494722,39.265161 9.53405734,38.9915252 8.99706312,38.487278 C7.84339167,37.1208199 5.79068797,36.9418379 4.41355763,38.0897316 C4.26804952,38.2102003 4.13293485,38.3427157 4.01167809,38.487278 C3.88522461,38.6370033 3.71200067,38.7385411 3.5197221,38.7677978 C3.3222468,38.7385411 3.14555838,38.6370033 3.01737267,38.487278 C2.70903405,38.1723387 3.1022524,37.3772459 4.01860705,36.4513586 C4.79638254,35.7715715 5.79761692,35.3981188 6.83522833,35.4032817 C7.43458317,35.3636992 8.02700905,35.55817 8.48258801,35.9471114 C9.14257123,36.7198315 10.0866417,37.19138 11.101734,37.2567773 C11.8050232,37.2464514 12.4736676,36.9573268 12.9604269,36.4513586 C14.089847,35.4377013 15.8099607,35.4377013 16.9393808,36.4513586 L17.931954,37.458132 C19.4390023,38.9777574 19.0648386,39.354652 18.9314561,39.4957724 L18.9314561,39.4957724 Z M17.938883,35.4721209 C16.2586107,33.8974242 13.6325358,33.8974242 11.9539958,35.4721209 C11.7305369,35.7130582 11.4170016,35.8524575 11.0878761,35.8576205 C10.4538765,35.7784554 9.87704074,35.4600741 9.4751612,34.9695948 C8.75628184,34.3052965 7.80008568,33.9576585 6.82137042,34.0041249 C5.4009341,33.9920781 4.03246496,34.516977 2.98965684,35.4721209 C0.758532474,37.7334888 1.5813462,39.0207819 1.99881589,39.4665157 C2.37817632,39.8915978 2.91863502,40.1445819 3.49027403,40.1669546 C4.06191303,40.1445819 4.60237173,39.8915978 4.98173216,39.4665157 C5.9812343,38.4597424 6.96861077,38.4597424 7.96811291,39.4665157 C8.77706871,40.2461197 9.86491506,40.6712018 10.9891384,40.65055 C12.1029684,40.6625969 13.1752246,40.2375148 13.9755192,39.4665157 C14.4744041,38.9622685 14.8121908,38.7127264 14.9680924,38.7127264 C15.1222617,38.7127264 15.4600484,38.9622685 15.9606656,39.4665157 C16.9463098,40.4887779 17.8695934,40.9999551 18.6785492,40.9999551 C19.1514506,41.0033509 19.6052973,40.8140431 19.9309583,40.4732891 C21.4102907,38.9777574 19.6156907,37.1604024 18.9383851,36.4806153 L17.938883,35.4721209 Z" id="Fill-25" fill="#F8E9DF"></path>
                    <path d="M18.9314561,39.4957724 L18.9314561,39.4957724 C18.8708278,39.5680535 18.7790191,39.6059151 18.6837459,39.6007522 C18.5365056,39.6007522 17.9804567,39.5233081 16.9515065,38.487278 C16.2135725,37.7455356 15.6488625,37.3118487 14.9525022,37.3118487 C14.256142,37.3118487 13.6983609,37.7455356 12.9604269,38.487278 C12.4286294,38.9863623 11.7218757,39.2599981 10.9891384,39.2496722 C10.2494722,39.265161 9.53405734,38.9915252 8.99706312,38.487278 C7.84339167,37.1208199 5.79068797,36.9418379 4.41355763,38.0897316 C4.26804952,38.2102003 4.13293485,38.3427157 4.01167809,38.487278 C3.88522461,38.6370033 3.71200067,38.7385411 3.5197221,38.7677978 C3.3222468,38.7385411 3.14555838,38.6370033 3.01737267,38.487278 C2.70903405,38.1723387 3.1022524,37.3772459 4.01860705,36.4513586 C4.79638254,35.7715715 5.79761692,35.3981188 6.83522833,35.4032817 C7.43458317,35.3636992 8.02700905,35.55817 8.48258801,35.9471114 C9.14257123,36.7198315 10.0866417,37.19138 11.101734,37.2567773 C11.8050232,37.2464514 12.4736676,36.9573268 12.9604269,36.4513586 C14.089847,35.4377013 15.8099607,35.4377013 16.9393808,36.4513586 L17.931954,37.458132 C19.4390023,38.9777574 19.0648386,39.354652 18.9314561,39.4957724 Z M17.938883,35.4721209 C16.2586107,33.8974242 13.6325358,33.8974242 11.9539958,35.4721209 C11.7305369,35.7130582 11.4170016,35.8524575 11.0878761,35.8576205 C10.4538765,35.7784554 9.87704074,35.4600741 9.4751612,34.9695948 C8.75628184,34.3052965 7.80008568,33.9576585 6.82137042,34.0041249 C5.4009341,33.9920781 4.03246496,34.516977 2.98965684,35.4721209 C0.758532474,37.7334888 1.5813462,39.0207819 1.99881589,39.4665157 C2.37817632,39.8915978 2.91863502,40.1445819 3.49027403,40.1669546 C4.06191303,40.1445819 4.60237173,39.8915978 4.98173216,39.4665157 C5.9812343,38.4597424 6.96861077,38.4597424 7.96811291,39.4665157 C8.77706871,40.2461197 9.86491506,40.6712018 10.9891384,40.65055 C12.1029684,40.6625969 13.1752246,40.2375148 13.9755192,39.4665157 C14.4744041,38.9622685 14.8121908,38.7127264 14.9680924,38.7127264 C15.1222617,38.7127264 15.4600484,38.9622685 15.9606656,39.4665157 C16.9463098,40.4887779 17.8695934,40.9999551 18.6785492,40.9999551 C19.1514506,41.0033509 19.6052973,40.8140431 19.9309583,40.4732891 C21.4102907,38.9777574 19.6156907,37.1604024 18.9383851,36.4806153 L17.938883,35.4721209 Z" id="Stroke-27" stroke="#F8E9DF" stroke-width="0.3"></path>
                    <path d="M6.16611977,14 L6.83388023,14 C7.20139459,14 7.5,14.2986054 7.5,14.6661198 L7.5,15.3338802 C7.5,15.7030353 7.20139459,16 6.83388023,16 L6.16611977,16 C5.79696473,16 5.5,15.7030353 5.5,15.3338802 L5.5,14.6661198 C5.5,14.2986054 5.79696473,14 6.16611977,14" id="Fill-29" fill="#F8E9DF"></path>
                    <path d="M6.16611977,14 L6.83388023,14 C7.20139459,14 7.5,14.2986054 7.5,14.6661198 L7.5,15.3338802 C7.5,15.7030353 7.20139459,16 6.83388023,16 L6.16611977,16 C5.79696473,16 5.5,15.7030353 5.5,15.3338802 L5.5,14.6661198 C5.5,14.2986054 5.79696473,14 6.16611977,14 Z" id="Stroke-31" stroke="#F8E9DF" stroke-width="0.3"></path>
                    <path d="M15.1661198,0 L15.8338802,0 C16.2013946,0 16.5,0.298605414 16.5,0.66611977 L16.5,1.33388023 C16.5,1.70139459 16.2013946,2 15.8338802,2 L15.1661198,2 C14.7969647,2 14.5,1.70139459 14.5,1.33388023 L14.5,0.66611977 C14.5,0.298605414 14.7969647,0 15.1661198,0" id="Fill-33" fill="#F8E9DF"></path>
                    <path d="M15.1661198,0 L15.8338802,0 C16.2013946,0 16.5,0.298605414 16.5,0.66611977 L16.5,1.33388023 C16.5,1.70139459 16.2013946,2 15.8338802,2 L15.1661198,2 C14.7969647,2 14.5,1.70139459 14.5,1.33388023 L14.5,0.66611977 C14.5,0.298605414 14.7969647,0 15.1661198,0 Z" id="Stroke-35" stroke="#F8E9DF" stroke-width="0.3"></path>
                    <path d="M28.1666667,6 L28.8333333,6 C29.2027915,6 29.5,6.29860541 29.5,6.66776046 L29.5,7.33388023 C29.5,7.70303527 29.2027915,8 28.8333333,8 L28.1666667,8 C27.7972085,8 27.5,7.70303527 27.5,7.33388023 L27.5,6.66776046 C27.5,6.29860541 27.7972085,6 28.1666667,6" id="Fill-37" fill="#F8E9DF"></path>
                    <path d="M28.1666667,6 L28.8333333,6 C29.2027915,6 29.5,6.29860541 29.5,6.66776046 L29.5,7.33388023 C29.5,7.70303527 29.2027915,8 28.8333333,8 L28.1666667,8 C27.7972085,8 27.5,7.70303527 27.5,7.33388023 L27.5,6.66776046 C27.5,6.29860541 27.7972085,6 28.1666667,6 Z" id="Stroke-39" stroke="#F8E9DF" stroke-width="0.3"></path>
                    <path d="M21.1661198,27 L21.8322395,27 C22.2013946,27 22.5,27.2983607 22.5,27.6655738 L22.5,28.3311475 C22.5,28.7 22.2013946,29 21.8322395,29 L21.1661198,29 C20.7969647,29 20.5,28.7 20.5,28.3311475 L20.5,27.6655738 C20.5,27.2983607 20.7969647,27 21.1661198,27" id="Fill-41" fill="#F8E9DF"></path>
                    <path d="M21.1661198,27 L21.8322395,27 C22.2013946,27 22.5,27.2983607 22.5,27.6655738 L22.5,28.3311475 C22.5,28.7 22.2013946,29 21.8322395,29 L21.1661198,29 C20.7969647,29 20.5,28.7 20.5,28.3311475 L20.5,27.6655738 C20.5,27.2983607 20.7969647,27 21.1661198,27 Z" id="Stroke-43" stroke="#F8E9DF" stroke-width="0.3"></path>
                    <path d="M21.1661198,14 L21.8338802,14 C22.2030353,14 22.5,14.2986054 22.5,14.6661198 L22.5,15.3338802 C22.5,15.7030353 22.2030353,16 21.8338802,16 L21.1661198,16 C20.7986054,16 20.5,15.7030353 20.5,15.3338802 L20.5,14.6661198 C20.5,14.2986054 20.7986054,14 21.1661198,14" id="Fill-45" fill="#F8E9DF"></path>
                    <path d="M21.1661198,14 L21.8338802,14 C22.2030353,14 22.5,14.2986054 22.5,14.6661198 L22.5,15.3338802 C22.5,15.7030353 22.2030353,16 21.8338802,16 L21.1661198,16 C20.7986054,16 20.5,15.7030353 20.5,15.3338802 L20.5,14.6661198 C20.5,14.2986054 20.7986054,14 21.1661198,14 Z" id="Stroke-47" stroke="#F8E9DF" stroke-width="0.3"></path>
                    <path d="M1.16666667,32 L1.83333333,32 C2.20279146,32 2.5,32.3 2.5,32.6672131 L2.5,33.3327869 C2.5,33.7016393 2.20279146,34 1.83333333,34 L1.16666667,34 C0.797208539,34 0.5,33.7016393 0.5,33.3327869 L0.5,32.6672131 C0.5,32.3 0.797208539,32 1.16666667,32" id="Fill-49" fill="#F8E9DF"></path>
                    <path d="M1.16666667,32 L1.83333333,32 C2.20279146,32 2.5,32.3 2.5,32.6672131 L2.5,33.3327869 C2.5,33.7016393 2.20279146,34 1.83333333,34 L1.16666667,34 C0.797208539,34 0.5,33.7016393 0.5,33.3327869 L0.5,32.6672131 C0.5,32.3 0.797208539,32 1.16666667,32 Z" id="Stroke-51" stroke="#F8E9DF" stroke-width="0.3"></path>
                    <path d="M41.1661198,0 L41.8338802,0 C42.2030353,0 42.5,0.298605414 42.5,0.66611977 L42.5,1.33388023 C42.5,1.70139459 42.2030353,2 41.8338802,2 L41.1661198,2 C40.7986054,2 40.5,1.70139459 40.5,1.33388023 L40.5,0.66611977 C40.5,0.298605414 40.7986054,0 41.1661198,0" id="Fill-53" fill="#F8E9DF"></path>
                    <path d="M41.1661198,0 L41.8338802,0 C42.2030353,0 42.5,0.298605414 42.5,0.66611977 L42.5,1.33388023 C42.5,1.70139459 42.2030353,2 41.8338802,2 L41.1661198,2 C40.7986054,2 40.5,1.70139459 40.5,1.33388023 L40.5,0.66611977 C40.5,0.298605414 40.7986054,0 41.1661198,0 Z" id="Stroke-55" stroke="#F8E9DF" stroke-width="0.3"></path>
                </g>
            </g>
        </g>
    </g>
</svg>