<?xml version="1.0" encoding="UTF-8"?>
<svg width="46px" height="44px" viewBox="0 0 46 44" version="1.1" xmlns="http://www.w3.org/2000/svg" xmlns:xlink="http://www.w3.org/1999/xlink">
    <!-- Generator: Sketch 61.1 (89650) - https://sketch.com -->
    <title>Group 6</title>
    <desc>Created with Sketch.</desc>
    <defs>
        <polygon id="path-1" points="0.661984455 0.934 49.6619845 0.934 49.6619845 47.934 0.661984455 47.934"></polygon>
    </defs>
    <g id="Page-1" stroke="none" stroke-width="1" fill="none" fill-rule="evenodd">
        <g id="Group-6" transform="translate(-2.000000, -2.000000)">
            <path d="M5.772,38.1694 L14.872,36.4404 C15.14,36.3904 15.316,36.1304 15.266,35.8614 C15.215,35.5934 14.96,35.4144 14.687,35.4684 L6.913,36.9434 C9.065,36.0064 12.152,34.8724 16.202,33.8854 L16.541,35.5274 C16.7,36.3034 17.393,36.8424 18.159,36.8374 C18.26,36.8364 18.362,36.8254 18.464,36.8064 C19.301,36.6424 19.877,35.8494 19.776,35.0014 L19.555,33.1524 C20.293,33.0094 21.043,32.8754 21.798,32.7514 L22.796,33.7284 C22.829,33.7604 22.866,33.7834 22.901,33.8124 L20.637,34.2684 C20.369,34.3214 20.195,34.5834 20.25,34.8524 C20.297,35.0884 20.505,35.2504 20.737,35.2494 C20.769,35.2494 20.801,35.2454 20.833,35.2394 L29.675,33.4564 C29.943,33.4024 30.117,33.1414 30.063,32.8734 C30.008,32.6054 29.746,32.4304 29.479,32.4854 L25.447,33.2984 C25.555,33.0904 25.621,32.8604 25.633,32.6184 C25.64,32.4844 25.626,32.3554 25.603,32.2274 C26.528,32.1204 27.465,32.0244 28.405,31.9474 C29.051,31.8954 29.71,31.9514 30.363,32.1164 L35.177,33.3064 C31.861,35.2194 19,39.7404 5.772,38.1694 L5.772,38.1694 Z M12.125,33.1204 C12.676,31.1044 14.139,25.7464 14.793,25.2484 C15.13,25.0164 16.554,25.0264 18.969,25.5154 L17.084,26.0364 C15.756,26.4044 14.935,27.7484 15.214,29.0974 L16.001,32.9144 C14.495,33.2804 13.116,33.6674 11.868,34.0584 C11.945,33.7804 12.03,33.4674 12.125,33.1204 L12.125,33.1204 Z M9.96,33.9754 C10.185,32.8794 10.497,31.0654 10.799,29.3114 C11.133,27.3694 11.479,25.3634 11.651,24.6734 C12.07,22.9884 13.099,20.9234 15.615,20.6504 C17.689,20.4284 22.971,21.1464 24.968,22.0894 C26.071,22.6094 26.746,23.5734 26.729,24.6054 C26.715,25.4804 26.203,26.1994 25.325,26.5794 C24.429,26.9684 22.925,27.3774 21.552,27.7084 C21.473,27.7054 21.396,27.7284 21.322,27.7634 C19.789,28.1274 18.475,28.3844 18.45,28.3904 L18.004,28.4784 L18.535,32.8494 L18.535,32.8514 L18.535,32.8524 L18.799,35.1194 C18.84,35.4554 18.608,35.7704 18.276,35.8344 C17.928,35.9024 17.584,35.6764 17.512,35.3284 L16.185,28.8984 C16.011,28.0584 16.522,27.2204 17.349,26.9914 L20.735,26.0544 C21,25.9814 21.182,25.7384 21.178,25.4644 C21.173,25.1904 20.985,24.9554 20.72,24.8924 C19.083,24.4924 17.136,24.1074 15.744,24.1164 C15.085,24.1204 14.549,24.2134 14.23,24.4344 C13.442,24.9774 12.547,27.8154 11.169,32.8604 C11.027,33.3774 10.904,33.8304 10.804,34.1804 C10.747,34.3844 10.548,34.5174 10.339,34.4934 C10.215,34.4804 10.106,34.4164 10.033,34.3164 C9.961,34.2174 9.935,34.0964 9.96,33.9754 L9.96,33.9754 Z M19.203,30.2134 L20.923,31.8964 C20.423,31.9824 19.929,32.0724 19.438,32.1674 L19.203,30.2134 Z M24.463,32.0694 C24.59,32.2054 24.654,32.3824 24.645,32.5674 C24.636,32.7544 24.553,32.9234 24.413,33.0454 C24.147,33.2784 23.742,33.2674 23.489,33.0204 L19.558,29.1744 C20.046,29.0714 20.684,28.9324 21.383,28.7684 L24.463,32.0694 Z M36.152,33.1874 C36.097,32.7924 35.812,32.4744 35.424,32.3764 L30.607,31.1564 C29.848,30.9654 29.081,30.8984 28.325,30.9604 C27.238,31.0494 26.152,31.1604 25.088,31.2874 L22.487,28.4974 C23.692,28.1904 24.916,27.8364 25.718,27.4884 C26.951,26.9544 27.7,25.8834 27.72,24.6204 C27.744,23.1964 26.851,21.8824 25.392,21.1924 C23.173,20.1454 17.768,19.4194 15.509,19.6654 C13.103,19.9264 11.391,21.6194 10.689,24.4334 C10.508,25.1594 10.175,27.0944 9.823,29.1424 C9.522,30.8894 9.211,32.6954 8.989,33.7754 C8.909,34.1674 8.998,34.5764 9.233,34.8984 C9.244,34.9134 9.257,34.9244 9.268,34.9374 C6.735,35.8634 4.937,36.7354 3.861,37.3144 C3.525,37.4934 3.35,37.8554 3.414,38.2324 C3.479,38.6094 3.765,38.8914 4.142,38.9484 C6.684,39.3404 9.227,39.4984 11.708,39.4824 C22.883,39.4144 32.792,35.8264 35.674,34.1644 C36.019,33.9654 36.207,33.5814 36.152,33.1874 L36.152,33.1874 Z M9.984,20.8274 C9.048,20.8334 8.282,20.0764 8.27597534,19.1424 C8.271,18.2054 9.027,17.4404 9.963,17.4344 C10.899,17.4284 11.665,18.1854 11.67,19.1204 C11.676,20.0564 10.919,20.8214 9.984,20.8274 L9.984,20.8274 Z M9.957,16.4423602 C8.475,16.4524 7.276,17.6654 7.286,19.1484 C7.294,20.6304 8.508,21.8274 9.99,21.8184504 C11.472,21.8104 12.67,20.5964 12.6620398,19.1144 C12.652,17.6334 11.439,16.4344 9.957,16.4423602 L9.957,16.4423602 Z" id="Fill-1" stroke="#F8E9DF" stroke-width="0.5" fill="#F8E9DF"></path>
            <g id="Group-5" transform="translate(0.000000, 0.066200)">
                <mask id="mask-2" fill="white">
                    <use xlink:href="#path-1"></use>
                </mask>
                <g id="Clip-4"></g>
                <path d="M34.4742,27.7995 C34.6182,27.5675 34.5472,27.2645 34.3162,27.1195 C34.0852,26.9735 33.7802,27.0435 33.6342,27.2745 C33.6242,27.2875 32.7242,28.6725 30.4342,29.5015 C30.1772,29.5955 30.0442,29.8795 30.1382,30.1365 C30.2112,30.3385 30.4032,30.4645 30.6062,30.4625235 C30.6612,30.4625235 30.7182,30.4525 30.7722,30.4335 C33.4062,29.4795 34.4322,27.8675 34.4742,27.7995 M33.2832,30.9415261 C33.3472,30.9415261 33.4122,30.9285 33.4742,30.9025 C36.2562,29.7115 37.5462,26.6495 37.6002,26.5195 C37.7042,26.2665 37.5842,25.9775 37.3302,25.8725 C37.0792,25.7665 36.7882,25.8875 36.6842,26.1415 C36.6732,26.1695 35.4992,28.9575 33.0852,29.9905 C32.8332,30.0985 32.7172,30.3895 32.8242,30.6415 C32.9052,30.8305 33.0892,30.9435 33.2832,30.9415261 M36.0892,31.3035109 C36.1922,31.3035109 36.2942,31.2715 36.3832,31.2045 C39.4542,28.9065 40.2642,25.1655 40.2972,25.0075 C40.3532,24.7395 40.1812,24.4775 39.9132,24.4215 C39.6472,24.3645 39.3822,24.5365 39.3272,24.8055 C39.3192,24.8405 38.5642,28.3355 35.7882,30.4105 C35.5712,30.5755 35.5252,30.8865 35.6892,31.1055 C35.7872,31.2365 35.9382,31.3045 36.0892,31.3035109 M3.5952,11.9985 C3.8412,12.1415 4.1202,12.1525 4.4012,12.0825 C4.4292,12.3655 4.5712,12.7545 5.0792,13.0425 C5.8022,13.4525 6.7922,13.1075 7.7322,12.5305 C7.7012,12.8935 7.7822,13.2495 8.0332,13.5755 C8.3152,13.9455 8.6712,14.0985 9.0822,14.0955432 C10.1032,14.0895 11.4622,13.1225 12.8782,12.1165 C13.5132,11.6655 14.1612,11.2055 14.7522,10.8525 C14.7142,11.1645 14.7772,11.4205 14.8482,11.5965 C15.1302,12.2965 15.9372,12.7445 16.9052,12.7385 C17.4352,12.7365 18.0412,12.4335 18.8802,12.0135 C20.7322,11.0885 23.5292,9.6915 27.9142,10.2045 C28.1812,10.2365 28.4322,10.0415 28.4642,9.7695 C28.4952,9.4985 28.3012,9.2525 28.0292,9.2195 C23.3522,8.6715 20.2752,10.2095 18.4372,11.1275 C17.7722,11.4595 17.1982,11.7455 16.8992,11.7475 C16.3572,11.7515 15.8922,11.5365 15.7672,11.2265 C15.6532,10.9445 15.8332,10.5495 16.2582,10.1455 C16.4212,9.9915 16.4592,9.7475 16.3532,9.5505 C16.2462,9.3535 16.0232,9.2535 15.8032,9.3035 C14.7862,9.5455 13.5242,10.4425 12.3052,11.3095 C11.0042,12.2345 9.2232,13.4985 8.8192,12.9735 C8.4982,12.5535 9.0142,11.7505 9.5982,11.0965 C9.9952,10.7375 10.2972,10.4305 10.4472,10.2745 C10.6282,10.0855 10.6312,9.7875 10.4532,9.5945 C10.2762,9.4035 9.9792,9.3825 9.7752,9.5485 C9.6712,9.6335 9.2932,9.9525 8.8902,10.3965 C7.6492,11.5015 6.1412,12.5025 5.5692,12.1805 C5.3942,12.0815 5.3902,12.0075 5.3882,11.9835 C5.3742,11.8035 5.5512,11.5255 5.7782,11.2675 C5.9912,11.0825 6.1732,10.9015 6.3052,10.7635 C6.4842,10.5755 6.4882,10.2795 6.3132,10.0875 C6.1382,9.8945 5.8442,9.8695 5.6402,10.0295 C5.5542,10.0975 5.3312,10.2775 5.0992,10.5305 C4.6662,10.8935 4.2442,11.1535 4.0922,11.1295 C3.9952,11.0725 3.9932,11.0245 3.9922,10.9885 C3.9742,10.4615 5.1582,9.2375 5.9332,8.7175 C8.5002,6.9955 15.7662,3.8895 24.9142,3.8345 C24.9172,3.8335 24.9202,3.8335 24.9232,3.8335 C25.1932,3.8325 25.4122,3.6615 25.4162,3.3915 C25.4192,3.1175 25.2002,2.9405 24.9272,2.9365 C15.5462,2.8225 8.0382,6.1605 5.3812,7.9415 C5.3562,7.9585 2.9552,9.6575 3.0002,11.0455 C3.0152,11.4455 3.2242,11.7845 3.5952,11.9985 M40.5292,30.0845 C40.6102,30.1355 40.7012,30.1575 40.7882,30.1565325 C40.9542,30.1555 41.1172,30.0715 41.2092,29.9195 C43.2112,26.6345 43.8442,23.1825 43.0372,19.9355 C41.8312,15.0765 37.5912,11.3775 31.4052,9.7875 C31.1432,9.7205 30.8702,9.8785 30.8022,10.1435 C30.7332,10.4085 30.8932,10.6785 31.1582,10.7465 C36.9802,12.2435 40.9602,15.6805 42.0772,20.1745 C42.8172,23.1585 42.2252,26.3505 40.3642,29.4035 C40.2212,29.6375 40.2952,29.9435 40.5292,30.0845 M31.8762,37.1365 C30.3502,37.9235 26.1692,39.4235 22.8522,40.2705 C22.5872,40.3375 22.4052,40.5705 22.4532,40.8395 C22.4972,41.0795 22.7072,41.2445 22.9432,41.242518 C22.9722,41.242518 23.0012,41.2395 23.0292,41.2345 C25.2712,40.7705 30.5372,39.0125 32.3492,38.0275 C32.5892,37.8965 32.6792,37.5855 32.5482,37.3455 C32.4172,37.1055 32.1192,37.0115 31.8762,37.1365 M13.3612,7.8885 C13.1032,7.9775 12.9652,8.2595 13.0552,8.5175 C13.1442,8.7775 13.4262,8.9155 13.6842,8.8245 C14.7182,8.4685 15.7862,8.1535 16.8572,7.8875 C23.6062,6.2115 30.4012,6.4745 35.9902,8.6265 C41.5182,10.7555 45.1972,14.4805 46.3462,19.1135 C46.4932,19.7005 46.5972,20.3055 46.6582,20.9115 C46.6832,21.1685 46.9002,21.3605 47.1532,21.3585155 C47.1682,21.3585155 47.1842,21.3585155 47.2002,21.3565 C47.4722,21.3295 47.6702,21.0865 47.6432,20.8145 C47.5782,20.1605 47.4652,19.5085 47.3072,18.8755 C46.0782,13.9195 42.1842,9.9515 36.3462,7.7025 C30.5692,5.4775 23.5632,5.2005 16.6182,6.9255 C15.5182,7.1985 14.4232,7.5225 13.3612,7.8885 M47.6602,23.4005 C46.8902,32.3995 37.8892,40.8315 25.7722,43.8405 C22.8862,44.5575 19.9702,44.9825 17.1032,44.9995112 L17.1022,44.9995112 C16.8292,45.0015 16.6062,44.7355 16.6031865,44.4615 C16.6012,44.1875 16.8212,43.9415 17.0952,43.9395 C19.8842,43.9175 22.7232,43.5405 25.5332,42.8425 C37.2452,39.9355 45.9382,31.9035 46.6722,23.3205 C46.6962,23.0475 46.9332,22.8425 47.2082,22.8655 C47.4812,22.8895 47.6832,23.1275 47.6602,23.4005" id="Fill-3" stroke="#F8E9DF" stroke-width="0.5" fill="#F8E9DF" mask="url(#mask-2)"></path>
            </g>
        </g>
    </g>
</svg>