<?xml version="1.0" encoding="UTF-8"?>
<svg width="52px" height="40px" viewBox="0 0 52 40" version="1.1" xmlns="http://www.w3.org/2000/svg" xmlns:xlink="http://www.w3.org/1999/xlink">
    <!-- Generator: Sketch 61.1 (89650) - https://sketch.com -->
    <title>Group 25</title>
    <desc>Created with Sketch.</desc>
    <defs>
        <polygon id="path-1" points="0.0527101893 0.357903846 47.7522353 0.357903846 47.7522353 36.8506933 0.0527101893 36.8506933"></polygon>
        <polygon id="path-3" points="0.444970873 0.279541997 8.44497087 0.279541997 8.44497087 10.279542 0.444970873 10.279542"></polygon>
    </defs>
    <g id="Page-1" stroke="none" stroke-width="1" fill="none" fill-rule="evenodd">
        <g id="Group-25" transform="translate(1.000000, 0.000000)">
            <g id="Group-3" transform="translate(3.000000, 0.531915)">
                <mask id="mask-2" fill="white">
                    <use xlink:href="#path-1"></use>
                </mask>
                <g id="Clip-2"></g>
                <path d="M43.3648235,35.7733788 C43.1156471,35.4887635 43.3422353,34.8433981 43.6528235,34.795725 C43.7798824,34.7758019 43.8829412,34.6811673 43.9147059,34.5559365 C44.1081176,33.7945904 43.0683529,32.9172635 42.5862353,32.5799942 C41.4158824,31.7588788 39.3074118,31.5824173 38.5845882,31.3853212 C36.9652941,30.9427442 34.0648235,30.8666096 32.3749412,31.1981865 C24.1612941,32.8155135 18.9575294,31.3476096 15.5382353,29.8825519 C14.0071765,29.2265135 11.6961176,27.4298788 11.2845882,27.1893788 C9.30741176,26.0295712 6.65329412,26.5888404 6.13729412,28.5114173 C5.74270588,29.9793212 6.27776471,30.9555519 5.91917647,31.5994942 C5.42717647,32.4825135 4.39941176,32.2754558 3.60670588,31.7844942 C2.94529412,31.3746481 2.52176471,30.5819942 2.43,29.347475 C2.35658824,28.366975 2.60788235,27.1765712 3.09423529,26.3326865 C3.55094118,25.5393212 4.43329412,24.8939558 5.17658824,24.5196865 L5.21258824,24.5018981 C5.274,24.4713019 5.32411765,24.4214942 5.35658824,24.3588788 C5.41941176,24.2357827 5.39611765,24.1048596 5.32411765,24.0123596 L5.22035294,23.9333788 L5.17164706,23.8721865 C4.45588235,23.4153788 2.69117647,21.2523019 2.16741176,20.0796865 C1.57658824,18.8899942 0.800117647,16.3796865 0.757058824,15.185725 C0.402705882,10.6105327 1.63164706,7.52957115 3.40058824,4.99862885 C3.70270588,4.56601346 4.72764706,3.46455192 5.82388235,2.51251346 C7.02952941,1.46512885 7.98882353,0.895898077 8.31635294,1.00974423 C9.16129412,1.30360962 8.346,2.69537885 8.71376471,3.937725 C8.74764706,4.05441731 8.84364706,4.14051346 8.96152941,4.16399423 C9.79164706,4.32124423 12.5537647,5.63545577 13.2857647,5.49243654 C13.3125882,5.48745577 13.3387059,5.47820577 13.3634118,5.46682115 C13.8172941,5.24695577 15.5396471,4.47209038 17.0043529,4.06010962 C17.7547059,3.84878269 18.3667059,3.75414808 18.7104706,3.82530192 C18.8742353,3.85803269 19.0309412,3.88435962 18.8142353,4.38030192 C18.0102353,6.21535962 16.9782353,9.03589808 18.2198824,11.5419365 C18.9730588,13.0610712 20.5012941,15.6496481 21.8438824,16.7809942 C23.2824706,17.9941673 25.002,19.7153788 26.9572941,20.6325519 C29.4716471,21.8122827 32.5175294,22.5359173 35.0777647,22.5359173 C36.7372941,22.5359173 40.5285882,21.5233981 40.3210588,18.7441288 C40.1707059,16.7141096 38.5245882,15.0327442 35.1208235,13.8708019 C32.8267059,13.0873981 29.9071765,11.3768596 30.8763529,8.73064808 C31.0154118,8.35210962 31.7601176,8.02693654 32.202,8.19628269 C32.6502353,8.36776346 32.7688235,9.40162885 32.9092941,9.86128269 C33.2269412,10.902975 35.2450588,11.6771288 36.7669412,12.2449365 C38.274,12.8063404 39.3794118,13.6046865 40.8716471,14.9046673 C43.0005882,16.7603596 42.9956471,20.2340904 41.5471765,22.1367442 C40.7897647,23.1321865 39.0285882,23.899225 37.9217647,24.5289365 C37.71,24.648475 37.7029412,24.953725 37.9083529,25.0839365 C38.9050588,25.7164942 40.4544706,26.424475 41.2994118,27.1153788 C42.9871765,28.4929173 47.5965882,32.0498981 47.0735294,34.2805712 C46.6775294,35.9654942 44.1871765,36.7154558 43.3648235,35.7733788 M47.6982353,34.4292827 C48.3476471,31.6649558 42.9532941,27.6326673 41.7045882,26.6130327 C41.0551765,26.082225 39.9151765,25.4838212 39.0271765,24.9900135 L38.7412941,24.8228019 L39.126,24.6171673 C40.1347059,24.084225 41.4095294,23.381225 42.0575294,22.5295135 C43.6831765,20.3927635 43.7121176,16.5255519 41.2923529,14.4158404 C39.7789412,13.0966481 38.6043529,12.2392442 36.9907059,11.6387058 C35.2711765,10.9976096 33.7224706,10.3237827 33.5241176,9.67201346 C33.4937647,9.57310962 33.2692941,7.91309038 32.4307059,7.59218654 C31.6994118,7.31184038 30.5523529,7.74659038 30.2735294,8.507225 C29.0544706,11.837225 32.7744706,13.7526865 34.9147059,14.4834365 C38.2358824,15.6169173 39.5587059,17.1573981 39.6801176,18.793225 C39.8347059,20.8638019 36.8107059,21.8884173 35.0777647,21.8884173 C32.6205882,21.8884173 29.6678824,21.1903981 27.2290588,20.0462442 C25.3754118,19.1767442 23.7610588,17.553725 22.2561176,16.2857635 C21.0264706,15.2483404 19.5476471,12.771475 18.7951765,11.2537635 C17.7010588,9.04585962 18.5904706,6.49499423 19.4022353,4.64143654 C19.7262353,3.900725 19.5342353,3.33505192 18.8396471,3.19132115 C18.3250588,3.08530192 17.5718824,3.22832115 16.8314118,3.43680192 C15.5036471,3.81107115 13.9888235,4.46568654 13.3182353,4.77449423 L13.1438824,4.85632115 L12.894,4.834975 C12.1845882,4.68341731 10.5342353,3.95409038 9.52552941,3.64314808 L9.30741176,3.58693654 L9.27988235,3.37987885 C9.258,2.40934038 9.78105882,0.834705769 8.526,0.398532692 C7.14035294,-0.0831788462 3.438,3.82103269 2.87470588,4.62720577 C1.02952941,7.26630192 -0.250941176,10.4945519 0.115411765,15.222725 C0.162,16.526975 0.977294118,19.1304942 1.58647059,20.3571865 C2.07352941,21.4465519 3.54105882,23.3243019 4.46788235,24.139725 L4.49964706,24.1653404 L4.26317647,24.3005327 C3.61658824,24.7160712 2.94811765,25.2973981 2.53870588,26.008225 C1.98247059,26.9730712 1.70717647,28.2936865 1.78905882,29.3958596 C1.89,30.7484942 2.36929412,31.7773788 3.26929412,32.3345135 C4.05211765,32.8190712 5.66788235,33.3733596 6.48035294,31.9154173 C6.93282353,31.1035519 6.47470588,29.7317058 6.75776471,28.6793404 C7.11211765,27.3594365 9.15988235,26.6905904 10.9612941,27.7486481 C11.1998824,27.8881096 13.7347059,29.8121096 15.2869412,30.4781096 C18.8071765,31.9858596 24.1415294,33.4779558 32.4970588,31.8335904 C34.098,31.5183788 36.8975294,31.5945135 38.4158824,32.0086288 C39.3709412,32.2697635 41.166,32.3715135 42.2191765,33.1108019 C42.6843529,33.4373981 43.0902353,33.8600519 43.2384706,34.1532058 L43.2610588,34.2542442 L43.2384706,34.2620712 C42.5770588,34.619975 42.4415294,35.6958212 42.8812941,36.2003019 C44.1836471,37.6931096 47.2330588,36.4109173 47.6982353,34.4292827" id="Fill-1" stroke="#F8E9DF" stroke-width="0.5" fill="#F8E9DF" mask="url(#mask-2)"></path>
            </g>
            <g id="Group-6" transform="translate(16.000000, 30.531915)">
                <mask id="mask-4" fill="white">
                    <use xlink:href="#path-3"></use>
                </mask>
                <g id="Clip-5"></g>
                <path d="M7.20256,6.892575 C7.51126,5.566575 7.35656,3.812325 7.17316,2.331075 C7.14936,2.141325 6.98626,2.007075 6.80916,2.033325 C6.63206,2.058825 6.50676,2.232825 6.53126,2.422575 C6.86376,5.104575 7.12556,8.739825 4.36196,8.257575 C3.28116,8.069325 3.26506,7.595325 3.37286,7.169325 C3.53456,6.534825 3.94686,6.090075 4.10436,5.746575 L4.11836,5.709825 L4.13166,5.669325 C4.14006,5.643825 4.14566,5.616825 4.14846,5.589075 C4.26186,4.404825 2.63366,1.058325 1.99666,0.380325 C1.87066,0.245325 1.66556,0.246075 1.53956,0.381825 C1.41286,0.517575 1.41356,0.737325 1.54096,0.872325 C2.03446,1.398825 3.23216,3.885825 3.46736,5.091075 L3.50026,5.475075 L3.41836,5.605575 C3.23776,5.889825 2.87586,6.487575 2.74846,6.986325 C2.52586,7.858575 2.84576,8.696325 4.25836,8.943075 C6.01186,9.249075 6.87706,8.286825 7.20256,6.892575" id="Fill-4" stroke="#F8E9DF" stroke-width="0.5" fill="#F8E9DF" mask="url(#mask-4)"></path>
            </g>
            <path d="M32.0546774,38.4844489 C32.1596602,38.3815412 32.6549818,37.8555688 32.7571462,37.72217 C33.9739604,36.1473019 34.2776355,34.6501862 35.8861976,33.151546 C36.0235912,33.0250077 36.0383875,32.80166 35.9207222,32.6537779 C35.8037615,32.506658 35.5973188,32.4906502 35.4613343,32.6171885 C33.8760234,34.0937226 33.2094883,36.0367715 32.256188,37.2709009 C32.2026397,37.3417929 31.9257387,37.6390816 31.7495931,37.8250777 L31.633337,37.9447555 L30.9358002,38.4379499 C30.2622192,38.8587278 29.668256,38.9928889 28.8072561,38.5599145 C28.5916538,38.4524332 28.5395147,38.3914509 29.4096742,37.0833803 C29.9740449,36.2334394 30.7857241,34.9528109 30.0374573,33.7423121 C29.9374066,33.5799467 29.7344868,33.5372591 29.5851153,33.6455027 C29.4357438,33.7537463 29.3955826,33.9732826 29.4956333,34.1348857 C30.5398247,35.8225711 26.62305,38.2412819 28.5331734,39.2002287 C30.0311161,39.952598 30.9851209,39.2962759 32.0236757,38.5103664 L32.0546774,38.4844489 Z" id="Fill-7" stroke="#F8E9DF" stroke-width="0.5" fill="#F8E9DF"></path>
            <path d="M8.46043634,25.4927112 C9.53235483,24.9205432 10.3945361,25.2543523 11.7620227,25.0197261 C11.923359,24.9925308 12.0272596,24.8618867 11.9937017,24.7280431 C11.9601437,24.5947328 11.8020341,24.5094142 11.6406978,24.5371427 C10.6868775,24.6997813 9.29422243,24.460356 8.13711836,25.0778494 C7.99836913,25.15197 7.95835772,25.304477 8.04741537,25.4191239 C8.13711836,25.5332375 8.32233245,25.5662985 8.46043634,25.4927112" id="Fill-9" stroke="#F8E9DF" stroke-width="0.5" fill="#F8E9DF"></path>
            <path d="M14.762867,14.5219278 C14.928161,14.4737041 15.030391,14.2701833 14.9918888,14.0666626 C14.4940152,11.4576742 12.825807,11.2590576 11.2346031,11.7372087 C11.0699729,11.7862498 10.9684067,11.9914052 11.0089004,12.1941086 C11.0487303,12.396812 11.215352,12.5210495 11.3799822,12.4720084 C12.8643092,12.025734 14.0180481,12.2709397 14.3937767,14.2399413 C14.4322789,14.443462 14.5975729,14.5693343 14.762867,14.5219278" id="Fill-11" stroke="#F8E9DF" stroke-width="0.5" fill="#F8E9DF"></path>
            <path d="M8.80453644,11.4979932 C8.97628683,11.4164599 9.049037,11.2129938 8.96503681,11.0440508 C8.33878537,9.77918214 6.33853078,8.83677419 5.0882779,10.2037432 C4.96077761,10.3433048 4.97277764,10.5585234 5.11527797,10.6833943 C5.25777829,10.8082652 5.4775288,10.7965126 5.60502909,10.656951 C6.36928085,9.82178515 7.81678417,10.2823384 8.34103538,11.3408028 C8.42428557,11.5090112 8.63203604,11.5795266 8.80453644,11.4979932" id="Fill-13" stroke="#F8E9DF" stroke-width="0.5" fill="#F8E9DF"></path>
            <path d="M8.49755721,13.4541449 L8.63344704,13.6612475 L8.62383867,13.6646801 L8.49755721,13.4541449 Z M10.8797472,14.191018 C11.0170096,14.100053 11.0403442,13.9335701 10.9312206,13.8191488 C10.8227832,13.7041554 10.6230664,13.6852759 10.4851176,13.7756687 C9.71850677,14.2819829 9.42888298,13.8574799 9.07062797,13.2275908 C8.98827049,13.0811316 8.76796425,13.0307862 8.60736717,13.121179 C8.41108186,13.2310235 8.08576983,13.2704988 7.85379628,13.2109997 C7.6760414,13.1658033 7.58476186,13.0868527 7.66368778,12.8751733 C7.7151612,12.7355793 7.62182273,12.5874038 7.45436253,12.5439237 C7.28690233,12.5004436 7.10914745,12.5788222 7.05698771,12.717844 C6.85932977,13.249903 7.20317223,13.5983158 7.66780565,13.7173139 C7.87301302,13.7699477 8.10704552,13.7808177 8.33421488,13.7539287 L8.62383867,13.6646801 L8.49755721,13.4541449 C8.78718099,13.9638917 9.50437733,15.0983787 10.8797472,14.191018 L10.8797472,14.191018 Z" id="Fill-15" stroke="#F8E9DF" stroke-width="0.5" fill="#F8E9DF"></path>
            <path d="M2.96899647,11.3707219 C3.04594829,11.2310077 2.97469661,11.0640765 2.81010522,10.9987556 C2.12537655,10.7277949 1.18485433,10.4447377 0.28209551,10.5572348 C0.102541269,10.5796132 -0.022861693,10.7217466 0.00350142968,10.8747669 C0.0305770692,11.0277871 0.198018524,11.1336312 0.377572765,11.1112527 C1.07940184,11.0235534 1.87100804,11.2443138 2.53079862,11.5055974 C2.69539001,11.5709183 2.89204465,11.510436 2.96899647,11.3707219" id="Fill-17" stroke="#F8E9DF" stroke-width="0.5" fill="#F8E9DF"></path>
            <path d="M0.405691953,12.5002902 C0.73177863,12.3104312 2.17823315,12.3255843 2.65340615,12.4468088 C2.81264303,12.4887026 2.96617022,12.339846 2.99535307,12.1161154 C3.02390152,11.8923849 2.91795507,11.6775679 2.75871819,11.6365654 C2.2645129,11.5091014 0.673412921,11.4520546 0.181110856,11.7390715 C0.0313901247,11.8255331 -0.0396637816,12.0670908 0.0225083864,12.277451 C0.0840461446,12.4878112 0.255971222,12.5876432 0.405691953,12.5002902" id="Fill-19" stroke="#F8E9DF" stroke-width="0.5" fill="#F8E9DF"></path>
            <path d="M16.8789935,19.4692791 C17.0201007,19.372452 17.0407679,19.1985218 16.9253166,19.0801776 C16.4941559,18.6378809 15.0460261,17.6761844 14.411044,17.5405069 C14.2350164,17.5028519 14.0554255,17.5925067 14.0105278,17.7401381 C13.9649174,17.8877696 14.0718168,18.0389873 14.2478443,18.0766423 C14.6847063,18.1698832 16.0223735,19.0275801 16.4150504,19.4304287 C16.5305017,19.548773 16.7385991,19.5661062 16.8789935,19.4692791" id="Fill-21" stroke="#F8E9DF" stroke-width="0.5" fill="#F8E9DF"></path>
            <path d="M14.9326262,20.4408025 C15.0324592,20.3310861 15.0199053,20.1650903 14.9045295,20.0701544 C14.501611,19.7387312 14.1172244,19.0724741 13.4440994,18.5858563 C13.3221478,18.4977421 13.1487853,18.5199127 13.0567238,18.6353139 C12.9640645,18.7512836 12.9873788,18.9161425 13.1087326,19.0042567 C13.7824553,19.4920115 13.8978311,19.9376988 14.5428594,20.4680895 C14.6582352,20.5630255 14.8327933,20.5505189 14.9326262,20.4408025" id="Fill-23" stroke="#F8E9DF" stroke-width="0.5" fill="#F8E9DF"></path>
        </g>
    </g>
</svg>