<?xml version="1.0" encoding="UTF-8"?>
<svg width="39px" height="38px" viewBox="0 0 39 38" version="1.1" xmlns="http://www.w3.org/2000/svg" xmlns:xlink="http://www.w3.org/1999/xlink">
    <!-- Generator: Sketch 61.1 (89650) - https://sketch.com -->
    <title>Group 22</title>
    <desc>Created with Sketch.</desc>
    <defs>
        <polygon id="path-1" points="0 0.938776453 38.0553 0.938776453 38.0553 39 0 39"></polygon>
    </defs>
    <g id="Page-1" stroke="none" stroke-width="1" fill="none" fill-rule="evenodd">
        <g id="Group-22" transform="translate(0.000000, -1.000000)">
            <g id="Group-3" transform="translate(0.000000, 0.061600)">
                <mask id="mask-2" fill="white">
                    <use xlink:href="#path-1"></use>
                </mask>
                <g id="Clip-2"></g>
                <path d="M2.4813,27.7171 C4.7523,30.5871 9.5083,34.2891 19.0003,34.4971 L19.0103,35.2271 C19.0203,35.7301 19.2283,36.2091 19.5893,36.5591 C19.9413,36.9051 20.4153,37.0971 20.9083,37.0971 L20.9433,37.0971 C21.4483,37.0881 21.9293,36.8801 22.2813,36.5171 C22.6323,36.1561 22.8253,35.6701 22.8153,35.1671 L22.8033,34.1991 C26.0803,33.8101 29.2283,32.6931 32.0163,30.9291 C31.9763,32.7001 31.8893,34.4091 31.8223,35.8341 C31.7873,36.5461 31.7583,37.1841 31.7343,37.7311 L4.3353,37.7311 L2.4813,27.7171 Z M5.5453,27.7171 C6.4883,28.0211 7.4463,28.2771 8.4153,28.4821 C10.0813,28.8391 11.7683,29.0941 13.4663,29.2431 C14.9123,29.3701 16.3903,29.4331 17.8563,29.4331 C18.2413,29.4331 18.6253,29.4291 19.0083,29.4201 L19.0173,29.4201 L18.9933,33.2261 C11.0023,33.0511 5.9613,30.0961 3.4203,26.8881 C4.1113,27.2061 4.8213,27.4841 5.5453,27.7171 L5.5453,27.7171 Z M12.1743,27.8291 C11.3663,27.7311 10.5783,27.6121 9.8153,27.4711 L11.0213,26.2321 L12.1743,27.8291 Z M9.7243,23.9231 C10.1153,23.5181 10.6653,23.3081 11.2263,23.3481 C11.7873,23.3891 12.3013,23.6761 12.6303,24.1331 L15.5123,28.1091 C14.9603,28.0821 14.4103,28.0451 13.8633,28.0021 L12.0533,25.4901 C11.8343,25.1851 11.4903,24.9911 11.1153,24.9631 C10.7393,24.9351 10.3713,25.0751 10.1093,25.3461 L8.3433,27.1671 C7.8543,27.0571 7.3793,26.9371 6.9223,26.8091 L9.7243,23.9231 Z M19.6003,26.8401 C20.0133,26.6131 20.5143,26.6161 20.9253,26.8491 C21.3683,27.1581 21.6123,27.6801 21.5663,28.2181 L21.5283,33.6611 L21.5473,35.1871 C21.5503,35.3541 21.4873,35.5151 21.3703,35.6351 C21.2523,35.7571 21.0903,35.8261 20.9203,35.8281 L20.9093,35.8281 C20.5643,35.8261 20.2843,35.5491 20.2793,35.2041 L20.2593,33.8481 L20.2913,28.8001 L20.2913,28.7951 C20.2873,28.7541 20.2793,28.7141 20.2673,28.6751 C20.2633,28.6321 20.2543,28.5901 20.2423,28.5491 C20.2233,28.5131 20.2013,28.4801 20.1753,28.4481 C20.1563,28.4121 20.1333,28.3781 20.1073,28.3471 C20.0773,28.3231 20.0453,28.3021 20.0123,28.2831 C19.9803,28.2561 19.9433,28.2321 19.9063,28.2111 C19.8683,28.1991 19.8283,28.1921 19.7893,28.1871 C19.7483,28.1741 19.7053,28.1651 19.6623,28.1601 L19.6573,28.1601 C19.4603,28.1651 19.2523,28.1601 19.0153,28.1541 C18.3643,28.1691 17.7133,28.1671 17.0643,28.1541 L19.6003,26.8401 Z M26.9573,24.4121 C28.1833,24.4121 29.1773,25.4061 29.1773,26.6321 C29.1733,26.8631 29.1333,27.0891 29.0583,27.3061 C27.7683,27.5751 26.4653,27.7771 25.1543,27.9101 C24.8843,27.5391 24.7383,27.0921 24.7373,26.6321 C24.7373,25.4061 25.7313,24.4121 26.9573,24.4121 L26.9573,24.4121 Z M33.2993,30.0031 C34.1353,29.3381 34.8963,28.5831 35.5693,27.7531 L33.7223,37.7321 L33.0033,37.7321 C33.0243,37.1991 33.0553,36.5841 33.0883,35.8981 C33.1723,34.2111 33.2743,32.1301 33.2993,30.0031 L33.2993,30.0031 Z M22.8313,29.3631 C23.5833,29.3241 24.2783,29.2741 24.9383,29.2101 C26.5283,29.0621 28.1073,28.8171 29.6673,28.4771 C31.3713,28.1311 33.0333,27.6021 34.6233,26.8981 C32.5113,29.5711 28.6683,32.0701 22.8023,32.9191 L22.8313,29.3631 Z M26.0053,13.6311 C25.6553,13.6311 25.3713,13.3471 25.3713,12.9971 C25.3713,12.6471 25.6553,12.3631 26.0053,12.3631 C26.3563,12.3631 26.6403,12.6471 26.6403,12.9971 C26.6403,13.3471 26.3563,13.6311 26.0053,13.6311 L26.0053,13.6311 Z M29.1773,11.0941 C29.5273,11.0941 29.8113,11.3781 29.8113,11.7291 C29.8113,12.0781 29.5273,12.3631 29.1773,12.3631 C28.8263,12.3631 28.5433,12.0781 28.5433,11.7291 C28.5433,11.3781 28.8263,11.0941 29.1773,11.0941 L29.1773,11.0941 Z M37.4213,37.7321 L35.0113,37.7321 L36.7393,28.4021 C36.7393,28.3981 36.7433,28.3951 36.7443,28.3901 L37.1493,26.1891 L38.0443,21.3601 C38.0983,21.0201 37.8723,20.6981 37.5333,20.6361 C37.1943,20.5731 36.8683,20.7921 36.7963,21.1291 L36.2353,24.1561 L36.2233,24.1781 C36.2053,24.1971 36.1883,24.2191 36.1723,24.2401 C35.9213,24.7481 34.9383,25.4431 33.2503,26.1061 C33.2373,24.1551 32.9173,22.2191 32.2983,20.3691 C31.5773,18.5601 30.6863,16.8211 29.6383,15.1781 C29.2803,14.5971 28.9713,14.0951 28.7103,13.5681 C29.6033,13.7951 30.5303,13.3501 30.9123,12.5121 C31.2933,11.6741 31.0193,10.6831 30.2623,10.1591 C29.5053,9.6351 28.4813,9.7291 27.8323,10.3811 C27.7763,9.9171 27.7343,9.3981 27.7053,8.8101 C33.3203,7.7271 35.6403,14.0861 35.7393,14.3641 C35.8293,14.6181 36.0683,14.7881 36.3373,14.7881 C36.4093,14.7881 36.4803,14.7761 36.5473,14.7511 C36.8773,14.6361 37.0503,14.2751 36.9353,13.9451 C36.9153,13.8691 34.4333,7.0351 28.4713,7.4361 C29.1223,6.6391 30.0483,6.1151 31.0673,5.9691 C33.7153,5.6741 36.3023,8.3341 36.3323,8.3611 C36.5733,8.6141 36.9743,8.6241 37.2283,8.3821 C37.4823,8.1411 37.4923,7.7391 37.2503,7.4861 C37.1273,7.3591 34.2103,4.3511 30.9363,4.7091 C29.9003,4.8331 28.9293,5.2751 28.1553,5.9741 C28.7833,4.2041 30.1723,2.8101 31.9403,2.1751 C32.1613,2.1011 32.3233,1.9131 32.3653,1.6851 C32.4063,1.4571 32.3193,1.2241 32.1373,1.0781 C31.9573,0.9331 31.7103,0.8981 31.4963,0.9881 C29.3953,1.7441 27.7423,3.4001 26.9863,5.5021 C25.8873,2.9071 23.4253,1.1481 20.6153,0.9471 C20.2693,0.9471 19.9843,1.2201 19.9683,1.5661 C19.9643,1.7341 20.0273,1.8971 20.1443,2.0191 C20.2603,2.1401 20.4203,2.2111 20.5883,2.2151 C22.8183,2.3741 24.7823,3.7401 25.7053,5.7761 C21.9793,2.6281 17.5413,4.6671 17.4893,4.6921 C17.1723,4.8421 17.0383,5.2201 17.1883,5.5371 C17.3383,5.8531 17.7163,5.9881 18.0333,5.8381 C18.2013,5.7571 21.4583,4.2641 24.4433,6.3961 C23.3123,6.0531 22.0993,6.0921 20.9913,6.5051 C17.9593,7.7001 16.9843,11.5581 16.9443,11.7221 C16.9043,11.8851 16.9303,12.0581 17.0183,12.2011 C17.1053,12.3451 17.2463,12.4481 17.4093,12.4881 C17.4593,12.5001 17.5103,12.5061 17.5613,12.5061 C17.8533,12.5061 18.1073,12.3071 18.1763,12.0231 C18.1843,11.9891 19.0283,8.6421 21.4563,7.6851 C22.5883,7.2401 23.9193,7.3901 25.4223,8.1131 C23.2613,8.9391 19.5203,11.2451 18.6923,17.4731 C18.6573,17.7001 18.7473,17.9291 18.9283,18.0711 C19.1093,18.2121 19.3533,18.2441 19.5653,18.1551 C19.7773,18.0671 19.9243,17.8691 19.9493,17.6411 C20.7933,11.2921 24.8243,9.5391 26.4523,9.0861 C26.4893,9.8021 26.5643,10.5151 26.6763,11.2231 C25.7513,10.8691 24.7103,11.2851 24.2823,12.1791 C23.8553,13.0721 24.1843,14.1451 25.0403,14.6441 C25.8963,15.1431 26.9913,14.9021 27.5583,14.0901 C27.8483,14.6841 28.1853,15.2321 28.5623,15.8441 C29.5723,17.4271 30.4303,19.1021 31.1263,20.8451 C31.6043,22.0261 31.8963,23.9481 31.9993,26.5471 C31.5153,26.7011 30.9903,26.8511 30.4253,26.9911 C30.4383,26.8721 30.4443,26.7521 30.4453,26.6321 C30.4453,24.7061 28.8833,23.1441 26.9573,23.1441 C25.0303,23.1441 23.4693,24.7061 23.4693,26.6321 C23.4713,27.1151 23.5753,27.5931 23.7733,28.0341 C23.4673,28.0561 23.1543,28.0761 22.8273,28.0931 C22.8413,27.1551 22.3713,26.2761 21.5843,25.7651 C20.7943,25.3031 19.8233,25.2841 19.0163,25.7141 L16.3523,27.0991 L13.6613,23.3881 C13.1133,22.6271 12.2553,22.1501 11.3203,22.0821 C10.3853,22.0141 9.4683,22.3641 8.8163,23.0381 L5.5703,26.3791 C3.2923,25.5881 2.0633,24.7201 1.8653,24.1891 C1.8503,24.1591 1.8323,24.1311 1.8133,24.1041 L1.2603,21.1231 C1.2243,20.8961 1.0673,20.7061 0.8513,20.6271 C0.6343,20.5491 0.3923,20.5931 0.2183,20.7441 C0.0443,20.8961 -0.0337,21.1281 0.0133,21.3541 L3.0473,37.7321 L0.6373,37.7321 C0.2873,37.7321 0.0023,38.0161 0.0023,38.3651 C0.0023,38.7161 0.2873,39.0001 0.6373,39.0001 L37.4213,39.0001 C37.7723,39.0001 38.0553,38.7161 38.0553,38.3651 C38.0553,38.0161 37.7723,37.7321 37.4213,37.7321 L37.4213,37.7321 Z" id="Fill-1" fill="#F8E9DF" mask="url(#mask-2)"></path>
            </g>
            <path d="M8.2479,6.0819 C9.6489,6.0819 10.7849,7.2179 10.7849,8.6189 C10.7849,10.0199 9.6489,11.1559 8.2479,11.1559 C6.8469,11.1559 5.7109,10.0199 5.7109,8.6189 C5.7109,7.2179 6.8469,6.0819 8.2479,6.0819 M8.2479,12.4239 C10.3499,12.4239 12.0529,10.7209 12.0529,8.6189 C12.0529,6.5179 10.3499,4.8139 8.2479,4.8139 C6.1459,4.8139 4.4419,6.5179 4.4419,8.6189 C4.4449,10.7199 6.1469,12.4219 8.2479,12.4239" id="Fill-4" fill="#F8E9DF"></path>
            <path d="M7.6132,14.3265 L7.6132,15.5955 C7.6132,15.9455 7.8972,16.2295 8.2482,16.2295 C8.5982,16.2295 8.8822,15.9455 8.8822,15.5955 L8.8822,14.3265 C8.8822,13.9765 8.5982,13.6925 8.2482,13.6925 C7.8972,13.6925 7.6132,13.9765 7.6132,14.3265" id="Fill-6" fill="#F8E9DF"></path>
            <path d="M8.2479,3.5453 C8.5979,3.5453 8.8819,3.2613 8.8819,2.9113 L8.8819,1.6423 C8.8819,1.2923 8.5979,1.0083 8.2479,1.0083 C7.8969,1.0083 7.6129,1.2923 7.6129,1.6423 L7.6129,2.9113 C7.6129,3.2613 7.8969,3.5453 8.2479,3.5453" id="Fill-8" fill="#F8E9DF"></path>
            <path d="M1.2714,9.2533 L2.5404,9.2533 C2.8904,9.2533 3.1744,8.9693 3.1744,8.6183 C3.1744,8.2693 2.8904,7.9843 2.5404,7.9843 L1.2714,7.9843 C0.9214,7.9843 0.6374,8.2693 0.6374,8.6183 C0.6374,8.9693 0.9214,9.2533 1.2714,9.2533" id="Fill-10" fill="#F8E9DF"></path>
            <path d="M13.3212,8.6185 C13.3212,8.9695 13.6052,9.2535 13.9562,9.2535 L15.2242,9.2535 C15.5742,9.2535 15.8582,8.9695 15.8582,8.6185 C15.8582,8.2685 15.5742,7.9845 15.2242,7.9845 L13.9562,7.9845 C13.6052,7.9845 13.3212,8.2685 13.3212,8.6185" id="Fill-12" fill="#F8E9DF"></path>
            <path d="M3.7631,12.2064 L2.8661,13.1034 C2.7011,13.2634 2.6361,13.4984 2.6931,13.7204 C2.7511,13.9414 2.9251,14.1154 3.1461,14.1734 C3.3681,14.2304 3.6041,14.1654 3.7631,14.0004 L4.6601,13.1034 C4.9001,12.8544 4.8971,12.4594 4.6521,12.2144 C4.4081,11.9704 4.0121,11.9664 3.7631,12.2064" id="Fill-14" fill="#F8E9DF"></path>
            <path d="M12.2836,5.2171 C12.4516,5.2171 12.6136,5.1501 12.7326,5.0311 L13.6296,4.1341 C13.8696,3.8851 13.8666,3.4901 13.6216,3.2451 C13.3766,3.0011 12.9816,2.9971 12.7326,3.2381 L11.8356,4.1341 C11.6546,4.3161 11.5996,4.5881 11.6986,4.8251 C11.7966,5.0621 12.0276,5.2171 12.2836,5.2171" id="Fill-16" fill="#F8E9DF"></path>
            <path d="M3.7631,5.0311 C4.0121,5.2711 4.4081,5.2681 4.6521,5.0241 C4.8971,4.7791 4.9001,4.3831 4.6601,4.1341 L3.7631,3.2381 C3.5141,2.9971 3.1181,3.0011 2.8741,3.2451 C2.6291,3.4901 2.6261,3.8851 2.8661,4.1341 L3.7631,5.0311 Z" id="Fill-18" fill="#F8E9DF"></path>
            <path d="M11.8353,12.2064 C11.5873,12.4544 11.5873,12.8554 11.8353,13.1034 L12.7323,14.0004 C12.9813,14.2404 13.3763,14.2374 13.6213,13.9924 C13.8663,13.7484 13.8693,13.3524 13.6293,13.1034 L12.7323,12.2064 C12.4843,11.9594 12.0833,11.9594 11.8353,12.2064" id="Fill-20" fill="#F8E9DF"></path>
        </g>
    </g>
</svg>