<?xml version="1.0" encoding="UTF-8"?>
<svg width="62px" height="31px" viewBox="0 0 62 31" version="1.1" xmlns="http://www.w3.org/2000/svg" xmlns:xlink="http://www.w3.org/1999/xlink">
    <!-- Generator: Sketch 61.1 (89650) - https://sketch.com -->
    <title>Group 23</title>
    <desc>Created with Sketch.</desc>
    <defs>
        <polygon id="path-1" points="0.514292724 0.548584607 8.38929272 0.548584607 8.38929272 7.40572746 0.514292724 7.40572746"></polygon>
        <polygon id="path-3" points="0.474316653 0.677871066 12.3909833 0.677871066 12.3909833 10.5778711 0.474316653 10.5778711"></polygon>
    </defs>
    <g id="Page-1" stroke="none" stroke-width="1" fill="none" fill-rule="evenodd">
        <g id="Group-23" transform="translate(1.000000, -1.000000)">
            <path d="M11.1270214,10.1398644 C11.1982494,10.0076705 11.3639087,9.96159464 11.4944935,10.0345481 C11.6239991,10.106953 11.6698656,10.2753493 11.5986376,10.4075432 C11.393587,10.7810868 12.0859024,11.5539546 12.6837865,11.4447987 C12.8300199,11.4184696 12.9697781,11.5177521 12.9956792,11.6664016 C13.0221199,11.8150511 12.9244511,11.9571184 12.7782177,11.9834475 C11.9202431,12.1419704 10.5809394,11.1343351 11.1270214,10.1398644" id="Fill-1" stroke="#F8E9DF" stroke-width="0.5" fill="#F8E9DF"></path>
            <path d="M6.14439322,12.9739386 C6.00779965,12.9189388 5.96134678,12.793106 6.03434415,12.6931065 C6.38108166,12.2135252 7.12377458,12.0101928 7.7166017,12.0001928 C7.86978558,11.9951928 7.99642495,12.0881091 7.99974301,12.2010253 C8.00637914,12.3164414 7.88361083,12.4118577 7.73374502,12.4143577 C7.25373202,12.4243576 6.73722033,12.5922736 6.51767522,12.8910223 C6.44412484,12.9939385 6.27766872,13.029355 6.14439322,12.9739386" id="Fill-3" stroke="#F8E9DF" stroke-width="0.5" fill="#F8E9DF"></path>
            <path d="M0.203554167,6.60113065 C-0.357057515,5.79368366 0.347659829,4.944403 1.01985176,5.00285551 C1.31664618,5.03093564 1.78465077,5.09970331 1.93146689,5.47276789 C2.24452401,6.2561462 1.40067017,6.37018591 1.09890659,6.66302155 L1.11787975,6.6114458 C0.96293228,7.13293393 0.347659829,7.12949554 0.203554167,6.60113065" id="Fill-5" fill="#F8E9DF"></path>
            <path d="M18.236995,24.15797 C18.0862688,24.0779125 18.0374861,23.8917182 18.123794,23.744946 C18.2069748,23.5993869 18.3989787,23.5514737 18.5497049,23.6357767 C23.661886,26.4814575 30.2500577,26.6276231 36.0745919,26.2334005 C41.0285418,25.896795 46.8593302,24.8414914 49.9332683,20.8483195 L49.9107532,20.7537061 C49.9226362,20.6766811 49.9639139,20.6039015 50.0314592,20.5529558 C50.1671753,20.4504579 50.3635571,20.4759308 50.4686276,20.6075405 C52.1072274,22.6750865 55.847863,23.3507234 57.9730393,21.7325912 C59.0012294,20.9471784 59.8937034,19.3357177 58.9824668,18.4156627 C58.6022116,18.0317506 58.349542,18.1269705 57.9311362,18.5503049 C57.5809011,18.9123832 57.0461672,19.6832401 56.4845403,19.8506331 C54.8384355,20.3406821 52.9846913,18.3750275 52.3974222,17.3597526 C51.7157146,16.1722328 51.9414912,14.5686565 51.3385865,13.4836345 C50.8870335,12.66911 50.0577269,12.1208373 49.1458649,11.7957552 C47.3421543,11.1565081 46.9462636,9.64026725 46.2157733,8.31810524 C45.3414365,6.73272382 43.7853921,5.24923378 42.0492269,4.64698292 C41.2049102,4.35101271 40.3124362,4.32129439 39.6232236,4.79254204 C39.136647,5.12550853 38.8014221,5.66953574 38.7945424,6.18445113 L38.8395727,6.38580792 L38.9940513,6.31606084 C41.6008009,5.37356553 44.0111686,8.00394014 44.3169989,10.2140128 C44.6972541,12.9687191 43.1036846,15.3577082 40.6739288,16.5852568 C38.2591831,17.8055274 35.4003894,17.96261 32.7930144,17.8164444 C29.7534744,17.6484449 26.4643919,16.8957829 23.9477028,15.061738 C21.7668641,13.4690786 21.1414443,10.4553983 19.7361261,8.64318728 C18.907445,7.57272124 17.8042045,6.88980637 16.4589266,7.03597199 C14.9447854,7.19669352 13.6901933,8.110077 12.0891188,8.47154881 C8.69871826,9.23876668 5.99002528,6.49497726 3.76040385,4.85865014 C3.01803059,4.31401643 2.15119881,3.56559995 1.3944409,3.60926769 C0.697097871,3.64929645 0.592027352,4.58087482 0.633305056,5.47242443 C0.878469601,10.9484798 7.21834969,14.0901309 12.2773701,15.0435431 L12.3305308,15.0762939 L12.4731265,14.9816805 C12.6426153,14.9483232 12.8083515,15.05446 12.8427496,15.2188206 C13.3130652,17.461644 14.2705829,19.6650452 15.7847241,21.4147871 C15.8979251,21.5427578 15.8785371,21.7362302 15.7471989,21.842367 C15.6152354,21.9515364 15.4157265,21.9333415 15.306278,21.8053708 C14.1079737,20.4213461 13.2492724,18.7844125 12.6920234,17.0710604 L12.2998852,15.6100107 L12.1604166,15.6391225 C7.09013864,14.6857103 0.275564955,11.4524783 0.00788529807,5.50153626 C-0.0183823318,4.87320605 -0.0596600358,3.08282887 1.3562903,3.00277135 C2.41137343,2.94090873 3.53400189,3.93071075 4.13690654,4.37284658 C6.53976925,6.13714442 8.92449479,8.56312976 11.9458976,7.87960839 C13.3061856,7.57272124 14.8015643,6.60111411 16.3913813,6.43311463 C18.029981,6.25783719 19.3296033,7.10511257 20.2370874,8.27807648 C21.9701255,10.513622 22.1471193,12.986914 24.3248309,14.5759344 C26.7058039,16.3111205 29.8547924,17.0492265 32.8305396,17.213587 C35.4003894,17.3524747 38.1203399,17.1917531 40.3843595,16.047901 C42.6258639,14.9155724 44.0380617,12.7491675 43.6990842,10.2946768 C43.3901268,8.06580277 40.9566185,5.88848092 38.7751544,7.0832787 C38.6169232,7.16758169 38.4174143,7.10875155 38.3386114,6.94863652 C37.8489078,5.93639413 38.4818326,4.8331773 39.261731,4.29946052 C40.1842251,3.66385236 41.3224891,3.74815535 42.2599933,4.07323739 C44.1737778,4.74159635 45.8348927,6.34517266 46.7655173,8.02941299 C47.5904459,9.52018098 47.8462426,10.6888994 49.3610092,11.2262552 C50.3635571,11.580449 51.3385865,12.2087792 51.8889559,13.1949423 C52.6500918,14.5613785 52.254201,15.8653456 52.944039,17.0637824 C53.5538233,18.1196925 55.1661554,19.609854 56.303794,19.2702161 C56.654029,19.1677182 56.9442238,18.6782756 57.4795831,18.1342484 C57.9536513,17.6520838 58.6509943,17.206309 59.4308928,17.9953608 C60.8205755,19.3945478 59.3514645,21.4511769 58.357047,22.2074778 C56.2287436,23.832888 52.8001925,23.4313874 50.7588224,21.765342 L50.329159,21.3347296 L49.7869201,21.9703378 C46.4152822,25.575352 40.7527317,26.5214863 36.1196221,26.8356514 C30.2807033,27.2341195 23.5261699,27.1061487 18.236995,24.15797" id="Fill-7" stroke="#F8E9DF" stroke-width="0.5" fill="#F8E9DF"></path>
            <path d="M21.2095905,19.4541578 C18.6724061,17.1194577 17.2806775,13.6362309 17.0013135,10.3319791 C16.9854044,10.1647299 17.1158591,10.0159954 17.292132,10.0011837 C17.4645867,9.98637195 17.6179505,10.1122717 17.6332233,10.2832238 C17.901769,13.4733017 19.2470431,16.7997711 21.6467727,19.0042513 C22.8195921,20.0787194 24.3761391,20.7847455 25.8168678,20.1231546 C27.020869,19.565863 27.691597,18.1717082 27.1971419,16.9744261 C27.1315964,16.8182857 27.2124147,16.6362248 27.377233,16.5732749 C27.5382332,16.5097079 27.7259606,16.5880866 27.7908698,16.74793 C28.4234159,18.2871163 27.5535059,20.0046607 26.0892317,20.6804462 C24.2800481,21.5136064 22.4365008,20.580467 21.2095905,19.4541578" id="Fill-9" stroke="#F8E9DF" stroke-width="0.5" fill="#F8E9DF"></path>
            <path d="M10.2987088,29.8073071 C8.12730724,28.7739352 9.14579062,25.8360024 10.0075366,24.6162135 C11.4218903,22.6246579 13.9891623,21.9883544 16.2057885,22.0001608 C16.3773943,22.0001608 16.5155463,22.1381094 16.5118292,22.3102345 C16.5118292,22.4823596 16.3736772,22.6209296 16.2020714,22.6172012 C14.0641237,22.6097445 11.7539506,23.2311347 10.5155393,24.9784839 C9.58936367,26.2771894 9.07144877,28.5347 10.5638615,29.2461918 C11.328963,29.6090836 12.0414058,29.1859169 12.1423868,28.3588466 C12.2613338,27.3932062 12.0451229,26.4306728 13.1348505,25.5775041 C14.6421316,24.3987269 16.9857585,24.2266018 18.7284554,24.4590017 C18.9000612,24.4813718 19.0196277,24.6385835 18.9973251,24.8063589 C18.974403,24.9784839 18.8176656,25.0990336 18.6497769,25.0766636 C16.967173,24.8517203 14.8286057,25.0387588 13.515233,26.0677809 C12.690658,26.7121626 12.9037713,27.2471795 12.7581851,28.4334134 C12.6088819,29.6538237 11.4708321,30.3646941 10.2987088,29.8073071" id="Fill-11" stroke="#F8E9DF" stroke-width="0.5" fill="#F8E9DF"></path>
            <g id="Group-15" transform="translate(19.000000, 24.000000)">
                <mask id="mask-2" fill="white">
                    <use xlink:href="#path-1"></use>
                </mask>
                <g id="Clip-14"></g>
                <path d="M2.725275,5.28841558 C1.53549375,4.05350649 0.9704625,2.44581818 0.52749375,0.944103896 C0.47630625,0.778909091 0.57868125,0.606233766 0.75324375,0.561350649 C0.92715,0.512103896 1.10893125,0.609974026 1.15618125,0.775168831 C1.6030875,2.27688312 2.13661875,3.75241558 3.20761875,4.86763636 C4.0653375,5.75407792 5.429025,6.59127273 6.49215,6.06950649 C7.29868125,5.67490909 7.3544625,4.69122078 6.68180625,4.41755844 C6.3189,4.2667013 5.23543125,4.6507013 4.60674375,3.90264935 C4.18411875,3.40394805 4.19593125,2.56612987 4.29043125,2.08924675 C4.3225875,1.92031169 4.49649375,1.80748052 4.6743375,1.84176623 C4.85218125,1.87168831 4.97030625,2.03688312 4.93486875,2.20581818 C4.84824375,2.6452987 4.88368125,3.23812987 5.11730625,3.51615584 C5.53205625,4.008 6.06165,3.47875325 6.94693125,3.84280519 C8.437275,4.4587013 7.7613375,6.14867532 6.7927125,6.62181818 C5.25905625,7.3761039 3.55543125,6.15241558 2.725275,5.28841558" id="Fill-13" stroke="#F8E9DF" stroke-width="0.5" fill="#F8E9DF" mask="url(#mask-2)"></path>
            </g>
            <path d="M44.0194851,29.4827125 C44.0997603,28.9650963 44.5713769,28.6784268 44.8208989,28.5327424 C45.2965293,28.2534579 45.3727907,28.2695705 45.5259825,27.8452729 C45.8450763,26.9678093 45.8731726,25.9486895 45.5942164,25.0591415 C45.5420375,24.8852601 45.6390367,24.695266 45.816311,24.6382007 C45.9895716,24.5858349 46.1795561,24.6831816 46.2357488,24.8604199 C46.5575184,25.8882674 46.5254083,27.0611279 46.1548046,28.0755483 C45.9046137,28.7589897 45.6069266,28.8482802 45.1593925,29.1148089 C44.8730778,29.280634 44.7078447,29.4263185 44.6797484,29.5881155 C44.5426117,30.4816916 46.5173808,30.4575228 47.1181067,30.0735066 C49.3176463,28.6743987 49.6721949,24.8892882 49.0761518,22.4146665 C49.0313315,22.2367569 49.1403719,22.0548192 49.322329,22.0098382 C49.4989344,21.9655287 49.6802225,22.0749599 49.7243738,22.2562262 C50.3371409,24.7879133 50.0675501,28.9932933 47.4766691,30.6394605 C46.6016697,31.1980295 43.7371841,31.3067893 44.0194851,29.4827125" id="Fill-16" stroke="#F8E9DF" stroke-width="0.5" fill="#F8E9DF"></path>
            <path d="M0.190106168,6.83696844 C0.0388721433,6.76431509 -0.0406303282,6.56046249 0.020939255,6.37847643 C0.0819110752,6.20001723 0.254664566,6.10620271 0.409485168,6.17815069 C1.15130898,6.52237238 2.10533864,6.06388037 2.42992392,5.20967449 C2.49448232,5.03121529 2.67082238,4.95080284 2.82205641,5.03121529 C2.97329043,5.1073955 3.04203317,5.31618571 2.97329043,5.4946449 C2.51958836,6.69659934 1.22662711,7.31732699 0.190106168,6.83696844" id="Fill-18" fill="#F8E9DF"></path>
            <g id="Group-22" transform="translate(18.000000, 0.000000)">
                <mask id="mask-4" fill="white">
                    <use xlink:href="#path-3"></use>
                </mask>
                <g id="Clip-21"></g>
                <path d="M3.31162963,10.3734538 C3.14491667,10.3177663 3.05403704,10.1346163 3.10880556,9.966935 C3.16297222,9.79554125 3.34051852,9.70272875 3.50362037,9.75841625 C5.61010185,10.45946 8.04278704,8.8940225 9.2495,7.0377725 C10.2178796,5.55462875 10.431537,3.50471 9.03584259,2.37549125 C8.36899074,1.83099125 7.78158333,2.34579125 7.14000926,3.195335 C5.8382037,4.92102875 3.90625926,9.184835 0.64362037,7.447385 C0.491351852,7.36571 0.429361111,7.16832875 0.509407407,7.0080725 C0.589453704,6.85152875 0.781444444,6.78841625 0.937324074,6.87009125 C3.58727778,8.28641 5.04075,4.92102875 6.63987037,2.8005725 C7.17973148,2.08467875 8.20588889,0.87687875 9.42764815,1.868735 C11.2109352,3.31104125 10.8155185,5.803985 9.77551852,7.3991225 C8.49598148,9.35994125 5.80931481,11.204435 3.31162963,10.3734538" id="Fill-20" stroke="#F8E9DF" stroke-width="0.5" fill="#F8E9DF" mask="url(#mask-4)"></path>
            </g>
        </g>
    </g>
</svg>