<?xml version="1.0" encoding="UTF-8"?>
<svg width="35px" height="40px" viewBox="0 0 35 40" version="1.1" xmlns="http://www.w3.org/2000/svg" xmlns:xlink="http://www.w3.org/1999/xlink">
    <!-- Generator: Sketch 61.1 (89650) - https://sketch.com -->
    <title>Group 22</title>
    <desc>Created with Sketch.</desc>
    <defs>
        <polygon id="path-1" points="0 39.2292 34.131 39.2292 34.131 0.0002 0 0.0002"></polygon>
    </defs>
    <g id="Page-1" stroke="none" stroke-width="1" fill="none" fill-rule="evenodd">
        <g id="Group-22">
            <path d="M20.8197,39.2292 L12.2867,39.2292 L12.2867,37.8642 L20.8197,37.8642 C21.3847,37.8642 21.8437,37.4052 21.8437,36.8402 C21.8437,36.3292 21.4627,35.8932 20.9577,35.8262 L5.7347,33.7862 C5.6447,33.7742 5.5537,33.7682 5.4607,33.7682 C4.3317,33.7682 3.4127,34.6872 3.4127,35.8162 C3.4127,36.9452 4.3317,37.8642 5.4607,37.8642 L8.1917,37.8642 L8.1917,39.2292 L5.4607,39.2292 C3.5787,39.2292 2.0477,37.6982 2.0477,35.8162 C2.0477,33.9342 3.5787,32.4032 5.4607,32.4032 C5.6157,32.4032 5.7677,32.4132 5.9167,32.4332 L21.1387,34.4722 C22.3187,34.6292 23.2087,35.6472 23.2087,36.8402 C23.2087,38.1572 22.1367,39.2292 20.8197,39.2292" id="Fill-1" fill="#F8E9DF"></path>
            <mask id="mask-2" fill="white">
                <use xlink:href="#path-1"></use>
            </mask>
            <g id="Clip-4"></g>
            <polygon id="Fill-3" fill="#F8E9DF" mask="url(#mask-2)" points="9.557 39.2292 10.922 39.2292 10.922 37.8642 9.557 37.8642"></polygon>
            <path d="M28.6703,39.2292 L20.8193,39.2292 L20.8193,37.8642 L28.6703,37.8642 C29.7993,37.8642 30.7183,36.9452 30.7183,35.8162 C30.7183,34.6872 29.7993,33.7682 28.6703,33.7682 C28.5763,33.7682 28.4853,33.7742 28.3963,33.7862 L17.1583,35.2912 L16.9773,33.9382 L28.2143,32.4332 C28.3633,32.4132 28.5153,32.4032 28.6703,32.4032 C30.5523,32.4032 32.0833,33.9342 32.0833,35.8162 C32.0833,37.6982 30.5523,39.2292 28.6703,39.2292" id="Fill-5" fill="#F8E9DF" mask="url(#mask-2)"></path>
            <polygon id="Fill-6" fill="#F8E9DF" mask="url(#mask-2)" points="10.7865 33.7712 9.4325 33.5962 11.0855 20.7862 12.4395 20.9602"></polygon>
            <path d="M4.7391,33.863 L3.8401,32.835 L8.5241,28.737 C8.6141,28.657 8.6891,28.565 8.7471,28.46 L10.5611,25.242 L11.7501,25.912 L9.9401,29.124 C9.8101,29.361 9.6351,29.579 9.4231,29.764 L4.7391,33.863 Z" id="Fill-7" fill="#F8E9DF" mask="url(#mask-2)"></path>
            <path d="M17.0653,5.0983 C15.5593,5.0983 14.3353,6.3233 14.3353,7.8283 L14.3353,9.8763 C14.3353,11.3823 15.5593,12.6073 17.0653,12.6073 C18.5713,12.6073 19.7953,11.3823 19.7953,9.8763 L19.7953,7.8283 C19.7953,6.3233 18.5713,5.0983 17.0653,5.0983 M17.0653,13.9723 C14.8073,13.9723 12.9693,12.1353 12.9693,9.8763 L12.9693,7.8283 C12.9693,5.5703 14.8073,3.7333 17.0653,3.7333 C19.3243,3.7333 21.1613,5.5703 21.1613,7.8283 L21.1613,9.8763 C21.1613,12.1353 19.3243,13.9723 17.0653,13.9723" id="Fill-8" fill="#F8E9DF" mask="url(#mask-2)"></path>
            <path d="M2.389,35.1335 C1.072,35.1335 0,34.0615 0,32.7445 C0,32.0555 0.297,31.4005 0.817,30.9465 L5.571,26.7855 L9.091,17.9975 C9.589,16.7535 10.608,15.8075 11.886,15.3995 L13.847,14.7765 L14.88,12.6125 L16.112,13.2005 L14.824,15.8995 L12.3,16.7005 C11.412,16.9835 10.704,17.6405 10.359,18.5055 L6.716,27.5975 L1.715,31.9735 C1.493,32.1685 1.365,32.4485 1.365,32.7445 C1.365,33.3095 1.825,33.7685 2.389,33.7685 C2.57,33.7685 2.747,33.7215 2.903,33.6305 L3.588,34.8115 C3.225,35.0225 2.81,35.1335 2.389,35.1335" id="Fill-9" fill="#F8E9DF" mask="url(#mask-2)"></path>
            <polygon id="Fill-10" fill="#F8E9DF" mask="url(#mask-2)" points="23.3441 33.7712 21.6911 20.9602 23.0461 20.7862 24.6991 33.5962"></polygon>
            <path d="M29.3919,33.863 L24.7079,29.764 C24.4959,29.579 24.3209,29.361 24.1869,29.116 L22.3799,25.912 L23.5699,25.242 L25.3799,28.453 C25.4419,28.565 25.5159,28.657 25.6069,28.737 L30.2899,32.835 L29.3919,33.863 Z" id="Fill-11" fill="#F8E9DF" mask="url(#mask-2)"></path>
            <path d="M31.7415,35.1335 C31.3205,35.1335 30.9055,35.0225 30.5435,34.8115 L31.2285,33.6305 C31.3845,33.7215 31.5605,33.7685 31.7415,33.7685 C32.3055,33.7685 32.7655,33.3095 32.7655,32.7445 C32.7655,32.4485 32.6375,32.1685 32.4155,31.9735 L27.4145,27.5975 L23.7725,18.5055 C23.4265,17.6405 22.7195,16.9835 21.8305,16.7005 L19.3075,15.8995 L18.0185,13.2005 L19.2505,12.6125 L20.2845,14.7765 L22.2445,15.3995 C23.5225,15.8075 24.5415,16.7535 25.0405,17.9975 L28.5595,26.7855 L33.3135,30.9465 C33.8335,31.4005 34.1315,32.0555 34.1315,32.7445 C34.1315,34.0615 33.0585,35.1335 31.7415,35.1335" id="Fill-12" fill="#F8E9DF" mask="url(#mask-2)"></path>
            <path d="M24.0848,13.4186 L22.9158,12.7136 C23.5548,11.6546 23.8918,10.4376 23.8918,9.1936 C23.8918,6.4166 22.2318,3.9376 19.6638,2.8796 L20.1838,1.6176 C23.2658,2.8866 25.2568,5.8606 25.2568,9.1936 C25.2568,10.6866 24.8518,12.1466 24.0848,13.4186" id="Fill-13" fill="#F8E9DF" mask="url(#mask-2)"></path>
            <path d="M18.2074,2.4626 C17.8304,2.3996 17.4464,2.3676 17.0654,2.3676 L17.0654,1.0026 C17.5204,1.0026 17.9804,1.0406 18.4314,1.1156 L18.2074,2.4626 Z" id="Fill-14" fill="#F8E9DF" mask="url(#mask-2)"></path>
            <path d="M11.0633,5.9411 L9.8633,5.2891 C10.6093,3.9161 11.7263,2.7881 13.0933,2.0281 L13.7553,3.2221 C12.6163,3.8551 11.6853,4.7951 11.0633,5.9411" id="Fill-15" fill="#F8E9DF" mask="url(#mask-2)"></path>
            <path d="M10.6107,14.237 C9.4747,12.787 8.8737,11.043 8.8737,9.194 C8.8737,8.487 8.9647,7.785 9.1437,7.105 L10.4637,7.452 C10.3147,8.018 10.2387,8.605 10.2387,9.194 C10.2387,10.734 10.7387,12.187 11.6857,13.396 L10.6107,14.237 Z" id="Fill-16" fill="#F8E9DF" mask="url(#mask-2)"></path>
            <path d="M8.8758,1.968 L7.8518,1.065 C8.1628,0.713 8.4978,0.375 8.8458,0.06 L9.7608,1.074 C9.4498,1.354 9.1528,1.655 8.8758,1.968" id="Fill-17" fill="#F8E9DF" mask="url(#mask-2)"></path>
            <path d="M6.536,15.53 C5.386,13.624 4.778,11.432 4.778,9.194 C4.778,6.936 5.396,4.729 6.566,2.81 L7.731,3.52 C6.692,5.225 6.143,7.187 6.143,9.194 C6.143,11.184 6.683,13.132 7.705,14.825 L6.536,15.53 Z" id="Fill-18" fill="#F8E9DF" mask="url(#mask-2)"></path>
            <path d="M26.703,16.8171 L25.632,15.9691 C26.151,15.3141 26.594,14.6011 26.95,13.8481 L28.184,14.4311 C27.785,15.2781 27.286,16.0801 26.703,16.8171" id="Fill-19" fill="#F8E9DF" mask="url(#mask-2)"></path>
            <path d="M28.8451,12.7028 L27.5351,12.3138 C27.8351,11.3058 27.9871,10.2558 27.9871,9.1938 C27.9871,7.1808 27.4351,5.2118 26.3891,3.5028 L27.5541,2.7898 C28.7311,4.7148 29.3531,6.9288 29.3531,9.1938 C29.3531,10.3878 29.1811,11.5678 28.8451,12.7028" id="Fill-20" fill="#F8E9DF" mask="url(#mask-2)"></path>
            <path d="M25.1991,1.9045 C24.9201,1.5925 24.6211,1.2965 24.3111,1.0225 L25.2171,0.0005 C25.5651,0.3085 25.9011,0.6425 26.2151,0.9925 L25.1991,1.9045 Z" id="Fill-21" fill="#F8E9DF" mask="url(#mask-2)"></path>
        </g>
    </g>
</svg>