<?xml version="1.0" encoding="UTF-8"?>
<svg width="47px" height="42px" viewBox="0 0 47 42" version="1.1" xmlns="http://www.w3.org/2000/svg" xmlns:xlink="http://www.w3.org/1999/xlink">
    <!-- Generator: Sketch 61.1 (89650) - https://sketch.com -->
    <title>Group 13</title>
    <desc>Created with Sketch.</desc>
    <g id="Page-1" stroke="none" stroke-width="1" fill="none" fill-rule="evenodd">
        <g id="Group-13" transform="translate(0.969697, 1.000000)">
            <path d="M31.8123425,10.277809 C36.1635139,6.60573584 40.8368028,6.86524632 46.030303,14.8435714 C42.118383,15.2993367 37.2418327,18.6664851 31.030303,11.2542172 C33.9328065,11.2347539 36.0756636,10.5016368 40.7041661,12.7090978 C38.3804408,10.9541582 35.4624344,9.66958137 31.8123425,10.277809" id="Fill-1" fill="#F8E9DF"></path>
            <path d="M30.393803,19.0226802 C30.129803,19.0986802 29.977803,19.3736802 30.052803,19.6366802 C30.128803,19.9006802 30.403803,20.0526802 30.666803,19.9776802 C30.930803,19.9016802 31.082803,19.6266802 31.007803,19.3626802 C30.931803,19.0996802 30.656803,18.9466802 30.393803,19.0226802" id="Fill-3" fill="#F8E9DF"></path>
            <path d="M30.393803,19.0226802 C30.129803,19.0986802 29.977803,19.3736802 30.052803,19.6366802 C30.128803,19.9006802 30.403803,20.0526802 30.666803,19.9776802 C30.930803,19.9016802 31.082803,19.6266802 31.007803,19.3626802 C30.931803,19.0996802 30.656803,18.9466802 30.393803,19.0226802" id="Fill-5" fill="#F8E9DF"></path>
            <path d="M26.818319,32.1862408 C46.882242,11.7414442 15.3343402,-2.32871563 8.17337337,17.2968857 C7.2865125,19.4685424 6.24314677,25.004688 5.01371415,26.3027704 C-6.98151386,39.0222229 16.252502,42.9234866 26.818319,32.1862408 M27.8390784,33.2615441 C15.5795311,45.8178593 -9.53428201,39.4993559 3.85383925,25.2134337 C4.63114672,24.2977594 5.97534957,18.5072598 6.68831615,16.7408153 C10.9122084,5.1563077 22.7231085,4.09854602 29.67888,9.08212963 C31.3969556,6.98414794 32.6472555,3.85822538 32.0629707,0.991919282 C31.8821206,-0.150042326 34.2714282,-0.358787997 34.4627119,0.642840388 C35.1391607,4.08100437 33.1706773,7.42268926 30.9778703,10.1837454 C36.1460086,14.8638585 37.6154153,23.5803058 27.8390784,33.2615441" id="Fill-7" fill="#F8E9DF"></path>
            <path d="M26.818319,32.1862408 C46.882242,11.7414442 15.3343402,-2.32871563 8.17337337,17.2968857 C7.2865125,19.4685424 6.24314677,25.004688 5.01371415,26.3027704 C-6.98151386,39.0222229 16.252502,42.9234866 26.818319,32.1862408 Z M27.8390784,33.2615441 C15.5795311,45.8178593 -9.53428201,39.4993559 3.85383925,25.2134337 C4.63114672,24.2977594 5.97534957,18.5072598 6.68831615,16.7408153 C10.9122084,5.1563077 22.7231085,4.09854602 29.67888,9.08212963 C31.3969556,6.98414794 32.6472555,3.85822538 32.0629707,0.991919282 C31.8821206,-0.150042326 34.2714282,-0.358787997 34.4627119,0.642840388 C35.1391607,4.08100437 33.1706773,7.42268926 30.9778703,10.1837454 C36.1460086,14.8638585 37.6154153,23.5803058 27.8390784,33.2615441 Z" id="Stroke-9" stroke="#F8E9DF" stroke-width="0.3"></path>
            <path d="M29.499894,22.511127 C29.8607358,21.5278094 31.3334538,22.0982422 30.9743385,23.0833707 C29.6846312,26.8862563 27.4936826,29.8778597 24.1390624,31.893389 C23.267172,32.391386 22.5506679,31.0187253 23.434644,30.3740457 C26.3541822,28.6102311 28.3845648,25.8938843 29.499894,22.511127" id="Fill-11" fill="#F8E9DF"></path>
        </g>
    </g>
</svg>