<?xml version="1.0" encoding="UTF-8"?>
<svg width="30px" height="41px" viewBox="0 0 30 41" version="1.1" xmlns="http://www.w3.org/2000/svg" xmlns:xlink="http://www.w3.org/1999/xlink">
    <!-- Generator: Sketch 61.1 (89650) - https://sketch.com -->
    <title>Group 61</title>
    <desc>Created with Sketch.</desc>
    <g id="Page-1" stroke="none" stroke-width="1" fill="none" fill-rule="evenodd">
        <g id="Group-61" transform="translate(1.000000, 1.000000)">
            <path d="M8.88138976,38.0860262 C8.57262575,38.0784944 8.27008682,37.973049 8.02481864,37.7872642 C6.2432005,36.4378142 4.74669107,34.7858362 3.57264082,32.8765213 C-1.61036149,24.435868 0.983007192,13.3176547 9.35325089,8.09057552 C11.7835224,6.57417022 13.901295,4.50166597 15.4787304,2.09901719 C15.6928732,1.77012797 15.984207,1.49145083 16.3178713,1.28809185 C16.9852,0.885139779 17.7882354,0.799779216 18.52404,1.0558609 C19.1054625,1.25921989 19.599734,1.66342726 19.9172131,2.19693078 C20.1898716,2.65637146 20.7974395,2.86851756 21.294201,2.67645629 C21.6589907,2.53586243 22.0561509,2.47811852 22.4445959,2.50950108 C23.8763645,2.6274995 24.9620186,3.93301399 24.8499671,5.35903751 C24.6221292,8.23116938 25.0217794,11.1786194 26.0053421,13.8863067 C26.7735171,15.9952147 27.1383068,18.2032916 27.0934863,20.4477723 C26.8955287,30.372193 18.7244876,38.284364 8.88138976,38.0860262 M26.8531981,13.5699705 C25.9132109,10.9878134 25.530991,8.17342547 25.7501138,5.43058974 C25.8783505,3.81376026 24.9072379,2.3136739 23.3858281,1.78519159 C23.1069445,1.68727801 22.8131207,1.62576819 22.5155618,1.60317275 C21.992655,1.55923716 21.4610331,1.63706591 20.9704968,1.82536127 C20.8410151,1.87682867 20.761334,1.84795671 20.6903681,1.72995829 C20.2658176,1.01318062 19.599734,0.467124082 18.8178638,0.194723463 C17.829321,-0.147974091 16.7474019,-0.0349968754 15.8534803,0.507293759 C15.4027844,0.778439075 15.0143394,1.15502979 14.7242506,1.59438563 C13.2190261,3.88907841 11.1971198,5.86743498 8.87765471,7.31479864 C0.0853505353,12.8054913 -2.63998986,24.4885907 2.80446585,33.3560468 C4.03703185,35.36202 5.60948727,37.0968479 7.48199159,38.5153396 C7.67870414,38.6647206 7.89907201,38.782719 8.13313505,38.8643137 C8.3684431,38.9459083 8.61371129,38.9898439 8.86271452,38.9961204 C19.2038188,39.2057559 27.7869603,30.8931435 27.996123,20.4666018 C28.0434336,18.1078886 27.6574786,15.7868345 26.8531981,13.5699705" id="Fill-1" fill="#F6E8DD"></path>
            <path d="M8.88138976,38.0860262 C8.57262575,38.0784944 8.27008682,37.973049 8.02481864,37.7872642 C6.2432005,36.4378142 4.74669107,34.7858362 3.57264082,32.8765213 C-1.61036149,24.435868 0.983007192,13.3176547 9.35325089,8.09057552 C11.7835224,6.57417022 13.901295,4.50166597 15.4787304,2.09901719 C15.6928732,1.77012797 15.984207,1.49145083 16.3178713,1.28809185 C16.9852,0.885139779 17.7882354,0.799779216 18.52404,1.0558609 C19.1054625,1.25921989 19.599734,1.66342726 19.9172131,2.19693078 C20.1898716,2.65637146 20.7974395,2.86851756 21.294201,2.67645629 C21.6589907,2.53586243 22.0561509,2.47811852 22.4445959,2.50950108 C23.8763645,2.6274995 24.9620186,3.93301399 24.8499671,5.35903751 C24.6221292,8.23116938 25.0217794,11.1786194 26.0053421,13.8863067 C26.7735171,15.9952147 27.1383068,18.2032916 27.0934863,20.4477723 C26.8955287,30.372193 18.7244876,38.284364 8.88138976,38.0860262 Z M26.8531981,13.5699705 C25.9132109,10.9878134 25.530991,8.17342547 25.7501138,5.43058974 C25.8783505,3.81376026 24.9072379,2.3136739 23.3858281,1.78519159 C23.1069445,1.68727801 22.8131207,1.62576819 22.5155618,1.60317275 C21.992655,1.55923716 21.4610331,1.63706591 20.9704968,1.82536127 C20.8410151,1.87682867 20.761334,1.84795671 20.6903681,1.72995829 C20.2658176,1.01318062 19.599734,0.467124082 18.8178638,0.194723463 C17.829321,-0.147974091 16.7474019,-0.0349968754 15.8534803,0.507293759 C15.4027844,0.778439075 15.0143394,1.15502979 14.7242506,1.59438563 C13.2190261,3.88907841 11.1971198,5.86743498 8.87765471,7.31479864 C0.0853505353,12.8054913 -2.63998986,24.4885907 2.80446585,33.3560468 C4.03703185,35.36202 5.60948727,37.0968479 7.48199159,38.5153396 C7.67870414,38.6647206 7.89907201,38.782719 8.13313505,38.8643137 C8.3684431,38.9459083 8.61371129,38.9898439 8.86271452,38.9961204 C19.2038188,39.2057559 27.7869603,30.8931435 27.996123,20.4666018 C28.0434336,18.1078886 27.6574786,15.7868345 26.8531981,13.5699705 Z" id="Stroke-3" stroke="#F8E9DF" stroke-width="0.3"></path>
            <path d="M18.713158,16.8820415 C19.0549019,16.9998486 19.2345215,17.3730989 19.1178854,17.7125234 C19.0000829,18.0542806 18.6268473,18.2350737 18.2862699,18.118433 C17.9456924,17.9994595 17.7649065,17.6273756 17.8827089,17.2867848 C17.999345,16.9461939 18.3725806,16.7642344 18.713158,16.8820415 M18.0098423,18.9174219 C18.7924706,19.1880283 19.6485797,18.771621 19.9180091,17.9889618 C20.1874385,17.2074691 19.7710476,16.3524927 18.9884193,16.0818863 C18.205791,15.8124462 17.3520146,16.23002 17.0825852,17.0103463 C16.8119894,17.791839 17.2283803,18.6479818 18.0098423,18.9174219" id="Fill-5" fill="#F6E8DD"></path>
            <path d="M12.7134339,16.8828924 C13.0540897,17.0006588 13.2349174,17.37378 13.1182544,17.7142531 C13.0004248,18.0535602 12.6271033,18.2366228 12.2864474,18.1188565 C11.9469581,18.0010901 11.7649639,17.6279688 11.8816268,17.2874957 C11.9994564,16.9481886 12.3739446,16.765126 12.7134339,16.8828924 M12.0099561,18.9175691 C12.7927647,19.188082 13.6479043,18.7706526 13.9173958,17.98943 C14.1880539,17.2082075 13.771567,16.3523606 12.9899251,16.0818477 C12.2059499,15.8125008 11.3519769,16.2299302 11.0824855,17.0111528 C10.8118274,17.7923754 11.2294808,18.6482222 12.0099561,18.9175691" id="Fill-7" fill="#F6E8DD"></path>
            <path d="M15.7134398,12.8811435 C16.0540968,12.9989099 16.2349251,13.3720312 16.1182617,13.7125043 C16.0004317,14.0518114 15.6271089,14.234874 15.2864518,14.1171076 C14.9469614,13.9993412 14.7661331,13.62622 14.8827965,13.2857469 C15.0006265,12.9452738 15.3727827,12.7633772 15.7134398,12.8811435 M15.0099596,14.9181523 C15.7927709,15.1874992 16.6490801,14.7700698 16.9174058,13.9888472 C17.1880649,13.2076246 16.7715766,12.3517778 15.9887653,12.0824309 C15.2059541,11.811918 14.3519781,12.2293474 14.0824857,13.01057 C13.8118267,13.7917925 14.2294816,14.6476394 15.0099596,14.9181523" id="Fill-9" fill="#F6E8DD"></path>
            <path d="M15.7138082,18.8813986 C16.0543992,18.9991832 16.2351923,19.3723622 16.1185516,19.712888 C15.999578,20.0534138 15.6274941,20.2341723 15.2869032,20.1175539 C14.9463122,19.9986031 14.7655191,19.6265903 14.8821598,19.2860645 C14.999967,18.9443725 15.3732173,18.763614 15.7138082,18.8813986 M14.0820044,19.010845 C13.8125643,19.7921885 14.2289717,20.6470016 15.0104646,20.9175563 C15.7931239,21.1881111 16.6481005,20.7706171 16.9175406,19.9892736 C17.1881471,19.206764 16.7705732,18.3519509 15.9890804,18.0825624 C15.2075875,17.8120076 14.3514445,18.2283354 14.0820044,19.010845" id="Fill-11" fill="#F6E8DD"></path>
            <path d="M14.2873479,24.1179338 C13.9455906,24.000122 13.7647974,23.6280235 13.8814381,23.2874191 C14.0004117,22.9456483 14.3724956,22.7648481 14.7130866,22.8826599 C15.0536775,23.0004717 15.2344706,23.3749031 15.1178299,23.714341 C15.0000228,24.0537789 14.6267724,24.2357456 14.2873479,24.1179338 M14.9906915,22.082473 C14.2068658,21.8118558 13.3518892,22.2294461 13.0824491,23.0098033 C12.8118426,23.7936598 13.2294165,24.6475036 14.0120758,24.9181207 C14.7935687,25.1875714 15.6485452,24.7699812 15.9179853,23.9884575 C16.1874254,23.2081003 15.771018,22.3519237 14.9906915,22.082473" id="Fill-13" fill="#F6E8DD"></path>
            <path d="M12.2865602,21.1201832 C11.9447365,21.0023761 11.7639083,20.6279594 11.8805717,20.2885349 C11.9995683,19.9479439 12.3717245,19.7659844 12.7123816,19.8837915 C13.0542053,20.0015987 13.2338669,20.374849 13.1172035,20.7154399 C12.9993735,21.0548644 12.6260507,21.2379904 12.2865602,21.1201832 M12.9900404,19.0824697 C12.2072291,18.8118632 11.3509199,19.229437 11.0825942,20.0097635 C10.8119351,20.7935892 11.2284234,21.6473993 12.0112347,21.9180058 C12.7940459,22.1874459 13.6480219,21.7710385 13.9175143,20.9883792 C14.1881733,20.2080528 13.7705184,19.3519098 12.9900404,19.0824697" id="Fill-15" fill="#F6E8DD"></path>
            <path d="M8.2865093,23.1189748 C7.94586572,23.0012084 7.76504465,22.6280871 7.88170341,22.2876139 C7.99952875,21.9494728 8.37167019,21.7675762 8.71231377,21.8841766 C9.05179076,22.001943 9.23377843,22.3762302 9.11828625,22.7143714 C9.00046091,23.0536785 8.62715288,23.2367412 8.2865093,23.1189748 M8.98996162,21.0819658 C8.20718134,20.8126189 7.35207264,21.2288823 7.0825909,22.011271 C6.81194258,22.7924936 7.22841435,23.6483406 8.01119463,23.9176875 C8.7939749,24.1882004 9.64908361,23.769605 9.91739875,22.9895483 C10.1880471,22.2094917 9.77157531,21.3524787 8.98996162,21.0819658" id="Fill-17" fill="#F6E8DD"></path>
            <path d="M10.2864415,27.1176961 C9.94578443,26.9998711 9.76495619,26.6277307 9.88161957,26.2882547 C10.0006162,25.9452789 10.3727724,25.7644584 10.7134294,25.8822834 C11.0529199,26.0001084 11.2349147,26.3745819 11.1182514,26.714058 C11.0004213,27.0547005 10.6270985,27.2355211 10.2864415,27.1176961 M11.9173955,26.9905384 C12.1880545,26.2077604 11.7715663,25.3526542 10.9899216,25.0820066 C10.2071104,24.8125257 9.35196784,25.2289962 9.08247544,26.0117742 C8.81181641,26.7933857 9.2294713,27.6484919 10.0111159,27.9179729 C10.7939272,28.1874538 11.6490697,27.7709833 11.9173955,26.9905384" id="Fill-19" fill="#F6E8DD"></path>
            <path d="M15.2857237,29.1194662 C14.9452226,29.0016413 14.7644772,28.6283345 14.8810871,28.2876921 C14.9988632,27.9482163 15.3731811,27.7650627 15.7125161,27.8828876 C16.051851,28.0007126 16.2337625,28.3751859 16.1171526,28.7146617 C15.9993765,29.0541375 15.6262247,29.2372912 15.2857237,29.1194662 M15.9900477,27.0826113 C15.207595,26.8119639 14.351678,27.2284343 14.082309,28.0088787 C13.8117739,28.7928228 14.2304036,29.6479286 15.0116903,29.9174094 C15.794143,30.1880568 16.6477278,29.7715864 16.9170968,28.9888089 C17.188798,28.2083645 16.7701683,27.3520921 15.9900477,27.0826113" id="Fill-21" fill="#F6E8DD"></path>
            <path d="M18.2865602,25.1182736 C17.9447365,25.0005072 17.7650749,24.625054 17.8817383,24.2869129 C17.9995683,23.9464398 18.3728911,23.7645432 18.7135482,23.8811435 C19.0542053,24.0000759 19.2350335,24.3731972 19.1183701,24.7125043 C19.0005401,25.0518114 18.6272173,25.23604 18.2865602,25.1182736 M18.9900404,23.0824309 C18.2072291,22.811918 17.3509199,23.2293474 17.0825942,24.01057 C16.8119351,24.7917925 17.2284234,25.6476394 18.0112347,25.9181523 C18.7940459,26.1874992 19.6480219,25.7700698 19.9175143,24.9888472 C20.1881733,24.2076246 19.7705184,23.3517778 18.9900404,23.0824309" id="Fill-23" fill="#F6E8DD"></path>
            <path d="M10.7320021,33.0684818 C10.356817,33.1155104 9.96515419,32.9795088 9.69770807,32.7100477 C8.09810136,31.1034491 6.94339319,29.0926588 6.36033528,26.8950251 C5.47307324,23.5521816 5.93698453,20.0606259 7.66714551,17.0647772 C9.39730649,14.0701994 12.1871118,11.9310338 15.5219496,11.0400325 C16.2457019,10.848105 16.9998747,10.8760679 17.7084168,11.1201082 C18.4156914,11.3654195 19.0279022,11.8115557 19.4766033,12.410217 C20.8417193,14.2252667 21.7074335,16.3758718 21.9824848,18.6307024 C22.850734,25.7218523 17.8034806,32.1990883 10.7320021,33.0684818 M20.2117632,11.8573133 C19.0900105,10.3625665 17.0860658,9.66984794 15.2861914,10.1515733 C11.7130604,11.1048557 8.72425486,13.3965465 6.87114471,16.6033885 C5.01676705,19.8102304 4.52116782,23.5521816 5.47180572,27.1327102 C6.0966917,29.4841401 7.32998594,31.6398293 9.04493671,33.3608218 C9.27689235,33.5959648 9.56335124,33.7751818 9.87262544,33.8819495 C10.1818996,33.9887171 10.5177917,34.0243063 10.8448111,33.9836329 C18.4182264,33.0519583 23.8241873,26.1146046 22.8963647,18.5201216 C22.6010332,16.1038685 21.6744781,13.8020093 20.2117632,11.8573133" id="Fill-25" fill="#F6E8DD"></path>
            <path d="M10.7320021,33.0684818 C10.356817,33.1155104 9.96515419,32.9795088 9.69770807,32.7100477 C8.09810136,31.1034491 6.94339319,29.0926588 6.36033528,26.8950251 C5.47307324,23.5521816 5.93698453,20.0606259 7.66714551,17.0647772 C9.39730649,14.0701994 12.1871118,11.9310338 15.5219496,11.0400325 C16.2457019,10.848105 16.9998747,10.8760679 17.7084168,11.1201082 C18.4156914,11.3654195 19.0279022,11.8115557 19.4766033,12.410217 C20.8417193,14.2252667 21.7074335,16.3758718 21.9824848,18.6307024 C22.850734,25.7218523 17.8034806,32.1990883 10.7320021,33.0684818 Z M20.2117632,11.8573133 C19.0900105,10.3625665 17.0860658,9.66984794 15.2861914,10.1515733 C11.7130604,11.1048557 8.72425486,13.3965465 6.87114471,16.6033885 C5.01676705,19.8102304 4.52116782,23.5521816 5.47180572,27.1327102 C6.0966917,29.4841401 7.32998594,31.6398293 9.04493671,33.3608218 C9.27689235,33.5959648 9.56335124,33.7751818 9.87262544,33.8819495 C10.1818996,33.9887171 10.5177917,34.0243063 10.8448111,33.9836329 C18.4182264,33.0519583 23.8241873,26.1146046 22.8963647,18.5201216 C22.6010332,16.1038685 21.6744781,13.8020093 20.2117632,11.8573133 Z" id="Stroke-27" stroke="#F8E9DF" stroke-width="0.3"></path>
            <path d="M12.2866324,30.1190838 C11.9459248,30.0013306 11.7650697,29.6270853 11.8817504,29.2878162 C11.9995979,28.9485471 12.3729761,28.7666709 12.7136837,28.8844241 C13.0532245,29.0021773 13.2340796,29.3752567 13.1173989,29.7133599 C13.0007182,30.0537949 12.6285068,30.236837 12.2866324,30.1190838 M12.9913837,28.0823033 C12.2072895,27.8118207 11.3520201,28.2303692 11.0824877,29.0103384 C10.8117885,29.7914734 11.2295053,30.6472244 12.011266,30.917707 C12.7941934,31.1881895 13.648296,30.7696411 13.9178284,29.988506 C14.1873608,29.2085368 13.7719775,28.35162 12.9913837,28.0823033" id="Fill-29" fill="#F6E8DD"></path>
            <path d="M8.88138976,38.0860262 C8.57262575,38.0784944 8.27008682,37.973049 8.02481864,37.7872642 C6.2432005,36.4378142 4.74669107,34.7858362 3.57264082,32.8765213 C-1.61036149,24.435868 0.983007192,13.3176547 9.35325089,8.09057552 C11.7835224,6.57417022 13.901295,4.50166597 15.4787304,2.09901719 C15.6928732,1.77012797 15.984207,1.49145083 16.3178713,1.28809185 C16.9852,0.885139779 17.7882354,0.799779216 18.52404,1.0558609 C19.1054625,1.25921989 19.599734,1.66342726 19.9172131,2.19693078 C20.1898716,2.65637146 20.7974395,2.86851756 21.294201,2.67645629 C21.6589907,2.53586243 22.0561509,2.47811852 22.4445959,2.50950108 C23.8763645,2.6274995 24.9620186,3.93301399 24.8499671,5.35903751 C24.6221292,8.23116938 25.0217794,11.1786194 26.0053421,13.8863067 C26.7735171,15.9952147 27.1383068,18.2032916 27.0934863,20.4477723 C26.8955287,30.372193 18.7244876,38.284364 8.88138976,38.0860262 M26.8531981,13.5699705 C25.9132109,10.9878134 25.530991,8.17342547 25.7501138,5.43058974 C25.8783505,3.81376026 24.9072379,2.3136739 23.3858281,1.78519159 C23.1069445,1.68727801 22.8131207,1.62576819 22.5155618,1.60317275 C21.992655,1.55923716 21.4610331,1.63706591 20.9704968,1.82536127 C20.8410151,1.87682867 20.761334,1.84795671 20.6903681,1.72995829 C20.2658176,1.01318062 19.599734,0.467124082 18.8178638,0.194723463 C17.829321,-0.147974091 16.7474019,-0.0349968754 15.8534803,0.507293759 C15.4027844,0.778439075 15.0143394,1.15502979 14.7242506,1.59438563 C13.2190261,3.88907841 11.1971198,5.86743498 8.87765471,7.31479864 C0.0853505353,12.8054913 -2.63998986,24.4885907 2.80446585,33.3560468 C4.03703185,35.36202 5.60948727,37.0968479 7.48199159,38.5153396 C7.67870414,38.6647206 7.89907201,38.782719 8.13313505,38.8643137 C8.3684431,38.9459083 8.61371129,38.9898439 8.86271452,38.9961204 C19.2038188,39.2057559 27.7869603,30.8931435 27.996123,20.4666018 C28.0434336,18.1078886 27.6574786,15.7868345 26.8531981,13.5699705" id="Fill-31" fill="#F6E8DD"></path>
            <path d="M18.713158,16.8820415 C19.0549019,16.9998486 19.2345215,17.3730989 19.1178854,17.7125234 C19.0000829,18.0542806 18.6268473,18.2350737 18.2862699,18.118433 C17.9456924,17.9994595 17.7649065,17.6273756 17.8827089,17.2867848 C17.999345,16.9461939 18.3725806,16.7642344 18.713158,16.8820415 M18.0098423,18.9174219 C18.7924706,19.1880283 19.6485797,18.771621 19.9180091,17.9889618 C20.1874385,17.2074691 19.7710476,16.3524927 18.9884193,16.0818863 C18.205791,15.8124462 17.3520146,16.23002 17.0825852,17.0103463 C16.8119894,17.791839 17.2283803,18.6479818 18.0098423,18.9174219" id="Fill-35" fill="#F6E8DD"></path>
            <path d="M12.7134339,16.8828924 C13.0540897,17.0006588 13.2349174,17.37378 13.1182544,17.7142531 C13.0004248,18.0535602 12.6271033,18.2366228 12.2864474,18.1188565 C11.9469581,18.0010901 11.7649639,17.6279688 11.8816268,17.2874957 C11.9994564,16.9481886 12.3739446,16.765126 12.7134339,16.8828924 M12.0099561,18.9175691 C12.7927647,19.188082 13.6479043,18.7706526 13.9173958,17.98943 C14.1880539,17.2082075 13.771567,16.3523606 12.9899251,16.0818477 C12.2059499,15.8125008 11.3519769,16.2299302 11.0824855,17.0111528 C10.8118274,17.7923754 11.2294808,18.6482222 12.0099561,18.9175691" id="Fill-37" fill="#F6E8DD"></path>
            <path d="M15.7134398,12.8811435 C16.0540968,12.9989099 16.2349251,13.3720312 16.1182617,13.7125043 C16.0004317,14.0518114 15.6271089,14.234874 15.2864518,14.1171076 C14.9469614,13.9993412 14.7661331,13.62622 14.8827965,13.2857469 C15.0006265,12.9452738 15.3727827,12.7633772 15.7134398,12.8811435 M15.0099596,14.9181523 C15.7927709,15.1874992 16.6490801,14.7700698 16.9174058,13.9888472 C17.1880649,13.2076246 16.7715766,12.3517778 15.9887653,12.0824309 C15.2059541,11.811918 14.3519781,12.2293474 14.0824857,13.01057 C13.8118267,13.7917925 14.2294816,14.6476394 15.0099596,14.9181523" id="Fill-39" fill="#F6E8DD"></path>
            <path d="M15.7138082,18.8813986 C16.0543992,18.9991832 16.2351923,19.3723622 16.1185516,19.712888 C15.999578,20.0534138 15.6274941,20.2341723 15.2869032,20.1175539 C14.9463122,19.9986031 14.7655191,19.6265903 14.8821598,19.2860645 C14.999967,18.9443725 15.3732173,18.763614 15.7138082,18.8813986 M14.0820044,19.010845 C13.8125643,19.7921885 14.2289717,20.6470016 15.0104646,20.9175563 C15.7931239,21.1881111 16.6481005,20.7706171 16.9175406,19.9892736 C17.1881471,19.206764 16.7705732,18.3519509 15.9890804,18.0825624 C15.2075875,17.8120076 14.3514445,18.2283354 14.0820044,19.010845" id="Fill-41" fill="#F6E8DD"></path>
            <path d="M14.2873479,24.1179338 C13.9455906,24.000122 13.7647974,23.6280235 13.8814381,23.2874191 C14.0004117,22.9456483 14.3724956,22.7648481 14.7130866,22.8826599 C15.0536775,23.0004717 15.2344706,23.3749031 15.1178299,23.714341 C15.0000228,24.0537789 14.6267724,24.2357456 14.2873479,24.1179338 M14.9906915,22.082473 C14.2068658,21.8118558 13.3518892,22.2294461 13.0824491,23.0098033 C12.8118426,23.7936598 13.2294165,24.6475036 14.0120758,24.9181207 C14.7935687,25.1875714 15.6485452,24.7699812 15.9179853,23.9884575 C16.1874254,23.2081003 15.771018,22.3519237 14.9906915,22.082473" id="Fill-43" fill="#F6E8DD"></path>
            <path d="M12.2865602,21.1201832 C11.9447365,21.0023761 11.7639083,20.6279594 11.8805717,20.2885349 C11.9995683,19.9479439 12.3717245,19.7659844 12.7123816,19.8837915 C13.0542053,20.0015987 13.2338669,20.374849 13.1172035,20.7154399 C12.9993735,21.0548644 12.6260507,21.2379904 12.2865602,21.1201832 M12.9900404,19.0824697 C12.2072291,18.8118632 11.3509199,19.229437 11.0825942,20.0097635 C10.8119351,20.7935892 11.2284234,21.6473993 12.0112347,21.9180058 C12.7940459,22.1874459 13.6480219,21.7710385 13.9175143,20.9883792 C14.1881733,20.2080528 13.7705184,19.3519098 12.9900404,19.0824697" id="Fill-45" fill="#F6E8DD"></path>
            <path d="M8.2865093,23.1189748 C7.94586572,23.0012084 7.76504465,22.6280871 7.88170341,22.2876139 C7.99952875,21.9494728 8.37167019,21.7675762 8.71231377,21.8841766 C9.05179076,22.001943 9.23377843,22.3762302 9.11828625,22.7143714 C9.00046091,23.0536785 8.62715288,23.2367412 8.2865093,23.1189748 M8.98996162,21.0819658 C8.20718134,20.8126189 7.35207264,21.2288823 7.0825909,22.011271 C6.81194258,22.7924936 7.22841435,23.6483406 8.01119463,23.9176875 C8.7939749,24.1882004 9.64908361,23.769605 9.91739875,22.9895483 C10.1880471,22.2094917 9.77157531,21.3524787 8.98996162,21.0819658" id="Fill-47" fill="#F6E8DD"></path>
            <path d="M10.2864415,27.1176961 C9.94578443,26.9998711 9.76495619,26.6277307 9.88161957,26.2882547 C10.0006162,25.9452789 10.3727724,25.7644584 10.7134294,25.8822834 C11.0529199,26.0001084 11.2349147,26.3745819 11.1182514,26.714058 C11.0004213,27.0547005 10.6270985,27.2355211 10.2864415,27.1176961 M11.9173955,26.9905384 C12.1880545,26.2077604 11.7715663,25.3526542 10.9899216,25.0820066 C10.2071104,24.8125257 9.35196784,25.2289962 9.08247544,26.0117742 C8.81181641,26.7933857 9.2294713,27.6484919 10.0111159,27.9179729 C10.7939272,28.1874538 11.6490697,27.7709833 11.9173955,26.9905384" id="Fill-49" fill="#F6E8DD"></path>
            <path d="M15.2857237,29.1194662 C14.9452226,29.0016413 14.7644772,28.6283345 14.8810871,28.2876921 C14.9988632,27.9482163 15.3731811,27.7650627 15.7125161,27.8828876 C16.051851,28.0007126 16.2337625,28.3751859 16.1171526,28.7146617 C15.9993765,29.0541375 15.6262247,29.2372912 15.2857237,29.1194662 M15.9900477,27.0826113 C15.207595,26.8119639 14.351678,27.2284343 14.082309,28.0088787 C13.8117739,28.7928228 14.2304036,29.6479286 15.0116903,29.9174094 C15.794143,30.1880568 16.6477278,29.7715864 16.9170968,28.9888089 C17.188798,28.2083645 16.7701683,27.3520921 15.9900477,27.0826113" id="Fill-51" fill="#F6E8DD"></path>
            <path d="M18.2865602,25.1182736 C17.9447365,25.0005072 17.7650749,24.625054 17.8817383,24.2869129 C17.9995683,23.9464398 18.3728911,23.7645432 18.7135482,23.8811435 C19.0542053,24.0000759 19.2350335,24.3731972 19.1183701,24.7125043 C19.0005401,25.0518114 18.6272173,25.23604 18.2865602,25.1182736 M18.9900404,23.0824309 C18.2072291,22.811918 17.3509199,23.2293474 17.0825942,24.01057 C16.8119351,24.7917925 17.2284234,25.6476394 18.0112347,25.9181523 C18.7940459,26.1874992 19.6480219,25.7700698 19.9175143,24.9888472 C20.1881733,24.2076246 19.7705184,23.3517778 18.9900404,23.0824309" id="Fill-53" fill="#F6E8DD"></path>
            <path d="M10.7320021,33.0684818 C10.356817,33.1155104 9.96515419,32.9795088 9.69770807,32.7100477 C8.09810136,31.1034491 6.94339319,29.0926588 6.36033528,26.8950251 C5.47307324,23.5521816 5.93698453,20.0606259 7.66714551,17.0647772 C9.39730649,14.0701994 12.1871118,11.9310338 15.5219496,11.0400325 C16.2457019,10.848105 16.9998747,10.8760679 17.7084168,11.1201082 C18.4156914,11.3654195 19.0279022,11.8115557 19.4766033,12.410217 C20.8417193,14.2252667 21.7074335,16.3758718 21.9824848,18.6307024 C22.850734,25.7218523 17.8034806,32.1990883 10.7320021,33.0684818 M20.2117632,11.8573133 C19.0900105,10.3625665 17.0860658,9.66984794 15.2861914,10.1515733 C11.7130604,11.1048557 8.72425486,13.3965465 6.87114471,16.6033885 C5.01676705,19.8102304 4.52116782,23.5521816 5.47180572,27.1327102 C6.0966917,29.4841401 7.32998594,31.6398293 9.04493671,33.3608218 C9.27689235,33.5959648 9.56335124,33.7751818 9.87262544,33.8819495 C10.1818996,33.9887171 10.5177917,34.0243063 10.8448111,33.9836329 C18.4182264,33.0519583 23.8241873,26.1146046 22.8963647,18.5201216 C22.6010332,16.1038685 21.6744781,13.8020093 20.2117632,11.8573133" id="Fill-55" fill="#F6E8DD"></path>
            <path d="M10.7320021,33.0684818 C10.356817,33.1155104 9.96515419,32.9795088 9.69770807,32.7100477 C8.09810136,31.1034491 6.94339319,29.0926588 6.36033528,26.8950251 C5.47307324,23.5521816 5.93698453,20.0606259 7.66714551,17.0647772 C9.39730649,14.0701994 12.1871118,11.9310338 15.5219496,11.0400325 C16.2457019,10.848105 16.9998747,10.8760679 17.7084168,11.1201082 C18.4156914,11.3654195 19.0279022,11.8115557 19.4766033,12.410217 C20.8417193,14.2252667 21.7074335,16.3758718 21.9824848,18.6307024 C22.850734,25.7218523 17.8034806,32.1990883 10.7320021,33.0684818 Z M20.2117632,11.8573133 C19.0900105,10.3625665 17.0860658,9.66984794 15.2861914,10.1515733 C11.7130604,11.1048557 8.72425486,13.3965465 6.87114471,16.6033885 C5.01676705,19.8102304 4.52116782,23.5521816 5.47180572,27.1327102 C6.0966917,29.4841401 7.32998594,31.6398293 9.04493671,33.3608218 C9.27689235,33.5959648 9.56335124,33.7751818 9.87262544,33.8819495 C10.1818996,33.9887171 10.5177917,34.0243063 10.8448111,33.9836329 C18.4182264,33.0519583 23.8241873,26.1146046 22.8963647,18.5201216 C22.6010332,16.1038685 21.6744781,13.8020093 20.2117632,11.8573133 Z" id="Stroke-57"></path>
            <path d="M12.2866324,30.1190838 C11.9459248,30.0013306 11.7650697,29.6270853 11.8817504,29.2878162 C11.9995979,28.9485471 12.3729761,28.7666709 12.7136837,28.8844241 C13.0532245,29.0021773 13.2340796,29.3752567 13.1173989,29.7133599 C13.0007182,30.0537949 12.6285068,30.236837 12.2866324,30.1190838 M12.9913837,28.0823033 C12.2072895,27.8118207 11.3520201,28.2303692 11.0824877,29.0103384 C10.8117885,29.7914734 11.2295053,30.6472244 12.011266,30.917707 C12.7941934,31.1881895 13.648296,30.7696411 13.9178284,29.988506 C14.1873608,29.2085368 13.7719775,28.35162 12.9913837,28.0823033" id="Fill-59" fill="#F6E8DD"></path>
        </g>
    </g>
</svg>